<svg xmlns="http://www.w3.org/2000/svg" viewBox="0 0 43.2 43.2">
<path fill="#333" d="M35.1,39.6h-27c-2.5,0-4.5-2-4.5-4.5v-27c0-2.5,2-4.5,4.5-4.5h27c2.5,0,4.5,2,4.5,4.5v27C39.6,37.6,37.6,39.6,35.1,39.6z"/>
<path fill="#991f1f" d="M27.7,11.4C27,12,26.1,13,24.8,14.3c-1.3,0-3.2,0-5.8,0c-0.6-0.6-1.6-1.6-2.9-2.9C18.7,11.4,22.5,11.4,27.7,11.4z M16.1,33c0.6-0.6,1.6-1.6,2.9-2.9c1.3,0,3.2,0,5.8,0c0.6,0.6,1.6,1.6,2.9,2.9C25.1,33,21.3,33,16.1,33zM16.9,22.2c0.3-0.3,0.8-0.8,1.4-1.4c1.6,0,4,0,7.2,0c0.3,0.3,0.8,0.8,1.4,1.4c-0.3,0.3-0.8,0.8-1.4,1.5c-1.6,0-4,0-7.2,0C18,23.3,17.5,22.8,16.9,22.2z M25.5,14.3c0.6-0.6,1.6-1.6,2.9-2.9c0,1.9,0,4.8,0,8.7c-0.3,0.3-0.8,0.8-1.5,1.4c-0.3-0.3-0.8-0.8-1.4-1.4C25.5,18.7,25.5,16.8,25.5,14.3z M25.5,24.3c0.3-0.3,0.8-0.8,1.4-1.4c0.3,0.3,0.8,0.8,1.5,1.4c0,1.9,0,4.8,0,8.7c-0.6-0.6-1.6-1.6-2.9-2.9C25.5,28.8,25.5,26.9,25.5,24.3z"/>
</svg>