<svg xmlns="http://www.w3.org/2000/svg" viewBox="0 0 43.2 43.2">
<path fill="#333" d="M35.1,39.6h-27c-2.5,0-4.5-2-4.5-4.5v-27c0-2.5,2-4.5,4.5-4.5h27c2.5,0,4.5,2,4.5,4.5v27C39.6,37.6,37.6,39.6,35.1,39.6z"/>
<path fill="#991f1f" d="M20.5,14.3c0.6-0.6,1.6-1.6,2.9-2.9c0,1.9,0,4.8,0,8.7c-0.3,0.3-0.8,0.8-1.4,1.4c-0.3-0.3-0.8-0.8-1.4-1.4C20.5,18.7,20.5,16.8,20.5,14.3z M20.5,24.3c0.3-0.3,0.8-0.8,1.4-1.4c0.3,0.3,0.8,0.8,1.4,1.4c0,1.9,0,4.8,0,8.7c-0.6-0.6-1.6-1.6-2.9-2.9C20.5,28.8,20.5,26.9,20.5,24.3z"/>
</svg>