<?xml version="1.0" standalone="no"?>
<!DOCTYPE svg PUBLIC "-//W3C//DTD SVG 20010904//EN"
 "http://www.w3.org/TR/2001/REC-SVG-20010904/DTD/svg10.dtd">
<svg version="1.0" xmlns="http://www.w3.org/2000/svg"
 width="264.000000pt" height="264.000000pt" viewBox="0 0 264.000000 264.000000"
 preserveAspectRatio="xMidYMid meet">
<metadata>
Created by potrace 1.11, written by Peter Selinger 2001-2013
</metadata>
<g transform="translate(0.000000,264.000000) scale(0.100000,-0.100000)"
fill="#000000" stroke="none">
<path d="M95 2623 c6 -6 60 -45 120 -88 300 -213 525 -446 629 -650 105 -207
47 -362 -170 -461 -171 -77 -206 -95 -274 -140 -252 -165 -392 -428 -393 -734
0 -133 8 -208 34 -307 12 -43 23 -88 26 -100 3 -12 14 -30 25 -40 18 -16 46
-18 343 -18 362 0 360 0 363 71 2 42 50 142 100 204 68 85 164 177 349 330 28
24 249 180 254 180 2 0 3 -33 2 -72 -2 -88 19 -197 54 -281 55 -131 178 -287
307 -392 l48 -39 324 -1 c310 0 324 1 343 20 11 11 22 38 26 60 3 23 7 50 9
62 20 100 27 369 14 488 -5 38 -10 92 -13 119 -9 83 -62 289 -98 383 -104 268
-226 456 -426 653 -235 233 -536 411 -931 550 -165 58 -484 133 -705 165 -22
4 -51 8 -65 11 -14 2 -47 6 -75 9 -27 4 -61 8 -75 10 -85 12 -154 16 -145 8z"/>
</g>
</svg>
