<?xml version="1.0" encoding="utf-8"?>
<!-- Generator: Adobe Illustrator 22.0.1, SVG Export Plug-In . SVG Version: 6.00 Build 0)  -->
<svg version="1.1" id="Layer_1" xmlns="http://www.w3.org/2000/svg" xmlns:xlink="http://www.w3.org/1999/xlink" x="0px" y="0px"
	 viewBox="0 0 144 144" style="enable-background:new 0 0 144 144;" xml:space="preserve">
<style type="text/css">
	.st0{fill:none;}
	.st1{fill:#991F1F;}
	.st2{fill:none;stroke:#FFFFFF;stroke-width:1.125;stroke-linecap:round;stroke-miterlimit:10;}
	.st3{fill:#333333;}
	.st4{fill:#FFFFFF;}
	.st5{fill:#333333;stroke:#FFFFFF;stroke-width:1.125;stroke-miterlimit:10;}
</style>
<g>
	<g>
		<circle class="st0" cx="72" cy="72" r="72"/>
	</g>
	<g>
		<g>
			<g id="XMLID_68_">
				<g>
					<g>
						<path class="st1" d="M83.9,45c0,0-8.6-5.7-5.7-14.3c0,0-14.3,8.6-14.3,14.3h-10c0,0-5.7-14.3,8.6-20s-5.7-20-5.7-20
							C102.5,10.7,93.9,45,93.9,45H83.9z"/>
					</g>
					<g>
						<path class="st2" d="M53.8,45c0,0-5.7-14.3,8.6-20s-5.7-20-5.7-20C102.5,10.7,93.9,45,93.9,45"/>
						<path class="st2" d="M63.9,45c0-5.7,14.3-14.3,14.3-14.3C75.3,39.3,83.9,45,83.9,45"/>
						<line class="st2" x1="83.9" y1="45" x2="93.9" y2="45"/>
						<line class="st2" x1="53.8" y1="45" x2="63.9" y2="45"/>
					</g>
				</g>
			</g>
			<g>
				<path class="st3" d="M50.6,108.6l-3.9-6.8c-1.8-0.8-3.6-1.8-5.4-3.1h-7.9l-7.1-12.3l3.9-6.8c-0.1-1.1-0.2-2.1-0.2-3.1
					s0.1-2,0.2-3.1l-3.9-6.8l7.1-12.3h7.9c1.7-1.3,3.5-2.3,5.4-3.1l3.9-6.8h14.1l3.9,6.8c1.8,0.8,3.6,1.8,5.4,3.1h7.9L89,66.6
					L85,73.4c0.1,1.1,0.2,2.1,0.2,3.1s-0.1,2-0.2,3.1l3.9,6.8l-7.1,12.3H74c-1.7,1.3-3.5,2.3-5.4,3.1l-3.9,6.8H50.6z M57.7,63.6
					c-7.1,0-12.9,5.8-12.9,12.9s5.8,12.9,12.9,12.9s12.9-5.8,12.9-12.9S64.8,63.6,57.7,63.6z"/>
				<path class="st4" d="M64.4,45l3.8,6.7c2,0.9,3.8,2,5.6,3.2h7.7l6.8,11.7l-3.9,6.7c0.1,1.1,0.2,2.1,0.2,3.2
					c0,1.1-0.1,2.2-0.2,3.2l3.9,6.7l-6.8,11.7h-7.7c-1.7,1.3-3.6,2.4-5.6,3.2l-3.8,6.7H50.9l-3.8-6.7c-2-0.9-3.8-2-5.6-3.2h-7.7
					L27,86.4l3.9-6.7c-0.1-1.1-0.2-2.1-0.2-3.2c0-1.1,0.1-2.2,0.2-3.2L27,66.6l6.7-11.7h7.7c1.7-1.3,3.6-2.4,5.6-3.2l3.8-6.7H64.4
					 M57.7,90c7.5,0,13.5-6,13.5-13.5c0-7.5-6-13.5-13.5-13.5s-13.5,6-13.5,13.5C44.2,84,50.2,90,57.7,90 M65.1,43.9h-0.6H50.9h-0.6
					l-0.3,0.6l-3.7,6.3c-1.8,0.8-3.5,1.8-5.1,3h-7.4h-0.6l-0.3,0.6L26,66l-0.3,0.6l0.3,0.6l3.7,6.4c-0.1,1.1-0.2,2.1-0.2,3
					s0.1,1.9,0.2,3L26,85.8l-0.3,0.6L26,87l6.7,11.7l0.3,0.6h0.6h7.4c1.7,1.2,3.4,2.2,5.1,3l3.7,6.3l0.3,0.6h0.6h13.5h0.6l0.3-0.6
					l3.7-6.3c1.8-0.8,3.5-1.8,5.1-3h7.4h0.6l0.3-0.6L89.3,87l0.3-0.6l-0.3-0.6l-3.7-6.4c0.1-1.1,0.2-2.1,0.2-3s-0.1-1.9-0.2-3
					l3.7-6.4l0.3-0.6L89.3,66l-6.8-11.7l-0.3-0.6h-0.6h-7.4c-1.7-1.2-3.4-2.2-5.1-3l-3.7-6.3L65.1,43.9L65.1,43.9z M57.7,88.9
					c-6.8,0-12.4-5.6-12.4-12.4s5.6-12.4,12.4-12.4S70,69.7,70,76.5S64.5,88.9,57.7,88.9L57.7,88.9z"/>
			</g>
			<g>
				<path class="st3" d="M80.3,81.6c-1.9,0-3.8-0.3-5.7-0.9l-1.2-0.4l10.2-5.9V61.5l-11.1-6.4L62.3,61l0.3-1.2c1.1-5,4.2-9.4,8.6-12
					c2.7-1.6,5.9-2.4,9-2.4c1.8,0,3.7,0.3,5.4,0.8l23.6-13.6c1.9-1.1,4-1.6,6.1-1.6c4.4,0,8.4,2.3,10.6,6.1c1.6,2.8,2.1,6.1,1.2,9.3
					c-0.8,3.2-2.9,5.8-5.7,7.4L97.9,67.4c-1.1,4.9-4.2,9.2-8.6,11.7C86.6,80.7,83.5,81.6,80.3,81.6z M115.3,39.3
					c-0.7,0-1.4,0.2-2,0.5c-0.9,0.5-1.6,1.4-1.8,2.4c-0.3,1-0.1,2.1,0.4,3c0.7,1.2,2,2,3.4,2c0.7,0,1.4-0.2,2-0.5
					c0.9-0.5,1.6-1.4,1.8-2.4c0.3-1,0.1-2.1-0.4-3C118.1,40,116.7,39.3,115.3,39.3z"/>
				<path class="st4" d="M115.3,31.5c4,0,8,2.1,10.1,5.9c3.2,5.6,1.3,12.7-4.3,16L97.4,67.1l0,0c-1,4.7-3.9,9-8.4,11.6
					c-2.8,1.6-5.8,2.3-8.7,2.3c-1.9,0-3.7-0.3-5.5-0.9l9.4-5.4l0-13.5l-11.7-6.8l-9.4,5.4c1-4.7,3.9-9,8.4-11.6
					c2.8-1.6,5.8-2.3,8.7-2.3c1.9,0,3.8,0.3,5.5,0.9l0,0l23.8-13.7C111.3,32,113.4,31.5,115.3,31.5 M115.4,47.7
					c0.8,0,1.5-0.2,2.2-0.6c2.2-1.2,2.9-4,1.6-6.1c-0.8-1.4-2.3-2.3-3.9-2.3c-0.8,0-1.5,0.2-2.2,0.6c-2.2,1.2-2.9,4-1.6,6.1
					C112.3,46.9,113.8,47.7,115.4,47.7 M115.3,30.4l0,1.1L115.3,30.4c-2.2,0-4.5,0.6-6.4,1.7L85.6,45.6c-1.7-0.5-3.6-0.8-5.4-0.8
					c-3.2,0-6.5,0.9-9.3,2.5c-4.6,2.6-7.8,7.1-8.9,12.3l-0.5,2.5l2.2-1.3l8.8-5.1L83,61.9l0,12.2l-8.8,5.1l-2.2,1.3l2.4,0.8
					c1.9,0.6,3.9,0.9,5.9,0.9c3.2,0,6.5-0.9,9.3-2.5c4.4-2.6,7.6-6.8,8.8-11.8l23.3-13.5c6.1-3.5,8.2-11.4,4.7-17.5
					C124.2,32.9,119.9,30.4,115.3,30.4L115.3,30.4z M115.4,46.6c-1.2,0-2.3-0.6-2.9-1.7c-0.9-1.6-0.4-3.7,1.2-4.6
					c0.5-0.3,1.1-0.5,1.7-0.5c1.2,0,2.3,0.6,2.9,1.7c0.5,0.8,0.6,1.7,0.3,2.6c-0.2,0.9-0.8,1.6-1.6,2
					C116.5,46.4,115.9,46.6,115.4,46.6L115.4,46.6z"/>
			</g>
			<path class="st5" d="M41,31.5l-11.7,6.8l0,13.5L41,58.5l11.7-6.8l0-13.5L41,31.5z M43.1,48.7c-2,1.2-4.6,0.5-5.8-1.5
				s-0.5-4.6,1.5-5.8s4.6-0.5,5.8,1.5S45.2,47.5,43.1,48.7z"/>
		</g>
		<circle class="st3" cx="57.7" cy="76.5" r="10.1"/>
	</g>
	<g>
		<rect x="36" y="118.9" class="st0" width="72" height="16.1"/>
		<path class="st1" d="M47.8,132.4h-3.1v-12.8h3.1V132.4z"/>
		<path class="st1" d="M60.4,130.8c-0.5,0.5-1.2,1-2.1,1.3s-1.9,0.5-3,0.5c-1.7,0-3-0.5-4-1.5s-1.5-2.5-1.6-4.3l0-1.1
			c0-1.3,0.2-2.4,0.7-3.3s1.1-1.7,1.9-2.2s1.8-0.8,2.9-0.8c1.6,0,2.8,0.4,3.7,1.1s1.4,1.8,1.5,3.3h-3c-0.1-0.7-0.3-1.2-0.7-1.5
			s-0.8-0.5-1.5-0.5c-0.8,0-1.4,0.3-1.8,1s-0.6,1.6-0.6,2.8v0.8c0,1.3,0.2,2.2,0.7,2.9s1.1,1,2.1,1c0.8,0,1.4-0.2,1.8-0.5v-2h-2.1
			v-2.1h5.2V130.8z"/>
		<path class="st1" d="M72.9,132.4h-3.1l-4.5-8v8h-3.1v-12.8h3.1l4.5,8v-8h3.1V132.4z"/>
		<path class="st1" d="M78.1,132.4h-3.1v-12.8h3.1V132.4z"/>
		<path class="st1" d="M90.1,122h-3.8v10.4h-3.1V122h-3.8v-2.4h10.7V122z"/>
		<path class="st1" d="M99.3,126.9h-4.9v3.1h5.7v2.4h-8.8v-12.8h8.8v2.4h-5.7v2.7h4.9V126.9z"/>
	</g>
	<g>
		<path class="st3" d="M104,119.9h-0.7v2.3h-1v-2.3h-0.8v-0.6h2.5V119.9z M106.9,120.4l-0.6,1.8h-0.5l-0.6-1.8v1.8h-0.9v-2.9h1.1
			l0.6,1.9l0.7-1.9h1v2.9h-0.9V120.4z"/>
	</g>
</g>
<g>
</g>
<g>
</g>
<g>
</g>
<g>
</g>
<g>
</g>
</svg>
