<?xml version="1.0" encoding="utf-8"?>
<!-- Generator: Adobe Illustrator 22.1.0, SVG Export Plug-In . SVG Version: 6.00 Build 0)  -->
<svg version="1.1" id="Layer_1" xmlns="http://www.w3.org/2000/svg" xmlns:xlink="http://www.w3.org/1999/xlink" x="0px" y="0px"
	 viewBox="0 0 144 144" style="enable-background:new 0 0 144 144;" xml:space="preserve">
<style type="text/css">
	.st0{fill:none;}
	.st1{fill:#991F1F;}
	.st2{fill:none;stroke:#FFFFFF;stroke-width:2.25;stroke-linecap:round;stroke-miterlimit:10;}
	.st3{fill:#333333;}
	.st4{fill:#FFFFFF;}
	.st5{fill:#333333;stroke:#FFFFFF;stroke-width:2.25;stroke-miterlimit:10;}
</style>
<g>
	<g>
		<circle class="st0" cx="72" cy="72" r="72"/>
	</g>
	<g>
		<g>
			<g id="XMLID_68_">
				<g>
					<g>
						<path class="st1" d="M56.7,4.9C102.5,10.7,93.9,45,93.9,45h-10c0,0-8.6-5.7-5.7-14.3c0,0-14.3,8.6-14.3,14.3h-10
							c0,0-5.7-14.3,8.6-20S56.7,4.9,56.7,4.9z"/>
					</g>
					<g>
						<path class="st2" d="M53.8,45c0,0-5.7-14.3,8.6-20s-5.7-20-5.7-20C102.5,10.7,93.9,45,93.9,45"/>
						<path class="st2" d="M63.9,45c0-5.7,14.3-14.3,14.3-14.3C75.3,39.3,83.9,45,83.9,45"/>
						<line class="st2" x1="83.9" y1="45" x2="93.9" y2="45"/>
						<line class="st2" x1="53.8" y1="45" x2="63.9" y2="45"/>
					</g>
				</g>
			</g>
			<g>
				<path class="st3" d="M50.3,109.1l-4-6.9c-1.8-0.8-3.5-1.8-5.1-3h-8l-7.4-12.8l4-6.9c-0.1-1.1-0.2-2.1-0.2-3s0.1-1.9,0.2-3
					l-4-6.9l7.4-12.8h8c1.7-1.2,3.4-2.2,5.1-3l4-6.9h14.8l4,6.9c1.8,0.8,3.5,1.8,5.1,3h8l7.4,12.8l-4,6.9c0.1,1.1,0.2,2,0.2,3
					s-0.1,1.9-0.2,3l4,6.9l-7.4,12.8h-8c-1.7,1.2-3.4,2.2-5.1,3l-4,6.9H50.3z M57.7,64.1c-6.8,0-12.4,5.6-12.4,12.4
					c0,6.8,5.6,12.4,12.4,12.4S70,83.3,70,76.5C70,69.7,64.5,64.1,57.7,64.1z"/>
				<path class="st4" d="M64.4,45l3.8,6.7c2,0.9,3.8,2,5.6,3.2h7.7l6.8,11.7l-3.9,6.7c0.1,1.1,0.2,2.1,0.2,3.2
					c0,1.1-0.1,2.2-0.2,3.2l3.9,6.7l-6.8,11.7h-7.7c-1.7,1.3-3.6,2.4-5.6,3.2l-3.8,6.7H50.9l-3.8-6.7c-2-0.9-3.8-2-5.6-3.2h-7.7
					L27,86.4l3.9-6.7c-0.1-1.1-0.2-2.1-0.2-3.2c0-1.1,0.1-2.2,0.2-3.2L27,66.6l6.7-11.7h7.7c1.7-1.3,3.6-2.4,5.6-3.2l3.8-6.7H64.4
					 M57.7,90c7.5,0,13.5-6,13.5-13.5c0-7.5-6-13.5-13.5-13.5s-13.5,6-13.5,13.5C44.2,84,50.2,90,57.7,90 M65.7,42.8h-1.3H50.9h-1.3
					L49,43.9l-3.5,6c-1.6,0.7-3.2,1.7-4.7,2.7h-7h-1.3l-0.6,1.1l-6.8,11.7l-0.6,1.1l0.6,1.1l3.5,6.1c-0.1,1-0.1,1.9-0.1,2.7
					s0,1.8,0.1,2.7l-3.5,6.1l-0.6,1.1l0.6,1.1l6.8,11.7l0.6,1.1h1.3h7c1.5,1.1,3.1,2,4.7,2.7l3.5,6l0.6,1.1h1.3h13.5h1.3l0.6-1.1
					l3.5-6c1.6-0.7,3.2-1.7,4.7-2.7h7h1.3l0.6-1.1l6.8-11.7l0.6-1.1l-0.6-1.1l-3.5-6.1c0.1-1,0.1-1.9,0.1-2.7s0-1.8-0.1-2.7l3.5-6.1
					l0.6-1.1l-0.6-1.1l-6.8-11.7l-0.6-1.1h-1.3h-7c-1.5-1.1-3.1-2-4.7-2.7l-3.5-6L65.7,42.8L65.7,42.8z M57.7,87.8
					c-6.2,0-11.3-5-11.3-11.3s5-11.3,11.3-11.3s11.3,5,11.3,11.3S63.9,87.8,57.7,87.8L57.7,87.8z"/>
			</g>
			<g>
				<path class="st3" d="M80.3,82.1c-2,0-4-0.3-5.9-0.9l-2.4-0.8l11-6.3V61.9l-10.6-6.1l-11,6.3l0.5-2.5c1.1-5.2,4.3-9.7,8.9-12.3
					c2.8-1.6,6-2.5,9.3-2.5c1.8,0,3.6,0.3,5.4,0.8l23.3-13.5c1.9-1.1,4.2-1.7,6.4-1.7c4.6,0,8.8,2.5,11.1,6.4c1.7,3,2.2,6.4,1.3,9.7
					c-0.9,3.3-3,6.1-6,7.8L98.4,67.8c-1.2,5-4.4,9.3-8.8,11.8C86.8,81.3,83.6,82.1,80.3,82.1z M115.3,39.8c-0.6,0-1.2,0.2-1.7,0.5
					c-0.8,0.5-1.3,1.2-1.6,2c-0.2,0.9-0.1,1.8,0.3,2.6c0.6,1,1.7,1.7,2.9,1.7c0.6,0,1.2-0.2,1.7-0.5c0.8-0.5,1.3-1.2,1.6-2
					c0.2-0.9,0.1-1.8-0.3-2.6C117.7,40.5,116.5,39.8,115.3,39.8z"/>
				<path class="st4" d="M115.3,31.5c4,0,8,2.1,10.1,5.9c3.2,5.6,1.3,12.7-4.3,16L97.4,67.1l0,0c-1,4.7-3.9,9-8.4,11.6
					c-2.8,1.6-5.8,2.3-8.7,2.3c-1.9,0-3.7-0.3-5.5-0.9l9.4-5.4l0-13.5l-11.7-6.8l-9.4,5.4c1-4.7,3.9-9,8.4-11.6
					c2.8-1.6,5.8-2.3,8.7-2.3c1.9,0,3.8,0.3,5.5,0.9l0,0l23.8-13.7C111.3,32,113.4,31.5,115.3,31.5 M115.4,47.7
					c0.8,0,1.5-0.2,2.2-0.6c2.2-1.2,2.9-4,1.6-6.1c-0.8-1.4-2.3-2.3-3.9-2.3c-0.8,0-1.5,0.2-2.2,0.6c-2.2,1.2-2.9,4-1.6,6.1
					C112.3,46.9,113.8,47.7,115.4,47.7 M115.3,29.3L115.3,29.3c-2.4,0-4.8,0.6-7,1.9L85.4,44.4c-1.7-0.5-3.5-0.7-5.2-0.7
					c-3.4,0-6.9,0.9-9.8,2.6c-4.9,2.8-8.3,7.6-9.5,13.1l-1,4.9l4.4-2.5l8.2-4.8l9.4,5.5l0,10.9l-8.2,4.8l-4.4,2.5l4.8,1.6
					c2,0.7,4.1,1,6.2,1c3.4,0,6.9-0.9,9.8-2.6c4.6-2.6,7.9-7,9.2-12.1l22.9-13.2c6.7-3.8,9-12.4,5.1-19.1
					C124.9,31.9,120.3,29.3,115.3,29.3L115.3,29.3z M115.4,45.5c-0.8,0-1.6-0.4-2-1.1c-0.6-1.1-0.3-2.5,0.8-3.1
					c0.3-0.2,0.7-0.3,1.1-0.3c0.8,0,1.6,0.4,2,1.1c0.3,0.5,0.4,1.1,0.2,1.7s-0.5,1.1-1,1.4C116.1,45.4,115.8,45.5,115.4,45.5
					L115.4,45.5z"/>
			</g>
			<path class="st5" d="M41,31.5l-11.7,6.8l0,13.5L41,58.5l11.7-6.8l0-13.5L41,31.5z M43.1,48.7c-2,1.2-4.6,0.5-5.8-1.5
				s-0.5-4.6,1.5-5.8s4.6-0.5,5.8,1.5S45.2,47.5,43.1,48.7z"/>
		</g>
		<circle class="st3" cx="57.7" cy="76.5" r="10.1"/>
	</g>
	<g>
		<rect x="36" y="118.9" class="st0" width="72" height="16.1"/>
		<path class="st1" d="M47.8,132.4h-3.1v-12.8h3.1V132.4z"/>
		<path class="st1" d="M60.4,130.8c-0.5,0.5-1.2,1-2.1,1.3s-1.9,0.5-3,0.5c-1.7,0-3-0.5-4-1.5s-1.5-2.5-1.6-4.3l0-1.1
			c0-1.3,0.2-2.4,0.7-3.3s1.1-1.7,1.9-2.2s1.8-0.8,2.9-0.8c1.6,0,2.8,0.4,3.7,1.1s1.4,1.8,1.5,3.3h-3c-0.1-0.7-0.3-1.2-0.7-1.5
			s-0.8-0.5-1.5-0.5c-0.8,0-1.4,0.3-1.8,1s-0.6,1.6-0.6,2.8v0.8c0,1.3,0.2,2.2,0.7,2.9s1.1,1,2.1,1c0.8,0,1.4-0.2,1.8-0.5v-2h-2.1
			v-2.1h5.2V130.8z"/>
		<path class="st1" d="M72.9,132.4h-3.1l-4.5-8v8h-3.1v-12.8h3.1l4.5,8v-8h3.1V132.4z"/>
		<path class="st1" d="M78.1,132.4H75v-12.8h3.1V132.4z"/>
		<path class="st1" d="M90.1,122h-3.8v10.4h-3.1V122h-3.8v-2.4h10.7V122z"/>
		<path class="st1" d="M99.3,126.9h-4.9v3.1h5.7v2.4h-8.8v-12.8h8.8v2.4h-5.7v2.7h4.9V126.9z"/>
	</g>
	<g>
		<path class="st3" d="M104,119.9h-0.7v2.3h-1v-2.3h-0.8v-0.6h2.5V119.9z M106.9,120.4l-0.6,1.8h-0.5l-0.6-1.8v1.8h-0.9v-2.9h1.1
			l0.6,1.9l0.7-1.9h1v2.9h-0.9V120.4z"/>
	</g>
</g>
<g>
</g>
<g>
</g>
<g>
</g>
<g>
</g>
<g>
</g>
</svg>
