<?xml version="1.0" encoding="utf-8"?>
<!-- Generator: Adobe Illustrator 21.1.0, SVG Export Plug-In . SVG Version: 6.00 Build 0)  -->
<svg version="1.1" xmlns="http://www.w3.org/2000/svg" xmlns:xlink="http://www.w3.org/1999/xlink" x="0px" y="0px"
	 viewBox="0 0 180 252" style="enable-background:new 0 0 180 252;" xml:space="preserve">
<style type="text/css">
	.st0{fill:none;}
	.st1{fill:#F6BB60;}
	.st2{fill:#FFFFFF;}
	.st3{display:none;}
	.st4{display:inline;fill:#929497;}
	.st5{display:inline;}
	.st6{fill:none;stroke:#EC1E28;}
	.st7{fill:none;stroke:#2BA6DE;stroke-dasharray:1.44;}
	.st8{display:inline;fill:#E6E7E8;}
	.st9{fill:#231F20;}
	.st10{fill:#2BA6DE;}
	.st11{fill:#EC1E28;}
	.st12{fill:#929497;}
	.st13{fill:#F9A51A;}
	.st14{display:inline;fill:#F9A51A;}
	.st15{display:inline;fill:none;stroke:#F9A51A;}
	.st16{display:inline;fill:none;stroke:#EC1E28;}
	.st17{display:inline;fill:none;stroke:#929497;}
	.st18{display:inline;fill:none;stroke:#2BA6DE;stroke-dasharray:1.44;}
	.st19{fill-rule:evenodd;clip-rule:evenodd;}
	.st20{fill-rule:evenodd;clip-rule:evenodd;fill:#B7D333;}
	.st21{fill-rule:evenodd;clip-rule:evenodd;fill:#FFFFFF;}
	.st22{fill-rule:evenodd;clip-rule:evenodd;fill:#4C4849;}
	.st23{fill:#4C4849;}
	.st24{fill:#333333;}
	.st25{fill:#CBCBCA;stroke:#982020;stroke-width:2.5;stroke-miterlimit:10;}
	.st26{clip-path:url(#SVGID_2_);}
	.st27{fill:#CBCBCA;}
	.st28{fill:#991F1F;}
	.st29{fill:none;stroke:#CCCCCC;stroke-width:1.2144;stroke-linecap:round;stroke-miterlimit:10;}
	.st30{fill:#CCCCCC;}
	.st31{fill:#333333;stroke:#CCCCCC;stroke-width:1.2144;stroke-miterlimit:10;}
</style>


<g id="Layer_2">
	<g>
		<g>
			<g>
				<path class="st24" d="M18,0h144c0,9.9,8.1,18,18,18v216c-9.9,0-18,8.1-18,18H18c0-9.9-8.1-18-18-18V18C9.9,18,18,9.9,18,0z"/>
				<path class="st25" d="M36,18h108c9.9,0,18,8.1,18,18v180c0,9.9-8.1,18-18,18H36c-9.9,0-18-8.1-18-18V36C18,26.1,26.1,18,36,18z"
					/>
				<g>
					<defs>
						<path id="SVGID_1_" d="M171,252H9c-5,0-9-4-9-9V9c0-5,4-9,9-9h162c5,0,9,4,9,9v234C180,248,176,252,171,252z"/>
					</defs>
					<clipPath id="SVGID_2_">
						<use xlink:href="#SVGID_1_"  style="overflow:visible;"/>
					</clipPath>
					<g class="st26">
						<path class="st27" d="M0,18c9.9,0,18-8.1,18-18H0V18z"/>
						<path class="st27" d="M180,234c-9.9,0-18,8.1-18,18h18V234z"/>
						<path class="st27" d="M162,0c0,9.9,8.1,18,18,18V0H162z"/>
						<path class="st27" d="M18,252c0-9.9-8.1-18-18-18v18H18z"/>
					</g>
				</g>
			</g>
		</g>
	</g>
	<g>
		<g>
			<g>
				<g>
					<rect x="46.5" y="169.4" class="st0" width="84.2" height="26.1"/>
					<path class="st28" d="M62.5,184h-3.3v-13.8h3.3V184z"/>
					<path class="st28" d="M76.1,182.3c-0.5,0.6-1.3,1-2.2,1.4c-1,0.3-2.1,0.5-3.2,0.5c-1.8,0-3.3-0.6-4.3-1.7
						c-1.1-1.1-1.7-2.6-1.7-4.6l0-1.2c0-1.4,0.2-2.5,0.7-3.6c0.5-1,1.2-1.8,2.1-2.3s1.9-0.8,3.1-0.8c1.7,0,3.1,0.4,4,1.2
						s1.5,2,1.7,3.5h-3.2c-0.1-0.8-0.4-1.3-0.7-1.7s-0.9-0.5-1.6-0.5c-0.8,0-1.5,0.4-1.9,1.1c-0.5,0.7-0.7,1.7-0.7,3v0.8
						c0,1.4,0.2,2.4,0.7,3.1c0.5,0.7,1.2,1,2.2,1c0.9,0,1.5-0.2,1.9-0.6v-2.1h-2.3v-2.3h5.6V182.3z"/>
					<path class="st28" d="M89.6,184h-3.3l-4.9-8.6v8.6H78v-13.8h3.3l4.9,8.6v-8.6h3.3V184z"/>
					<path class="st28" d="M95.2,184h-3.3v-13.8h3.3V184z"/>
					<path class="st28" d="M108.1,172.7H104V184h-3.3v-11.2h-4.1v-2.6h11.5V172.7z"/>
					<path class="st28" d="M118.1,178.1h-5.2v3.3h6.2v2.6h-9.5v-13.8h9.5v2.6h-6.2v2.9h5.2V178.1z"/>
				</g>
				<g>
					<g id="XMLID_34_">
						<g>
							<g>
								<path class="st28" d="M68.1,54c49.4,6.2,40.2,43.2,40.2,43.2H97.4c0,0-9.3-6.2-6.2-15.4c0,0-15.4,9.3-15.4,15.4H65
									c0,0-6.2-15.4,9.3-21.6C89.7,69.4,68.1,54,68.1,54z"/>
							</g>
							<g>
								<path class="st29" d="M65,97.2c0,0-6.2-15.4,9.3-21.6C89.7,69.4,68.1,54,68.1,54c49.4,6.2,40.2,43.2,40.2,43.2"/>
								<path class="st29" d="M75.8,97.2c0-6.2,15.4-15.4,15.4-15.4c-3.1,9.3,6.2,15.4,6.2,15.4"/>
								<line class="st29" x1="97.4" y1="97.2" x2="108.2" y2="97.2"/>
								<line class="st29" x1="65" y1="97.2" x2="75.8" y2="97.2"/>
							</g>
						</g>
					</g>
					<g>
						<path class="st24" d="M61.5,165.9l-4.2-7.3c-2-0.9-3.9-2-5.8-3.4h-8.5l-7.6-13.2l4.2-7.4c-0.1-1.2-0.2-2.3-0.2-3.3
							s0.1-2.1,0.2-3.3l-4.2-7.4l7.6-13.2h8.5c1.9-1.4,3.8-2.5,5.8-3.4l4.2-7.3h15.3L81,104c2,0.9,3.9,2,5.8,3.4h8.5l7.6,13.2
							l-4.2,7.4c0.1,1.2,0.2,2.3,0.2,3.3c0,1-0.1,2.1-0.2,3.3l4.2,7.4l-7.6,13.2h-8.5c-1.9,1.4-3.8,2.5-5.8,3.4l-4.2,7.3H61.5z
							 M69.1,117.3c-7.7,0-14,6.3-14,14c0,7.7,6.3,14,14,14s14-6.3,14-14C83.1,123.5,76.8,117.3,69.1,117.3z"/>
						<path class="st30" d="M76.4,97.2l4.2,7.2c2.2,0.9,4.2,2.1,6,3.5h8.4l7.3,12.6l-4.2,7.2c0.1,1.1,0.2,2.3,0.2,3.5
							c0,1.2-0.1,2.3-0.2,3.5l4.2,7.2l-7.3,12.6h-8.4c-1.8,1.4-3.8,2.6-6,3.5l-4.2,7.2H61.8l-4.2-7.2c-2.2-0.9-4.2-2.1-6-3.5h-8.4
							L36,141.9l4.2-7.2c-0.1-1.1-0.2-2.3-0.2-3.5c0-1.2,0.1-2.3,0.2-3.5l-4.2-7.2l7.3-12.6h8.4c1.8-1.4,3.8-2.6,6-3.5l4.2-7.2H76.4
							 M69.1,145.8c8,0,14.6-6.5,14.6-14.6c0-8-6.5-14.6-14.6-14.6c-8,0-14.6,6.5-14.6,14.6C54.5,139.3,61,145.8,69.1,145.8
							 M77.1,96h-0.7H61.8h-0.7l-0.4,0.6l-4,6.8c-1.9,0.8-3.8,1.9-5.5,3.2h-8h-0.7l-0.4,0.6L34.9,120l-0.4,0.6l0.4,0.6l4,6.9
							c-0.1,1.2-0.2,2.2-0.2,3.2c0,1,0.1,2,0.2,3.2l-4,6.9l-0.4,0.6l0.4,0.6l7.3,12.6l0.4,0.6h0.7h8c1.8,1.3,3.6,2.4,5.5,3.2l4,6.8
							l0.4,0.6h0.7h14.6h0.7l0.4-0.6l4-6.8c1.9-0.8,3.8-1.9,5.5-3.2h8h0.7l0.4-0.6l7.3-12.6l0.4-0.6l-0.4-0.6l-4-6.9
							c0.1-1.2,0.2-2.2,0.2-3.2c0-1-0.1-2-0.2-3.2l4-6.9l0.4-0.6l-0.4-0.6l-7.3-12.6l-0.4-0.6h-0.7h-8c-1.8-1.3-3.6-2.4-5.5-3.2
							l-4-6.8L77.1,96L77.1,96z M69.1,144.6c-7.4,0-13.4-6-13.4-13.4c0-7.4,6-13.4,13.4-13.4c7.4,0,13.4,6,13.4,13.4
							C82.4,138.6,76.5,144.6,69.1,144.6L69.1,144.6z"/>
					</g>
					<g>
						<path class="st24" d="M93.6,136.7c-2.1,0-4.1-0.3-6.1-1l-1.3-0.4l11-6.3v-13.9l-12-6.9l-11,6.3l0.3-1.3
							c1.1-5.4,4.5-10.2,9.3-12.9c3-1.7,6.3-2.6,9.7-2.6c2,0,4,0.3,5.9,0.9l25.4-14.7c2-1.2,4.3-1.8,6.6-1.8c4.7,0,9.1,2.5,11.5,6.6
							c3.6,6.3,1.5,14.4-4.8,18.1l-25.4,14.7c-1.2,5.3-4.6,9.9-9.3,12.6C100.3,135.8,97,136.7,93.6,136.7z M131.4,91.1
							c-0.7,0-1.5,0.2-2.1,0.6c-1,0.6-1.7,1.5-2,2.6s-0.1,2.2,0.4,3.2c0.8,1.3,2.2,2.1,3.7,2.1c0.7,0,1.5-0.2,2.1-0.6
							c1-0.6,1.7-1.5,2-2.6s0.1-2.2-0.4-3.2C134.3,91.9,132.9,91.1,131.4,91.1z"/>
						<path class="st30" d="M131.4,82.7c4.4,0,8.6,2.3,10.9,6.3c3.5,6,1.4,13.8-4.6,17.2L112,121.1l0,0c-1.1,5.1-4.2,9.7-9.1,12.5
							c-3,1.7-6.2,2.5-9.4,2.5c-2,0-4-0.3-6-1l10.1-5.8v-14.6l-12.6-7.3L75,113.3c1.1-5.1,4.2-9.7,9-12.5c3-1.7,6.2-2.5,9.4-2.5
							c2,0,4.1,0.3,6,1l0,0l25.6-14.8C127,83.2,129.2,82.7,131.4,82.7 M131.4,100.2c0.8,0,1.7-0.2,2.4-0.7c2.3-1.3,3.1-4.3,1.8-6.6
							c-0.9-1.6-2.5-2.4-4.2-2.4c-0.8,0-1.7,0.2-2.4,0.7c-2.3,1.3-3.1,4.3-1.8,6.6C128.1,99.3,129.7,100.2,131.4,100.2 M131.4,81.5
							c-2.4,0-4.8,0.6-6.9,1.9L99.3,97.9c-1.9-0.6-3.8-0.8-5.8-0.8c-3.5,0-7,0.9-10,2.7c-4.9,2.9-8.4,7.7-9.6,13.3l-0.6,2.7l2.4-1.4
							l9.5-5.5l11.4,6.6v13.2l-9.5,5.5l-2.4,1.4l2.6,0.8c2.1,0.7,4.2,1,6.3,1c3.5,0,7-0.9,10-2.7c4.8-2.8,8.2-7.4,9.5-12.8
							l25.2-14.5c3.2-1.8,5.5-4.8,6.4-8.4c1-3.6,0.5-7.3-1.4-10.5C140.9,84.1,136.3,81.5,131.4,81.5L131.4,81.5z M131.4,99
							c-1.3,0-2.5-0.7-3.2-1.8c-1-1.7-0.4-4,1.3-5c0.6-0.3,1.2-0.5,1.8-0.5c1.3,0,2.5,0.7,3.2,1.8c0.5,0.8,0.6,1.8,0.4,2.8
							s-0.9,1.7-1.7,2.2C132.6,98.8,132,99,131.4,99L131.4,99z"/>
					</g>
					<path class="st31" d="M51.1,82.7L38.5,90v14.6l12.6,7.3l12.6-7.3V90L51.1,82.7z M53.4,101.2c-2.2,1.3-5,0.5-6.2-1.7
						c-1.3-2.2-0.5-5,1.7-6.2c2.2-1.3,5-0.5,6.2,1.7C56.3,97.1,55.6,99.9,53.4,101.2z"/>
				</g>
			</g>
		</g>
		<circle class="st24" cx="69.1" cy="131.3" r="10.9"/>
	</g>
	<g>
	</g>
	<g>
	</g>
	<g>
	</g>
	<g>
	</g>
	<g>
	</g>
	<g>
	</g>
</g>
</svg>
