<?xml version="1.0" encoding="utf-8"?>
<!-- Generator: Adobe Illustrator 21.1.0, SVG Export Plug-In . SVG Version: 6.00 Build 0)  -->
<svg version="1.1" xmlns="http://www.w3.org/2000/svg" xmlns:xlink="http://www.w3.org/1999/xlink" x="0px" y="0px"
	 viewBox="0 0 180 252" style="enable-background:new 0 0 180 252;" xml:space="preserve">
<style type="text/css">
	.st0{fill:#333333;}
	.st1{fill:#CBCBCA;stroke:#982020;stroke-width:2.5;stroke-miterlimit:10;}
	.st2{fill:#333333;stroke:#982020;stroke-width:2.5;stroke-miterlimit:10;}
	.st3{fill:#676767;}
	.st4{fill:#CBCBCA;}
	.st5{fill:none;}
	.st6{fill:#CBA12C;}
	.st7{fill:#CB7A29;}
	.st8{fill:#982020;}
	.st9{fill:none;stroke:#CBCBCA;stroke-width:2.5;stroke-linecap:round;stroke-linejoin:round;stroke-miterlimit:10;}
	.st10{clip-path:url(#SVGID_2_);}
	.st11{display:none;}
	.st12{display:inline;}
	.st13{fill:none;stroke:#991F1F;stroke-width:2;stroke-miterlimit:10;}
	.st14{fill:none;stroke:#991F1F;stroke-width:2;stroke-miterlimit:10;stroke-dasharray:11.2,11.2;}
	.st15{fill:none;stroke:#991F1F;stroke-width:2;stroke-miterlimit:10;stroke-dasharray:11.4286,11.4286;}
</style>
<g id="Layer_1">
	<g>
		<g>
			<g id="XMLID_65_">
				<g>
				</g>
				<g>
				</g>
			</g>
			<g id="XMLID_64_">
				<g>
				</g>
				<g>
				</g>
			</g>
			<g id="XMLID_63_">
				<g>
				</g>
				<g>
				</g>
			</g>
		</g>
		<path class="st0" d="M162,252H18c0-9.9-8.1-18-18-18V18c9.9,0,18-8.1,18-18h144c0,9.9,8.1,18,18,18v216
			C170.1,234,162,242.1,162,252z"/>
		<path class="st1" d="M144,234H36c-9.9,0-18-8.1-18-18V36c0-9.9,8.1-18,18-18h108c9.9,0,18,8.1,18,18v180
			C162,225.9,153.9,234,144,234z"/>
		<path class="st2" d="M126,216H54c-9.9,0-18-8.1-18-18v-53.8c0-9.9,8.1-18,18-18h72c9.9,0,18,8.1,18,18V198
			C144,207.9,135.9,216,126,216z"/>
		<path class="st2" d="M126,108H54c-9.9,0-18-8.1-18-18V54c0-9.9,8.1-18,18-18h72c9.9,0,18,8.1,18,18v36C144,99.9,135.9,108,126,108
			z"/>
		<g>
			<path class="st3" d="M139.3,137.9l-2.7-4.6c-1.2-0.5-2.4-1.2-3.5-2h-5.4l-4.9-8.5l2.7-4.6c-0.1-0.7-0.1-1.4-0.1-2
				c0-0.6,0-1.3,0.1-2l-2.7-4.6l4.9-8.5h5.4c1.1-0.8,2.3-1.5,3.5-2l2.7-4.6h9.8l2.7,4.6c1.2,0.5,2.4,1.2,3.5,2h5.4l4.9,8.5l-2.7,4.6
				c0.1,0.7,0.1,1.4,0.1,2c0,0.6,0,1.3-0.1,2l2.7,4.6l-4.9,8.5h-5.4c-1.1,0.8-2.3,1.5-3.5,2l-2.7,4.6H139.3z M144.3,107.6
				c-4.7,0-8.5,3.8-8.5,8.5s3.8,8.5,8.5,8.5s8.5-3.8,8.5-8.5S148.9,107.6,144.3,107.6z"/>
			<path class="st4" d="M148.8,94.8l2.6,4.5c1.3,0.6,2.6,1.3,3.7,2.2h5.2l4.5,7.9l-2.6,4.5c0.1,0.7,0.1,1.4,0.1,2.2
				c0,0.7-0.1,1.5-0.1,2.2l2.6,4.5l-4.5,7.9h-5.2c-1.2,0.9-2.4,1.6-3.7,2.2l-2.6,4.5h-9.1l-2.6-4.5c-1.3-0.6-2.6-1.3-3.7-2.2h-5.2
				l-4.5-7.9l2.6-4.5c-0.1-0.7-0.1-1.4-0.1-2.2c0-0.7,0.1-1.5,0.1-2.2l-2.6-4.5l4.5-7.9h5.2c1.2-0.9,2.4-1.6,3.7-2.2l2.6-4.5H148.8
				 M144.3,125.1c5,0,9.1-4.1,9.1-9.1c0-5-4.1-9.1-9.1-9.1c-5,0-9.1,4.1-9.1,9.1C135.2,121.1,139.2,125.1,144.3,125.1 M149.5,93.6
				h-0.7h-9.1H139l-0.4,0.6l-2.4,4.1c-1.1,0.5-2.2,1.2-3.3,1.9h-4.8h-0.7l-0.4,0.6l-4.5,7.9l-0.4,0.6l0.4,0.6l2.4,4.1
				c-0.1,0.7-0.1,1.3-0.1,1.9c0,0.6,0,1.2,0.1,1.9l-2.4,4.1l-0.4,0.6l0.4,0.6l4.5,7.9l0.4,0.6h0.7h4.8c1.1,0.8,2.2,1.4,3.3,1.9
				l2.4,4.1l0.4,0.6h0.7h9.1h0.7l0.4-0.6l2.4-4.1c1.1-0.5,2.2-1.2,3.3-1.9h4.8h0.7l0.4-0.6l4.5-7.9l0.4-0.6l-0.4-0.6l-2.4-4.1
				c0.1-0.7,0.1-1.3,0.1-1.9c0-0.6,0-1.2-0.1-1.9l2.4-4.1l0.4-0.6l-0.4-0.6l-4.5-7.9l-0.4-0.6h-0.7h-4.8c-1.1-0.8-2.2-1.4-3.3-1.9
				l-2.4-4.1L149.5,93.6L149.5,93.6z M144.3,123.9c-4.3,0-7.8-3.5-7.8-7.8s3.5-7.8,7.8-7.8s7.8,3.5,7.8,7.8S148.6,123.9,144.3,123.9
				L144.3,123.9z"/>
		</g>
		<g>
			<rect x="18" y="27" class="st5" width="18" height="18"/>
			<path class="st6" d="M27.6,30.5c0.4-0.4,0.9-0.9,1.6-1.6c0,1.1,0,2.7,0,4.9c-0.2,0.2-0.5,0.4-0.8,0.8c-0.2-0.2-0.5-0.4-0.8-0.8
				C27.6,33,27.6,31.9,27.6,30.5z M27.6,36.1c0.2-0.2,0.4-0.4,0.8-0.8c0.2,0.2,0.4,0.4,0.8,0.8c0,1.1,0,2.7,0,4.9
				c-0.4-0.4-0.9-0.9-1.6-1.6C27.6,38.7,27.6,37.6,27.6,36.1z"/>
		</g>
		<g>
			<polygon class="st6" points="46.8,21.7 36,28.7 39.6,28.7 36,36 46.8,29.1 43.2,29.1 46.8,21.7 			"/>
		</g>
		<g>
			<rect x="72" y="112.5" class="st5" width="36" height="12"/>
			<path class="st0" d="M79.8,121.5V113h3.1c1.1,0,1.9,0.2,2.5,0.6s0.9,1,0.9,1.8c0,0.4-0.1,0.8-0.3,1.1s-0.5,0.5-0.9,0.7
				c0.4,0.1,0.8,0.3,1,0.7s0.4,0.7,0.4,1.2c0,0.8-0.3,1.5-0.8,1.9s-1.3,0.6-2.4,0.6H79.8z M81.8,116.5h1.1c0.4,0,0.8-0.1,1-0.2
				c0.2-0.2,0.3-0.4,0.3-0.7c0-0.4-0.1-0.6-0.3-0.8c-0.2-0.2-0.5-0.2-1-0.2h-1V116.5z M81.8,117.9v2h1.3c0.4,0,0.7-0.1,0.9-0.3
				s0.3-0.4,0.3-0.7c0-0.7-0.4-1.1-1.1-1.1H81.8z"/>
			<path class="st0" d="M94.7,117.4c0,0.8-0.2,1.6-0.5,2.2s-0.7,1.1-1.3,1.5s-1.2,0.5-1.9,0.5s-1.4-0.2-1.9-0.5s-1-0.8-1.3-1.4
				s-0.5-1.3-0.5-2.1v-0.5c0-0.8,0.2-1.6,0.5-2.2s0.7-1.1,1.3-1.5s1.2-0.5,2-0.5c0.7,0,1.4,0.2,1.9,0.5s1,0.8,1.3,1.5
				s0.5,1.4,0.5,2.2V117.4z M92.6,117.1c0-0.8-0.1-1.5-0.4-1.9s-0.7-0.7-1.2-0.7c-1,0-1.6,0.8-1.6,2.3l0,0.6c0,0.8,0.1,1.5,0.4,1.9
				s0.7,0.7,1.2,0.7c0.5,0,0.9-0.2,1.2-0.7s0.4-1.1,0.4-1.9V117.1z"/>
			<path class="st0" d="M102,114.6h-2.6v6.9h-2.1v-6.9h-2.5V113h7.1V114.6z"/>
		</g>
		<g>
			<rect x="40.5" y="144" class="st5" width="99" height="36.4"/>
			<path class="st4" d="M69.5,150.7c0.1-0.5-0.1-0.8-0.7-1.1l-1.1-0.5c-1.3-0.6-1.9-1.4-1.9-2.4c0-0.5,0.2-0.9,0.5-1.3
				s0.7-0.7,1.2-0.9s1.1-0.3,1.7-0.3c0.8,0,1.5,0.3,2,0.7s0.8,1.1,0.8,1.9h-1.7c0-0.4-0.1-0.7-0.3-0.9s-0.5-0.3-0.9-0.3
				c-0.4,0-0.7,0.1-1,0.3s-0.5,0.4-0.5,0.8c-0.1,0.4,0.2,0.8,0.9,1l0.8,0.3l0.4,0.2c1.2,0.6,1.7,1.4,1.6,2.4c0,0.5-0.2,0.9-0.5,1.3
				s-0.7,0.6-1.2,0.8s-1,0.3-1.6,0.3c-0.6,0-1.1-0.1-1.6-0.4s-0.8-0.6-1.1-1c-0.2-0.4-0.3-0.9-0.3-1.4l1.7,0
				c-0.1,0.9,0.4,1.4,1.4,1.4c0.4,0,0.8-0.1,1-0.3S69.4,151,69.5,150.7z"/>
			<path class="st4" d="M75.8,152.3c-0.5,0.5-1.1,0.8-1.7,0.8c-0.6,0-1.1-0.2-1.4-0.7s-0.4-1-0.4-1.7l0.7-4.1h1.7l-0.7,4.1
				c0,0.1,0,0.3,0,0.4c0,0.4,0.3,0.6,0.7,0.6c0.5,0,0.9-0.2,1.3-0.6l0.8-4.5h1.7l-1.1,6.3h-1.5L75.8,152.3z"/>
			<path class="st4" d="M81.1,146.7l-0.1,0.7c0.5-0.6,1.1-0.8,1.9-0.8c0.4,0,0.7,0.1,1,0.3s0.4,0.4,0.5,0.7c0.6-0.7,1.2-1,2-1
				c0.6,0,1,0.2,1.3,0.6s0.4,0.9,0.4,1.7l0,0.1l-0.7,4h-1.7l0.7-4.1c0-0.1,0-0.3,0-0.4c0-0.4-0.3-0.6-0.7-0.6
				c-0.5,0-0.8,0.2-1.2,0.7l0,0.1l-0.7,4.2h-1.7l0.7-4c0-0.1,0-0.3,0-0.4c0-0.4-0.3-0.6-0.7-0.6c-0.4,0-0.8,0.2-1.1,0.6l-0.8,4.5
				h-1.7l1.1-6.3L81.1,146.7z"/>
			<path class="st4" d="M91.2,146.7l-0.1,0.7c0.5-0.6,1.1-0.8,1.9-0.8c0.4,0,0.7,0.1,1,0.3s0.4,0.4,0.5,0.7c0.6-0.7,1.2-1,2-1
				c0.6,0,1,0.2,1.3,0.6s0.4,0.9,0.4,1.7l0,0.1l-0.7,4h-1.7l0.7-4.1c0-0.1,0-0.3,0-0.4c0-0.4-0.3-0.6-0.7-0.6
				c-0.5,0-0.8,0.2-1.2,0.7l0,0.1l-0.7,4.2h-1.7l0.7-4c0-0.1,0-0.3,0-0.4c0-0.4-0.3-0.6-0.7-0.6c-0.4,0-0.8,0.2-1.1,0.6l-0.8,4.5
				h-1.7l1.1-6.3L91.2,146.7z"/>
			<path class="st4" d="M102.4,146.5c0.6,0,1,0.2,1.4,0.4s0.7,0.7,0.9,1.2s0.3,1,0.2,1.6c-0.1,1-0.4,1.8-1.1,2.4s-1.4,0.9-2.3,0.9
				c-0.6,0-1-0.1-1.4-0.4s-0.7-0.7-0.9-1.1s-0.3-1-0.2-1.6c0.1-1,0.5-1.9,1.1-2.5S101.5,146.5,102.4,146.5z M100.7,150.5
				c0,0.4,0.1,0.7,0.3,0.9c0.2,0.2,0.4,0.3,0.7,0.3c0.5,0,0.9-0.2,1.2-0.7s0.4-1.1,0.4-1.9c0-0.4-0.1-0.7-0.3-0.9
				c-0.2-0.2-0.4-0.3-0.7-0.3c-0.5,0-0.9,0.2-1.2,0.7C100.8,149.1,100.7,149.7,100.7,150.5z"/>
			<path class="st4" d="M108,146.7l-0.1,0.8c0.5-0.6,1.1-0.9,1.8-0.9c0.6,0,1,0.2,1.3,0.7s0.4,1,0.3,1.8l-0.7,4H109l0.7-4.1
				c0-0.2,0-0.3,0-0.4c-0.1-0.4-0.3-0.6-0.8-0.6c-0.4,0-0.8,0.2-1.2,0.6L107,153h-1.7l1.1-6.3L108,146.7z"/>
			<path class="st4" d="M112.7,147.4c0-0.3,0.1-0.5,0.3-0.7s0.4-0.3,0.7-0.3c0.3,0,0.5,0.1,0.7,0.3s0.3,0.4,0.3,0.7
				c0,0.3-0.1,0.5-0.3,0.6s-0.4,0.2-0.7,0.2c-0.3,0-0.5-0.1-0.7-0.2S112.7,147.6,112.7,147.4z M112.7,152.2c0-0.3,0.1-0.5,0.3-0.7
				s0.4-0.3,0.7-0.3c0.3,0,0.5,0.1,0.7,0.3s0.3,0.4,0.3,0.7c0,0.3-0.1,0.5-0.3,0.6s-0.4,0.2-0.7,0.2c-0.3,0-0.5-0.1-0.7-0.2
				S112.7,152.4,112.7,152.2z"/>
			<path class="st7" d="M73.9,167.4h-2.1v-8.5h2.1V167.4z"/>
			<path class="st7" d="M82.3,166.3c-0.3,0.4-0.8,0.6-1.4,0.8s-1.3,0.3-2,0.3c-1.1,0-2-0.3-2.7-1s-1-1.6-1.1-2.9l0-0.7
				c0-0.8,0.1-1.6,0.4-2.2s0.7-1.1,1.3-1.4s1.2-0.5,1.9-0.5c1.1,0,1.9,0.2,2.5,0.7s0.9,1.2,1,2.2h-2c-0.1-0.5-0.2-0.8-0.5-1
				s-0.6-0.3-1-0.3c-0.5,0-0.9,0.2-1.2,0.7s-0.4,1.1-0.4,1.9v0.5c0,0.9,0.1,1.5,0.4,1.9s0.7,0.6,1.4,0.6c0.5,0,0.9-0.1,1.2-0.4v-1.3
				h-1.4v-1.4h3.5V166.3z"/>
			<path class="st7" d="M90.6,167.4h-2l-3-5.3v5.3h-2.1v-8.5h2.1l3,5.3v-5.3h2.1V167.4z"/>
			<path class="st7" d="M94.1,167.4H92v-8.5h2.1V167.4z"/>
			<path class="st7" d="M102,160.5h-2.6v6.9h-2.1v-6.9h-2.5v-1.6h7.1V160.5z"/>
			<path class="st7" d="M108.2,163.8H105v2h3.8v1.6h-5.9v-8.5h5.9v1.6H105v1.8h3.2V163.8z"/>
		</g>
		<g>
			<g id="XMLID_62_">
				<g>
					<path class="st8" d="M48.1,198.3h-3.5c0,0-3-2-2-5c0,0-5,3-5,5h-3.5c0,0-2-5,3-7s-2-7-2-7C51.1,186.3,48.1,198.3,48.1,198.3z"
						/>
					<path class="st7" d="M44.6,198.3h-7c0-2,5-5,5-5C41.6,196.3,44.6,198.3,44.6,198.3z"/>
				</g>
				<g>
				</g>
			</g>
			<g id="XMLID_61_">
				<g>
					<path class="st8" d="M99.4,199.3h-5.3c0-3-7.5-7.5-7.5-7.5c1.5,4.5-3,7.5-3,7.5h-5.3c0,0-4.5-18,19.5-21c0,0-10.5,7.5-3,10.5
						S99.4,199.3,99.4,199.3z"/>
					<path class="st7" d="M86.7,191.8c0,0,7.5,4.5,7.5,7.5H83.7C83.7,199.3,88.2,196.3,86.7,191.8z"/>
				</g>
				<g>
				</g>
			</g>
			<g id="XMLID_60_">
				<g>
					<path class="st8" d="M151.2,200.3h-7c0,0-6-4-4-10c0,0-10,6-10,10h-7c0,0-4-10,6-14s-4-14-4-14
						C157.2,176.3,151.2,200.3,151.2,200.3z"/>
					<path class="st7" d="M140.2,190.3c-2,6,4,10,4,10h-14C130.2,196.3,140.2,190.3,140.2,190.3z"/>
				</g>
				<g>
				</g>
			</g>
		</g>
		<g>
			<rect x="18" y="3.8" class="st5" width="144" height="12"/>
			<path class="st4" d="M64.7,10.5c0-0.3-0.1-0.5-0.3-0.7s-0.6-0.3-1.1-0.5s-1-0.4-1.3-0.5c-1.1-0.5-1.7-1.3-1.7-2.2
				c0-0.5,0.1-0.9,0.4-1.3s0.7-0.6,1.2-0.8s1.1-0.3,1.7-0.3c0.6,0,1.2,0.1,1.6,0.3s0.9,0.5,1.1,0.9s0.4,0.9,0.4,1.4h-2.1
				c0-0.3-0.1-0.6-0.3-0.8s-0.5-0.3-0.9-0.3c-0.4,0-0.7,0.1-0.9,0.2s-0.3,0.4-0.3,0.6c0,0.2,0.1,0.4,0.4,0.6s0.6,0.4,1.2,0.6
				s1.1,0.4,1.5,0.6c0.9,0.5,1.4,1.3,1.4,2.2c0,0.7-0.3,1.3-0.8,1.8s-1.3,0.6-2.3,0.6c-0.7,0-1.3-0.1-1.9-0.4s-1-0.6-1.3-1
				S60,10.5,60,10h2.1c0,0.5,0.1,0.8,0.4,1s0.6,0.3,1.2,0.3c0.3,0,0.6-0.1,0.8-0.2S64.7,10.7,64.7,10.5z"/>
			<path class="st4" d="M69.9,9.9v2.9h-2.1V4.2h3.4c0.7,0,1.2,0.1,1.7,0.4s0.9,0.6,1.2,1s0.4,0.9,0.4,1.5c0,0.8-0.3,1.5-0.9,2
				s-1.4,0.7-2.5,0.7H69.9z M69.9,8.3h1.3c0.4,0,0.7-0.1,0.9-0.3s0.3-0.5,0.3-0.8c0-0.4-0.1-0.7-0.3-1s-0.5-0.4-0.9-0.4h-1.4V8.3z"
				/>
			<path class="st4" d="M79.4,11.2h-2.8l-0.5,1.6h-2.2L77,4.2H79l3.2,8.5h-2.2L79.4,11.2z M77.1,9.6h1.8l-0.9-3L77.1,9.6z"/>
			<path class="st4" d="M85.9,9.7h-1.1v3h-2.1V4.2h3.4c1,0,1.8,0.2,2.4,0.7C89,5.3,89.3,6,89.3,6.8c0,0.6-0.1,1.1-0.4,1.5
				S88.4,9,87.8,9.2l1.8,3.4v0.1h-2.2L85.9,9.7z M84.8,8.2h1.3c0.4,0,0.7-0.1,0.9-0.3c0.2-0.2,0.3-0.5,0.3-0.9S87.2,6.3,87,6.1
				s-0.5-0.3-0.9-0.3h-1.3V8.2z"/>
			<path class="st4" d="M93.5,9.6l-0.8,0.9v2.3h-2.1V4.2h2.1V8l0.7-1.1l1.8-2.7h2.5L94.8,8l2.9,4.8h-2.4L93.5,9.6z"/>
			<path class="st4" d="M98.3,12.8V4.2h3.1c1.1,0,1.9,0.2,2.5,0.6s0.9,1,0.9,1.8c0,0.4-0.1,0.8-0.3,1.1s-0.5,0.5-0.9,0.7
				c0.4,0.1,0.8,0.3,1,0.7s0.4,0.7,0.4,1.2c0,0.8-0.3,1.5-0.8,1.9s-1.3,0.6-2.4,0.6H98.3z M100.3,7.8h1.1c0.4,0,0.8-0.1,1-0.2
				c0.2-0.2,0.3-0.4,0.3-0.7c0-0.4-0.1-0.6-0.3-0.8c-0.2-0.2-0.5-0.2-1-0.2h-1V7.8z M100.3,9.1v2h1.3c0.4,0,0.7-0.1,0.9-0.3
				s0.3-0.4,0.3-0.7c0-0.7-0.4-1.1-1.1-1.1H100.3z"/>
			<path class="st4" d="M113.2,8.7c0,0.8-0.2,1.6-0.5,2.2s-0.7,1.1-1.3,1.5s-1.2,0.5-1.9,0.5s-1.4-0.2-1.9-0.5s-1-0.8-1.3-1.4
				s-0.5-1.3-0.5-2.1V8.3c0-0.8,0.2-1.6,0.5-2.2s0.7-1.1,1.3-1.5s1.2-0.5,2-0.5c0.7,0,1.4,0.2,1.9,0.5s1,0.8,1.3,1.5
				s0.5,1.4,0.5,2.2V8.7z M111.1,8.3c0-0.8-0.1-1.5-0.4-1.9s-0.7-0.7-1.2-0.7c-1,0-1.6,0.8-1.6,2.3l0,0.6c0,0.8,0.1,1.5,0.4,1.9
				s0.7,0.7,1.2,0.7c0.5,0,0.9-0.2,1.2-0.7s0.4-1.1,0.4-1.9V8.3z"/>
			<path class="st4" d="M120.5,5.8h-2.6v6.9h-2.1V5.8h-2.5V4.2h7.1V5.8z"/>
		</g>
		<g>
			<path class="st9" d="M34.1,198.3c0,0-2-5,3-7s-2-7-2-7c16,2,13,14,13,14"/>
			<path class="st9" d="M78.4,199.3c0,0-4.5-18,19.5-21c0,0-10.5,7.5-3,10.5s4.5,10.5,4.5,10.5"/>
			<path class="st9" d="M123.2,200.3c0,0-4-10,6-14s-4-14-4-14c32,4,26,28,26,28"/>
		</g>
		<ellipse class="st2" cx="138" cy="216" rx="24" ry="18"/>
		<ellipse class="st2" cx="42" cy="216" rx="24" ry="18"/>
		<ellipse class="st2" cx="90" cy="216" rx="24" ry="18"/>
		<g>
			<g>
				<rect x="27" y="200.3" class="st5" width="24" height="36"/>
				<path class="st7" d="M37.8,225c-0.7,0.7-1.8,1.8-3.2,3.3c0-2.2,0-5.4,0-9.7c0.4-0.4,0.9-0.9,1.6-1.6c0.4,0.4,0.9,0.9,1.6,1.6
					C37.8,220,37.8,222.1,37.8,225z M48.4,203.9c-0.7,0.7-1.8,1.8-3.2,3.3c-1.5,0-3.6,0-6.5,0c-0.7-0.7-1.8-1.8-3.2-3.3
					C38.3,203.9,42.6,203.9,48.4,203.9z M35.4,228.3c0.7-0.7,1.8-1.8,3.2-3.3c1.5,0,3.6,0,6.5,0c0.7,0.7,1.8,1.8,3.2,3.3
					C45.5,228.3,41.1,228.3,35.4,228.3z M36.2,216.1c0.4-0.4,0.9-0.9,1.6-1.6c1.8,0,4.5,0,8.1,0c0.4,0.4,0.9,0.9,1.6,1.6
					c-0.4,0.4-0.9,0.9-1.6,1.7c-1.8,0-4.5,0-8.1,0C37.5,217.3,36.9,216.8,36.2,216.1z M45.9,207.2c0.7-0.7,1.8-1.8,3.3-3.3
					c0,2.2,0,5.4,0,9.7c-0.4,0.4-0.9,0.9-1.7,1.6c-0.4-0.4-0.9-0.9-1.6-1.6C45.9,212.2,45.9,210.1,45.9,207.2z"/>
			</g>
			<g>
				<rect x="75" y="200.3" class="st5" width="24" height="36"/>
				<path class="st7" d="M96.4,203.9c-0.7,0.7-1.8,1.8-3.2,3.3c-1.5,0-3.6,0-6.5,0c-0.7-0.7-1.8-1.8-3.2-3.3
					C86.3,203.9,90.6,203.9,96.4,203.9z M83.4,228.3c0.7-0.7,1.8-1.8,3.2-3.3c1.5,0,3.6,0,6.5,0c0.7,0.7,1.8,1.8,3.2,3.3
					C93.5,228.3,89.1,228.3,83.4,228.3z M84.2,216.1c0.4-0.4,0.9-0.9,1.6-1.6c1.8,0,4.5,0,8.1,0c0.4,0.4,0.9,0.9,1.6,1.6
					c-0.4,0.4-0.9,0.9-1.6,1.7c-1.8,0-4.5,0-8.1,0C85.5,217.3,84.9,216.8,84.2,216.1z M93.9,207.2c0.7-0.7,1.8-1.8,3.3-3.3
					c0,2.2,0,5.4,0,9.7c-0.4,0.4-0.9,0.9-1.7,1.6c-0.4-0.4-0.9-0.9-1.6-1.6C93.9,212.2,93.9,210.1,93.9,207.2z M93.9,218.5
					c0.4-0.4,0.9-0.9,1.6-1.6c0.4,0.4,0.9,0.9,1.7,1.6c0,2.2,0,5.4,0,9.7c-0.7-0.7-1.8-1.8-3.3-3.3
					C93.9,223.6,93.9,221.4,93.9,218.5z"/>
			</g>
			<g>
				<rect x="123" y="200.3" class="st5" width="24" height="36"/>
				<path class="st7" d="M133.8,213.7c-0.4,0.4-0.9,0.9-1.6,1.6c-0.4-0.4-0.9-0.9-1.6-1.6c0-2.2,0-5.4,0-9.7
					c0.7,0.7,1.8,1.8,3.2,3.3C133.8,208.6,133.8,210.8,133.8,213.7z M132.2,216.1c0.4-0.4,0.9-0.9,1.6-1.6c1.8,0,4.5,0,8.1,0
					c0.4,0.4,0.9,0.9,1.6,1.6c-0.4,0.4-0.9,0.9-1.6,1.7c-1.8,0-4.5,0-8.1,0C133.5,217.3,132.9,216.8,132.2,216.1z M141.9,207.2
					c0.7-0.7,1.8-1.8,3.3-3.3c0,2.2,0,5.4,0,9.7c-0.4,0.4-0.9,0.9-1.7,1.6c-0.4-0.4-0.9-0.9-1.6-1.6
					C141.9,212.2,141.9,210.1,141.9,207.2z M141.9,218.5c0.4-0.4,0.9-0.9,1.6-1.6c0.4,0.4,0.9,0.9,1.7,1.6c0,2.2,0,5.4,0,9.7
					c-0.7-0.7-1.8-1.8-3.3-3.3C141.9,223.6,141.9,221.4,141.9,218.5z"/>
			</g>
		</g>
		<g>
			<rect x="133.7" y="108" class="st5" width="18.2" height="18.2"/>
			<path class="st0" d="M142.2,120.4c-0.4,0.4-0.9,0.9-1.6,1.6c0-1.1,0-2.7,0-4.9c0.2-0.2,0.4-0.4,0.8-0.8c0.2,0.2,0.4,0.4,0.8,0.8
				C142.2,117.9,142.2,118.9,142.2,120.4z M147.5,109.8c-0.4,0.4-0.9,0.9-1.6,1.6c-0.7,0-1.8,0-3.3,0c-0.4-0.4-0.9-0.9-1.6-1.6
				C142.4,109.8,144.6,109.8,147.5,109.8z M141,122c0.4-0.4,0.9-0.9,1.6-1.6c0.7,0,1.8,0,3.3,0c0.4,0.4,0.9,0.9,1.6,1.6
				C146,122,143.9,122,141,122z M141.4,115.9c0.2-0.2,0.4-0.4,0.8-0.8c0.9,0,2.3,0,4,0c0.2,0.2,0.5,0.5,0.8,0.8
				c-0.2,0.2-0.4,0.5-0.8,0.8c-0.9,0-2.2,0-4,0C142,116.5,141.8,116.3,141.4,115.9z M146.3,111.5c0.4-0.4,0.9-0.9,1.6-1.6
				c0,1.1,0,2.7,0,4.9c-0.2,0.2-0.5,0.4-0.8,0.8c-0.2-0.2-0.4-0.4-0.8-0.8C146.3,114,146.3,112.9,146.3,111.5z"/>
		</g>
		<g>
			<circle class="st4" cx="18.9" cy="138.6" r="2.5"/>
			<g>
				<path class="st3" d="M18.5,147.3c-2.3,0-4.4-0.9-6-2.5c-1.6-1.6-2.5-3.7-2.5-6s0.9-4.4,2.5-6l12.7-12.7
					c-0.1-3.4,1.2-6.7,3.6-9.1c2.3-2.3,5.4-3.6,8.7-3.6c0.2,0,0.5,0,0.7,0l1.4,0.1l-5.8,5.8l2.1,8l8,2.1l5.8-5.8l0.1,1.4
					c0.2,3.5-1.1,6.9-3.6,9.4c-2.3,2.3-5.4,3.6-8.7,3.6c0,0-0.3,0-0.4,0l-12.7,12.7C22.9,146.4,20.8,147.3,18.5,147.3z M18.5,136.5
					c-0.6,0-1.2,0.2-1.7,0.7c-0.4,0.4-0.7,1-0.7,1.7c0,0.6,0.2,1.2,0.7,1.7c0.4,0.4,1,0.7,1.7,0.7s1.2-0.2,1.7-0.7
					c0.4-0.4,0.7-1,0.7-1.7c0-0.6-0.2-1.2-0.7-1.7C19.7,136.8,19.1,136.5,18.5,136.5z"/>
				<path class="st4" d="M37.6,108.1c0.2,0,0.4,0,0.6,0l-5.1,5.1l2.3,8.7l8.7,2.3l5.1-5.1c0.2,3.2-0.9,6.5-3.4,8.9
					c-2.3,2.3-5.3,3.4-8.3,3.4c-0.2,0-0.4,0-0.7,0l0,0L24,144.4c-1.5,1.5-3.5,2.3-5.5,2.3s-4-0.8-5.5-2.3c-3-3-3-8,0-11l12.9-12.9
					l0,0c-0.2-3.2,0.9-6.5,3.4-8.9C31.6,109.2,34.6,108.1,37.6,108.1 M18.5,141.9c0.8,0,1.5-0.3,2.1-0.9c1.2-1.2,1.2-3.1,0-4.2
					c-0.6-0.6-1.4-0.9-2.1-0.9c-0.8,0-1.5,0.3-2.1,0.9c-1.2,1.2-1.2,3.1,0,4.2C17,141.6,17.7,141.9,18.5,141.9 M37.6,106.9
					c-3.5,0-6.7,1.3-9.1,3.8c-2.5,2.5-3.8,5.8-3.8,9.3l-12.6,12.6c-3.5,3.5-3.5,9.3,0,12.8c1.7,1.7,4,2.7,6.4,2.7
					c2.4,0,4.7-0.9,6.4-2.7l12.6-12.6c0,0,0.1,0,0.1,0c3.5,0,6.7-1.3,9.1-3.8c2.6-2.6,4-6.2,3.8-9.9l-0.2-2.8l-2,2l-4.6,4.6l-7.3-2
					l-2-7.3l4.6-4.6l2-2l-2.8-0.2C38.1,106.9,37.8,106.9,37.6,106.9L37.6,106.9z M18.5,140.6c-0.5,0-0.9-0.2-1.2-0.5
					c-0.3-0.3-0.5-0.8-0.5-1.2s0.2-0.9,0.5-1.2s0.8-0.5,1.2-0.5c0.5,0,0.9,0.2,1.2,0.5c0.7,0.7,0.7,1.8,0,2.5
					C19.4,140.4,19,140.6,18.5,140.6L18.5,140.6z"/>
			</g>
		</g>
		<g>
			<g>
				<path class="st0" d="M39.9,119.3c-0.4,0.4-0.9,0.9-1.6,1.6c0-1.1,0-2.7,0-4.9c0.2-0.2,0.4-0.4,0.8-0.8c0.2,0.2,0.4,0.4,0.8,0.8
					C39.9,116.7,39.9,117.8,39.9,119.3z M45.2,108.7c-0.4,0.4-0.9,0.9-1.6,1.6c-0.7,0-1.8,0-3.3,0c-0.4-0.4-0.9-0.9-1.6-1.6
					C40.1,108.7,42.3,108.7,45.2,108.7z M38.7,120.9c0.4-0.4,0.9-0.9,1.6-1.6c0.7,0,1.8,0,3.3,0c0.4,0.4,0.9,0.9,1.6,1.6
					C43.7,120.9,41.6,120.9,38.7,120.9z M39.1,114.8c0.2-0.2,0.4-0.4,0.8-0.8c0.9,0,2.3,0,4,0c0.2,0.2,0.5,0.5,0.8,0.8
					c-0.2,0.2-0.4,0.5-0.8,0.8c-0.9,0-2.2,0-4,0C39.7,115.4,39.5,115.1,39.1,114.8z M44,110.4c0.4-0.4,0.9-0.9,1.6-1.6
					c0,1.1,0,2.7,0,4.9c-0.2,0.2-0.5,0.4-0.8,0.8c-0.2-0.2-0.4-0.4-0.8-0.8C44,112.9,44,111.8,44,110.4z"/>
			</g>
		</g>
		<g>
			<defs>
				<path id="SVGID_1_" d="M171,252H9c-5,0-9-4-9-9V9c0-5,4-9,9-9h162c5,0,9,4,9,9v234C180,248,176,252,171,252z"/>
			</defs>
			<clipPath id="SVGID_2_">
				<use xlink:href="#SVGID_1_"  style="overflow:visible;"/>
			</clipPath>
			<g class="st10">
				<path class="st4" d="M0,18c9.9,0,18-8.1,18-18H0V18z"/>
				<path class="st4" d="M180,234c-9.9,0-18,8.1-18,18h18V234z"/>
				<path class="st4" d="M162,0c0,9.9,8.1,18,18,18V0L162,0z"/>
				<path class="st4" d="M18,252c0-9.9-8.1-18-18-18l0,18H18z"/>
			</g>
		</g>
	</g>
</g>
<g id="Layer_2" class="st11">
	<g class="st12">
		<g>
			<polyline class="st13" points="188,252 188,258 182,258 			"/>
			<line class="st14" x1="170.8" y1="258" x2="19.6" y2="258"/>
			<polyline class="st13" points="14,258 8,258 8,252 			"/>
			<line class="st15" x1="8" y1="240.6" x2="8" y2="17.7"/>
			<polyline class="st13" points="8,12 8,6 14,6 			"/>
			<line class="st14" x1="25.2" y1="6" x2="176.4" y2="6"/>
			<polyline class="st13" points="182,6 188,6 188,12 			"/>
			<line class="st15" x1="188" y1="23.4" x2="188" y2="246.3"/>
		</g>
	</g>
</g>
</svg>
