<?xml version="1.0" encoding="utf-8"?>
<!-- Generator: Adobe Illustrator 21.1.0, SVG Export Plug-In . SVG Version: 6.00 Build 0)  -->
<svg version="1.1" xmlns="http://www.w3.org/2000/svg" xmlns:xlink="http://www.w3.org/1999/xlink" x="0px" y="0px"
	 viewBox="0 0 180 252" style="enable-background:new 0 0 180 252;" xml:space="preserve">
<style type="text/css">
	.st0{fill:#333333;}
	.st1{fill:#CBCBCA;stroke:#982020;stroke-width:2.5;stroke-miterlimit:10;}
	.st2{fill:#333333;stroke:#982020;stroke-width:2.5;stroke-miterlimit:10;}
	.st3{fill:#676767;}
	.st4{fill:#CBCBCA;}
	.st5{fill:none;}
	.st6{fill:#CBA12C;}
	.st7{clip-path:url(#SVGID_2_);}
	.st8{display:none;}
	.st9{display:inline;}
	.st10{fill:none;stroke:#991F1F;stroke-width:2;stroke-miterlimit:10;}
	.st11{fill:none;stroke:#991F1F;stroke-width:2;stroke-miterlimit:10;stroke-dasharray:11.2,11.2;}
	.st12{fill:none;stroke:#991F1F;stroke-width:2;stroke-miterlimit:10;stroke-dasharray:11.4286,11.4286;}
</style>
<g id="Layer_1">
	<g>
		<path class="st0" d="M162,252H18c0-9.9-8.1-18-18-18V18c9.9,0,18-8.1,18-18h144c0,9.9,8.1,18,18,18v216
			C170.1,234,162,242.1,162,252z"/>
		<path class="st1" d="M144,234H36c-9.9,0-18-8.1-18-18V36c0-9.9,8.1-18,18-18h108c9.9,0,18,8.1,18,18v180
			C162,225.9,153.9,234,144,234z"/>
		<path class="st2" d="M126,216H54c-9.9,0-18-8.1-18-18v-53.8c0-9.9,8.1-18,18-18h72c9.9,0,18,8.1,18,18V198
			C144,207.9,135.9,216,126,216z"/>
		<path class="st2" d="M126,108H54c-9.9,0-18-8.1-18-18V54c0-9.9,8.1-18,18-18h72c9.9,0,18,8.1,18,18v36C144,99.9,135.9,108,126,108
			z"/>
		<g>
			<path class="st3" d="M139.3,137.9l-2.7-4.6c-1.2-0.5-2.4-1.2-3.5-2h-5.4l-4.9-8.5l2.7-4.6c-0.1-0.7-0.1-1.4-0.1-2
				c0-0.6,0-1.3,0.1-2l-2.7-4.6l4.9-8.5h5.4c1.1-0.8,2.3-1.5,3.5-2l2.7-4.6h9.8l2.7,4.6c1.2,0.5,2.4,1.2,3.5,2h5.4l4.9,8.5l-2.7,4.6
				c0.1,0.7,0.1,1.4,0.1,2c0,0.6,0,1.3-0.1,2l2.7,4.6l-4.9,8.5h-5.4c-1.1,0.8-2.3,1.5-3.5,2l-2.7,4.6H139.3z M144.3,107.6
				c-4.7,0-8.5,3.8-8.5,8.5s3.8,8.5,8.5,8.5s8.5-3.8,8.5-8.5S148.9,107.6,144.3,107.6z"/>
			<path class="st4" d="M148.8,94.8l2.6,4.5c1.3,0.6,2.6,1.3,3.7,2.2h5.2l4.5,7.9l-2.6,4.5c0.1,0.7,0.1,1.4,0.1,2.2
				c0,0.7-0.1,1.5-0.1,2.2l2.6,4.5l-4.5,7.9h-5.2c-1.2,0.9-2.4,1.6-3.7,2.2l-2.6,4.5h-9.1l-2.6-4.5c-1.3-0.6-2.6-1.3-3.7-2.2h-5.2
				l-4.5-7.9l2.6-4.5c-0.1-0.7-0.1-1.4-0.1-2.2c0-0.7,0.1-1.5,0.1-2.2l-2.6-4.5l4.5-7.9h5.2c1.2-0.9,2.4-1.6,3.7-2.2l2.6-4.5H148.8
				 M144.3,125.1c5,0,9.1-4.1,9.1-9.1c0-5-4.1-9.1-9.1-9.1c-5,0-9.1,4.1-9.1,9.1C135.2,121.1,139.2,125.1,144.3,125.1 M149.5,93.6
				h-0.7h-9.1H139l-0.4,0.6l-2.4,4.1c-1.1,0.5-2.2,1.2-3.3,1.9h-4.8h-0.7l-0.4,0.6l-4.5,7.9l-0.4,0.6l0.4,0.6l2.4,4.1
				c-0.1,0.7-0.1,1.3-0.1,1.9c0,0.6,0,1.2,0.1,1.9l-2.4,4.1l-0.4,0.6l0.4,0.6l4.5,7.9l0.4,0.6h0.7h4.8c1.1,0.8,2.2,1.4,3.3,1.9
				l2.4,4.1l0.4,0.6h0.7h9.1h0.7l0.4-0.6l2.4-4.1c1.1-0.5,2.2-1.2,3.3-1.9h4.8h0.7l0.4-0.6l4.5-7.9l0.4-0.6l-0.4-0.6l-2.4-4.1
				c0.1-0.7,0.1-1.3,0.1-1.9c0-0.6,0-1.2-0.1-1.9l2.4-4.1l0.4-0.6l-0.4-0.6l-4.5-7.9l-0.4-0.6h-0.7h-4.8c-1.1-0.8-2.2-1.4-3.3-1.9
				l-2.4-4.1L149.5,93.6L149.5,93.6z M144.3,123.9c-4.3,0-7.8-3.5-7.8-7.8s3.5-7.8,7.8-7.8s7.8,3.5,7.8,7.8S148.6,123.9,144.3,123.9
				L144.3,123.9z"/>
		</g>
		<g>
			<rect x="18" y="27" class="st5" width="18" height="18"/>
			<path class="st6" d="M26.4,39.4c-0.4,0.4-0.9,0.9-1.6,1.6c0-1.1,0-2.7,0-4.9c0.2-0.2,0.4-0.4,0.8-0.8c0.2,0.2,0.4,0.4,0.8,0.8
				C26.4,36.9,26.4,37.9,26.4,39.4z M31.7,28.8c-0.4,0.4-0.9,0.9-1.6,1.6c-0.7,0-1.8,0-3.3,0c-0.4-0.4-0.9-0.9-1.6-1.6
				C26.6,28.8,28.8,28.8,31.7,28.8z M25.2,41c0.4-0.4,0.9-0.9,1.6-1.6c0.7,0,1.8,0,3.3,0c0.4,0.4,0.9,0.9,1.6,1.6
				C30.2,41,28.1,41,25.2,41z M25.6,34.9c0.2-0.2,0.4-0.4,0.8-0.8c0.9,0,2.3,0,4,0c0.2,0.2,0.5,0.5,0.8,0.8
				c-0.2,0.2-0.4,0.5-0.8,0.8c-0.9,0-2.2,0-4,0C26.2,35.5,26,35.3,25.6,34.9z M30.5,30.5c0.4-0.4,0.9-0.9,1.6-1.6c0,1.1,0,2.7,0,4.9
				c-0.2,0.2-0.5,0.4-0.8,0.8c-0.2-0.2-0.4-0.4-0.8-0.8C30.5,33,30.5,31.9,30.5,30.5z"/>
		</g>
		<g>
			<polygon class="st6" points="46.8,21.7 36,28.7 39.6,28.7 36,36 46.8,29.1 43.2,29.1 46.8,21.7 			"/>
		</g>
		<g>
			<rect x="40.5" y="144" class="st5" width="99" height="54"/>
			<path class="st4" d="M48.1,148.3l1.8-3.8h1.9l-2.8,5.4v3.1h-1.8v-3.1l-2.8-5.4h1.9L48.1,148.3z"/>
			<path class="st4" d="M51.8,149.8c0-0.6,0.1-1.2,0.4-1.7s0.6-0.9,1-1.1s1-0.4,1.6-0.4c0.9,0,1.6,0.3,2.1,0.8s0.8,1.2,0.9,2.1
				l0,0.4c0,1-0.3,1.8-0.8,2.3s-1.3,0.9-2.2,0.9s-1.6-0.3-2.2-0.9S51.8,150.9,51.8,149.8L51.8,149.8z M53.5,149.9
				c0,0.6,0.1,1.1,0.3,1.4c0.2,0.3,0.6,0.5,1,0.5c0.4,0,0.7-0.2,1-0.5c0.2-0.3,0.3-0.8,0.3-1.5c0-0.6-0.1-1-0.3-1.4
				c-0.2-0.3-0.6-0.5-1-0.5c-0.4,0-0.7,0.2-1,0.5C53.6,148.7,53.5,149.2,53.5,149.9z"/>
			<path class="st4" d="M62.7,152.4c-0.4,0.5-1,0.8-1.7,0.8c-0.7,0-1.2-0.2-1.6-0.6s-0.5-1-0.5-1.7v-4.2h1.7v4.1c0,0.7,0.3,1,0.9,1
				c0.6,0,1-0.2,1.2-0.6v-4.5h1.7v6.3h-1.6L62.7,152.4z"/>
			<path class="st4" d="M69.2,148.2c-0.2,0-0.4,0-0.6,0c-0.6,0-1.1,0.2-1.3,0.7v4.1h-1.7v-6.3h1.6l0,0.8c0.3-0.6,0.8-0.9,1.4-0.9
				c0.2,0,0.4,0,0.5,0.1L69.2,148.2z"/>
			<path class="st4" d="M72.4,153l1.5-8.5l2.7,0c1,0,1.7,0.2,2.2,0.6s0.7,1,0.7,1.7c-0.1,0.9-0.6,1.5-1.5,1.9
				c0.3,0.1,0.6,0.3,0.8,0.7s0.3,0.7,0.2,1.1c-0.1,0.8-0.4,1.4-0.9,1.9s-1.4,0.7-2.4,0.7H72.4z M74.8,149.3l-0.4,2.3l1.4,0
				c0.4,0,0.8-0.1,1.1-0.3s0.5-0.5,0.5-0.8c0.1-0.4,0-0.6-0.1-0.8s-0.4-0.3-0.8-0.3L74.8,149.3z M75,148l1.2,0
				c0.4,0,0.8-0.1,1.1-0.3s0.4-0.5,0.5-0.8c0.1-0.7-0.3-1-1.1-1l-1.3,0L75,148z"/>
			<path class="st4" d="M83.4,146.5c0.6,0,1,0.2,1.4,0.4s0.7,0.7,0.9,1.2s0.3,1,0.2,1.6c-0.1,1-0.4,1.8-1.1,2.4s-1.4,0.9-2.3,0.9
				c-0.6,0-1-0.1-1.4-0.4s-0.7-0.7-0.9-1.1s-0.3-1-0.2-1.6c0.1-1,0.5-1.9,1.1-2.5S82.6,146.5,83.4,146.5z M81.8,150.5
				c0,0.4,0.1,0.7,0.3,0.9c0.2,0.2,0.4,0.3,0.7,0.3c0.5,0,0.9-0.2,1.2-0.7s0.4-1.1,0.4-1.9c0-0.4-0.1-0.7-0.3-0.9
				c-0.2-0.2-0.4-0.3-0.7-0.3c-0.5,0-0.9,0.2-1.2,0.7C81.9,149.1,81.7,149.7,81.8,150.5z"/>
			<path class="st4" d="M89.8,145.1l-0.3,1.6h1.1l-0.2,1.2h-1.1l-0.5,3.2c0,0.2,0,0.4,0,0.5s0.2,0.2,0.4,0.2c0.1,0,0.2,0,0.5,0
				l-0.1,1.3c-0.3,0.1-0.6,0.1-0.9,0.1c-0.5,0-0.9-0.2-1.2-0.5s-0.4-0.8-0.3-1.3l0.5-3.3h-0.9l0.2-1.2h0.9l0.3-1.6H89.8z"/>
			<path class="st4" d="M94.1,151.2c0.1-0.3-0.2-0.5-0.7-0.7l-0.5-0.1c-1.3-0.3-1.9-1-1.8-1.8c0-0.6,0.3-1.1,0.8-1.5
				s1.1-0.6,1.8-0.6c0.7,0,1.3,0.2,1.7,0.6s0.7,0.9,0.7,1.5l-1.6,0c0-0.5-0.3-0.8-0.8-0.8c-0.3,0-0.5,0.1-0.7,0.2s-0.3,0.3-0.3,0.5
				c-0.1,0.3,0.2,0.5,0.7,0.7l0.2,0.1c0.5,0.1,1,0.3,1.2,0.4s0.5,0.4,0.7,0.6s0.2,0.5,0.2,0.9c0,0.4-0.1,0.8-0.4,1.1s-0.6,0.5-1,0.7
				s-0.9,0.2-1.4,0.2c-0.7,0-1.3-0.2-1.8-0.6s-0.7-0.9-0.7-1.5l1.6,0c0,0.6,0.3,0.9,1,0.9c0.3,0,0.6-0.1,0.8-0.2
				S94.1,151.4,94.1,151.2z"/>
			<path class="st4" d="M102.1,145.1v1.6h1.1v1.2h-1.1v3.2c0,0.2,0,0.4,0.1,0.5s0.3,0.2,0.5,0.2c0.2,0,0.4,0,0.5,0v1.3
				c-0.3,0.1-0.7,0.2-1,0.2c-1.2,0-1.8-0.6-1.8-1.8v-3.4h-0.9v-1.2h0.9v-1.6H102.1z"/>
			<path class="st4" d="M107.7,148.2c-0.2,0-0.4,0-0.6,0c-0.6,0-1.1,0.2-1.3,0.7v4.1h-1.7v-6.3h1.6l0,0.8c0.3-0.6,0.8-0.9,1.4-0.9
				c0.2,0,0.4,0,0.5,0.1L107.7,148.2z"/>
			<path class="st4" d="M108.5,145c0-0.3,0.1-0.5,0.3-0.6s0.4-0.2,0.7-0.2c0.3,0,0.5,0.1,0.7,0.2s0.3,0.4,0.3,0.6
				c0,0.3-0.1,0.5-0.3,0.6s-0.4,0.2-0.7,0.2s-0.5-0.1-0.7-0.2S108.5,145.3,108.5,145z M110.3,153h-1.7v-6.3h1.7V153z"/>
			<path class="st4" d="M111.4,149.8c0-1,0.2-1.8,0.7-2.3s1.1-0.9,1.9-0.9c0.7,0,1.2,0.2,1.6,0.7l0.1-0.6h1.5v6.1
				c0,0.6-0.1,1-0.4,1.4s-0.6,0.7-1.1,0.9s-1,0.3-1.6,0.3c-0.5,0-0.9-0.1-1.4-0.3s-0.8-0.4-1-0.7l0.8-1c0.4,0.5,0.9,0.7,1.5,0.7
				c0.4,0,0.8-0.1,1-0.4s0.4-0.6,0.4-1v-0.3c-0.4,0.4-0.9,0.7-1.5,0.7c-0.8,0-1.4-0.3-1.8-0.9S111.4,150.8,111.4,149.8L111.4,149.8z
				 M113.1,149.9c0,0.6,0.1,1,0.3,1.4c0.2,0.3,0.5,0.5,0.9,0.5c0.5,0,0.9-0.2,1.1-0.6v-2.7c-0.2-0.4-0.6-0.6-1.1-0.6
				c-0.4,0-0.7,0.2-1,0.5C113.2,148.7,113.1,149.2,113.1,149.9z"/>
			<path class="st4" d="M118.3,149.8c0-1,0.2-1.8,0.7-2.3s1.1-0.9,1.9-0.9c0.7,0,1.2,0.2,1.6,0.7l0.1-0.6h1.5v6.1
				c0,0.6-0.1,1-0.4,1.4s-0.6,0.7-1.1,0.9s-1,0.3-1.6,0.3c-0.5,0-0.9-0.1-1.4-0.3s-0.8-0.4-1-0.7l0.8-1c0.4,0.5,0.9,0.7,1.5,0.7
				c0.4,0,0.8-0.1,1-0.4s0.4-0.6,0.4-1v-0.3c-0.4,0.4-0.9,0.7-1.5,0.7c-0.8,0-1.4-0.3-1.8-0.9S118.3,150.8,118.3,149.8L118.3,149.8z
				 M120,149.9c0,0.6,0.1,1,0.3,1.4c0.2,0.3,0.5,0.5,0.9,0.5c0.5,0,0.9-0.2,1.1-0.6v-2.7c-0.2-0.4-0.6-0.6-1.1-0.6
				c-0.4,0-0.7,0.2-1,0.5C120.1,148.7,120,149.2,120,149.9z"/>
			<path class="st4" d="M128.3,153.1c-0.9,0-1.7-0.3-2.3-0.9s-0.9-1.3-0.9-2.3v-0.2c0-0.6,0.1-1.2,0.4-1.7s0.6-0.9,1-1.2
				s1-0.4,1.5-0.4c0.9,0,1.5,0.3,2,0.8s0.7,1.3,0.7,2.3v0.7h-4c0.1,0.4,0.2,0.7,0.5,1s0.6,0.4,1,0.4c0.7,0,1.2-0.2,1.5-0.7l0.8,0.9
				c-0.3,0.4-0.6,0.6-1,0.8S128.8,153.1,128.3,153.1z M128.1,147.9c-0.3,0-0.6,0.1-0.8,0.3s-0.3,0.6-0.4,1h2.4v-0.1
				c0-0.4-0.1-0.7-0.3-0.9S128.5,147.9,128.1,147.9z"/>
			<path class="st4" d="M135.4,148.2c-0.2,0-0.4,0-0.6,0c-0.6,0-1.1,0.2-1.3,0.7v4.1h-1.7v-6.3h1.6l0,0.8c0.3-0.6,0.8-0.9,1.4-0.9
				c0.2,0,0.4,0,0.5,0.1L135.4,148.2z"/>
			<path class="st4" d="M63.4,159.5v1.6h1.1v1.2h-1.1v3.2c0,0.2,0,0.4,0.1,0.5s0.3,0.2,0.5,0.2c0.2,0,0.4,0,0.5,0v1.3
				c-0.3,0.1-0.7,0.2-1,0.2c-1.2,0-1.8-0.6-1.8-1.8v-3.4h-0.9v-1.2h0.9v-1.6H63.4z"/>
			<path class="st4" d="M67,161.8c0.4-0.5,1-0.8,1.7-0.8c1.4,0,2.1,0.8,2.1,2.4v4.1h-1.7v-4c0-0.4-0.1-0.6-0.2-0.8
				c-0.2-0.2-0.4-0.3-0.8-0.3c-0.5,0-0.9,0.2-1.1,0.6v4.5h-1.7v-9H67V161.8z"/>
			<path class="st4" d="M75,167.5c-0.9,0-1.7-0.3-2.3-0.9s-0.9-1.3-0.9-2.3v-0.2c0-0.6,0.1-1.2,0.4-1.7s0.6-0.9,1-1.2s1-0.4,1.5-0.4
				c0.9,0,1.5,0.3,2,0.8s0.7,1.3,0.7,2.3v0.7h-4c0.1,0.4,0.2,0.7,0.5,1s0.6,0.4,1,0.4c0.7,0,1.2-0.2,1.5-0.7l0.8,0.9
				c-0.3,0.4-0.6,0.6-1,0.8S75.5,167.5,75,167.5z M74.8,162.3c-0.3,0-0.6,0.1-0.8,0.3s-0.3,0.6-0.4,1H76v-0.1c0-0.4-0.1-0.7-0.3-0.9
				S75.2,162.3,74.8,162.3z"/>
			<path class="st4" d="M78.6,159.4c0-0.3,0.1-0.5,0.3-0.6s0.4-0.2,0.7-0.2c0.3,0,0.5,0.1,0.7,0.2s0.3,0.4,0.3,0.6
				c0,0.3-0.1,0.5-0.3,0.6s-0.4,0.2-0.7,0.2s-0.5-0.1-0.7-0.2S78.6,159.7,78.6,159.4z M80.4,167.4h-1.7v-6.3h1.7V167.4z"/>
			<path class="st4" d="M85.3,162.6c-0.2,0-0.4,0-0.6,0c-0.6,0-1.1,0.2-1.3,0.7v4.1h-1.7v-6.3h1.6l0,0.8c0.3-0.6,0.8-0.9,1.4-0.9
				c0.2,0,0.4,0,0.5,0.1L85.3,162.6z"/>
			<path class="st4" d="M88.6,167.4l1.5-8.5l2.4,0c0.6,0,1.1,0.1,1.5,0.4s0.8,0.6,1.1,1.1s0.5,1,0.5,1.6c0,0.3,0,0.7,0,1l0,0.3
				c-0.2,1.3-0.7,2.3-1.5,3s-1.8,1.1-3,1.1H88.6z M91.6,160.3l-1,5.7l0.7,0c0.8,0,1.4-0.3,1.9-0.9s0.8-1.5,0.8-2.6l0-0.2
				c0-0.6-0.1-1.1-0.4-1.5s-0.6-0.5-1.2-0.5L91.6,160.3z"/>
			<path class="st4" d="M99.1,167.5c-0.6,0-1-0.1-1.5-0.4s-0.7-0.6-1-1.1s-0.3-1-0.2-1.5l0-0.2c0.1-0.6,0.2-1.2,0.5-1.7
				s0.7-0.9,1.2-1.2s1-0.4,1.6-0.4c0.8,0,1.4,0.3,1.9,0.9s0.6,1.3,0.5,2.2l-0.1,0.7h-3.9c0,0.4,0.1,0.7,0.3,1s0.5,0.4,0.9,0.4
				c0.6,0,1.1-0.2,1.6-0.7l0.8,0.9c-0.2,0.4-0.6,0.6-1,0.8S99.7,167.5,99.1,167.5z M99.7,162.3c-0.3,0-0.6,0.1-0.8,0.3
				s-0.4,0.5-0.6,1h2.3l0-0.2c0-0.2,0-0.3,0-0.4c0-0.2-0.1-0.4-0.3-0.5S99.9,162.3,99.7,162.3z"/>
			<path class="st4" d="M106.1,167.4c-0.1-0.2-0.1-0.4-0.1-0.6c-0.5,0.5-1,0.7-1.6,0.7c-0.6,0-1-0.2-1.4-0.5s-0.5-0.8-0.5-1.3
				c0-0.7,0.3-1.2,0.9-1.6s1.3-0.6,2.2-0.6l0.8,0l0.1-0.4c0-0.1,0-0.3,0-0.4c0-0.2-0.1-0.3-0.2-0.4s-0.3-0.2-0.5-0.2
				c-0.3,0-0.5,0.1-0.7,0.2s-0.3,0.3-0.3,0.6l-1.7,0c0-0.6,0.3-1.1,0.8-1.5s1.2-0.6,2-0.6c0.7,0,1.3,0.2,1.7,0.6s0.6,0.9,0.5,1.6
				l-0.5,3l0,0.4c0,0.3,0,0.5,0.1,0.7l0,0.1H106.1z M104.9,166.2c0.5,0,0.9-0.2,1.2-0.6l0.2-1.1l-0.6,0c-0.6,0-1,0.2-1.3,0.6
				c-0.1,0.1-0.2,0.3-0.2,0.5c0,0.2,0,0.4,0.1,0.5S104.7,166.2,104.9,166.2z"/>
			<path class="st4" d="M112.1,159.5l-0.3,1.6h1.1l-0.2,1.2h-1.1l-0.5,3.2c0,0.2,0,0.4,0,0.5s0.2,0.2,0.4,0.2c0.1,0,0.2,0,0.5,0
				l-0.1,1.3c-0.3,0.1-0.6,0.1-0.9,0.1c-0.5,0-0.9-0.2-1.2-0.5s-0.4-0.8-0.3-1.3l0.5-3.3h-0.9l0.2-1.2h0.9l0.3-1.6H112.1z"/>
			<path class="st4" d="M115.3,161.8c0.5-0.6,1.1-0.8,1.7-0.8c0.6,0,1.1,0.2,1.4,0.7s0.4,1,0.3,1.8l-0.7,4h-1.7l0.7-4
				c0-0.2,0-0.3,0-0.4c0-0.4-0.3-0.6-0.7-0.7c-0.4,0-0.8,0.2-1.2,0.6l-0.8,4.5h-1.7l1.6-9h1.7L115.3,161.8z"/>
			<path class="st4" d="M64.9,181.8c-0.1-0.2-0.1-0.3-0.2-0.6c-0.4,0.5-0.9,0.7-1.6,0.7c-0.6,0-1.1-0.2-1.5-0.5S61,180.6,61,180
				c0-0.7,0.2-1.2,0.7-1.5s1.2-0.5,2.2-0.5h0.8v-0.4c0-0.3-0.1-0.5-0.2-0.7s-0.4-0.3-0.7-0.3c-0.3,0-0.5,0.1-0.7,0.2
				s-0.2,0.3-0.2,0.6h-1.7c0-0.4,0.1-0.7,0.3-1s0.5-0.6,1-0.7s0.9-0.3,1.4-0.3c0.8,0,1.4,0.2,1.9,0.6s0.7,0.9,0.7,1.7v2.7
				c0,0.6,0.1,1.1,0.3,1.4v0.1H64.9z M63.5,180.6c0.3,0,0.5-0.1,0.7-0.2s0.4-0.3,0.5-0.4v-1.1h-0.6c-0.8,0-1.3,0.3-1.4,0.9l0,0.1
				c0,0.2,0.1,0.4,0.2,0.5S63.3,180.6,63.5,180.6z"/>
			<path class="st4" d="M73.4,178.7c0,1-0.2,1.8-0.7,2.4s-1,0.9-1.8,0.9c-0.7,0-1.2-0.3-1.6-0.8l-0.1,0.7h-1.5v-9h1.7v3.2
				c0.4-0.5,0.9-0.7,1.5-0.7c0.8,0,1.4,0.3,1.8,0.9S73.4,177.6,73.4,178.7L73.4,178.7z M71.7,178.6c0-0.6-0.1-1.1-0.3-1.4
				s-0.5-0.4-0.9-0.4c-0.5,0-0.9,0.2-1.1,0.7v2.5c0.2,0.4,0.6,0.7,1.1,0.7c0.5,0,0.9-0.3,1.1-0.8C71.7,179.5,71.7,179.1,71.7,178.6z
				"/>
			<path class="st4" d="M74.4,173.8c0-0.3,0.1-0.5,0.3-0.6s0.4-0.2,0.7-0.2c0.3,0,0.5,0.1,0.7,0.2s0.3,0.4,0.3,0.6
				c0,0.3-0.1,0.5-0.3,0.6s-0.4,0.2-0.7,0.2s-0.5-0.1-0.7-0.2S74.4,174.1,74.4,173.8z M76.2,181.8h-1.7v-6.3h1.7V181.8z"/>
			<path class="st4" d="M79.4,181.8h-1.7v-9h1.7V181.8z"/>
			<path class="st4" d="M80.8,173.8c0-0.3,0.1-0.5,0.3-0.6s0.4-0.2,0.7-0.2c0.3,0,0.5,0.1,0.7,0.2s0.3,0.4,0.3,0.6
				c0,0.3-0.1,0.5-0.3,0.6s-0.4,0.2-0.7,0.2s-0.5-0.1-0.7-0.2S80.8,174.1,80.8,173.8z M82.6,181.8h-1.7v-6.3h1.7V181.8z"/>
			<path class="st4" d="M86,173.9v1.6h1.1v1.2H86v3.2c0,0.2,0,0.4,0.1,0.5s0.3,0.2,0.5,0.2c0.2,0,0.4,0,0.5,0v1.3
				c-0.3,0.1-0.7,0.2-1,0.2c-1.2,0-1.8-0.6-1.8-1.8v-3.4h-0.9v-1.2h0.9v-1.6H86z"/>
			<path class="st4" d="M88,173.8c0-0.3,0.1-0.5,0.3-0.6s0.4-0.2,0.7-0.2c0.3,0,0.5,0.1,0.7,0.2s0.3,0.4,0.3,0.6
				c0,0.3-0.1,0.5-0.3,0.6s-0.4,0.2-0.7,0.2s-0.5-0.1-0.7-0.2S88,174.1,88,173.8z M89.8,181.8h-1.7v-6.3h1.7V181.8z"/>
			<path class="st4" d="M94.2,181.9c-0.9,0-1.7-0.3-2.3-0.9s-0.9-1.3-0.9-2.3v-0.2c0-0.6,0.1-1.2,0.4-1.7s0.6-0.9,1-1.2
				s1-0.4,1.5-0.4c0.9,0,1.5,0.3,2,0.8s0.7,1.3,0.7,2.3v0.7h-4c0.1,0.4,0.2,0.7,0.5,1s0.6,0.4,1,0.4c0.7,0,1.2-0.2,1.5-0.7l0.8,0.9
				c-0.3,0.4-0.6,0.6-1,0.8S94.7,181.9,94.2,181.9z M94,176.7c-0.3,0-0.6,0.1-0.8,0.3s-0.3,0.6-0.4,1h2.4v-0.1
				c0-0.4-0.1-0.7-0.3-0.9S94.3,176.7,94,176.7z"/>
			<path class="st4" d="M101.2,180c0-0.2-0.1-0.4-0.3-0.5s-0.5-0.2-1-0.3c-1.5-0.3-2.3-1-2.3-1.9c0-0.6,0.2-1,0.7-1.4
				s1.1-0.6,1.8-0.6c0.8,0,1.4,0.2,1.9,0.6s0.7,0.9,0.7,1.5h-1.7c0-0.2-0.1-0.4-0.2-0.6s-0.4-0.2-0.7-0.2c-0.3,0-0.5,0.1-0.7,0.2
				s-0.2,0.3-0.2,0.5c0,0.2,0.1,0.3,0.3,0.5s0.5,0.2,0.9,0.3s0.8,0.2,1.1,0.3c0.9,0.3,1.3,0.9,1.3,1.7c0,0.6-0.2,1-0.7,1.4
				s-1.1,0.5-1.9,0.5c-0.5,0-1-0.1-1.4-0.3s-0.7-0.4-1-0.8s-0.4-0.7-0.4-1.1H99c0,0.3,0.1,0.5,0.3,0.7s0.5,0.2,0.8,0.2
				c0.3,0,0.6-0.1,0.7-0.2S101.2,180.2,101.2,180z"/>
			<path class="st4" d="M110.6,181.8c-0.1-0.2-0.1-0.3-0.2-0.6c-0.4,0.5-0.9,0.7-1.6,0.7c-0.6,0-1.1-0.2-1.5-0.5s-0.6-0.8-0.6-1.4
				c0-0.7,0.2-1.2,0.7-1.5s1.2-0.5,2.2-0.5h0.8v-0.4c0-0.3-0.1-0.5-0.2-0.7s-0.4-0.3-0.7-0.3c-0.3,0-0.5,0.1-0.7,0.2
				s-0.2,0.3-0.2,0.6h-1.7c0-0.4,0.1-0.7,0.3-1s0.5-0.6,1-0.7s0.9-0.3,1.4-0.3c0.8,0,1.4,0.2,1.9,0.6s0.7,0.9,0.7,1.7v2.7
				c0,0.6,0.1,1.1,0.3,1.4v0.1H110.6z M109.2,180.6c0.3,0,0.5-0.1,0.7-0.2s0.4-0.3,0.5-0.4v-1.1h-0.6c-0.8,0-1.3,0.3-1.4,0.9l0,0.1
				c0,0.2,0.1,0.4,0.2,0.5S108.9,180.6,109.2,180.6z"/>
			<path class="st4" d="M114.9,175.5l0.1,0.7c0.5-0.6,1.1-0.8,1.8-0.8c0.7,0,1.2,0.2,1.5,0.6s0.5,1,0.5,1.8v4.1h-1.7v-4.1
				c0-0.4-0.1-0.6-0.2-0.8c-0.2-0.2-0.4-0.2-0.8-0.2c-0.5,0-0.8,0.2-1.1,0.6v4.5h-1.7v-6.3H114.9z"/>
			<path class="st4" d="M54,196.2c-0.1-0.2-0.1-0.3-0.2-0.6c-0.4,0.5-0.9,0.7-1.6,0.7c-0.6,0-1.1-0.2-1.5-0.5s-0.6-0.8-0.6-1.4
				c0-0.7,0.2-1.2,0.7-1.5s1.2-0.5,2.2-0.5h0.8V192c0-0.3-0.1-0.5-0.2-0.7s-0.4-0.3-0.7-0.3c-0.3,0-0.5,0.1-0.7,0.2
				s-0.2,0.3-0.2,0.6h-1.7c0-0.4,0.1-0.7,0.3-1s0.5-0.6,1-0.7s0.9-0.3,1.4-0.3c0.8,0,1.4,0.2,1.9,0.6s0.7,0.9,0.7,1.7v2.7
				c0,0.6,0.1,1.1,0.3,1.4v0.1H54z M52.6,195c0.3,0,0.5-0.1,0.7-0.2s0.4-0.3,0.5-0.4v-1.1h-0.6c-0.8,0-1.3,0.3-1.4,0.9l0,0.1
				c0,0.2,0.1,0.4,0.2,0.5S52.4,195,52.6,195z"/>
			<path class="st4" d="M56.5,193c0-1,0.2-1.8,0.7-2.4s1-0.9,1.8-0.9c0.6,0,1.1,0.2,1.5,0.7v-3.2h1.7v9h-1.5l-0.1-0.7
				c-0.4,0.5-1,0.8-1.6,0.8c-0.7,0-1.3-0.3-1.8-0.9S56.5,194,56.5,193z M58.2,193.1c0,0.6,0.1,1.1,0.3,1.4c0.2,0.3,0.5,0.5,0.9,0.5
				c0.5,0,0.9-0.2,1.1-0.7v-2.5c-0.2-0.4-0.6-0.7-1.1-0.7C58.6,191.1,58.2,191.8,58.2,193.1z"/>
			<path class="st4" d="M63.3,193c0-1,0.2-1.8,0.7-2.4s1-0.9,1.8-0.9c0.6,0,1.1,0.2,1.5,0.7v-3.2H69v9h-1.5l-0.1-0.7
				c-0.4,0.5-1,0.8-1.6,0.8c-0.7,0-1.3-0.3-1.8-0.9S63.3,194,63.3,193z M65,193.1c0,0.6,0.1,1.1,0.3,1.4c0.2,0.3,0.5,0.5,0.9,0.5
				c0.5,0,0.9-0.2,1.1-0.7v-2.5c-0.2-0.4-0.6-0.7-1.1-0.7C65.4,191.1,65,191.8,65,193.1z"/>
			<path class="st4" d="M70.3,188.2c0-0.3,0.1-0.5,0.3-0.6s0.4-0.2,0.7-0.2c0.3,0,0.5,0.1,0.7,0.2s0.3,0.4,0.3,0.6
				c0,0.3-0.1,0.5-0.3,0.6s-0.4,0.2-0.7,0.2s-0.5-0.1-0.7-0.2S70.3,188.5,70.3,188.2z M72.1,196.2h-1.7v-6.3h1.7V196.2z"/>
			<path class="st4" d="M75.5,188.3v1.6h1.1v1.2h-1.1v3.2c0,0.2,0,0.4,0.1,0.5s0.3,0.2,0.5,0.2c0.2,0,0.4,0,0.5,0v1.3
				c-0.3,0.1-0.7,0.2-1,0.2c-1.2,0-1.8-0.6-1.8-1.8v-3.4h-0.9v-1.2h0.9v-1.6H75.5z"/>
			<path class="st4" d="M77.5,188.2c0-0.3,0.1-0.5,0.3-0.6s0.4-0.2,0.7-0.2c0.3,0,0.5,0.1,0.7,0.2s0.3,0.4,0.3,0.6
				c0,0.3-0.1,0.5-0.3,0.6s-0.4,0.2-0.7,0.2s-0.5-0.1-0.7-0.2S77.5,188.5,77.5,188.2z M79.3,196.2h-1.7v-6.3h1.7V196.2z"/>
			<path class="st4" d="M80.5,193c0-0.6,0.1-1.2,0.4-1.7s0.6-0.9,1-1.1s1-0.4,1.6-0.4c0.9,0,1.6,0.3,2.1,0.8s0.8,1.2,0.9,2.1l0,0.4
				c0,1-0.3,1.8-0.8,2.3s-1.3,0.9-2.2,0.9s-1.6-0.3-2.2-0.9S80.5,194.1,80.5,193L80.5,193z M82.2,193.1c0,0.6,0.1,1.1,0.3,1.4
				c0.2,0.3,0.6,0.5,1,0.5c0.4,0,0.7-0.2,1-0.5c0.2-0.3,0.3-0.8,0.3-1.5c0-0.6-0.1-1-0.3-1.4c-0.2-0.3-0.6-0.5-1-0.5
				c-0.4,0-0.7,0.2-1,0.5C82.3,191.9,82.2,192.4,82.2,193.1z"/>
			<path class="st4" d="M89.1,189.9l0.1,0.7c0.5-0.6,1.1-0.8,1.8-0.8c0.7,0,1.2,0.2,1.5,0.6s0.5,1,0.5,1.8v4.1h-1.7v-4.1
				c0-0.4-0.1-0.6-0.2-0.8c-0.2-0.2-0.4-0.2-0.8-0.2c-0.5,0-0.8,0.2-1.1,0.6v4.5h-1.7v-6.3H89.1z"/>
			<path class="st4" d="M97.9,196.2c-0.1-0.2-0.1-0.3-0.2-0.6c-0.4,0.5-0.9,0.7-1.6,0.7c-0.6,0-1.1-0.2-1.5-0.5S94,195,94,194.4
				c0-0.7,0.2-1.2,0.7-1.5s1.2-0.5,2.2-0.5h0.8V192c0-0.3-0.1-0.5-0.2-0.7s-0.4-0.3-0.7-0.3c-0.3,0-0.5,0.1-0.7,0.2
				s-0.2,0.3-0.2,0.6h-1.7c0-0.4,0.1-0.7,0.3-1s0.5-0.6,1-0.7s0.9-0.3,1.4-0.3c0.8,0,1.4,0.2,1.9,0.6s0.7,0.9,0.7,1.7v2.7
				c0,0.6,0.1,1.1,0.3,1.4v0.1H97.9z M96.5,195c0.3,0,0.5-0.1,0.7-0.2s0.4-0.3,0.5-0.4v-1.1H97c-0.8,0-1.3,0.3-1.4,0.9l0,0.1
				c0,0.2,0.1,0.4,0.2,0.5S96.2,195,96.5,195z"/>
			<path class="st4" d="M102.5,196.2h-1.7v-9h1.7V196.2z"/>
			<path class="st4" d="M108.9,188.3v1.6h1.1v1.2h-1.1v3.2c0,0.2,0,0.4,0.1,0.5s0.3,0.2,0.5,0.2c0.2,0,0.4,0,0.5,0v1.3
				c-0.3,0.1-0.7,0.2-1,0.2c-1.2,0-1.8-0.6-1.8-1.8v-3.4h-0.9v-1.2h0.9v-1.6H108.9z"/>
			<path class="st4" d="M110.9,188.2c0-0.3,0.1-0.5,0.3-0.6s0.4-0.2,0.7-0.2c0.3,0,0.5,0.1,0.7,0.2s0.3,0.4,0.3,0.6
				c0,0.3-0.1,0.5-0.3,0.6s-0.4,0.2-0.7,0.2s-0.5-0.1-0.7-0.2S110.9,188.5,110.9,188.2z M112.7,196.2H111v-6.3h1.7V196.2z"/>
			<path class="st4" d="M115.7,189.9l0.1,0.7c0.4-0.6,1.1-0.8,1.8-0.8c0.8,0,1.4,0.3,1.7,1c0.4-0.6,1.1-1,1.9-1
				c0.7,0,1.2,0.2,1.5,0.6s0.5,1,0.5,1.8v4h-1.7v-4.1c0-0.4-0.1-0.6-0.2-0.8c-0.1-0.2-0.4-0.2-0.7-0.2c-0.5,0-0.9,0.2-1.1,0.7l0,4.4
				h-1.7v-4c0-0.4-0.1-0.6-0.2-0.8c-0.1-0.2-0.4-0.2-0.7-0.2c-0.5,0-0.8,0.2-1,0.6v4.5h-1.7v-6.3H115.7z"/>
			<path class="st4" d="M127.4,196.3c-0.9,0-1.7-0.3-2.3-0.9s-0.9-1.3-0.9-2.3V193c0-0.6,0.1-1.2,0.4-1.7s0.6-0.9,1-1.2
				s1-0.4,1.5-0.4c0.9,0,1.5,0.3,2,0.8s0.7,1.3,0.7,2.3v0.7h-4c0.1,0.4,0.2,0.7,0.5,1s0.6,0.4,1,0.4c0.7,0,1.2-0.2,1.5-0.7l0.8,0.9
				c-0.3,0.4-0.6,0.6-1,0.8S127.9,196.3,127.4,196.3z M127.2,191.1c-0.3,0-0.6,0.1-0.8,0.3s-0.3,0.6-0.4,1h2.4v-0.1
				c0-0.4-0.1-0.7-0.3-0.9S127.5,191.1,127.2,191.1z"/>
		</g>
		<g>
			<rect x="18" y="3.8" class="st5" width="144" height="12"/>
			<path class="st4" d="M40.1,12.8V4.2h2.7c0.8,0,1.4,0.2,2,0.5s1.1,0.8,1.4,1.4s0.5,1.3,0.5,2.1v0.4c0,0.8-0.2,1.5-0.5,2.1
				s-0.8,1.1-1.4,1.5s-1.3,0.5-2,0.5H40.1z M42.1,5.8v5.4h0.7c0.6,0,1-0.2,1.4-0.6s0.5-1,0.5-1.9V8.3c0-0.8-0.2-1.4-0.5-1.9
				s-0.8-0.6-1.4-0.6H42.1z"/>
			<path class="st4" d="M53.1,9.1h-3.2v2h3.8v1.6h-5.9V4.2h5.9v1.6h-3.8v1.8h3.2V9.1z"/>
			<path class="st4" d="M61.4,9.9c0,0.6-0.2,1.1-0.5,1.6s-0.7,0.8-1.2,1.1s-1.1,0.4-1.8,0.4c-1.1,0-2-0.4-2.6-1.1s-1-1.8-1-3.1V8.3
				c0-0.8,0.1-1.6,0.4-2.2S55.4,5,56,4.6s1.2-0.5,1.9-0.5c1,0,1.9,0.3,2.5,0.8s1,1.3,1.1,2.3h-2.1c0-0.5-0.1-0.9-0.4-1.1
				s-0.6-0.3-1.1-0.3c-0.5,0-0.9,0.2-1.1,0.6s-0.4,1-0.4,1.8v0.6c0,0.9,0.1,1.6,0.3,2s0.6,0.6,1.2,0.6c0.5,0,0.8-0.1,1.1-0.3
				s0.4-0.6,0.4-1.1H61.4z"/>
			<path class="st4" d="M69.6,8.7c0,0.8-0.2,1.6-0.5,2.2s-0.7,1.1-1.3,1.5s-1.2,0.5-1.9,0.5s-1.4-0.2-1.9-0.5s-1-0.8-1.3-1.4
				s-0.5-1.3-0.5-2.1V8.3c0-0.8,0.2-1.6,0.5-2.2S63.4,5,64,4.6s1.2-0.5,2-0.5c0.7,0,1.4,0.2,1.9,0.5s1,0.8,1.3,1.5s0.5,1.4,0.5,2.2
				V8.7z M67.5,8.3c0-0.8-0.1-1.5-0.4-1.9s-0.7-0.7-1.2-0.7c-1,0-1.6,0.8-1.6,2.3l0,0.6c0,0.8,0.1,1.5,0.4,1.9s0.7,0.7,1.2,0.7
				c0.5,0,0.9-0.2,1.2-0.7s0.4-1.1,0.4-1.9V8.3z"/>
			<path class="st4" d="M77.8,12.8h-2l-3-5.3v5.3h-2.1V4.2h2.1l3,5.3V4.2h2.1V12.8z"/>
			<path class="st4" d="M83.5,10.5c0-0.3-0.1-0.5-0.3-0.7s-0.6-0.3-1.1-0.5s-1-0.4-1.3-0.5c-1.1-0.5-1.7-1.3-1.7-2.2
				c0-0.5,0.1-0.9,0.4-1.3s0.7-0.6,1.2-0.8s1.1-0.3,1.7-0.3c0.6,0,1.2,0.1,1.6,0.3s0.9,0.5,1.1,0.9s0.4,0.9,0.4,1.4h-2.1
				c0-0.3-0.1-0.6-0.3-0.8s-0.5-0.3-0.9-0.3c-0.4,0-0.7,0.1-0.9,0.2s-0.3,0.4-0.3,0.6c0,0.2,0.1,0.4,0.4,0.6s0.6,0.4,1.2,0.6
				s1.1,0.4,1.5,0.6c0.9,0.5,1.4,1.3,1.4,2.2c0,0.7-0.3,1.3-0.8,1.8s-1.3,0.6-2.3,0.6c-0.7,0-1.3-0.1-1.9-0.4s-1-0.6-1.3-1
				s-0.4-0.9-0.4-1.5h2.1c0,0.5,0.1,0.8,0.4,1s0.6,0.3,1.2,0.3c0.3,0,0.6-0.1,0.8-0.2S83.5,10.7,83.5,10.5z"/>
			<path class="st4" d="M93.3,5.8h-2.6v6.9h-2.1V5.8h-2.5V4.2h7.1V5.8z"/>
			<path class="st4" d="M97.4,9.7h-1.1v3h-2.1V4.2h3.4c1,0,1.8,0.2,2.4,0.7c0.6,0.4,0.9,1.1,0.9,1.9c0,0.6-0.1,1.1-0.4,1.5
				S99.8,9,99.3,9.2l1.8,3.4v0.1h-2.2L97.4,9.7z M96.3,8.2h1.3c0.4,0,0.7-0.1,0.9-0.3c0.2-0.2,0.3-0.5,0.3-0.9s-0.1-0.7-0.3-0.9
				s-0.5-0.3-0.9-0.3h-1.3V8.2z"/>
			<path class="st4" d="M108.7,4.2v5.6c0,0.6-0.1,1.2-0.4,1.6s-0.7,0.8-1.2,1.1s-1.1,0.4-1.8,0.4c-1,0-1.9-0.3-2.5-0.8
				s-0.9-1.3-0.9-2.2V4.2h2.1v5.7c0,0.9,0.5,1.4,1.3,1.4c0.4,0,0.7-0.1,1-0.4s0.3-0.6,0.3-1.1V4.2H108.7z"/>
			<path class="st4" d="M116.9,9.9c0,0.6-0.2,1.1-0.5,1.6s-0.7,0.8-1.2,1.1s-1.1,0.4-1.8,0.4c-1.1,0-2-0.4-2.6-1.1s-1-1.8-1-3.1V8.3
				c0-0.8,0.1-1.6,0.4-2.2s0.7-1.1,1.3-1.5s1.2-0.5,1.9-0.5c1,0,1.9,0.3,2.5,0.8s1,1.3,1.1,2.3h-2.1c0-0.5-0.1-0.9-0.4-1.1
				s-0.6-0.3-1.1-0.3c-0.5,0-0.9,0.2-1.1,0.6s-0.4,1-0.4,1.8v0.6c0,0.9,0.1,1.6,0.3,2s0.6,0.6,1.2,0.6c0.5,0,0.8-0.1,1.1-0.3
				s0.4-0.6,0.4-1.1H116.9z"/>
			<path class="st4" d="M124.4,5.8h-2.6v6.9h-2.1V5.8h-2.5V4.2h7.1V5.8z"/>
			<path class="st4" d="M132.3,8.7c0,0.8-0.2,1.6-0.5,2.2s-0.7,1.1-1.3,1.5s-1.2,0.5-1.9,0.5s-1.4-0.2-1.9-0.5s-1-0.8-1.3-1.4
				s-0.5-1.3-0.5-2.1V8.3c0-0.8,0.2-1.6,0.5-2.2s0.7-1.1,1.3-1.5s1.2-0.5,2-0.5c0.7,0,1.4,0.2,1.9,0.5s1,0.8,1.3,1.5
				s0.5,1.4,0.5,2.2V8.7z M130.2,8.3c0-0.8-0.1-1.5-0.4-1.9s-0.7-0.7-1.2-0.7c-1,0-1.6,0.8-1.6,2.3l0,0.6c0,0.8,0.1,1.5,0.4,1.9
				s0.7,0.7,1.2,0.7c0.5,0,0.9-0.2,1.2-0.7s0.4-1.1,0.4-1.9V8.3z"/>
			<path class="st4" d="M136.6,9.7h-1.1v3h-2.1V4.2h3.4c1,0,1.8,0.2,2.4,0.7c0.6,0.4,0.9,1.1,0.9,1.9c0,0.6-0.1,1.1-0.4,1.5
				S139,9,138.5,9.2l1.8,3.4v0.1h-2.2L136.6,9.7z M135.5,8.2h1.3c0.4,0,0.7-0.1,0.9-0.3c0.2-0.2,0.3-0.5,0.3-0.9s-0.1-0.7-0.3-0.9
				s-0.5-0.3-0.9-0.3h-1.3V8.2z"/>
		</g>
		<g>
			<rect x="133.7" y="108" class="st5" width="18.2" height="18.2"/>
			<path class="st0" d="M147.5,109.8c-0.4,0.4-0.9,0.9-1.6,1.6c-0.7,0-1.8,0-3.3,0c-0.4-0.4-0.9-0.9-1.6-1.6
				C142.4,109.8,144.6,109.8,147.5,109.8z M141,122c0.4-0.4,0.9-0.9,1.6-1.6c0.7,0,1.8,0,3.3,0c0.4,0.4,0.9,0.9,1.6,1.6
				C146,122,143.9,122,141,122z M141.4,115.9c0.2-0.2,0.4-0.4,0.8-0.8c0.9,0,2.3,0,4,0c0.2,0.2,0.5,0.5,0.8,0.8
				c-0.2,0.2-0.4,0.5-0.8,0.8c-0.9,0-2.2,0-4,0C142,116.5,141.8,116.3,141.4,115.9z M146.3,111.5c0.4-0.4,0.9-0.9,1.6-1.6
				c0,1.1,0,2.7,0,4.9c-0.2,0.2-0.5,0.4-0.8,0.8c-0.2-0.2-0.4-0.4-0.8-0.8C146.3,114,146.3,112.9,146.3,111.5z M146.3,117.1
				c0.2-0.2,0.5-0.4,0.8-0.8c0.2,0.2,0.5,0.4,0.8,0.8c0,1.1,0,2.7,0,4.9c-0.4-0.4-0.9-0.9-1.6-1.6
				C146.3,119.7,146.3,118.6,146.3,117.1z"/>
		</g>
		<g>
			<circle class="st4" cx="18.9" cy="138.6" r="2.5"/>
			<g>
				<path class="st3" d="M18.5,147.3c-2.3,0-4.4-0.9-6-2.5c-1.6-1.6-2.5-3.7-2.5-6s0.9-4.4,2.5-6l12.7-12.7
					c-0.1-3.4,1.2-6.7,3.6-9.1c2.3-2.3,5.4-3.6,8.7-3.6c0.2,0,0.5,0,0.7,0l1.4,0.1l-5.8,5.8l2.1,8l8,2.1l5.8-5.8l0.1,1.4
					c0.2,3.5-1.1,6.9-3.6,9.4c-2.3,2.3-5.4,3.6-8.7,3.6c0,0-0.3,0-0.4,0l-12.7,12.7C22.9,146.4,20.8,147.3,18.5,147.3z M18.5,136.5
					c-0.6,0-1.2,0.2-1.7,0.7c-0.4,0.4-0.7,1-0.7,1.7c0,0.6,0.2,1.2,0.7,1.7c0.4,0.4,1,0.7,1.7,0.7s1.2-0.2,1.7-0.7
					c0.4-0.4,0.7-1,0.7-1.7c0-0.6-0.2-1.2-0.7-1.7C19.7,136.8,19.1,136.5,18.5,136.5z"/>
				<path class="st4" d="M37.6,108.1c0.2,0,0.4,0,0.6,0l-5.1,5.1l2.3,8.7l8.7,2.3l5.1-5.1c0.2,3.2-0.9,6.5-3.4,8.9
					c-2.3,2.3-5.3,3.4-8.3,3.4c-0.2,0-0.4,0-0.7,0l0,0L24,144.4c-1.5,1.5-3.5,2.3-5.5,2.3s-4-0.8-5.5-2.3c-3-3-3-8,0-11l12.9-12.9
					l0,0c-0.2-3.2,0.9-6.5,3.4-8.9C31.6,109.2,34.6,108.1,37.6,108.1 M18.5,141.9c0.8,0,1.5-0.3,2.1-0.9c1.2-1.2,1.2-3.1,0-4.2
					c-0.6-0.6-1.4-0.9-2.1-0.9c-0.8,0-1.5,0.3-2.1,0.9c-1.2,1.2-1.2,3.1,0,4.2C17,141.6,17.7,141.9,18.5,141.9 M37.6,106.9
					c-3.5,0-6.7,1.3-9.1,3.8c-2.5,2.5-3.8,5.8-3.8,9.3l-12.6,12.6c-3.5,3.5-3.5,9.3,0,12.8c1.7,1.7,4,2.7,6.4,2.7
					c2.4,0,4.7-0.9,6.4-2.7l12.6-12.6c0,0,0.1,0,0.1,0c3.5,0,6.7-1.3,9.1-3.8c2.6-2.6,4-6.2,3.8-9.9l-0.2-2.8l-2,2l-4.6,4.6l-7.3-2
					l-2-7.3l4.6-4.6l2-2l-2.8-0.2C38.1,106.9,37.8,106.9,37.6,106.9L37.6,106.9z M18.5,140.6c-0.5,0-0.9-0.2-1.2-0.5
					c-0.3-0.3-0.5-0.8-0.5-1.2s0.2-0.9,0.5-1.2s0.8-0.5,1.2-0.5c0.5,0,0.9,0.2,1.2,0.5c0.7,0.7,0.7,1.8,0,2.5
					C19.4,140.4,19,140.6,18.5,140.6L18.5,140.6z"/>
			</g>
		</g>
		<g>
			<g>
				<path class="st0" d="M45.2,108.7c-0.4,0.4-0.9,0.9-1.6,1.6c-0.7,0-1.8,0-3.3,0c-0.4-0.4-0.9-0.9-1.6-1.6
					C40.1,108.7,42.3,108.7,45.2,108.7z M38.7,120.9c0.4-0.4,0.9-0.9,1.6-1.6c0.7,0,1.8,0,3.3,0c0.4,0.4,0.9,0.9,1.6,1.6
					C43.7,120.9,41.6,120.9,38.7,120.9z M39.1,114.8c0.2-0.2,0.4-0.4,0.8-0.8c0.9,0,2.3,0,4,0c0.2,0.2,0.5,0.5,0.8,0.8
					c-0.2,0.2-0.4,0.5-0.8,0.8c-0.9,0-2.2,0-4,0C39.7,115.4,39.5,115.1,39.1,114.8z M44,110.4c0.4-0.4,0.9-0.9,1.6-1.6
					c0,1.1,0,2.7,0,4.9c-0.2,0.2-0.5,0.4-0.8,0.8c-0.2-0.2-0.4-0.4-0.8-0.8C44,112.9,44,111.8,44,110.4z M44,116
					c0.2-0.2,0.5-0.4,0.8-0.8c0.2,0.2,0.5,0.4,0.8,0.8c0,1.1,0,2.7,0,4.9c-0.4-0.4-0.9-0.9-1.6-1.6C44,118.5,44,117.5,44,116z"/>
			</g>
		</g>
		<g>
			<defs>
				<path id="SVGID_1_" d="M171,252H9c-5,0-9-4-9-9V9c0-5,4-9,9-9h162c5,0,9,4,9,9v234C180,248,176,252,171,252z"/>
			</defs>
			<clipPath id="SVGID_2_">
				<use xlink:href="#SVGID_1_"  style="overflow:visible;"/>
			</clipPath>
			<g class="st7">
				<path class="st4" d="M0,18c9.9,0,18-8.1,18-18H0V18z"/>
				<path class="st4" d="M180,234c-9.9,0-18,8.1-18,18h18V234z"/>
				<path class="st4" d="M162,0c0,9.9,8.1,18,18,18V0L162,0z"/>
				<path class="st4" d="M18,252c0-9.9-8.1-18-18-18l0,18H18z"/>
			</g>
		</g>
	</g>
</g>
<g id="Layer_2" class="st8">
	<g class="st9">
		<g>
			<polyline class="st10" points="188,252 188,258 182,258 			"/>
			<line class="st11" x1="170.8" y1="258" x2="19.6" y2="258"/>
			<polyline class="st10" points="14,258 8,258 8,252 			"/>
			<line class="st12" x1="8" y1="240.6" x2="8" y2="17.7"/>
			<polyline class="st10" points="8,12 8,6 14,6 			"/>
			<line class="st11" x1="25.2" y1="6" x2="176.4" y2="6"/>
			<polyline class="st10" points="182,6 188,6 188,12 			"/>
			<line class="st12" x1="188" y1="23.4" x2="188" y2="246.3"/>
		</g>
	</g>
</g>
</svg>
