<?xml version="1.0" encoding="utf-8"?>
<!-- Generator: Adobe Illustrator 21.1.0, SVG Export Plug-In . SVG Version: 6.00 Build 0)  -->
<svg version="1.1" xmlns="http://www.w3.org/2000/svg" xmlns:xlink="http://www.w3.org/1999/xlink" x="0px" y="0px"
	 viewBox="0 0 180 252" style="enable-background:new 0 0 180 252;" xml:space="preserve">
<style type="text/css">
	.st0{fill:#333333;}
	.st1{fill:#CBCBCA;stroke:#982020;stroke-width:2.5;stroke-miterlimit:10;}
	.st2{fill:#333333;stroke:#982020;stroke-width:2.5;stroke-miterlimit:10;}
	.st3{fill:#676767;}
	.st4{fill:#CBCBCA;}
	.st5{fill:none;}
	.st6{fill:#CBA12C;}
	.st7{fill:#CBA32D;}
	.st8{clip-path:url(#SVGID_2_);}
	.st9{display:none;}
	.st10{display:inline;}
	.st11{fill:none;stroke:#991F1F;stroke-width:2;stroke-miterlimit:10;}
	.st12{fill:none;stroke:#991F1F;stroke-width:2;stroke-miterlimit:10;stroke-dasharray:11.2,11.2;}
	.st13{fill:none;stroke:#991F1F;stroke-width:2;stroke-miterlimit:10;stroke-dasharray:11.4286,11.4286;}
</style>
<g id="Layer_1">
	<g>
		<path class="st0" d="M162,252H18c0-9.9-8.1-18-18-18V18c9.9,0,18-8.1,18-18h144c0,9.9,8.1,18,18,18v216
			C170.1,234,162,242.1,162,252z"/>
		<path class="st1" d="M144,234H36c-9.9,0-18-8.1-18-18V36c0-9.9,8.1-18,18-18h108c9.9,0,18,8.1,18,18v180
			C162,225.9,153.9,234,144,234z"/>
		<path class="st2" d="M126,216H54c-9.9,0-18-8.1-18-18v-53.8c0-9.9,8.1-18,18-18h72c9.9,0,18,8.1,18,18V198
			C144,207.9,135.9,216,126,216z"/>
		<path class="st2" d="M126,108H54c-9.9,0-18-8.1-18-18V54c0-9.9,8.1-18,18-18h72c9.9,0,18,8.1,18,18v36C144,99.9,135.9,108,126,108
			z"/>
		<g>
			<path class="st3" d="M139.3,137.9l-2.7-4.6c-1.2-0.5-2.4-1.2-3.5-2h-5.4l-4.9-8.5l2.7-4.6c-0.1-0.7-0.1-1.4-0.1-2
				c0-0.6,0-1.3,0.1-2l-2.7-4.6l4.9-8.5h5.4c1.1-0.8,2.3-1.5,3.5-2l2.7-4.6h9.8l2.7,4.6c1.2,0.5,2.4,1.2,3.5,2h5.4l4.9,8.5l-2.7,4.6
				c0.1,0.7,0.1,1.4,0.1,2c0,0.6,0,1.3-0.1,2l2.7,4.6l-4.9,8.5h-5.4c-1.1,0.8-2.3,1.5-3.5,2l-2.7,4.6H139.3z M144.3,107.6
				c-4.7,0-8.5,3.8-8.5,8.5s3.8,8.5,8.5,8.5s8.5-3.8,8.5-8.5S148.9,107.6,144.3,107.6z"/>
			<path class="st4" d="M148.8,94.8l2.6,4.5c1.3,0.6,2.6,1.3,3.7,2.2h5.2l4.5,7.9l-2.6,4.5c0.1,0.7,0.1,1.4,0.1,2.2
				c0,0.7-0.1,1.5-0.1,2.2l2.6,4.5l-4.5,7.9h-5.2c-1.2,0.9-2.4,1.6-3.7,2.2l-2.6,4.5h-9.1l-2.6-4.5c-1.3-0.6-2.6-1.3-3.7-2.2h-5.2
				l-4.5-7.9l2.6-4.5c-0.1-0.7-0.1-1.4-0.1-2.2c0-0.7,0.1-1.5,0.1-2.2l-2.6-4.5l4.5-7.9h5.2c1.2-0.9,2.4-1.6,3.7-2.2l2.6-4.5H148.8
				 M144.3,125.1c5,0,9.1-4.1,9.1-9.1c0-5-4.1-9.1-9.1-9.1c-5,0-9.1,4.1-9.1,9.1C135.2,121.1,139.2,125.1,144.3,125.1 M149.5,93.6
				h-0.7h-9.1H139l-0.4,0.6l-2.4,4.1c-1.1,0.5-2.2,1.2-3.3,1.9h-4.8h-0.7l-0.4,0.6l-4.5,7.9l-0.4,0.6l0.4,0.6l2.4,4.1
				c-0.1,0.7-0.1,1.3-0.1,1.9c0,0.6,0,1.2,0.1,1.9l-2.4,4.1l-0.4,0.6l0.4,0.6l4.5,7.9l0.4,0.6h0.7h4.8c1.1,0.8,2.2,1.4,3.3,1.9
				l2.4,4.1l0.4,0.6h0.7h9.1h0.7l0.4-0.6l2.4-4.1c1.1-0.5,2.2-1.2,3.3-1.9h4.8h0.7l0.4-0.6l4.5-7.9l0.4-0.6l-0.4-0.6l-2.4-4.1
				c0.1-0.7,0.1-1.3,0.1-1.9c0-0.6,0-1.2-0.1-1.9l2.4-4.1l0.4-0.6l-0.4-0.6l-4.5-7.9l-0.4-0.6h-0.7h-4.8c-1.1-0.8-2.2-1.4-3.3-1.9
				l-2.4-4.1L149.5,93.6L149.5,93.6z M144.3,123.9c-4.3,0-7.8-3.5-7.8-7.8s3.5-7.8,7.8-7.8s7.8,3.5,7.8,7.8S148.6,123.9,144.3,123.9
				L144.3,123.9z"/>
		</g>
		<g>
			<rect x="18" y="27" class="st5" width="18" height="18"/>
			<path class="st6" d="M31.7,28.8c-0.4,0.4-0.9,0.9-1.6,1.6c-0.7,0-1.8,0-3.3,0c-0.4-0.4-0.9-0.9-1.6-1.6
				C26.6,28.8,28.8,28.8,31.7,28.8z M25.2,41c0.4-0.4,0.9-0.9,1.6-1.6c0.7,0,1.8,0,3.3,0c0.4,0.4,0.9,0.9,1.6,1.6
				C30.2,41,28.1,41,25.2,41z M25.6,34.9c0.2-0.2,0.4-0.4,0.8-0.8c0.9,0,2.3,0,4,0c0.2,0.2,0.5,0.5,0.8,0.8
				c-0.2,0.2-0.4,0.5-0.8,0.8c-0.9,0-2.2,0-4,0C26.2,35.5,26,35.3,25.6,34.9z M30.5,30.5c0.4-0.4,0.9-0.9,1.6-1.6c0,1.1,0,2.7,0,4.9
				c-0.2,0.2-0.5,0.4-0.8,0.8c-0.2-0.2-0.4-0.4-0.8-0.8C30.5,33,30.5,31.9,30.5,30.5z M30.5,36.1c0.2-0.2,0.5-0.4,0.8-0.8
				c0.2,0.2,0.5,0.4,0.8,0.8c0,1.1,0,2.7,0,4.9c-0.4-0.4-0.9-0.9-1.6-1.6C30.5,38.7,30.5,37.6,30.5,36.1z"/>
		</g>
		<g>
			<polygon class="st6" points="46.8,21.7 36,28.7 39.6,28.7 36,36 46.8,29.1 43.2,29.1 46.8,21.7 			"/>
		</g>
		<g>
			<rect x="40.5" y="144" class="st5" width="99" height="54"/>
			<path class="st4" d="M53.4,148.3l1.8-3.8h1.9l-2.8,5.4v3.1h-1.8v-3.1l-2.8-5.4h1.9L53.4,148.3z"/>
			<path class="st4" d="M57.1,149.8c0-0.6,0.1-1.2,0.4-1.7s0.6-0.9,1-1.1s1-0.4,1.6-0.4c0.9,0,1.6,0.3,2.1,0.8s0.8,1.2,0.9,2.1
				l0,0.4c0,1-0.3,1.8-0.8,2.3s-1.3,0.9-2.2,0.9s-1.6-0.3-2.2-0.9S57.1,150.9,57.1,149.8L57.1,149.8z M58.8,149.9
				c0,0.6,0.1,1.1,0.3,1.4c0.2,0.3,0.6,0.5,1,0.5c0.4,0,0.7-0.2,1-0.5c0.2-0.3,0.3-0.8,0.3-1.5c0-0.6-0.1-1-0.3-1.4
				c-0.2-0.3-0.6-0.5-1-0.5c-0.4,0-0.7,0.2-1,0.5C59,148.7,58.8,149.2,58.8,149.9z"/>
			<path class="st4" d="M68,152.4c-0.4,0.5-1,0.8-1.7,0.8c-0.7,0-1.2-0.2-1.6-0.6s-0.5-1-0.5-1.7v-4.2h1.7v4.1c0,0.7,0.3,1,0.9,1
				c0.6,0,1-0.2,1.2-0.6v-4.5h1.7v6.3H68L68,152.4z"/>
			<path class="st4" d="M74.5,148.2c-0.2,0-0.4,0-0.6,0c-0.6,0-1.1,0.2-1.3,0.7v4.1h-1.7v-6.3h1.6l0,0.8c0.3-0.6,0.8-0.9,1.4-0.9
				c0.2,0,0.4,0,0.5,0.1L74.5,148.2z"/>
			<path class="st4" d="M77.7,153l1.5-8.5l2.7,0c1,0,1.7,0.2,2.2,0.6s0.7,1,0.7,1.7c-0.1,0.9-0.6,1.5-1.5,1.9
				c0.3,0.1,0.6,0.3,0.8,0.7s0.3,0.7,0.2,1.1c-0.1,0.8-0.4,1.4-0.9,1.9S82,153,81,153H77.7z M80.1,149.3l-0.4,2.3l1.4,0
				c0.4,0,0.8-0.1,1.1-0.3s0.5-0.5,0.5-0.8c0.1-0.4,0-0.6-0.1-0.8s-0.4-0.3-0.8-0.3L80.1,149.3z M80.3,148l1.2,0
				c0.4,0,0.8-0.1,1.1-0.3s0.4-0.5,0.5-0.8c0.1-0.7-0.3-1-1.1-1l-1.3,0L80.3,148z"/>
			<path class="st4" d="M88.8,146.5c0.6,0,1,0.2,1.4,0.4s0.7,0.7,0.9,1.2s0.3,1,0.2,1.6c-0.1,1-0.4,1.8-1.1,2.4s-1.4,0.9-2.3,0.9
				c-0.6,0-1-0.1-1.4-0.4s-0.7-0.7-0.9-1.1s-0.3-1-0.2-1.6c0.1-1,0.5-1.9,1.1-2.5S87.9,146.5,88.8,146.5z M87.1,150.5
				c0,0.4,0.1,0.7,0.3,0.9c0.2,0.2,0.4,0.3,0.7,0.3c0.5,0,0.9-0.2,1.2-0.7s0.4-1.1,0.4-1.9c0-0.4-0.1-0.7-0.3-0.9
				c-0.2-0.2-0.4-0.3-0.7-0.3c-0.5,0-0.9,0.2-1.2,0.7C87.2,149.1,87.1,149.7,87.1,150.5z"/>
			<path class="st4" d="M95.1,145.1l-0.3,1.6h1.1l-0.2,1.2h-1.1l-0.5,3.2c0,0.2,0,0.4,0,0.5s0.2,0.2,0.4,0.2c0.1,0,0.2,0,0.5,0
				l-0.1,1.3c-0.3,0.1-0.6,0.1-0.9,0.1c-0.5,0-0.9-0.2-1.2-0.5s-0.4-0.8-0.3-1.3l0.5-3.3h-0.9l0.2-1.2h0.9l0.3-1.6H95.1z"/>
			<path class="st4" d="M99.4,151.2c0.1-0.3-0.2-0.5-0.7-0.7l-0.5-0.1c-1.3-0.3-1.9-1-1.8-1.8c0-0.6,0.3-1.1,0.8-1.5
				s1.1-0.6,1.8-0.6c0.7,0,1.3,0.2,1.7,0.6s0.7,0.9,0.7,1.5l-1.6,0c0-0.5-0.3-0.8-0.8-0.8c-0.3,0-0.5,0.1-0.7,0.2s-0.3,0.3-0.3,0.5
				c-0.1,0.3,0.2,0.5,0.7,0.7l0.2,0.1c0.5,0.1,1,0.3,1.2,0.4s0.5,0.4,0.7,0.6s0.2,0.5,0.2,0.9c0,0.4-0.1,0.8-0.4,1.1s-0.6,0.5-1,0.7
				s-0.9,0.2-1.4,0.2c-0.7,0-1.3-0.2-1.8-0.6s-0.7-0.9-0.7-1.5l1.6,0c0,0.6,0.3,0.9,1,0.9c0.3,0,0.6-0.1,0.8-0.2
				S99.4,151.4,99.4,151.2z"/>
			<path class="st4" d="M107,147.4c0.4-0.5,1-0.8,1.7-0.8c1.4,0,2.1,0.8,2.1,2.4v4.1h-1.7v-4c0-0.4-0.1-0.6-0.2-0.8
				c-0.2-0.2-0.4-0.3-0.8-0.3c-0.5,0-0.9,0.2-1.1,0.6v4.5h-1.7v-9h1.7V147.4z"/>
			<path class="st4" d="M115.8,153c-0.1-0.2-0.1-0.3-0.2-0.6c-0.4,0.5-0.9,0.7-1.6,0.7c-0.6,0-1.1-0.2-1.5-0.5s-0.6-0.8-0.6-1.4
				c0-0.7,0.2-1.2,0.7-1.5s1.2-0.5,2.2-0.5h0.8v-0.4c0-0.3-0.1-0.5-0.2-0.7s-0.4-0.3-0.7-0.3c-0.3,0-0.5,0.1-0.7,0.2
				s-0.2,0.3-0.2,0.6H112c0-0.4,0.1-0.7,0.3-1s0.5-0.6,1-0.7s0.9-0.3,1.4-0.3c0.8,0,1.4,0.2,1.9,0.6s0.7,0.9,0.7,1.7v2.7
				c0,0.6,0.1,1.1,0.3,1.4v0.1H115.8z M114.4,151.8c0.3,0,0.5-0.1,0.7-0.2s0.4-0.3,0.5-0.4v-1.1h-0.6c-0.8,0-1.3,0.3-1.4,0.9l0,0.1
				c0,0.2,0.1,0.4,0.2,0.5S114.1,151.8,114.4,151.8z"/>
			<path class="st4" d="M120.8,150.9l1.2-4.3h1.8l-2.1,6.3H120l-2.1-6.3h1.8L120.8,150.9z"/>
			<path class="st4" d="M127.4,153.1c-0.9,0-1.7-0.3-2.3-0.9s-0.9-1.3-0.9-2.3v-0.2c0-0.6,0.1-1.2,0.4-1.7s0.6-0.9,1-1.2
				s1-0.4,1.5-0.4c0.9,0,1.5,0.3,2,0.8s0.7,1.3,0.7,2.3v0.7h-4c0.1,0.4,0.2,0.7,0.5,1s0.6,0.4,1,0.4c0.7,0,1.2-0.2,1.5-0.7l0.8,0.9
				c-0.3,0.4-0.6,0.6-1,0.8S127.9,153.1,127.4,153.1z M127.2,147.9c-0.3,0-0.6,0.1-0.8,0.3s-0.3,0.6-0.4,1h2.4v-0.1
				c0-0.4-0.1-0.7-0.3-0.9S127.5,147.9,127.2,147.9z"/>
			<path class="st7" d="M68.6,162.6h2.1v1.5h-2.1v2.4H67v-2.4h-2.1v-1.5H67v-2.3h1.6V162.6z"/>
			<path class="st7" d="M77.5,167.4h-5.8v-1.2l2.8-2.9c0.4-0.4,0.7-0.8,0.8-1.1s0.3-0.6,0.3-0.9c0-0.4-0.1-0.7-0.3-0.9
				s-0.5-0.3-0.8-0.3c-0.4,0-0.7,0.1-0.9,0.4s-0.3,0.6-0.3,1h-1.7c0-0.5,0.1-1,0.4-1.4s0.6-0.8,1.1-1s1-0.4,1.5-0.4
				c0.9,0,1.6,0.2,2,0.6s0.7,1,0.7,1.8c0,0.4-0.1,0.9-0.3,1.3s-0.6,0.9-1.1,1.5l-1.9,2h3.7V167.4z"/>
			<path class="st7" d="M86.1,165.6h-3l-0.9,1.8h-1.9l4.6-8.5h1.6l1.6,8.5h-1.8L86.1,165.6z M83.8,164.2h2.1l-0.5-3.2L83.8,164.2z"
				/>
			<path class="st7" d="M92.1,159.5l-0.3,1.6h1.1l-0.2,1.2h-1.1l-0.5,3.2c0,0.2,0,0.4,0,0.5s0.2,0.2,0.4,0.2c0.1,0,0.2,0,0.5,0
				l-0.1,1.3c-0.3,0.1-0.6,0.1-0.9,0.1c-0.5,0-0.9-0.2-1.2-0.5s-0.4-0.8-0.3-1.3l0.5-3.3h-0.9l0.2-1.2h0.9l0.3-1.6H92.1z"/>
			<path class="st7" d="M96.1,159.5l-0.3,1.6h1.1l-0.2,1.2h-1.1l-0.5,3.2c0,0.2,0,0.4,0,0.5s0.2,0.2,0.4,0.2c0.1,0,0.2,0,0.5,0
				l-0.1,1.3c-0.3,0.1-0.6,0.1-0.9,0.1c-0.5,0-0.9-0.2-1.2-0.5s-0.4-0.8-0.3-1.3l0.5-3.3h-0.9l0.2-1.2h0.9l0.3-1.6H96.1z"/>
			<path class="st7" d="M100.4,167.4c-0.1-0.2-0.1-0.4-0.1-0.6c-0.5,0.5-1,0.7-1.6,0.7c-0.6,0-1-0.2-1.4-0.5s-0.5-0.8-0.5-1.3
				c0-0.7,0.3-1.2,0.9-1.6s1.3-0.6,2.2-0.6l0.8,0l0.1-0.4c0-0.1,0-0.3,0-0.4c0-0.2-0.1-0.3-0.2-0.4s-0.3-0.2-0.5-0.2
				c-0.3,0-0.5,0.1-0.7,0.2s-0.3,0.3-0.3,0.6l-1.7,0c0-0.6,0.3-1.1,0.8-1.5s1.2-0.6,2-0.6c0.7,0,1.3,0.2,1.7,0.6s0.6,0.9,0.5,1.6
				l-0.5,3l0,0.4c0,0.3,0,0.5,0.1,0.7l0,0.1H100.4z M99.2,166.2c0.5,0,0.9-0.2,1.2-0.6l0.2-1.1l-0.6,0c-0.6,0-1,0.2-1.3,0.6
				c-0.1,0.1-0.2,0.3-0.2,0.5c0,0.2,0,0.4,0.1,0.5S99,166.2,99.2,166.2z"/>
			<path class="st7" d="M105.8,166.2c0.3,0,0.6-0.1,0.8-0.2s0.3-0.4,0.4-0.7l1.6,0c0,0.4-0.2,0.8-0.4,1.2s-0.6,0.6-1,0.8
				s-0.9,0.3-1.3,0.3c-0.8,0-1.4-0.3-1.8-0.8s-0.7-1.2-0.7-2.1l0-0.3l0-0.1c0.1-1,0.5-1.8,1-2.5s1.3-0.9,2.2-0.9
				c0.7,0,1.3,0.2,1.7,0.7s0.6,1,0.6,1.8h-1.5c0-0.3-0.1-0.6-0.2-0.8s-0.4-0.3-0.7-0.3c-0.8,0-1.3,0.6-1.4,1.7
				c-0.1,0.4-0.1,0.8-0.1,1.1C105,165.8,105.3,166.1,105.8,166.2z"/>
			<path class="st7" d="M111.9,164.9l-0.8,0.7l-0.3,1.9h-1.7l1.6-9h1.7l-0.9,4.9l0.3-0.3l1.9-1.9h2.1l-2.8,2.7l1.8,3.6h-1.8
				L111.9,164.9z"/>
		</g>
		<g>
			<rect x="18" y="3.8" class="st5" width="144" height="12"/>
			<path class="st4" d="M64.1,12.8V4.2h3.1c1.1,0,1.9,0.2,2.5,0.6s0.9,1,0.9,1.8c0,0.4-0.1,0.8-0.3,1.1s-0.5,0.5-0.9,0.7
				c0.4,0.1,0.8,0.3,1,0.7s0.4,0.7,0.4,1.2c0,0.8-0.3,1.5-0.8,1.9s-1.3,0.6-2.4,0.6H64.1z M66.2,7.8h1.1c0.4,0,0.8-0.1,1-0.2
				c0.2-0.2,0.3-0.4,0.3-0.7c0-0.4-0.1-0.6-0.3-0.8c-0.2-0.2-0.5-0.2-1-0.2h-1V7.8z M66.2,9.1v2h1.3c0.4,0,0.7-0.1,0.9-0.3
				s0.3-0.4,0.3-0.7c0-0.7-0.4-1.1-1.1-1.1H66.2z"/>
			<path class="st4" d="M79.1,8.7c0,0.8-0.2,1.6-0.5,2.2s-0.7,1.1-1.3,1.5s-1.2,0.5-1.9,0.5s-1.4-0.2-1.9-0.5s-1-0.8-1.3-1.4
				s-0.5-1.3-0.5-2.1V8.3c0-0.8,0.2-1.6,0.5-2.2s0.7-1.1,1.3-1.5s1.2-0.5,2-0.5c0.7,0,1.4,0.2,1.9,0.5s1,0.8,1.3,1.5
				s0.5,1.4,0.5,2.2V8.7z M77,8.3c0-0.8-0.1-1.5-0.4-1.9s-0.7-0.7-1.2-0.7c-1,0-1.6,0.8-1.6,2.3l0,0.6c0,0.8,0.1,1.5,0.4,1.9
				s0.7,0.7,1.2,0.7c0.5,0,0.9-0.2,1.2-0.7S77,9.5,77,8.7V8.3z"/>
			<path class="st4" d="M86.3,5.8h-2.6v6.9h-2.1V5.8h-2.5V4.2h7.1V5.8z"/>
			<path class="st4" d="M89.2,11.2h3.6v1.6h-5.6V4.2h2.1V11.2z"/>
			<path class="st4" d="M100.5,8.7c0,0.8-0.2,1.6-0.5,2.2s-0.7,1.1-1.3,1.5s-1.2,0.5-1.9,0.5s-1.4-0.2-1.9-0.5s-1-0.8-1.3-1.4
				s-0.5-1.3-0.5-2.1V8.3c0-0.8,0.2-1.6,0.5-2.2s0.7-1.1,1.3-1.5s1.2-0.5,2-0.5c0.7,0,1.4,0.2,1.9,0.5s1,0.8,1.3,1.5
				s0.5,1.4,0.5,2.2V8.7z M98.5,8.3c0-0.8-0.1-1.5-0.4-1.9s-0.7-0.7-1.2-0.7c-1,0-1.6,0.8-1.6,2.3l0,0.6c0,0.8,0.1,1.5,0.4,1.9
				s0.7,0.7,1.2,0.7c0.5,0,0.9-0.2,1.2-0.7s0.4-1.1,0.4-1.9V8.3z"/>
			<path class="st4" d="M104.8,9.7h-1.1v3h-2.1V4.2h3.4c1,0,1.8,0.2,2.4,0.7c0.6,0.4,0.9,1.1,0.9,1.9c0,0.6-0.1,1.1-0.4,1.5
				s-0.6,0.7-1.1,0.9l1.8,3.4v0.1h-2.2L104.8,9.7z M103.7,8.2h1.3c0.4,0,0.7-0.1,0.9-0.3c0.2-0.2,0.3-0.5,0.3-0.9s-0.1-0.7-0.3-0.9
				s-0.5-0.3-0.9-0.3h-1.3V8.2z"/>
			<path class="st4" d="M109.4,12.8V4.2h2.7c0.8,0,1.4,0.2,2,0.5s1.1,0.8,1.4,1.4s0.5,1.3,0.5,2.1v0.4c0,0.8-0.2,1.5-0.5,2.1
				s-0.8,1.1-1.4,1.5s-1.3,0.5-2,0.5H109.4z M111.5,5.8v5.4h0.7c0.6,0,1-0.2,1.4-0.6s0.5-1,0.5-1.9V8.3c0-0.8-0.2-1.4-0.5-1.9
				s-0.8-0.6-1.4-0.6H111.5z"/>
		</g>
		<g>
			<rect x="133.7" y="108" class="st5" width="18.2" height="18.2"/>
			<path class="st0" d="M147.5,109.8c-0.4,0.4-0.9,0.9-1.6,1.6c-0.7,0-1.8,0-3.3,0c-0.4-0.4-0.9-0.9-1.6-1.6
				C142.4,109.8,144.6,109.8,147.5,109.8z M141,122c0.4-0.4,0.9-0.9,1.6-1.6c0.7,0,1.8,0,3.3,0c0.4,0.4,0.9,0.9,1.6,1.6
				C146,122,143.9,122,141,122z M141.4,115.9c0.2-0.2,0.4-0.4,0.8-0.8c0.9,0,2.3,0,4,0c0.2,0.2,0.5,0.5,0.8,0.8
				c-0.2,0.2-0.4,0.5-0.8,0.8c-0.9,0-2.2,0-4,0C142,116.5,141.8,116.3,141.4,115.9z M146.3,111.5c0.4-0.4,0.9-0.9,1.6-1.6
				c0,1.1,0,2.7,0,4.9c-0.2,0.2-0.5,0.4-0.8,0.8c-0.2-0.2-0.4-0.4-0.8-0.8C146.3,114,146.3,112.9,146.3,111.5z M146.3,117.1
				c0.2-0.2,0.5-0.4,0.8-0.8c0.2,0.2,0.5,0.4,0.8,0.8c0,1.1,0,2.7,0,4.9c-0.4-0.4-0.9-0.9-1.6-1.6
				C146.3,119.7,146.3,118.6,146.3,117.1z"/>
		</g>
		<g>
			<circle class="st4" cx="18.9" cy="138.6" r="2.5"/>
			<g>
				<path class="st3" d="M18.5,147.3c-2.3,0-4.4-0.9-6-2.5c-1.6-1.6-2.5-3.7-2.5-6s0.9-4.4,2.5-6l12.7-12.7
					c-0.1-3.4,1.2-6.7,3.6-9.1c2.3-2.3,5.4-3.6,8.7-3.6c0.2,0,0.5,0,0.7,0l1.4,0.1l-5.8,5.8l2.1,8l8,2.1l5.8-5.8l0.1,1.4
					c0.2,3.5-1.1,6.9-3.6,9.4c-2.3,2.3-5.4,3.6-8.7,3.6c0,0-0.3,0-0.4,0l-12.7,12.7C22.9,146.4,20.8,147.3,18.5,147.3z M18.5,136.5
					c-0.6,0-1.2,0.2-1.7,0.7c-0.4,0.4-0.7,1-0.7,1.7c0,0.6,0.2,1.2,0.7,1.7c0.4,0.4,1,0.7,1.7,0.7s1.2-0.2,1.7-0.7
					c0.4-0.4,0.7-1,0.7-1.7c0-0.6-0.2-1.2-0.7-1.7C19.7,136.8,19.1,136.5,18.5,136.5z"/>
				<path class="st4" d="M37.6,108.1c0.2,0,0.4,0,0.6,0l-5.1,5.1l2.3,8.7l8.7,2.3l5.1-5.1c0.2,3.2-0.9,6.5-3.4,8.9
					c-2.3,2.3-5.3,3.4-8.3,3.4c-0.2,0-0.4,0-0.7,0l0,0L24,144.4c-1.5,1.5-3.5,2.3-5.5,2.3s-4-0.8-5.5-2.3c-3-3-3-8,0-11l12.9-12.9
					l0,0c-0.2-3.2,0.9-6.5,3.4-8.9C31.6,109.2,34.6,108.1,37.6,108.1 M18.5,141.9c0.8,0,1.5-0.3,2.1-0.9c1.2-1.2,1.2-3.1,0-4.2
					c-0.6-0.6-1.4-0.9-2.1-0.9c-0.8,0-1.5,0.3-2.1,0.9c-1.2,1.2-1.2,3.1,0,4.2C17,141.6,17.7,141.9,18.5,141.9 M37.6,106.9
					c-3.5,0-6.7,1.3-9.1,3.8c-2.5,2.5-3.8,5.8-3.8,9.3l-12.6,12.6c-3.5,3.5-3.5,9.3,0,12.8c1.7,1.7,4,2.7,6.4,2.7
					c2.4,0,4.7-0.9,6.4-2.7l12.6-12.6c0,0,0.1,0,0.1,0c3.5,0,6.7-1.3,9.1-3.8c2.6-2.6,4-6.2,3.8-9.9l-0.2-2.8l-2,2l-4.6,4.6l-7.3-2
					l-2-7.3l4.6-4.6l2-2l-2.8-0.2C38.1,106.9,37.8,106.9,37.6,106.9L37.6,106.9z M18.5,140.6c-0.5,0-0.9-0.2-1.2-0.5
					c-0.3-0.3-0.5-0.8-0.5-1.2s0.2-0.9,0.5-1.2s0.8-0.5,1.2-0.5c0.5,0,0.9,0.2,1.2,0.5c0.7,0.7,0.7,1.8,0,2.5
					C19.4,140.4,19,140.6,18.5,140.6L18.5,140.6z"/>
			</g>
		</g>
		<g>
			<g>
				<path class="st0" d="M45.2,108.7c-0.4,0.4-0.9,0.9-1.6,1.6c-0.7,0-1.8,0-3.3,0c-0.4-0.4-0.9-0.9-1.6-1.6
					C40.1,108.7,42.3,108.7,45.2,108.7z M38.7,120.9c0.4-0.4,0.9-0.9,1.6-1.6c0.7,0,1.8,0,3.3,0c0.4,0.4,0.9,0.9,1.6,1.6
					C43.7,120.9,41.6,120.9,38.7,120.9z M39.1,114.8c0.2-0.2,0.4-0.4,0.8-0.8c0.9,0,2.3,0,4,0c0.2,0.2,0.5,0.5,0.8,0.8
					c-0.2,0.2-0.4,0.5-0.8,0.8c-0.9,0-2.2,0-4,0C39.7,115.4,39.5,115.1,39.1,114.8z M44,110.4c0.4-0.4,0.9-0.9,1.6-1.6
					c0,1.1,0,2.7,0,4.9c-0.2,0.2-0.5,0.4-0.8,0.8c-0.2-0.2-0.4-0.4-0.8-0.8C44,112.9,44,111.8,44,110.4z M44,116
					c0.2-0.2,0.5-0.4,0.8-0.8c0.2,0.2,0.5,0.4,0.8,0.8c0,1.1,0,2.7,0,4.9c-0.4-0.4-0.9-0.9-1.6-1.6C44,118.5,44,117.5,44,116z"/>
			</g>
		</g>
		<g>
			<defs>
				<path id="SVGID_1_" d="M171,252H9c-5,0-9-4-9-9V9c0-5,4-9,9-9h162c5,0,9,4,9,9v234C180,248,176,252,171,252z"/>
			</defs>
			<clipPath id="SVGID_2_">
				<use xlink:href="#SVGID_1_"  style="overflow:visible;"/>
			</clipPath>
			<g class="st8">
				<path class="st4" d="M0,18c9.9,0,18-8.1,18-18H0V18z"/>
				<path class="st4" d="M180,234c-9.9,0-18,8.1-18,18h18V234z"/>
				<path class="st4" d="M162,0c0,9.9,8.1,18,18,18V0L162,0z"/>
				<path class="st4" d="M18,252c0-9.9-8.1-18-18-18l0,18H18z"/>
			</g>
		</g>
	</g>
</g>
<g id="Layer_2" class="st9">
	<g class="st10">
		<g>
			<polyline class="st11" points="188,252 188,258 182,258 			"/>
			<line class="st12" x1="170.8" y1="258" x2="19.6" y2="258"/>
			<polyline class="st11" points="14,258 8,258 8,252 			"/>
			<line class="st13" x1="8" y1="240.6" x2="8" y2="17.7"/>
			<polyline class="st11" points="8,12 8,6 14,6 			"/>
			<line class="st12" x1="25.2" y1="6" x2="176.4" y2="6"/>
			<polyline class="st11" points="182,6 188,6 188,12 			"/>
			<line class="st13" x1="188" y1="23.4" x2="188" y2="246.3"/>
		</g>
	</g>
</g>
</svg>
