<?xml version="1.0" encoding="utf-8"?>
<!-- Generator: Adobe Illustrator 21.1.0, SVG Export Plug-In . SVG Version: 6.00 Build 0)  -->
<svg version="1.1" xmlns="http://www.w3.org/2000/svg" xmlns:xlink="http://www.w3.org/1999/xlink" x="0px" y="0px"
	 viewBox="0 0 180 252" style="enable-background:new 0 0 180 252;" xml:space="preserve">
<style type="text/css">
	.st0{fill:#333333;}
	.st1{fill:#CBCBCA;stroke:#982020;stroke-width:2.5;stroke-miterlimit:10;}
	.st2{fill:#333333;stroke:#982020;stroke-width:2.5;stroke-miterlimit:10;}
	.st3{fill:#676767;}
	.st4{fill:#CBCBCA;}
	.st5{fill:none;}
	.st6{fill:#CBA12C;}
	.st7{fill:#CC7B29;}
	.st8{clip-path:url(#SVGID_2_);}
	.st9{display:none;}
	.st10{display:inline;}
	.st11{fill:none;stroke:#991F1F;stroke-width:2;stroke-miterlimit:10;}
	.st12{fill:none;stroke:#991F1F;stroke-width:2;stroke-miterlimit:10;stroke-dasharray:11.2,11.2;}
	.st13{fill:none;stroke:#991F1F;stroke-width:2;stroke-miterlimit:10;stroke-dasharray:11.4286,11.4286;}
</style>
<g id="Layer_1">
	<g>
		<path class="st0" d="M162,252H18c0-9.9-8.1-18-18-18V18c9.9,0,18-8.1,18-18h144c0,9.9,8.1,18,18,18v216
			C170.1,234,162,242.1,162,252z"/>
		<path class="st1" d="M144,234H36c-9.9,0-18-8.1-18-18V36c0-9.9,8.1-18,18-18h108c9.9,0,18,8.1,18,18v180
			C162,225.9,153.9,234,144,234z"/>
		<path class="st2" d="M126,216H54c-9.9,0-18-8.1-18-18v-53.8c0-9.9,8.1-18,18-18h72c9.9,0,18,8.1,18,18V198
			C144,207.9,135.9,216,126,216z"/>
		<path class="st2" d="M126,108H54c-9.9,0-18-8.1-18-18V54c0-9.9,8.1-18,18-18h72c9.9,0,18,8.1,18,18v36C144,99.9,135.9,108,126,108
			z"/>
		<g>
			<path class="st3" d="M139.3,137.9l-2.7-4.6c-1.2-0.5-2.4-1.2-3.5-2h-5.4l-4.9-8.5l2.7-4.6c-0.1-0.7-0.1-1.4-0.1-2
				c0-0.6,0-1.3,0.1-2l-2.7-4.6l4.9-8.5h5.4c1.1-0.8,2.3-1.5,3.5-2l2.7-4.6h9.8l2.7,4.6c1.2,0.5,2.4,1.2,3.5,2h5.4l4.9,8.5l-2.7,4.6
				c0.1,0.7,0.1,1.4,0.1,2c0,0.6,0,1.3-0.1,2l2.7,4.6l-4.9,8.5h-5.4c-1.1,0.8-2.3,1.5-3.5,2l-2.7,4.6H139.3z M144.3,107.6
				c-4.7,0-8.5,3.8-8.5,8.5s3.8,8.5,8.5,8.5s8.5-3.8,8.5-8.5S148.9,107.6,144.3,107.6z"/>
			<path class="st4" d="M148.8,94.8l2.6,4.5c1.3,0.6,2.6,1.3,3.7,2.2h5.2l4.5,7.9l-2.6,4.5c0.1,0.7,0.1,1.4,0.1,2.2
				c0,0.7-0.1,1.5-0.1,2.2l2.6,4.5l-4.5,7.9h-5.2c-1.2,0.9-2.4,1.6-3.7,2.2l-2.6,4.5h-9.1l-2.6-4.5c-1.3-0.6-2.6-1.3-3.7-2.2h-5.2
				l-4.5-7.9l2.6-4.5c-0.1-0.7-0.1-1.4-0.1-2.2c0-0.7,0.1-1.5,0.1-2.2l-2.6-4.5l4.5-7.9h5.2c1.2-0.9,2.4-1.6,3.7-2.2l2.6-4.5H148.8
				 M144.3,125.1c5,0,9.1-4.1,9.1-9.1c0-5-4.1-9.1-9.1-9.1c-5,0-9.1,4.1-9.1,9.1C135.2,121.1,139.2,125.1,144.3,125.1 M149.5,93.6
				h-0.7h-9.1H139l-0.4,0.6l-2.4,4.1c-1.1,0.5-2.2,1.2-3.3,1.9h-4.8h-0.7l-0.4,0.6l-4.5,7.9l-0.4,0.6l0.4,0.6l2.4,4.1
				c-0.1,0.7-0.1,1.3-0.1,1.9c0,0.6,0,1.2,0.1,1.9l-2.4,4.1l-0.4,0.6l0.4,0.6l4.5,7.9l0.4,0.6h0.7h4.8c1.1,0.8,2.2,1.4,3.3,1.9
				l2.4,4.1l0.4,0.6h0.7h9.1h0.7l0.4-0.6l2.4-4.1c1.1-0.5,2.2-1.2,3.3-1.9h4.8h0.7l0.4-0.6l4.5-7.9l0.4-0.6l-0.4-0.6l-2.4-4.1
				c0.1-0.7,0.1-1.3,0.1-1.9c0-0.6,0-1.2-0.1-1.9l2.4-4.1l0.4-0.6l-0.4-0.6l-4.5-7.9l-0.4-0.6h-0.7h-4.8c-1.1-0.8-2.2-1.4-3.3-1.9
				l-2.4-4.1L149.5,93.6L149.5,93.6z M144.3,123.9c-4.3,0-7.8-3.5-7.8-7.8s3.5-7.8,7.8-7.8s7.8,3.5,7.8,7.8S148.6,123.9,144.3,123.9
				L144.3,123.9z"/>
		</g>
		<g>
			<rect x="18" y="27" class="st5" width="18" height="18"/>
			<path class="st6" d="M31.7,28.8c-0.4,0.4-0.9,0.9-1.6,1.6c-0.7,0-1.8,0-3.3,0c-0.4-0.4-0.9-0.9-1.6-1.6
				C26.6,28.8,28.8,28.8,31.7,28.8z M25.2,41c0.4-0.4,0.9-0.9,1.6-1.6c0.7,0,1.8,0,3.3,0c0.4,0.4,0.9,0.9,1.6,1.6
				C30.2,41,28.1,41,25.2,41z M25.6,34.9c0.2-0.2,0.4-0.4,0.8-0.8c0.9,0,2.3,0,4,0c0.2,0.2,0.5,0.5,0.8,0.8
				c-0.2,0.2-0.4,0.5-0.8,0.8c-0.9,0-2.2,0-4,0C26.2,35.5,26,35.3,25.6,34.9z M30.5,30.5c0.4-0.4,0.9-0.9,1.6-1.6c0,1.1,0,2.7,0,4.9
				c-0.2,0.2-0.5,0.4-0.8,0.8c-0.2-0.2-0.4-0.4-0.8-0.8C30.5,33,30.5,31.9,30.5,30.5z M30.5,36.1c0.2-0.2,0.5-0.4,0.8-0.8
				c0.2,0.2,0.5,0.4,0.8,0.8c0,1.1,0,2.7,0,4.9c-0.4-0.4-0.9-0.9-1.6-1.6C30.5,38.7,30.5,37.6,30.5,36.1z"/>
		</g>
		<g>
			<polygon class="st6" points="46.8,21.7 36,28.7 39.6,28.7 36,36 46.8,29.1 43.2,29.1 46.8,21.7 			"/>
		</g>
		<g>
			<rect x="40.5" y="144" class="st5" width="99" height="54"/>
			<path class="st4" d="M44.5,148.3l1.8-3.8h1.9l-2.8,5.4v3.1h-1.8v-3.1l-2.8-5.4h1.9L44.5,148.3z"/>
			<path class="st4" d="M48.2,149.8c0-0.6,0.1-1.2,0.4-1.7s0.6-0.9,1-1.1s1-0.4,1.6-0.4c0.9,0,1.6,0.3,2.1,0.8s0.8,1.2,0.9,2.1
				l0,0.4c0,1-0.3,1.8-0.8,2.3s-1.3,0.9-2.2,0.9s-1.6-0.3-2.2-0.9S48.2,150.9,48.2,149.8L48.2,149.8z M49.9,149.9
				c0,0.6,0.1,1.1,0.3,1.4c0.2,0.3,0.6,0.5,1,0.5c0.4,0,0.7-0.2,1-0.5c0.2-0.3,0.3-0.8,0.3-1.5c0-0.6-0.1-1-0.3-1.4
				c-0.2-0.3-0.6-0.5-1-0.5c-0.4,0-0.7,0.2-1,0.5C50,148.7,49.9,149.2,49.9,149.9z"/>
			<path class="st4" d="M59,152.4c-0.4,0.5-1,0.8-1.7,0.8c-0.7,0-1.2-0.2-1.6-0.6s-0.5-1-0.5-1.7v-4.2h1.7v4.1c0,0.7,0.3,1,0.9,1
				c0.6,0,1-0.2,1.2-0.6v-4.5h1.7v6.3h-1.6L59,152.4z"/>
			<path class="st4" d="M67.6,151.8c0.3,0,0.6-0.1,0.8-0.3s0.3-0.4,0.3-0.7h1.6c0,0.4-0.1,0.8-0.4,1.2s-0.5,0.6-0.9,0.8
				s-0.8,0.3-1.3,0.3c-0.9,0-1.6-0.3-2.1-0.9s-0.8-1.4-0.8-2.4v-0.1c0-1,0.3-1.8,0.8-2.3s1.2-0.9,2.1-0.9c0.8,0,1.4,0.2,1.9,0.7
				s0.7,1.1,0.7,1.8h-1.6c0-0.3-0.1-0.6-0.3-0.8c-0.2-0.2-0.5-0.3-0.8-0.3c-0.4,0-0.7,0.1-0.9,0.4c-0.2,0.3-0.3,0.8-0.3,1.4v0.2
				c0,0.7,0.1,1.1,0.3,1.4C66.9,151.6,67.2,151.8,67.6,151.8z"/>
			<path class="st4" d="M72.8,147.4c0.4-0.5,1-0.8,1.7-0.8c1.4,0,2.1,0.8,2.1,2.4v4.1h-1.7v-4c0-0.4-0.1-0.6-0.2-0.8
				c-0.2-0.2-0.4-0.3-0.8-0.3c-0.5,0-0.9,0.2-1.1,0.6v4.5h-1.7v-9h1.7V147.4z"/>
			<path class="st4" d="M77.6,149.8c0-0.6,0.1-1.2,0.4-1.7s0.6-0.9,1-1.1s1-0.4,1.6-0.4c0.9,0,1.6,0.3,2.1,0.8s0.8,1.2,0.9,2.1
				l0,0.4c0,1-0.3,1.8-0.8,2.3s-1.3,0.9-2.2,0.9s-1.6-0.3-2.2-0.9S77.6,150.9,77.6,149.8L77.6,149.8z M79.3,149.9
				c0,0.6,0.1,1.1,0.3,1.4c0.2,0.3,0.6,0.5,1,0.5c0.4,0,0.7-0.2,1-0.5c0.2-0.3,0.3-0.8,0.3-1.5c0-0.6-0.1-1-0.3-1.4
				c-0.2-0.3-0.6-0.5-1-0.5c-0.4,0-0.7,0.2-1,0.5C79.4,148.7,79.3,149.2,79.3,149.9z"/>
			<path class="st4" d="M84.4,149.8c0-0.6,0.1-1.2,0.4-1.7s0.6-0.9,1-1.1s1-0.4,1.6-0.4c0.9,0,1.6,0.3,2.1,0.8s0.8,1.2,0.9,2.1
				l0,0.4c0,1-0.3,1.8-0.8,2.3s-1.3,0.9-2.2,0.9s-1.6-0.3-2.2-0.9S84.4,150.9,84.4,149.8L84.4,149.8z M86.1,149.9
				c0,0.6,0.1,1.1,0.3,1.4c0.2,0.3,0.6,0.5,1,0.5c0.4,0,0.7-0.2,1-0.5c0.2-0.3,0.3-0.8,0.3-1.5c0-0.6-0.1-1-0.3-1.4
				c-0.2-0.3-0.6-0.5-1-0.5c-0.4,0-0.7,0.2-1,0.5C86.2,148.7,86.1,149.2,86.1,149.9z"/>
			<path class="st4" d="M94.9,151.2c0-0.2-0.1-0.4-0.3-0.5s-0.5-0.2-1-0.3c-1.5-0.3-2.3-1-2.3-1.9c0-0.6,0.2-1,0.7-1.4
				s1.1-0.6,1.8-0.6c0.8,0,1.4,0.2,1.9,0.6s0.7,0.9,0.7,1.5h-1.7c0-0.2-0.1-0.4-0.2-0.6s-0.4-0.2-0.7-0.2c-0.3,0-0.5,0.1-0.7,0.2
				s-0.2,0.3-0.2,0.5c0,0.2,0.1,0.3,0.3,0.5s0.5,0.2,0.9,0.3s0.8,0.2,1.1,0.3c0.9,0.3,1.3,0.9,1.3,1.7c0,0.6-0.2,1-0.7,1.4
				s-1.1,0.5-1.9,0.5c-0.5,0-1-0.1-1.4-0.3s-0.7-0.4-1-0.8s-0.4-0.7-0.4-1.1h1.6c0,0.3,0.1,0.5,0.3,0.7s0.5,0.2,0.8,0.2
				c0.3,0,0.6-0.1,0.7-0.2S94.9,151.4,94.9,151.2z"/>
			<path class="st4" d="M100.6,153.1c-0.9,0-1.7-0.3-2.3-0.9s-0.9-1.3-0.9-2.3v-0.2c0-0.6,0.1-1.2,0.4-1.7s0.6-0.9,1-1.2
				s1-0.4,1.5-0.4c0.9,0,1.5,0.3,2,0.8s0.7,1.3,0.7,2.3v0.7h-4c0.1,0.4,0.2,0.7,0.5,1s0.6,0.4,1,0.4c0.7,0,1.2-0.2,1.5-0.7l0.8,0.9
				c-0.3,0.4-0.6,0.6-1,0.8S101.1,153.1,100.6,153.1z M100.4,147.9c-0.3,0-0.6,0.1-0.8,0.3s-0.3,0.6-0.4,1h2.4v-0.1
				c0-0.4-0.1-0.7-0.3-0.9S100.7,147.9,100.4,147.9z"/>
			<path class="st4" d="M112.6,150.7l0.8-4h1.6l-1.6,6.3h-1.4l-1.2-4l-1.2,4h-1.4l-1.6-6.3h1.6l0.8,4l1.2-4h1.2L112.6,150.7z"/>
			<path class="st4" d="M117.6,147.4c0.4-0.5,1-0.8,1.7-0.8c1.4,0,2.1,0.8,2.1,2.4v4.1h-1.7v-4c0-0.4-0.1-0.6-0.2-0.8
				c-0.2-0.2-0.4-0.3-0.8-0.3c-0.5,0-0.9,0.2-1.1,0.6v4.5h-1.7v-9h1.7V147.4z"/>
			<path class="st4" d="M125.6,153.1c-0.9,0-1.7-0.3-2.3-0.9s-0.9-1.3-0.9-2.3v-0.2c0-0.6,0.1-1.2,0.4-1.7s0.6-0.9,1-1.2
				s1-0.4,1.5-0.4c0.9,0,1.5,0.3,2,0.8s0.7,1.3,0.7,2.3v0.7h-4c0.1,0.4,0.2,0.7,0.5,1s0.6,0.4,1,0.4c0.7,0,1.2-0.2,1.5-0.7l0.8,0.9
				c-0.3,0.4-0.6,0.6-1,0.8S126.1,153.1,125.6,153.1z M125.4,147.9c-0.3,0-0.6,0.1-0.8,0.3s-0.3,0.6-0.4,1h2.4v-0.1
				c0-0.4-0.1-0.7-0.3-0.9S125.7,147.9,125.4,147.9z"/>
			<path class="st4" d="M132.7,148.2c-0.2,0-0.4,0-0.6,0c-0.6,0-1.1,0.2-1.3,0.7v4.1h-1.7v-6.3h1.6l0,0.8c0.3-0.6,0.8-0.9,1.4-0.9
				c0.2,0,0.4,0,0.5,0.1L132.7,148.2z"/>
			<path class="st4" d="M136.3,153.1c-0.9,0-1.7-0.3-2.3-0.9s-0.9-1.3-0.9-2.3v-0.2c0-0.6,0.1-1.2,0.4-1.7s0.6-0.9,1-1.2
				s1-0.4,1.5-0.4c0.9,0,1.5,0.3,2,0.8s0.7,1.3,0.7,2.3v0.7h-4c0.1,0.4,0.2,0.7,0.5,1s0.6,0.4,1,0.4c0.7,0,1.2-0.2,1.5-0.7l0.8,0.9
				c-0.3,0.4-0.6,0.6-1,0.8S136.9,153.1,136.3,153.1z M136.1,147.9c-0.3,0-0.6,0.1-0.8,0.3s-0.3,0.6-0.4,1h2.4v-0.1
				c0-0.4-0.1-0.7-0.3-0.9S136.5,147.9,136.1,147.9z"/>
			<path class="st4" d="M60.6,165l1.2-3.9h1.8l-2.5,7.3l-0.1,0.3c-0.4,0.8-1,1.2-1.9,1.2c-0.2,0-0.5,0-0.8-0.1v-1.3l0.3,0
				c0.3,0,0.6,0,0.7-0.1s0.3-0.3,0.4-0.5l0.2-0.5l-2.2-6.4h1.8L60.6,165z"/>
			<path class="st4" d="M63.9,164.2c0-0.6,0.1-1.2,0.4-1.7s0.6-0.9,1-1.1s1-0.4,1.6-0.4c0.9,0,1.6,0.3,2.1,0.8s0.8,1.2,0.9,2.1
				l0,0.4c0,1-0.3,1.8-0.8,2.3s-1.3,0.9-2.2,0.9s-1.6-0.3-2.2-0.9S63.9,165.3,63.9,164.2L63.9,164.2z M65.6,164.3
				c0,0.6,0.1,1.1,0.3,1.4c0.2,0.3,0.6,0.5,1,0.5c0.4,0,0.7-0.2,1-0.5c0.2-0.3,0.3-0.8,0.3-1.5c0-0.6-0.1-1-0.3-1.4
				c-0.2-0.3-0.6-0.5-1-0.5c-0.4,0-0.7,0.2-1,0.5C65.8,163.1,65.6,163.6,65.6,164.3z"/>
			<path class="st4" d="M74.8,166.8c-0.4,0.5-1,0.8-1.7,0.8c-0.7,0-1.2-0.2-1.6-0.6s-0.5-1-0.5-1.7v-4.2h1.7v4.1c0,0.7,0.3,1,0.9,1
				c0.6,0,1-0.2,1.2-0.6v-4.5h1.7v6.3h-1.6L74.8,166.8z"/>
			<path class="st4" d="M81.3,162.6c-0.2,0-0.4,0-0.6,0c-0.6,0-1.1,0.2-1.3,0.7v4.1h-1.7v-6.3h1.6l0,0.8c0.3-0.6,0.8-0.9,1.4-0.9
				c0.2,0,0.4,0,0.5,0.1L81.3,162.6z"/>
			<path class="st7" d="M87.3,167.4h-2.1v-8.5h2.1V167.4z"/>
			<path class="st7" d="M95.7,166.3c-0.3,0.4-0.8,0.6-1.4,0.8s-1.3,0.3-2,0.3c-1.1,0-2-0.3-2.7-1s-1-1.6-1.1-2.9l0-0.7
				c0-0.8,0.1-1.6,0.4-2.2s0.7-1.1,1.3-1.4s1.2-0.5,1.9-0.5c1.1,0,1.9,0.2,2.5,0.7s0.9,1.2,1,2.2h-2c-0.1-0.5-0.2-0.8-0.5-1
				s-0.6-0.3-1-0.3c-0.5,0-0.9,0.2-1.2,0.7s-0.4,1.1-0.4,1.9v0.5c0,0.9,0.1,1.5,0.4,1.9s0.7,0.6,1.4,0.6c0.5,0,0.9-0.1,1.2-0.4v-1.3
				h-1.4v-1.4h3.5V166.3z"/>
			<path class="st7" d="M104,167.4h-2l-3-5.3v5.3h-2.1v-8.5h2.1l3,5.3v-5.3h2.1V167.4z"/>
			<path class="st7" d="M107.5,167.4h-2.1v-8.5h2.1V167.4z"/>
			<path class="st7" d="M115.4,160.5h-2.6v6.9h-2.1v-6.9h-2.5v-1.6h7.1V160.5z"/>
			<path class="st7" d="M121.6,163.8h-3.2v2h3.8v1.6h-5.9v-8.5h5.9v1.6h-3.8v1.8h3.2V163.8z"/>
			<path class="st4" d="M64.5,181.8c-0.1-0.2-0.1-0.3-0.2-0.6c-0.4,0.5-0.9,0.7-1.6,0.7c-0.6,0-1.1-0.2-1.5-0.5s-0.6-0.8-0.6-1.4
				c0-0.7,0.2-1.2,0.7-1.5s1.2-0.5,2.2-0.5h0.8v-0.4c0-0.3-0.1-0.5-0.2-0.7s-0.4-0.3-0.7-0.3c-0.3,0-0.5,0.1-0.7,0.2
				s-0.2,0.3-0.2,0.6h-1.7c0-0.4,0.1-0.7,0.3-1s0.5-0.6,1-0.7s0.9-0.3,1.4-0.3c0.8,0,1.4,0.2,1.9,0.6s0.7,0.9,0.7,1.7v2.7
				c0,0.6,0.1,1.1,0.3,1.4v0.1H64.5z M63.1,180.6c0.3,0,0.5-0.1,0.7-0.2s0.4-0.3,0.5-0.4v-1.1h-0.6c-0.8,0-1.3,0.3-1.4,0.9l0,0.1
				c0,0.2,0.1,0.4,0.2,0.5S62.9,180.6,63.1,180.6z"/>
			<path class="st4" d="M73,178.7c0,1-0.2,1.8-0.7,2.4s-1,0.9-1.8,0.9c-0.7,0-1.2-0.3-1.6-0.8l-0.1,0.7h-1.5v-9H69v3.2
				c0.4-0.5,0.9-0.7,1.5-0.7c0.8,0,1.4,0.3,1.8,0.9S73,177.6,73,178.7L73,178.7z M71.3,178.6c0-0.6-0.1-1.1-0.3-1.4
				s-0.5-0.4-0.9-0.4c-0.5,0-0.9,0.2-1.1,0.7v2.5c0.2,0.4,0.6,0.7,1.1,0.7c0.5,0,0.9-0.3,1.1-0.8C71.3,179.5,71.3,179.1,71.3,178.6z
				"/>
			<path class="st4" d="M74,173.8c0-0.3,0.1-0.5,0.3-0.6s0.4-0.2,0.7-0.2c0.3,0,0.5,0.1,0.7,0.2s0.3,0.4,0.3,0.6
				c0,0.3-0.1,0.5-0.3,0.6s-0.4,0.2-0.7,0.2s-0.5-0.1-0.7-0.2S74,174.1,74,173.8z M75.8,181.8h-1.7v-6.3h1.7V181.8z"/>
			<path class="st4" d="M79,181.8h-1.7v-9H79V181.8z"/>
			<path class="st4" d="M80.4,173.8c0-0.3,0.1-0.5,0.3-0.6s0.4-0.2,0.7-0.2c0.3,0,0.5,0.1,0.7,0.2s0.3,0.4,0.3,0.6
				c0,0.3-0.1,0.5-0.3,0.6s-0.4,0.2-0.7,0.2s-0.5-0.1-0.7-0.2S80.4,174.1,80.4,173.8z M82.2,181.8h-1.7v-6.3h1.7V181.8z"/>
			<path class="st4" d="M85.6,173.9v1.6h1.1v1.2h-1.1v3.2c0,0.2,0,0.4,0.1,0.5s0.3,0.2,0.5,0.2c0.2,0,0.4,0,0.5,0v1.3
				c-0.3,0.1-0.7,0.2-1,0.2c-1.2,0-1.8-0.6-1.8-1.8v-3.4H83v-1.2h0.9v-1.6H85.6z"/>
			<path class="st4" d="M87.6,173.8c0-0.3,0.1-0.5,0.3-0.6s0.4-0.2,0.7-0.2c0.3,0,0.5,0.1,0.7,0.2s0.3,0.4,0.3,0.6
				c0,0.3-0.1,0.5-0.3,0.6s-0.4,0.2-0.7,0.2s-0.5-0.1-0.7-0.2S87.6,174.1,87.6,173.8z M89.4,181.8h-1.7v-6.3h1.7V181.8z"/>
			<path class="st4" d="M93.8,181.9c-0.9,0-1.7-0.3-2.3-0.9s-0.9-1.3-0.9-2.3v-0.2c0-0.6,0.1-1.2,0.4-1.7s0.6-0.9,1-1.2
				s1-0.4,1.5-0.4c0.9,0,1.5,0.3,2,0.8s0.7,1.3,0.7,2.3v0.7h-4c0.1,0.4,0.2,0.7,0.5,1s0.6,0.4,1,0.4c0.7,0,1.2-0.2,1.5-0.7l0.8,0.9
				c-0.3,0.4-0.6,0.6-1,0.8S94.3,181.9,93.8,181.9z M93.6,176.7c-0.3,0-0.6,0.1-0.8,0.3s-0.3,0.6-0.4,1h2.4v-0.1
				c0-0.4-0.1-0.7-0.3-0.9S93.9,176.7,93.6,176.7z"/>
			<path class="st4" d="M100.8,180c0-0.2-0.1-0.4-0.3-0.5s-0.5-0.2-1-0.3c-1.5-0.3-2.3-1-2.3-1.9c0-0.6,0.2-1,0.7-1.4
				s1.1-0.6,1.8-0.6c0.8,0,1.4,0.2,1.9,0.6s0.7,0.9,0.7,1.5h-1.7c0-0.2-0.1-0.4-0.2-0.6s-0.4-0.2-0.7-0.2c-0.3,0-0.5,0.1-0.7,0.2
				s-0.2,0.3-0.2,0.5c0,0.2,0.1,0.3,0.3,0.5s0.5,0.2,0.9,0.3s0.8,0.2,1.1,0.3c0.9,0.3,1.3,0.9,1.3,1.7c0,0.6-0.2,1-0.7,1.4
				s-1.1,0.5-1.9,0.5c-0.5,0-1-0.1-1.4-0.3s-0.7-0.4-1-0.8s-0.4-0.7-0.4-1.1h1.6c0,0.3,0.1,0.5,0.3,0.7s0.5,0.2,0.8,0.2
				c0.3,0,0.6-0.1,0.7-0.2S100.8,180.2,100.8,180z"/>
			<path class="st4" d="M108.1,176.2c0.4-0.5,1-0.8,1.7-0.8c1.4,0,2.1,0.8,2.1,2.4v4.1h-1.7v-4c0-0.4-0.1-0.6-0.2-0.8
				c-0.2-0.2-0.4-0.3-0.8-0.3c-0.5,0-0.9,0.2-1.1,0.6v4.5h-1.7v-9h1.7V176.2z"/>
			<path class="st4" d="M113.2,173.8c0-0.3,0.1-0.5,0.3-0.6s0.4-0.2,0.7-0.2c0.3,0,0.5,0.1,0.7,0.2s0.3,0.4,0.3,0.6
				c0,0.3-0.1,0.5-0.3,0.6s-0.4,0.2-0.7,0.2s-0.5-0.1-0.7-0.2S113.2,174.1,113.2,173.8z M115,181.8h-1.7v-6.3h1.7V181.8z"/>
			<path class="st4" d="M118.4,173.9v1.6h1.1v1.2h-1.1v3.2c0,0.2,0,0.4,0.1,0.5s0.3,0.2,0.5,0.2c0.2,0,0.4,0,0.5,0v1.3
				c-0.3,0.1-0.7,0.2-1,0.2c-1.2,0-1.8-0.6-1.8-1.8v-3.4h-0.9v-1.2h0.9v-1.6H118.4z"/>
		</g>
		<g>
			<rect x="18" y="3.8" class="st5" width="144" height="12"/>
			<path class="st4" d="M27.9,12.8V4.2h2.7c0.8,0,1.4,0.2,2,0.5s1.1,0.8,1.4,1.4s0.5,1.3,0.5,2.1v0.4c0,0.8-0.2,1.5-0.5,2.1
				s-0.8,1.1-1.4,1.5s-1.3,0.5-2,0.5H27.9z M29.9,5.8v5.4h0.7c0.6,0,1-0.2,1.4-0.6s0.5-1,0.5-1.9V8.3c0-0.8-0.2-1.4-0.5-1.9
				s-0.8-0.6-1.4-0.6H29.9z"/>
			<path class="st4" d="M40.9,9.1h-3.2v2h3.8v1.6h-5.9V4.2h5.9v1.6h-3.8v1.8h3.2V9.1z"/>
			<path class="st4" d="M49.1,5.8h-2.6v6.9h-2.1V5.8H42V4.2h7.1V5.8z"/>
			<path class="st4" d="M57.1,8.7c0,0.8-0.2,1.6-0.5,2.2s-0.7,1.1-1.3,1.5s-1.2,0.5-1.9,0.5s-1.4-0.2-1.9-0.5s-1-0.8-1.3-1.4
				s-0.5-1.3-0.5-2.1V8.3c0-0.8,0.2-1.6,0.5-2.2s0.7-1.1,1.3-1.5s1.2-0.5,2-0.5c0.7,0,1.4,0.2,1.9,0.5s1,0.8,1.3,1.5
				s0.5,1.4,0.5,2.2V8.7z M55,8.3c0-0.8-0.1-1.5-0.4-1.9s-0.7-0.7-1.2-0.7c-1,0-1.6,0.8-1.6,2.3l0,0.6c0,0.8,0.1,1.5,0.4,1.9
				s0.7,0.7,1.2,0.7c0.5,0,0.9-0.2,1.2-0.7S55,9.5,55,8.7V8.3z"/>
			<path class="st4" d="M65.3,12.8h-2l-3-5.3v5.3h-2.1V4.2h2.1l3,5.3V4.2h2.1V12.8z"/>
			<path class="st4" d="M71.5,11.2h-2.8l-0.5,1.6H66l3.1-8.5h1.9l3.2,8.5H72L71.5,11.2z M69.2,9.6H71l-0.9-3L69.2,9.6z"/>
			<path class="st4" d="M80.8,5.8h-2.6v6.9h-2.1V5.8h-2.5V4.2h7.1V5.8z"/>
			<path class="st4" d="M83.9,12.8h-2.1V4.2h2.1V12.8z"/>
			<path class="st4" d="M92.5,8.7c0,0.8-0.2,1.6-0.5,2.2s-0.7,1.1-1.3,1.5s-1.2,0.5-1.9,0.5s-1.4-0.2-1.9-0.5s-1-0.8-1.3-1.4
				s-0.5-1.3-0.5-2.1V8.3c0-0.8,0.2-1.6,0.5-2.2s0.7-1.1,1.3-1.5s1.2-0.5,2-0.5c0.7,0,1.4,0.2,1.9,0.5s1,0.8,1.3,1.5
				s0.5,1.4,0.5,2.2V8.7z M90.5,8.3c0-0.8-0.1-1.5-0.4-1.9s-0.7-0.7-1.2-0.7c-1,0-1.6,0.8-1.6,2.3l0,0.6c0,0.8,0.1,1.5,0.4,1.9
				s0.7,0.7,1.2,0.7c0.5,0,0.9-0.2,1.2-0.7s0.4-1.1,0.4-1.9V8.3z"/>
			<path class="st4" d="M100.7,12.8h-2l-3-5.3v5.3h-2.1V4.2h2.1l3,5.3V4.2h2.1V12.8z"/>
			<path class="st4" d="M107.7,4.2l1.9,5.9l1.9-5.9h2.7v8.5h-2.1v-2l0.2-4.1l-2.1,6.1h-1.4l-2.1-6.1l0.2,4.1v2H105V4.2H107.7z"/>
			<path class="st4" d="M120.5,11.2h-2.8l-0.5,1.6H115l3.1-8.5h1.9l3.2,8.5H121L120.5,11.2z M118.2,9.6h1.8l-0.9-3L118.2,9.6z"/>
			<path class="st4" d="M128.2,10.5c0-0.3-0.1-0.5-0.3-0.7s-0.6-0.3-1.1-0.5s-1-0.4-1.3-0.5c-1.1-0.5-1.7-1.3-1.7-2.2
				c0-0.5,0.1-0.9,0.4-1.3s0.7-0.6,1.2-0.8s1.1-0.3,1.7-0.3c0.6,0,1.2,0.1,1.6,0.3s0.9,0.5,1.1,0.9s0.4,0.9,0.4,1.4h-2.1
				c0-0.3-0.1-0.6-0.3-0.8s-0.5-0.3-0.9-0.3c-0.4,0-0.7,0.1-0.9,0.2s-0.3,0.4-0.3,0.6c0,0.2,0.1,0.4,0.4,0.6s0.6,0.4,1.2,0.6
				s1.1,0.4,1.5,0.6c0.9,0.5,1.4,1.3,1.4,2.2c0,0.7-0.3,1.3-0.8,1.8s-1.3,0.6-2.3,0.6c-0.7,0-1.3-0.1-1.9-0.4s-1-0.6-1.3-1
				s-0.4-0.9-0.4-1.5h2.1c0,0.5,0.1,0.8,0.4,1s0.6,0.3,1.2,0.3c0.3,0,0.6-0.1,0.8-0.2S128.2,10.7,128.2,10.5z"/>
			<path class="st4" d="M138,5.8h-2.6v6.9h-2.1V5.8h-2.5V4.2h7.1V5.8z"/>
			<path class="st4" d="M144.2,9.1h-3.2v2h3.8v1.6h-5.9V4.2h5.9v1.6h-3.8v1.8h3.2V9.1z"/>
			<path class="st4" d="M148.8,9.7h-1.1v3h-2.1V4.2h3.4c1,0,1.8,0.2,2.4,0.7c0.6,0.4,0.9,1.1,0.9,1.9c0,0.6-0.1,1.1-0.4,1.5
				s-0.6,0.7-1.1,0.9l1.8,3.4v0.1h-2.2L148.8,9.7z M147.7,8.2h1.3c0.4,0,0.7-0.1,0.9-0.3c0.2-0.2,0.3-0.5,0.3-0.9s-0.1-0.7-0.3-0.9
				s-0.5-0.3-0.9-0.3h-1.3V8.2z"/>
		</g>
		<g>
			<rect x="133.7" y="108" class="st5" width="18.2" height="18.2"/>
			<path class="st0" d="M147.5,109.8c-0.4,0.4-0.9,0.9-1.6,1.6c-0.7,0-1.8,0-3.3,0c-0.4-0.4-0.9-0.9-1.6-1.6
				C142.4,109.8,144.6,109.8,147.5,109.8z M141,122c0.4-0.4,0.9-0.9,1.6-1.6c0.7,0,1.8,0,3.3,0c0.4,0.4,0.9,0.9,1.6,1.6
				C146,122,143.9,122,141,122z M141.4,115.9c0.2-0.2,0.4-0.4,0.8-0.8c0.9,0,2.3,0,4,0c0.2,0.2,0.5,0.5,0.8,0.8
				c-0.2,0.2-0.4,0.5-0.8,0.8c-0.9,0-2.2,0-4,0C142,116.5,141.8,116.3,141.4,115.9z M146.3,111.5c0.4-0.4,0.9-0.9,1.6-1.6
				c0,1.1,0,2.7,0,4.9c-0.2,0.2-0.5,0.4-0.8,0.8c-0.2-0.2-0.4-0.4-0.8-0.8C146.3,114,146.3,112.9,146.3,111.5z M146.3,117.1
				c0.2-0.2,0.5-0.4,0.8-0.8c0.2,0.2,0.5,0.4,0.8,0.8c0,1.1,0,2.7,0,4.9c-0.4-0.4-0.9-0.9-1.6-1.6
				C146.3,119.7,146.3,118.6,146.3,117.1z"/>
		</g>
		<g>
			<circle class="st4" cx="18.9" cy="138.6" r="2.5"/>
			<g>
				<path class="st3" d="M18.5,147.3c-2.3,0-4.4-0.9-6-2.5c-1.6-1.6-2.5-3.7-2.5-6s0.9-4.4,2.5-6l12.7-12.7
					c-0.1-3.4,1.2-6.7,3.6-9.1c2.3-2.3,5.4-3.6,8.7-3.6c0.2,0,0.5,0,0.7,0l1.4,0.1l-5.8,5.8l2.1,8l8,2.1l5.8-5.8l0.1,1.4
					c0.2,3.5-1.1,6.9-3.6,9.4c-2.3,2.3-5.4,3.6-8.7,3.6c0,0-0.3,0-0.4,0l-12.7,12.7C22.9,146.4,20.8,147.3,18.5,147.3z M18.5,136.5
					c-0.6,0-1.2,0.2-1.7,0.7c-0.4,0.4-0.7,1-0.7,1.7c0,0.6,0.2,1.2,0.7,1.7c0.4,0.4,1,0.7,1.7,0.7s1.2-0.2,1.7-0.7
					c0.4-0.4,0.7-1,0.7-1.7c0-0.6-0.2-1.2-0.7-1.7C19.7,136.8,19.1,136.5,18.5,136.5z"/>
				<path class="st4" d="M37.6,108.1c0.2,0,0.4,0,0.6,0l-5.1,5.1l2.3,8.7l8.7,2.3l5.1-5.1c0.2,3.2-0.9,6.5-3.4,8.9
					c-2.3,2.3-5.3,3.4-8.3,3.4c-0.2,0-0.4,0-0.7,0l0,0L24,144.4c-1.5,1.5-3.5,2.3-5.5,2.3s-4-0.8-5.5-2.3c-3-3-3-8,0-11l12.9-12.9
					l0,0c-0.2-3.2,0.9-6.5,3.4-8.9C31.6,109.2,34.6,108.1,37.6,108.1 M18.5,141.9c0.8,0,1.5-0.3,2.1-0.9c1.2-1.2,1.2-3.1,0-4.2
					c-0.6-0.6-1.4-0.9-2.1-0.9c-0.8,0-1.5,0.3-2.1,0.9c-1.2,1.2-1.2,3.1,0,4.2C17,141.6,17.7,141.9,18.5,141.9 M37.6,106.9
					c-3.5,0-6.7,1.3-9.1,3.8c-2.5,2.5-3.8,5.8-3.8,9.3l-12.6,12.6c-3.5,3.5-3.5,9.3,0,12.8c1.7,1.7,4,2.7,6.4,2.7
					c2.4,0,4.7-0.9,6.4-2.7l12.6-12.6c0,0,0.1,0,0.1,0c3.5,0,6.7-1.3,9.1-3.8c2.6-2.6,4-6.2,3.8-9.9l-0.2-2.8l-2,2l-4.6,4.6l-7.3-2
					l-2-7.3l4.6-4.6l2-2l-2.8-0.2C38.1,106.9,37.8,106.9,37.6,106.9L37.6,106.9z M18.5,140.6c-0.5,0-0.9-0.2-1.2-0.5
					c-0.3-0.3-0.5-0.8-0.5-1.2s0.2-0.9,0.5-1.2s0.8-0.5,1.2-0.5c0.5,0,0.9,0.2,1.2,0.5c0.7,0.7,0.7,1.8,0,2.5
					C19.4,140.4,19,140.6,18.5,140.6L18.5,140.6z"/>
			</g>
		</g>
		<g>
			<g>
				<path class="st0" d="M45.2,108.7c-0.4,0.4-0.9,0.9-1.6,1.6c-0.7,0-1.8,0-3.3,0c-0.4-0.4-0.9-0.9-1.6-1.6
					C40.1,108.7,42.3,108.7,45.2,108.7z M38.7,120.9c0.4-0.4,0.9-0.9,1.6-1.6c0.7,0,1.8,0,3.3,0c0.4,0.4,0.9,0.9,1.6,1.6
					C43.7,120.9,41.6,120.9,38.7,120.9z M39.1,114.8c0.2-0.2,0.4-0.4,0.8-0.8c0.9,0,2.3,0,4,0c0.2,0.2,0.5,0.5,0.8,0.8
					c-0.2,0.2-0.4,0.5-0.8,0.8c-0.9,0-2.2,0-4,0C39.7,115.4,39.5,115.1,39.1,114.8z M44,110.4c0.4-0.4,0.9-0.9,1.6-1.6
					c0,1.1,0,2.7,0,4.9c-0.2,0.2-0.5,0.4-0.8,0.8c-0.2-0.2-0.4-0.4-0.8-0.8C44,112.9,44,111.8,44,110.4z M44,116
					c0.2-0.2,0.5-0.4,0.8-0.8c0.2,0.2,0.5,0.4,0.8,0.8c0,1.1,0,2.7,0,4.9c-0.4-0.4-0.9-0.9-1.6-1.6C44,118.5,44,117.5,44,116z"/>
			</g>
		</g>
		<g>
			<defs>
				<path id="SVGID_1_" d="M171,252H9c-5,0-9-4-9-9V9c0-5,4-9,9-9h162c5,0,9,4,9,9v234C180,248,176,252,171,252z"/>
			</defs>
			<clipPath id="SVGID_2_">
				<use xlink:href="#SVGID_1_"  style="overflow:visible;"/>
			</clipPath>
			<g class="st8">
				<path class="st4" d="M0,18c9.9,0,18-8.1,18-18H0V18z"/>
				<path class="st4" d="M180,234c-9.9,0-18,8.1-18,18h18V234z"/>
				<path class="st4" d="M162,0c0,9.9,8.1,18,18,18V0L162,0z"/>
				<path class="st4" d="M18,252c0-9.9-8.1-18-18-18l0,18H18z"/>
			</g>
		</g>
	</g>
</g>
<g id="Layer_2" class="st9">
	<g class="st10">
		<g>
			<polyline class="st11" points="188,252 188,258 182,258 			"/>
			<line class="st12" x1="170.8" y1="258" x2="19.6" y2="258"/>
			<polyline class="st11" points="14,258 8,258 8,252 			"/>
			<line class="st13" x1="8" y1="240.6" x2="8" y2="17.7"/>
			<polyline class="st11" points="8,12 8,6 14,6 			"/>
			<line class="st12" x1="25.2" y1="6" x2="176.4" y2="6"/>
			<polyline class="st11" points="182,6 188,6 188,12 			"/>
			<line class="st13" x1="188" y1="23.4" x2="188" y2="246.3"/>
		</g>
	</g>
</g>
</svg>
