<?xml version="1.0" encoding="utf-8"?>
<!-- Generator: Adobe Illustrator 21.1.0, SVG Export Plug-In . SVG Version: 6.00 Build 0)  -->
<svg version="1.1" xmlns="http://www.w3.org/2000/svg" xmlns:xlink="http://www.w3.org/1999/xlink" x="0px" y="0px"
	 viewBox="0 0 180 252" style="enable-background:new 0 0 180 252;" xml:space="preserve">
<style type="text/css">
	.st0{fill:#333333;}
	.st1{fill:#CBCBCA;stroke:#982020;stroke-width:2.5;stroke-miterlimit:10;}
	.st2{fill:#333333;stroke:#982020;stroke-width:2.5;stroke-miterlimit:10;}
	.st3{fill:#676767;}
	.st4{fill:#CBCBCA;}
	.st5{fill:none;}
	.st6{fill:#CBA12C;}
	.st7{fill:#992020;}
	.st8{fill:#CBA32D;}
	.st9{clip-path:url(#SVGID_2_);}
	.st10{display:none;}
	.st11{display:inline;}
	.st12{fill:none;stroke:#991F1F;stroke-width:2;stroke-miterlimit:10;}
	.st13{fill:none;stroke:#991F1F;stroke-width:2;stroke-miterlimit:10;stroke-dasharray:11.2,11.2;}
	.st14{fill:none;stroke:#991F1F;stroke-width:2;stroke-miterlimit:10;stroke-dasharray:11.4286,11.4286;}
</style>
<g id="Layer_1">
	<g>
		<path class="st0" d="M162,252H18c0-9.9-8.1-18-18-18V18c9.9,0,18-8.1,18-18h144c0,9.9,8.1,18,18,18v216
			C170.1,234,162,242.1,162,252z"/>
		<path class="st1" d="M144,234H36c-9.9,0-18-8.1-18-18V36c0-9.9,8.1-18,18-18h108c9.9,0,18,8.1,18,18v180
			C162,225.9,153.9,234,144,234z"/>
		<path class="st2" d="M126,216H54c-9.9,0-18-8.1-18-18v-53.8c0-9.9,8.1-18,18-18h72c9.9,0,18,8.1,18,18V198
			C144,207.9,135.9,216,126,216z"/>
		<path class="st2" d="M126,108H54c-9.9,0-18-8.1-18-18V54c0-9.9,8.1-18,18-18h72c9.9,0,18,8.1,18,18v36C144,99.9,135.9,108,126,108
			z"/>
		<g>
			<path class="st3" d="M139.3,137.9l-2.7-4.6c-1.2-0.5-2.4-1.2-3.5-2h-5.4l-4.9-8.5l2.7-4.6c-0.1-0.7-0.1-1.4-0.1-2
				c0-0.6,0-1.3,0.1-2l-2.7-4.6l4.9-8.5h5.4c1.1-0.8,2.3-1.5,3.5-2l2.7-4.6h9.8l2.7,4.6c1.2,0.5,2.4,1.2,3.5,2h5.4l4.9,8.5l-2.7,4.6
				c0.1,0.7,0.1,1.4,0.1,2c0,0.6,0,1.3-0.1,2l2.7,4.6l-4.9,8.5h-5.4c-1.1,0.8-2.3,1.5-3.5,2l-2.7,4.6H139.3z M144.3,107.6
				c-4.7,0-8.5,3.8-8.5,8.5s3.8,8.5,8.5,8.5s8.5-3.8,8.5-8.5S148.9,107.6,144.3,107.6z"/>
			<path class="st4" d="M148.8,94.8l2.6,4.5c1.3,0.6,2.6,1.3,3.7,2.2h5.2l4.5,7.9l-2.6,4.5c0.1,0.7,0.1,1.4,0.1,2.2
				c0,0.7-0.1,1.5-0.1,2.2l2.6,4.5l-4.5,7.9h-5.2c-1.2,0.9-2.4,1.6-3.7,2.2l-2.6,4.5h-9.1l-2.6-4.5c-1.3-0.6-2.6-1.3-3.7-2.2h-5.2
				l-4.5-7.9l2.6-4.5c-0.1-0.7-0.1-1.4-0.1-2.2c0-0.7,0.1-1.5,0.1-2.2l-2.6-4.5l4.5-7.9h5.2c1.2-0.9,2.4-1.6,3.7-2.2l2.6-4.5H148.8
				 M144.3,125.1c5,0,9.1-4.1,9.1-9.1c0-5-4.1-9.1-9.1-9.1c-5,0-9.1,4.1-9.1,9.1C135.2,121.1,139.2,125.1,144.3,125.1 M149.5,93.6
				h-0.7h-9.1H139l-0.4,0.6l-2.4,4.1c-1.1,0.5-2.2,1.2-3.3,1.9h-4.8h-0.7l-0.4,0.6l-4.5,7.9l-0.4,0.6l0.4,0.6l2.4,4.1
				c-0.1,0.7-0.1,1.3-0.1,1.9c0,0.6,0,1.2,0.1,1.9l-2.4,4.1l-0.4,0.6l0.4,0.6l4.5,7.9l0.4,0.6h0.7h4.8c1.1,0.8,2.2,1.4,3.3,1.9
				l2.4,4.1l0.4,0.6h0.7h9.1h0.7l0.4-0.6l2.4-4.1c1.1-0.5,2.2-1.2,3.3-1.9h4.8h0.7l0.4-0.6l4.5-7.9l0.4-0.6l-0.4-0.6l-2.4-4.1
				c0.1-0.7,0.1-1.3,0.1-1.9c0-0.6,0-1.2-0.1-1.9l2.4-4.1l0.4-0.6l-0.4-0.6l-4.5-7.9l-0.4-0.6h-0.7h-4.8c-1.1-0.8-2.2-1.4-3.3-1.9
				l-2.4-4.1L149.5,93.6L149.5,93.6z M144.3,123.9c-4.3,0-7.8-3.5-7.8-7.8s3.5-7.8,7.8-7.8s7.8,3.5,7.8,7.8S148.6,123.9,144.3,123.9
				L144.3,123.9z"/>
		</g>
		<g>
			<rect x="18" y="27" class="st5" width="18" height="18"/>
			<path class="st6" d="M26.4,33.7c-0.2,0.2-0.4,0.4-0.8,0.8c-0.2-0.2-0.4-0.4-0.8-0.8c0-1.1,0-2.7,0-4.9c0.4,0.4,0.9,0.9,1.6,1.6
				C26.4,31.2,26.4,32.3,26.4,33.7z M25.6,34.9c0.2-0.2,0.4-0.4,0.8-0.8c0.9,0,2.3,0,4,0c0.2,0.2,0.5,0.5,0.8,0.8
				c-0.2,0.2-0.4,0.5-0.8,0.8c-0.9,0-2.2,0-4,0C26.2,35.5,26,35.3,25.6,34.9z M30.5,30.5c0.4-0.4,0.9-0.9,1.6-1.6c0,1.1,0,2.7,0,4.9
				c-0.2,0.2-0.5,0.4-0.8,0.8c-0.2-0.2-0.4-0.4-0.8-0.8C30.5,33,30.5,31.9,30.5,30.5z M30.5,36.1c0.2-0.2,0.5-0.4,0.8-0.8
				c0.2,0.2,0.5,0.4,0.8,0.8c0,1.1,0,2.7,0,4.9c-0.4-0.4-0.9-0.9-1.6-1.6C30.5,38.7,30.5,37.6,30.5,36.1z"/>
		</g>
		<g>
			<polygon class="st6" points="46.8,21.7 36,28.7 39.6,28.7 36,36 46.8,29.1 43.2,29.1 46.8,21.7 			"/>
		</g>
		<g>
			<rect x="40.5" y="144" class="st5" width="99" height="54"/>
			<path class="st4" d="M71.2,150.2c0.1-0.4-0.1-0.8-0.6-1l-1-0.4c-1.2-0.5-1.8-1.3-1.7-2.2c0-0.4,0.2-0.8,0.4-1.2
				c0.3-0.3,0.6-0.6,1.1-0.8s1-0.3,1.5-0.3c0.8,0,1.4,0.2,1.8,0.7c0.5,0.4,0.7,1,0.7,1.7h-1.6c0-0.4-0.1-0.6-0.2-0.8
				c-0.2-0.2-0.4-0.3-0.8-0.3c-0.4,0-0.7,0.1-0.9,0.2s-0.4,0.4-0.5,0.7c-0.1,0.4,0.2,0.7,0.8,0.9l0.7,0.3l0.4,0.2
				c1.1,0.5,1.6,1.3,1.5,2.2c0,0.5-0.2,0.9-0.4,1.2c-0.3,0.3-0.6,0.6-1.1,0.8c-0.5,0.2-1,0.3-1.5,0.3c-0.6,0-1-0.1-1.5-0.3
				c-0.4-0.2-0.8-0.5-1-0.9c-0.2-0.4-0.3-0.8-0.3-1.3l1.6,0c-0.1,0.8,0.4,1.3,1.3,1.3c0.4,0,0.7-0.1,0.9-0.3
				C71,150.7,71.1,150.4,71.2,150.2z"/>
			<path class="st4" d="M77,151.6c-0.4,0.5-1,0.7-1.6,0.7c-0.6,0-1-0.2-1.3-0.6c-0.3-0.4-0.4-0.9-0.3-1.6l0.6-3.8h1.5l-0.6,3.8
				c0,0.1,0,0.2,0,0.3c0,0.4,0.2,0.5,0.6,0.6c0.5,0,0.9-0.2,1.2-0.5l0.7-4.1h1.5l-1,5.8h-1.4L77,151.6z"/>
			<path class="st4" d="M81.8,146.4l-0.1,0.7c0.5-0.5,1-0.8,1.7-0.8c0.4,0,0.7,0.1,0.9,0.2c0.2,0.2,0.4,0.4,0.5,0.6
				c0.5-0.6,1.1-0.9,1.8-0.9c0.5,0,0.9,0.2,1.2,0.5c0.3,0.4,0.4,0.9,0.3,1.5l0,0.1l-0.6,3.7H86l0.6-3.7c0-0.1,0-0.3,0-0.4
				c0-0.4-0.2-0.6-0.6-0.6c-0.4,0-0.8,0.2-1.1,0.7l0,0.1l-0.7,3.9h-1.5l0.6-3.7c0-0.1,0-0.3,0-0.4c0-0.4-0.2-0.6-0.6-0.6
				c-0.4,0-0.7,0.2-1,0.5l-0.7,4.1h-1.5l1-5.8L81.8,146.4z"/>
			<path class="st4" d="M91.1,146.4l-0.1,0.7c0.5-0.5,1-0.8,1.7-0.8c0.4,0,0.7,0.1,0.9,0.2c0.2,0.2,0.4,0.4,0.5,0.6
				c0.5-0.6,1.1-0.9,1.8-0.9c0.5,0,0.9,0.2,1.2,0.5c0.3,0.4,0.4,0.9,0.3,1.5l0,0.1l-0.6,3.7h-1.5l0.6-3.7c0-0.1,0-0.3,0-0.4
				c0-0.4-0.2-0.6-0.6-0.6c-0.4,0-0.8,0.2-1.1,0.7l0,0.1l-0.7,3.9H92l0.6-3.7c0-0.1,0-0.3,0-0.4c0-0.4-0.2-0.6-0.6-0.6
				c-0.4,0-0.7,0.2-1,0.5l-0.7,4.1h-1.5l1-5.8L91.1,146.4z"/>
			<path class="st4" d="M101.3,146.3c0.5,0,1,0.1,1.3,0.4c0.4,0.3,0.6,0.6,0.8,1.1c0.2,0.4,0.2,0.9,0.2,1.5c-0.1,0.9-0.4,1.7-1,2.2
				c-0.6,0.6-1.3,0.8-2.1,0.8c-0.5,0-0.9-0.1-1.3-0.4c-0.4-0.3-0.6-0.6-0.8-1c-0.2-0.4-0.2-0.9-0.2-1.5c0.1-1,0.4-1.7,1-2.3
				C99.8,146.6,100.5,146.3,101.3,146.3z M99.8,150c0,0.3,0.1,0.6,0.2,0.8c0.2,0.2,0.4,0.3,0.6,0.3c0.5,0,0.8-0.2,1.1-0.6
				s0.4-1,0.4-1.7c0-0.3-0.1-0.6-0.3-0.8c-0.2-0.2-0.4-0.3-0.7-0.3c-0.5,0-0.8,0.2-1.1,0.6C99.9,148.7,99.8,149.2,99.8,150z"/>
			<path class="st4" d="M106.5,146.4l-0.1,0.7c0.5-0.5,1-0.8,1.7-0.8c0.5,0,1,0.2,1.2,0.6c0.3,0.4,0.4,0.9,0.3,1.6l-0.6,3.7h-1.5
				l0.6-3.7c0-0.1,0-0.3,0-0.4c0-0.4-0.3-0.6-0.7-0.6c-0.4,0-0.8,0.2-1.1,0.6l-0.7,4.1h-1.5l1-5.8L106.5,146.4z"/>
			<path class="st4" d="M110.8,147.1c0-0.2,0.1-0.4,0.2-0.6c0.2-0.2,0.4-0.2,0.6-0.2c0.3,0,0.5,0.1,0.6,0.2c0.2,0.2,0.3,0.4,0.3,0.6
				c0,0.2-0.1,0.4-0.2,0.6s-0.4,0.2-0.6,0.2c-0.3,0-0.5-0.1-0.6-0.2C110.9,147.5,110.8,147.3,110.8,147.1z M110.8,151.5
				c0-0.2,0.1-0.4,0.2-0.6c0.2-0.2,0.4-0.2,0.6-0.2c0.3,0,0.5,0.1,0.6,0.2c0.2,0.2,0.3,0.4,0.3,0.6c0,0.2-0.1,0.4-0.2,0.6
				c-0.2,0.2-0.4,0.2-0.6,0.2c-0.3,0-0.5-0.1-0.6-0.2C110.9,151.9,110.8,151.7,110.8,151.5z"/>
			<path class="st7" d="M43,165.5v-7.8h2.4c0.7,0,1.3,0.2,1.8,0.5c0.5,0.3,1,0.8,1.3,1.3c0.3,0.6,0.5,1.2,0.5,1.9v0.4
				c0,0.7-0.1,1.4-0.4,1.9c-0.3,0.6-0.7,1-1.3,1.3s-1.2,0.5-1.8,0.5H43z M44.6,158.9v5.2h0.8c0.6,0,1.1-0.2,1.4-0.6
				c0.3-0.4,0.5-1,0.5-1.8v-0.4c0-0.8-0.2-1.4-0.5-1.8s-0.8-0.6-1.4-0.6H44.6z"/>
			<path class="st7" d="M54.8,162h-3.1v2.1h3.6v1.3h-5.2v-7.8h5.2v1.3h-3.6v1.9h3.1V162z"/>
			<path class="st7" d="M60.4,163.4c0-0.3-0.1-0.5-0.3-0.7s-0.6-0.3-1.2-0.5s-1-0.4-1.3-0.5c-0.9-0.5-1.3-1.1-1.3-1.9
				c0-0.4,0.1-0.8,0.4-1.1c0.2-0.3,0.6-0.6,1-0.8c0.4-0.2,0.9-0.3,1.5-0.3c0.6,0,1.1,0.1,1.5,0.3c0.4,0.2,0.8,0.5,1,0.9
				c0.2,0.4,0.4,0.8,0.4,1.3h-1.6c0-0.4-0.1-0.6-0.3-0.8c-0.2-0.2-0.5-0.3-1-0.3c-0.4,0-0.7,0.1-0.9,0.3c-0.2,0.2-0.3,0.4-0.3,0.7
				c0,0.3,0.1,0.5,0.4,0.6c0.3,0.2,0.6,0.3,1.1,0.5c0.9,0.3,1.6,0.6,2,1s0.6,0.9,0.6,1.5c0,0.7-0.3,1.2-0.8,1.6
				c-0.5,0.4-1.2,0.6-2.1,0.6c-0.6,0-1.1-0.1-1.6-0.3c-0.5-0.2-0.9-0.5-1.1-0.9c-0.3-0.4-0.4-0.8-0.4-1.3h1.6c0,0.9,0.5,1.3,1.5,1.3
				c0.4,0,0.7-0.1,0.9-0.2C60.2,163.9,60.4,163.7,60.4,163.4z"/>
			<path class="st7" d="M69,158.9h-2.4v6.5h-1.6v-6.5h-2.4v-1.3H69V158.9z"/>
			<path class="st7" d="M72.8,162.6h-1.3v2.9h-1.6v-7.8h2.9c0.9,0,1.6,0.2,2.1,0.6c0.5,0.4,0.8,1,0.8,1.7c0,0.5-0.1,1-0.3,1.3
				c-0.2,0.4-0.6,0.6-1.1,0.9l1.7,3.2v0.1h-1.7L72.8,162.6z M71.5,161.3h1.3c0.4,0,0.7-0.1,0.9-0.3c0.2-0.2,0.3-0.5,0.3-0.9
				c0-0.4-0.1-0.7-0.3-0.9c-0.2-0.2-0.5-0.3-1-0.3h-1.3V161.3z"/>
			<path class="st7" d="M83.3,161.7c0,0.8-0.1,1.4-0.4,2s-0.7,1-1.2,1.3c-0.5,0.3-1.1,0.5-1.7,0.5c-0.6,0-1.2-0.2-1.7-0.5
				s-0.9-0.8-1.2-1.3c-0.3-0.6-0.4-1.2-0.4-2v-0.4c0-0.8,0.1-1.4,0.4-2c0.3-0.6,0.7-1,1.2-1.3c0.5-0.3,1.1-0.5,1.7-0.5
				s1.2,0.2,1.7,0.5c0.5,0.3,0.9,0.8,1.2,1.3c0.3,0.6,0.4,1.3,0.4,2V161.7z M81.7,161.4c0-0.8-0.1-1.4-0.4-1.9
				c-0.3-0.4-0.7-0.6-1.3-0.6c-0.5,0-1,0.2-1.3,0.6s-0.4,1-0.4,1.9v0.4c0,0.8,0.1,1.4,0.4,1.9s0.7,0.7,1.3,0.7c0.5,0,1-0.2,1.2-0.6
				c0.3-0.4,0.4-1,0.4-1.9V161.4z"/>
			<path class="st7" d="M86.9,161.2l1.6-3.5h1.8l-2.6,5v2.8h-1.6v-2.8l-2.6-5h1.8L86.9,161.2z"/>
			<path class="st4" d="M97.1,165.5c-0.1-0.1-0.1-0.3-0.2-0.5c-0.4,0.4-0.9,0.6-1.5,0.6c-0.6,0-1-0.2-1.4-0.5
				c-0.4-0.3-0.6-0.7-0.6-1.2c0-0.6,0.2-1.1,0.7-1.4c0.5-0.3,1.1-0.5,2-0.5h0.7v-0.3c0-0.3-0.1-0.5-0.2-0.6
				c-0.1-0.2-0.4-0.2-0.7-0.2c-0.3,0-0.5,0.1-0.6,0.2c-0.1,0.1-0.2,0.3-0.2,0.5h-1.6c0-0.3,0.1-0.6,0.3-0.9c0.2-0.3,0.5-0.5,0.9-0.7
				s0.8-0.2,1.3-0.2c0.7,0,1.3,0.2,1.7,0.5c0.4,0.4,0.6,0.9,0.6,1.5v2.5c0,0.6,0.1,1,0.2,1.3v0.1H97.1z M95.8,164.4
				c0.2,0,0.4-0.1,0.6-0.2c0.2-0.1,0.3-0.2,0.4-0.4v-1h-0.6c-0.8,0-1.2,0.3-1.2,0.8l0,0.1c0,0.2,0.1,0.4,0.2,0.5
				C95.4,164.3,95.5,164.4,95.8,164.4z"/>
			<path class="st4" d="M105.2,157.6l1,5.7l2.9-5.7h2.1l-1.4,7.8h-1.6l0.4-2.2l0.8-3.5l-3,5.7h-1.1l-1-5.9l-0.5,3.9l-0.4,2.1h-1.6
				l1.4-7.8H105.2z"/>
			<path class="st4" d="M112.7,165.5h-1.5l1-5.8h1.5L112.7,165.5z M112.4,158.2c0-0.2,0.1-0.4,0.2-0.6c0.2-0.2,0.4-0.2,0.6-0.2
				c0.2,0,0.4,0.1,0.6,0.2c0.2,0.1,0.3,0.3,0.3,0.6c0,0.2-0.1,0.4-0.2,0.6c-0.2,0.2-0.4,0.3-0.6,0.3c-0.2,0-0.4-0.1-0.6-0.2
				C112.5,158.6,112.4,158.4,112.4,158.2z"/>
			<path class="st4" d="M116.4,159.6l-0.1,0.7c0.5-0.5,1-0.8,1.7-0.8c0.5,0,1,0.2,1.2,0.6c0.3,0.4,0.4,0.9,0.3,1.6l-0.6,3.7h-1.5
				l0.6-3.7c0-0.1,0-0.3,0-0.4c0-0.4-0.3-0.6-0.7-0.6c-0.4,0-0.8,0.2-1.1,0.6l-0.7,4.1H114l1-5.8L116.4,159.6z"/>
			<path class="st4" d="M121.7,165.5h-1.5l1-5.8h1.5L121.7,165.5z M121.3,158.2c0-0.2,0.1-0.4,0.2-0.6c0.2-0.2,0.4-0.2,0.6-0.2
				c0.2,0,0.4,0.1,0.6,0.2c0.2,0.1,0.3,0.3,0.3,0.6c0,0.2-0.1,0.4-0.2,0.6c-0.2,0.2-0.4,0.3-0.6,0.3c-0.2,0-0.4-0.1-0.6-0.2
				C121.4,158.6,121.3,158.4,121.3,158.2z"/>
			<path class="st4" d="M126.3,159.5c0.5,0,1,0.1,1.3,0.4c0.4,0.3,0.6,0.6,0.8,1.1c0.2,0.4,0.2,0.9,0.2,1.5c-0.1,0.9-0.4,1.7-1,2.2
				c-0.6,0.6-1.3,0.8-2.1,0.8c-0.5,0-0.9-0.1-1.3-0.4c-0.4-0.3-0.6-0.6-0.8-1c-0.2-0.4-0.2-0.9-0.2-1.5c0.1-1,0.4-1.7,1-2.3
				C124.8,159.8,125.5,159.5,126.3,159.5z M124.7,163.2c0,0.3,0.1,0.6,0.2,0.8c0.2,0.2,0.4,0.3,0.6,0.3c0.5,0,0.8-0.2,1.1-0.6
				s0.4-1,0.4-1.7c0-0.3-0.1-0.6-0.3-0.8c-0.2-0.2-0.4-0.3-0.7-0.3c-0.5,0-0.8,0.2-1.1,0.6C124.8,161.9,124.7,162.4,124.7,163.2z"/>
			<path class="st4" d="M131.4,159.6l-0.1,0.7c0.5-0.5,1-0.8,1.7-0.8c0.5,0,1,0.2,1.2,0.6c0.3,0.4,0.4,0.9,0.3,1.6l-0.6,3.7h-1.5
				l0.6-3.7c0-0.1,0-0.3,0-0.4c0-0.4-0.3-0.6-0.7-0.6c-0.4,0-0.8,0.2-1.1,0.6l-0.7,4.1H129l1-5.8L131.4,159.6z"/>
			<path class="st4" d="M136,167.4l-0.8-0.4l0.2-0.3c0.2-0.4,0.4-0.9,0.4-1.3v-1.2h1.3l0,1.1c0,0.4-0.1,0.8-0.3,1.2
				C136.6,166.8,136.4,167.1,136,167.4z"/>
			<path class="st4" d="M48.8,171.4v1.4h1v1.1h-1v2.9c0,0.2,0,0.4,0.1,0.5c0.1,0.1,0.2,0.1,0.5,0.1c0.2,0,0.3,0,0.5,0v1.2
				c-0.3,0.1-0.6,0.1-0.9,0.1c-1.1,0-1.6-0.5-1.7-1.6V174h-0.8v-1.1h0.8v-1.4H48.8z"/>
			<path class="st4" d="M52.1,173.5c0.4-0.5,0.9-0.7,1.6-0.7c1.3,0,1.9,0.7,1.9,2.2v3.7H54V175c0-0.3-0.1-0.6-0.2-0.7
				c-0.1-0.2-0.4-0.2-0.7-0.2c-0.5,0-0.8,0.2-1,0.5v4.1h-1.6v-8.3h1.6V173.5z"/>
			<path class="st4" d="M59.4,178.8c-0.9,0-1.5-0.3-2.1-0.8c-0.5-0.5-0.8-1.2-0.8-2.1v-0.2c0-0.6,0.1-1.1,0.3-1.6
				c0.2-0.5,0.5-0.8,1-1.1c0.4-0.2,0.9-0.4,1.4-0.4c0.8,0,1.4,0.3,1.9,0.8c0.5,0.5,0.7,1.2,0.7,2.1v0.6h-3.7
				c0.1,0.4,0.2,0.7,0.5,0.9c0.3,0.2,0.6,0.3,1,0.3c0.6,0,1.1-0.2,1.4-0.7l0.8,0.9c-0.2,0.3-0.5,0.6-0.9,0.8S59.9,178.8,59.4,178.8z
				 M59.3,174c-0.3,0-0.6,0.1-0.7,0.3c-0.2,0.2-0.3,0.5-0.4,0.9h2.2v-0.1c0-0.3-0.1-0.6-0.3-0.8C59.8,174.1,59.6,174,59.3,174z"/>
			<path class="st4" d="M64.1,172.8l0,0.7c0.4-0.5,1-0.8,1.7-0.8c0.6,0,1.1,0.2,1.4,0.5c0.3,0.4,0.5,0.9,0.5,1.6v3.8h-1.6v-3.7
				c0-0.3-0.1-0.6-0.2-0.7c-0.1-0.1-0.4-0.2-0.7-0.2c-0.4,0-0.8,0.2-1,0.6v4.1h-1.6v-5.8H64.1z"/>
			<path class="st4" d="M71.6,171.3c0-0.2,0.1-0.4,0.2-0.6c0.2-0.2,0.4-0.2,0.6-0.2c0.3,0,0.5,0.1,0.6,0.2s0.2,0.3,0.2,0.6
				c0,0.2-0.1,0.4-0.2,0.6c-0.2,0.2-0.4,0.2-0.6,0.2s-0.5-0.1-0.6-0.2C71.7,171.8,71.6,171.6,71.6,171.3z M73.2,178.6h-1.6v-5.8h1.6
				V178.6z"/>
			<path class="st4" d="M76.4,171.4v1.4h1v1.1h-1v2.9c0,0.2,0,0.4,0.1,0.5c0.1,0.1,0.2,0.1,0.5,0.1c0.2,0,0.3,0,0.5,0v1.2
				c-0.3,0.1-0.6,0.1-0.9,0.1c-1.1,0-1.6-0.5-1.7-1.6V174H74v-1.1h0.8v-1.4H76.4z"/>
			<path class="st4" d="M81.4,177c0-0.2-0.1-0.3-0.3-0.4c-0.2-0.1-0.5-0.2-0.9-0.3c-1.4-0.3-2.1-0.9-2.1-1.8c0-0.5,0.2-0.9,0.6-1.3
				c0.4-0.3,1-0.5,1.7-0.5c0.7,0,1.3,0.2,1.8,0.5c0.4,0.3,0.7,0.8,0.7,1.4h-1.6c0-0.2-0.1-0.4-0.2-0.6c-0.1-0.1-0.4-0.2-0.7-0.2
				c-0.3,0-0.5,0.1-0.6,0.2s-0.2,0.3-0.2,0.5c0,0.2,0.1,0.3,0.2,0.4c0.2,0.1,0.4,0.2,0.8,0.3c0.4,0.1,0.7,0.2,1,0.3
				c0.8,0.3,1.2,0.8,1.2,1.6c0,0.5-0.2,1-0.7,1.3c-0.5,0.3-1,0.5-1.8,0.5c-0.5,0-0.9-0.1-1.3-0.3c-0.4-0.2-0.7-0.4-0.9-0.7
				s-0.3-0.6-0.3-1h1.5c0,0.3,0.1,0.5,0.3,0.6c0.2,0.1,0.4,0.2,0.8,0.2c0.3,0,0.5-0.1,0.7-0.2C81.3,177.4,81.4,177.2,81.4,177z"/>
			<path class="st4" d="M89.1,177.5c0.3,0,0.5-0.1,0.7-0.2c0.2-0.2,0.3-0.4,0.3-0.6h1.5c0,0.4-0.1,0.8-0.3,1.1
				c-0.2,0.3-0.5,0.6-0.9,0.8c-0.4,0.2-0.8,0.3-1.2,0.3c-0.8,0-1.5-0.3-2-0.8s-0.7-1.3-0.7-2.2v-0.1c0-0.9,0.2-1.6,0.7-2.1
				c0.5-0.5,1.1-0.8,2-0.8c0.7,0,1.3,0.2,1.7,0.6c0.4,0.4,0.7,1,0.7,1.7H90c0-0.3-0.1-0.5-0.3-0.7c-0.2-0.2-0.4-0.3-0.7-0.3
				c-0.4,0-0.6,0.1-0.8,0.4c-0.2,0.3-0.3,0.7-0.3,1.3v0.2c0,0.6,0.1,1,0.3,1.3S88.7,177.5,89.1,177.5z"/>
			<path class="st4" d="M92.1,175.7c0-0.6,0.1-1.1,0.3-1.5c0.2-0.5,0.5-0.8,1-1c0.4-0.2,0.9-0.4,1.5-0.4c0.8,0,1.4,0.2,1.9,0.7
				c0.5,0.5,0.8,1.1,0.8,2l0,0.4c0,0.9-0.2,1.6-0.7,2.1c-0.5,0.5-1.2,0.8-2,0.8s-1.5-0.3-2-0.8C92.4,177.4,92.1,176.7,92.1,175.7
				L92.1,175.7z M93.7,175.8c0,0.6,0.1,1,0.3,1.3s0.5,0.4,0.9,0.4c0.4,0,0.7-0.1,0.9-0.4c0.2-0.3,0.3-0.8,0.3-1.4
				c0-0.5-0.1-1-0.3-1.3s-0.5-0.4-0.9-0.4c-0.4,0-0.7,0.1-0.9,0.4S93.7,175.2,93.7,175.8z"/>
			<path class="st4" d="M100,172.8l0,0.7c0.4-0.5,1-0.8,1.7-0.8c0.6,0,1.1,0.2,1.4,0.5c0.3,0.4,0.5,0.9,0.5,1.6v3.8H102v-3.7
				c0-0.3-0.1-0.6-0.2-0.7c-0.1-0.1-0.4-0.2-0.7-0.2c-0.4,0-0.8,0.2-1,0.6v4.1h-1.6v-5.8H100z"/>
			<path class="st4" d="M106.6,171.4v1.4h1v1.1h-1v2.9c0,0.2,0,0.4,0.1,0.5c0.1,0.1,0.2,0.1,0.5,0.1c0.2,0,0.3,0,0.5,0v1.2
				c-0.3,0.1-0.6,0.1-0.9,0.1c-1.1,0-1.6-0.5-1.7-1.6V174h-0.8v-1.1h0.8v-1.4H106.6z"/>
			<path class="st4" d="M111.7,174.3c-0.2,0-0.4,0-0.6,0c-0.6,0-1,0.2-1.2,0.6v3.8h-1.6v-5.8h1.5l0,0.7c0.3-0.5,0.7-0.8,1.3-0.8
				c0.2,0,0.3,0,0.5,0.1L111.7,174.3z"/>
			<path class="st4" d="M112,175.7c0-0.6,0.1-1.1,0.3-1.5c0.2-0.5,0.5-0.8,1-1c0.4-0.2,0.9-0.4,1.5-0.4c0.8,0,1.4,0.2,1.9,0.7
				c0.5,0.5,0.8,1.1,0.8,2l0,0.4c0,0.9-0.2,1.6-0.7,2.1c-0.5,0.5-1.2,0.8-2,0.8s-1.5-0.3-2-0.8C112.3,177.4,112,176.7,112,175.7
				L112,175.7z M113.6,175.8c0,0.6,0.1,1,0.3,1.3s0.5,0.4,0.9,0.4c0.4,0,0.7-0.1,0.9-0.4c0.2-0.3,0.3-0.8,0.3-1.4
				c0-0.5-0.1-1-0.3-1.3s-0.5-0.4-0.9-0.4c-0.4,0-0.7,0.1-0.9,0.4S113.6,175.2,113.6,175.8z"/>
			<path class="st4" d="M120.1,178.6h-1.6v-8.3h1.6V178.6z"/>
			<path class="st4" d="M123.1,178.6h-1.6v-8.3h1.6V178.6z"/>
			<path class="st4" d="M127,178.8c-0.9,0-1.5-0.3-2.1-0.8c-0.5-0.5-0.8-1.2-0.8-2.1v-0.2c0-0.6,0.1-1.1,0.3-1.6
				c0.2-0.5,0.5-0.8,1-1.1c0.4-0.2,0.9-0.4,1.4-0.4c0.8,0,1.4,0.3,1.9,0.8c0.5,0.5,0.7,1.2,0.7,2.1v0.6h-3.7
				c0.1,0.4,0.2,0.7,0.5,0.9c0.3,0.2,0.6,0.3,1,0.3c0.6,0,1.1-0.2,1.4-0.7l0.8,0.9c-0.2,0.3-0.5,0.6-0.9,0.8S127.5,178.8,127,178.8z
				 M126.8,174c-0.3,0-0.6,0.1-0.7,0.3c-0.2,0.2-0.3,0.5-0.4,0.9h2.2v-0.1c0-0.3-0.1-0.6-0.3-0.8C127.4,174.1,127.2,174,126.8,174z"
				/>
			<path class="st4" d="M133.6,174.3c-0.2,0-0.4,0-0.6,0c-0.6,0-1,0.2-1.2,0.6v3.8h-1.6v-5.8h1.5l0,0.7c0.3-0.5,0.7-0.8,1.3-0.8
				c0.2,0,0.3,0,0.5,0.1L133.6,174.3z"/>
			<path class="st4" d="M55.9,188.9c0-0.9,0.2-1.6,0.6-2.2c0.4-0.5,1-0.8,1.7-0.8c0.6,0,1,0.2,1.4,0.6v-3h1.6v8.3h-1.4l-0.1-0.6
				c-0.4,0.5-0.9,0.7-1.5,0.7c-0.7,0-1.2-0.3-1.6-0.8C56.1,190.6,55.9,189.9,55.9,188.9z M57.5,189c0,0.5,0.1,1,0.3,1.3
				c0.2,0.3,0.5,0.4,0.8,0.4c0.5,0,0.8-0.2,1-0.6v-2.3c-0.2-0.4-0.5-0.6-1-0.6C57.8,187.2,57.5,187.8,57.5,189z"/>
			<path class="st4" d="M65.6,187.5c-0.2,0-0.4,0-0.6,0c-0.6,0-1,0.2-1.2,0.6v3.8h-1.6V186h1.5l0,0.7c0.3-0.5,0.7-0.8,1.3-0.8
				c0.2,0,0.3,0,0.5,0.1L65.6,187.5z"/>
			<path class="st4" d="M69.6,191.8c-0.1-0.1-0.1-0.3-0.2-0.5c-0.4,0.4-0.9,0.6-1.5,0.6c-0.6,0-1-0.2-1.4-0.5
				c-0.4-0.3-0.6-0.7-0.6-1.2c0-0.6,0.2-1.1,0.7-1.4c0.5-0.3,1.1-0.5,2-0.5h0.7V188c0-0.3-0.1-0.5-0.2-0.6c-0.1-0.2-0.4-0.2-0.7-0.2
				c-0.3,0-0.5,0.1-0.6,0.2c-0.1,0.1-0.2,0.3-0.2,0.5h-1.6c0-0.3,0.1-0.6,0.3-0.9c0.2-0.3,0.5-0.5,0.9-0.7c0.4-0.2,0.8-0.2,1.3-0.2
				c0.7,0,1.3,0.2,1.7,0.5c0.4,0.4,0.6,0.9,0.6,1.5v2.5c0,0.6,0.1,1,0.2,1.3v0.1H69.6z M68.3,190.8c0.2,0,0.4-0.1,0.6-0.2
				c0.2-0.1,0.3-0.2,0.4-0.4v-1h-0.6c-0.8,0-1.2,0.3-1.2,0.8l0,0.1c0,0.2,0.1,0.4,0.2,0.5C67.9,190.7,68.1,190.8,68.3,190.8z"/>
			<path class="st4" d="M77.2,189.7l0.8-3.7h1.5l-1.5,5.8h-1.3l-1.1-3.7l-1.1,3.7h-1.3l-1.5-5.8h1.5l0.8,3.7L75,186h1.1L77.2,189.7z
				"/>
			<path class="st4" d="M83.3,190.2c0-0.2-0.1-0.3-0.3-0.4c-0.2-0.1-0.5-0.2-0.9-0.3c-1.4-0.3-2.1-0.9-2.1-1.8
				c0-0.5,0.2-0.9,0.6-1.3c0.4-0.3,1-0.5,1.7-0.5c0.7,0,1.3,0.2,1.8,0.5c0.4,0.3,0.7,0.8,0.7,1.4h-1.6c0-0.2-0.1-0.4-0.2-0.6
				c-0.1-0.1-0.4-0.2-0.7-0.2c-0.3,0-0.5,0.1-0.6,0.2s-0.2,0.3-0.2,0.5c0,0.2,0.1,0.3,0.2,0.4c0.2,0.1,0.4,0.2,0.8,0.3
				c0.4,0.1,0.7,0.2,1,0.3c0.8,0.3,1.2,0.8,1.2,1.6c0,0.5-0.2,1-0.7,1.3c-0.5,0.3-1,0.5-1.8,0.5c-0.5,0-0.9-0.1-1.3-0.3
				c-0.4-0.2-0.7-0.4-0.9-0.7s-0.3-0.6-0.3-1h1.5c0,0.3,0.1,0.5,0.3,0.6c0.2,0.1,0.4,0.2,0.8,0.2c0.3,0,0.5-0.1,0.7-0.2
				C83.3,190.6,83.3,190.4,83.3,190.2z"/>
			<path class="st8" d="M93.9,191.8h-5.4v-1.1l2.5-2.7c0.3-0.4,0.6-0.7,0.8-1c0.2-0.3,0.3-0.6,0.3-0.8c0-0.3-0.1-0.6-0.3-0.8
				c-0.2-0.2-0.4-0.3-0.8-0.3c-0.4,0-0.6,0.1-0.8,0.4c-0.2,0.2-0.3,0.6-0.3,1h-1.6c0-0.5,0.1-0.9,0.3-1.3c0.2-0.4,0.5-0.7,1-0.9
				s0.9-0.3,1.4-0.3c0.8,0,1.4,0.2,1.9,0.6c0.4,0.4,0.7,0.9,0.7,1.6c0,0.4-0.1,0.8-0.3,1.2c-0.2,0.4-0.5,0.9-1,1.4l-1.8,1.9h3.4
				V191.8z"/>
			<path class="st8" d="M100.1,190.7c0.3,0,0.5-0.1,0.7-0.2c0.2-0.2,0.3-0.4,0.3-0.6h1.5c0,0.4-0.1,0.8-0.3,1.1
				c-0.2,0.3-0.5,0.6-0.9,0.8c-0.4,0.2-0.8,0.3-1.2,0.3c-0.8,0-1.5-0.3-2-0.8s-0.7-1.3-0.7-2.2v-0.1c0-0.9,0.2-1.6,0.7-2.1
				c0.5-0.5,1.1-0.8,2-0.8c0.7,0,1.3,0.2,1.7,0.6c0.4,0.4,0.7,1,0.7,1.7H101c0-0.3-0.1-0.5-0.3-0.7c-0.2-0.2-0.4-0.3-0.7-0.3
				c-0.4,0-0.6,0.1-0.8,0.4c-0.2,0.3-0.3,0.7-0.3,1.3v0.2c0,0.6,0.1,1,0.3,1.3S99.7,190.7,100.1,190.7z"/>
			<path class="st8" d="M106.7,191.8c-0.1-0.1-0.1-0.3-0.2-0.5c-0.4,0.4-0.9,0.6-1.5,0.6c-0.6,0-1-0.2-1.4-0.5
				c-0.4-0.3-0.6-0.7-0.6-1.2c0-0.6,0.2-1.1,0.7-1.4c0.5-0.3,1.1-0.5,2-0.5h0.7V188c0-0.3-0.1-0.5-0.2-0.6c-0.1-0.2-0.4-0.2-0.7-0.2
				c-0.3,0-0.5,0.1-0.6,0.2c-0.1,0.1-0.2,0.3-0.2,0.5h-1.6c0-0.3,0.1-0.6,0.3-0.9c0.2-0.3,0.5-0.5,0.9-0.7c0.4-0.2,0.8-0.2,1.3-0.2
				c0.7,0,1.3,0.2,1.7,0.5c0.4,0.4,0.6,0.9,0.6,1.5v2.5c0,0.6,0.1,1,0.2,1.3v0.1H106.7z M105.5,190.8c0.2,0,0.4-0.1,0.6-0.2
				c0.2-0.1,0.3-0.2,0.4-0.4v-1h-0.6c-0.8,0-1.2,0.3-1.2,0.8l0,0.1c0,0.2,0.1,0.4,0.2,0.5C105,190.7,105.2,190.8,105.5,190.8z"/>
			<path class="st8" d="M112.5,187.5c-0.2,0-0.4,0-0.6,0c-0.6,0-1,0.2-1.2,0.6v3.8h-1.6V186h1.5l0,0.7c0.3-0.5,0.7-0.8,1.3-0.8
				c0.2,0,0.3,0,0.5,0.1L112.5,187.5z"/>
			<path class="st8" d="M112.9,188.9c0-0.9,0.2-1.6,0.6-2.2s1-0.8,1.7-0.8c0.6,0,1,0.2,1.4,0.6v-3h1.6v8.3h-1.4l-0.1-0.6
				c-0.4,0.5-0.9,0.7-1.5,0.7c-0.7,0-1.2-0.3-1.6-0.8C113.1,190.6,112.9,189.9,112.9,188.9z M114.5,189c0,0.5,0.1,1,0.3,1.3
				c0.2,0.3,0.5,0.4,0.8,0.4c0.5,0,0.8-0.2,1-0.6v-2.3c-0.2-0.4-0.5-0.6-1-0.6C114.9,187.2,114.5,187.8,114.5,189z"/>
			<path class="st8" d="M122.5,190.2c0-0.2-0.1-0.3-0.3-0.4c-0.2-0.1-0.5-0.2-0.9-0.3c-1.4-0.3-2.1-0.9-2.1-1.8
				c0-0.5,0.2-0.9,0.6-1.3s1-0.5,1.7-0.5c0.7,0,1.3,0.2,1.8,0.5c0.4,0.3,0.7,0.8,0.7,1.4h-1.6c0-0.2-0.1-0.4-0.2-0.6
				c-0.1-0.1-0.4-0.2-0.7-0.2c-0.3,0-0.5,0.1-0.6,0.2s-0.2,0.3-0.2,0.5c0,0.2,0.1,0.3,0.2,0.4c0.2,0.1,0.4,0.2,0.8,0.3
				c0.4,0.1,0.7,0.2,1,0.3c0.8,0.3,1.2,0.8,1.2,1.6c0,0.5-0.2,1-0.7,1.3c-0.5,0.3-1,0.5-1.8,0.5c-0.5,0-0.9-0.1-1.3-0.3
				c-0.4-0.2-0.7-0.4-0.9-0.7s-0.3-0.6-0.3-1h1.5c0,0.3,0.1,0.5,0.3,0.6c0.2,0.1,0.4,0.2,0.8,0.2c0.3,0,0.5-0.1,0.7-0.2
				C122.4,190.6,122.5,190.4,122.5,190.2z"/>
		</g>
		<g>
			<rect x="18" y="3.8" class="st5" width="144" height="12"/>
			<path class="st4" d="M51.6,9.4h-3.3v3.4h-2.1V4.2h5.7v1.6h-3.7v2h3.3V9.4z"/>
			<path class="st4" d="M54.8,11.2h3.6v1.6h-5.6V4.2h2.1V11.2z"/>
			<path class="st4" d="M64.2,11.2h-2.8l-0.5,1.6h-2.2l3.1-8.5h1.9l3.2,8.5h-2.2L64.2,11.2z M61.9,9.6h1.8l-0.9-3L61.9,9.6z"/>
			<path class="st4" d="M70.2,4.2l1.9,5.9L74,4.2h2.7v8.5h-2.1v-2l0.2-4.1l-2.1,6.1h-1.4l-2.1-6.1l0.2,4.1v2h-2.1V4.2H70.2z"/>
			<path class="st4" d="M83.3,9.1h-3.2v2h3.8v1.6h-5.9V4.2h5.9v1.6h-3.8v1.8h3.2V9.1z"/>
			<path class="st4" d="M84.8,12.8V4.2h3.1c1.1,0,1.9,0.2,2.5,0.6s0.9,1,0.9,1.8c0,0.4-0.1,0.8-0.3,1.1S90.4,8.2,90,8.4
				c0.4,0.1,0.8,0.3,1,0.7s0.4,0.7,0.4,1.2c0,0.8-0.3,1.5-0.8,1.9s-1.3,0.6-2.4,0.6H84.8z M86.8,7.8h1.1c0.4,0,0.8-0.1,1-0.2
				c0.2-0.2,0.3-0.4,0.3-0.7c0-0.4-0.1-0.6-0.3-0.8c-0.2-0.2-0.5-0.2-1-0.2h-1V7.8z M86.8,9.1v2h1.3c0.4,0,0.7-0.1,0.9-0.3
				s0.3-0.4,0.3-0.7c0-0.7-0.4-1.1-1.1-1.1H86.8z"/>
			<path class="st4" d="M95.7,9.7h-1.1v3h-2.1V4.2h3.4c1,0,1.8,0.2,2.4,0.7c0.6,0.4,0.9,1.1,0.9,1.9c0,0.6-0.1,1.1-0.4,1.5
				S98.1,9,97.6,9.2l1.8,3.4v0.1h-2.2L95.7,9.7z M94.6,8.2h1.3c0.4,0,0.7-0.1,0.9-0.3C96.9,7.6,97,7.3,97,7s-0.1-0.7-0.3-0.9
				s-0.5-0.3-0.9-0.3h-1.3V8.2z"/>
			<path class="st4" d="M102.5,12.8h-2.1V4.2h2.1V12.8z"/>
			<path class="st4" d="M111.1,12.8h-2l-3-5.3v5.3H104V4.2h2.1l3,5.3V4.2h2.1V12.8z"/>
			<path class="st4" d="M119.4,11.7c-0.3,0.4-0.8,0.6-1.4,0.8s-1.3,0.3-2,0.3c-1.1,0-2-0.3-2.7-1s-1-1.6-1.1-2.9l0-0.7
				c0-0.8,0.1-1.6,0.4-2.2s0.7-1.1,1.3-1.4s1.2-0.5,1.9-0.5c1.1,0,1.9,0.2,2.5,0.7s0.9,1.2,1,2.2h-2c-0.1-0.5-0.2-0.8-0.5-1
				s-0.6-0.3-1-0.3c-0.5,0-0.9,0.2-1.2,0.7s-0.4,1.1-0.4,1.9v0.5c0,0.9,0.1,1.5,0.4,1.9s0.7,0.6,1.4,0.6c0.5,0,0.9-0.1,1.2-0.4V9.6
				h-1.4V8.2h3.5V11.7z"/>
			<path class="st4" d="M125.9,9.1h-3.2v2h3.8v1.6h-5.9V4.2h5.9v1.6h-3.8v1.8h3.2V9.1z"/>
			<path class="st4" d="M130.4,9.7h-1.1v3h-2.1V4.2h3.4c1,0,1.8,0.2,2.4,0.7c0.6,0.4,0.9,1.1,0.9,1.9c0,0.6-0.1,1.1-0.4,1.5
				s-0.6,0.7-1.1,0.9l1.8,3.4v0.1H132L130.4,9.7z M129.3,8.2h1.3c0.4,0,0.7-0.1,0.9-0.3c0.2-0.2,0.3-0.5,0.3-0.9s-0.1-0.7-0.3-0.9
				s-0.5-0.3-0.9-0.3h-1.3V8.2z"/>
		</g>
		<g>
			<rect x="133.7" y="108" class="st5" width="18.2" height="18.2"/>
			<path class="st0" d="M142.2,114.7c-0.2,0.2-0.4,0.4-0.8,0.8c-0.2-0.2-0.4-0.4-0.8-0.8c0-1.1,0-2.7,0-4.9c0.4,0.4,0.9,0.9,1.6,1.6
				C142.2,112.2,142.2,113.3,142.2,114.7z M141.4,115.9c0.2-0.2,0.4-0.4,0.8-0.8c0.9,0,2.3,0,4,0c0.2,0.2,0.5,0.5,0.8,0.8
				c-0.2,0.2-0.4,0.5-0.8,0.8c-0.9,0-2.2,0-4,0C142,116.5,141.8,116.3,141.4,115.9z M146.3,111.5c0.4-0.4,0.9-0.9,1.6-1.6
				c0,1.1,0,2.7,0,4.9c-0.2,0.2-0.5,0.4-0.8,0.8c-0.2-0.2-0.4-0.4-0.8-0.8C146.3,114,146.3,112.9,146.3,111.5z M146.3,117.1
				c0.2-0.2,0.5-0.4,0.8-0.8c0.2,0.2,0.5,0.4,0.8,0.8c0,1.1,0,2.7,0,4.9c-0.4-0.4-0.9-0.9-1.6-1.6
				C146.3,119.7,146.3,118.6,146.3,117.1z"/>
		</g>
		<g>
			<circle class="st4" cx="18.9" cy="138.6" r="2.5"/>
			<g>
				<path class="st3" d="M18.5,147.3c-2.3,0-4.4-0.9-6-2.5c-1.6-1.6-2.5-3.7-2.5-6s0.9-4.4,2.5-6l12.7-12.7
					c-0.1-3.4,1.2-6.7,3.6-9.1c2.3-2.3,5.4-3.6,8.7-3.6c0.2,0,0.5,0,0.7,0l1.4,0.1l-5.8,5.8l2.1,8l8,2.1l5.8-5.8l0.1,1.4
					c0.2,3.5-1.1,6.9-3.6,9.4c-2.3,2.3-5.4,3.6-8.7,3.6c0,0-0.3,0-0.4,0l-12.7,12.7C22.9,146.4,20.8,147.3,18.5,147.3z M18.5,136.5
					c-0.6,0-1.2,0.2-1.7,0.7c-0.4,0.4-0.7,1-0.7,1.7c0,0.6,0.2,1.2,0.7,1.7c0.4,0.4,1,0.7,1.7,0.7s1.2-0.2,1.7-0.7
					c0.4-0.4,0.7-1,0.7-1.7c0-0.6-0.2-1.2-0.7-1.7C19.7,136.8,19.1,136.5,18.5,136.5z"/>
				<path class="st4" d="M37.6,108.1c0.2,0,0.4,0,0.6,0l-5.1,5.1l2.3,8.7l8.7,2.3l5.1-5.1c0.2,3.2-0.9,6.5-3.4,8.9
					c-2.3,2.3-5.3,3.4-8.3,3.4c-0.2,0-0.4,0-0.7,0l0,0L24,144.4c-1.5,1.5-3.5,2.3-5.5,2.3s-4-0.8-5.5-2.3c-3-3-3-8,0-11l12.9-12.9
					l0,0c-0.2-3.2,0.9-6.5,3.4-8.9C31.6,109.2,34.6,108.1,37.6,108.1 M18.5,141.9c0.8,0,1.5-0.3,2.1-0.9c1.2-1.2,1.2-3.1,0-4.2
					c-0.6-0.6-1.4-0.9-2.1-0.9c-0.8,0-1.5,0.3-2.1,0.9c-1.2,1.2-1.2,3.1,0,4.2C17,141.6,17.7,141.9,18.5,141.9 M37.6,106.9
					c-3.5,0-6.7,1.3-9.1,3.8c-2.5,2.5-3.8,5.8-3.8,9.3l-12.6,12.6c-3.5,3.5-3.5,9.3,0,12.8c1.7,1.7,4,2.7,6.4,2.7
					c2.4,0,4.7-0.9,6.4-2.7l12.6-12.6c0,0,0.1,0,0.1,0c3.5,0,6.7-1.3,9.1-3.8c2.6-2.6,4-6.2,3.8-9.9l-0.2-2.8l-2,2l-4.6,4.6l-7.3-2
					l-2-7.3l4.6-4.6l2-2l-2.8-0.2C38.1,106.9,37.8,106.9,37.6,106.9L37.6,106.9z M18.5,140.6c-0.5,0-0.9-0.2-1.2-0.5
					c-0.3-0.3-0.5-0.8-0.5-1.2s0.2-0.9,0.5-1.2s0.8-0.5,1.2-0.5c0.5,0,0.9,0.2,1.2,0.5c0.7,0.7,0.7,1.8,0,2.5
					C19.4,140.4,19,140.6,18.5,140.6L18.5,140.6z"/>
			</g>
		</g>
		<g>
			<g>
				<path class="st0" d="M39.9,113.6c-0.2,0.2-0.4,0.4-0.8,0.8c-0.2-0.2-0.4-0.4-0.8-0.8c0-1.1,0-2.7,0-4.9c0.4,0.4,0.9,0.9,1.6,1.6
					C39.9,111.1,39.9,112.1,39.9,113.6z M39.1,114.8c0.2-0.2,0.4-0.4,0.8-0.8c0.9,0,2.3,0,4,0c0.2,0.2,0.5,0.5,0.8,0.8
					c-0.2,0.2-0.4,0.5-0.8,0.8c-0.9,0-2.2,0-4,0C39.7,115.4,39.5,115.1,39.1,114.8z M44,110.4c0.4-0.4,0.9-0.9,1.6-1.6
					c0,1.1,0,2.7,0,4.9c-0.2,0.2-0.5,0.4-0.8,0.8c-0.2-0.2-0.4-0.4-0.8-0.8C44,112.9,44,111.8,44,110.4z M44,116
					c0.2-0.2,0.5-0.4,0.8-0.8c0.2,0.2,0.5,0.4,0.8,0.8c0,1.1,0,2.7,0,4.9c-0.4-0.4-0.9-0.9-1.6-1.6C44,118.5,44,117.5,44,116z"/>
			</g>
		</g>
		<g>
			<defs>
				<path id="SVGID_1_" d="M171,252H9c-5,0-9-4-9-9V9c0-5,4-9,9-9h162c5,0,9,4,9,9v234C180,248,176,252,171,252z"/>
			</defs>
			<clipPath id="SVGID_2_">
				<use xlink:href="#SVGID_1_"  style="overflow:visible;"/>
			</clipPath>
			<g class="st9">
				<path class="st4" d="M0,18c9.9,0,18-8.1,18-18H0V18z"/>
				<path class="st4" d="M180,234c-9.9,0-18,8.1-18,18h18V234z"/>
				<path class="st4" d="M162,0c0,9.9,8.1,18,18,18V0L162,0z"/>
				<path class="st4" d="M18,252c0-9.9-8.1-18-18-18l0,18H18z"/>
			</g>
		</g>
	</g>
</g>
<g id="Layer_2" class="st10">
	<g class="st11">
		<g>
			<polyline class="st12" points="179,252 179,258 173,258 			"/>
			<line class="st13" x1="161.8" y1="258" x2="10.6" y2="258"/>
			<polyline class="st12" points="5,258 -1,258 -1,252 			"/>
			<line class="st14" x1="-1" y1="240.6" x2="-1" y2="17.7"/>
			<polyline class="st12" points="-1,12 -1,6 5,6 			"/>
			<line class="st13" x1="16.2" y1="6" x2="167.4" y2="6"/>
			<polyline class="st12" points="173,6 179,6 179,12 			"/>
			<line class="st14" x1="179" y1="23.4" x2="179" y2="246.3"/>
		</g>
	</g>
</g>
</svg>
