<?xml version="1.0" encoding="utf-8"?>
<!-- Generator: Adobe Illustrator 21.1.0, SVG Export Plug-In . SVG Version: 6.00 Build 0)  -->
<svg version="1.1" xmlns="http://www.w3.org/2000/svg" xmlns:xlink="http://www.w3.org/1999/xlink" x="0px" y="0px"
	 viewBox="0 0 180 252" style="enable-background:new 0 0 180 252;" xml:space="preserve">
<style type="text/css">
	.st0{fill:#333333;}
	.st1{fill:#CBCBCA;stroke:#982020;stroke-width:2.5;stroke-miterlimit:10;}
	.st2{fill:#333333;stroke:#982020;stroke-width:2.5;stroke-miterlimit:10;}
	.st3{fill:#676767;}
	.st4{fill:#CBCBCA;}
	.st5{fill:none;}
	.st6{fill:#CBA12C;}
	.st7{fill:#CBA32D;}
	.st8{clip-path:url(#SVGID_2_);}
	.st9{display:none;}
	.st10{display:inline;}
	.st11{fill:none;stroke:#991F1F;stroke-width:2;stroke-miterlimit:10;}
	.st12{fill:none;stroke:#991F1F;stroke-width:2;stroke-miterlimit:10;stroke-dasharray:11.2,11.2;}
	.st13{fill:none;stroke:#991F1F;stroke-width:2;stroke-miterlimit:10;stroke-dasharray:11.4286,11.4286;}
</style>
<g id="Layer_1">
	<g>
		<path class="st0" d="M162,252H18c0-9.9-8.1-18-18-18V18c9.9,0,18-8.1,18-18h144c0,9.9,8.1,18,18,18v216
			C170.1,234,162,242.1,162,252z"/>
		<path class="st1" d="M144,234H36c-9.9,0-18-8.1-18-18V36c0-9.9,8.1-18,18-18h108c9.9,0,18,8.1,18,18v180
			C162,225.9,153.9,234,144,234z"/>
		<path class="st2" d="M126,216H54c-9.9,0-18-8.1-18-18v-53.8c0-9.9,8.1-18,18-18h72c9.9,0,18,8.1,18,18V198
			C144,207.9,135.9,216,126,216z"/>
		<path class="st2" d="M126,108H54c-9.9,0-18-8.1-18-18V54c0-9.9,8.1-18,18-18h72c9.9,0,18,8.1,18,18v36C144,99.9,135.9,108,126,108
			z"/>
		<g>
			<path class="st3" d="M139.3,137.9l-2.7-4.6c-1.2-0.5-2.4-1.2-3.5-2h-5.4l-4.9-8.5l2.7-4.6c-0.1-0.7-0.1-1.4-0.1-2
				c0-0.6,0-1.3,0.1-2l-2.7-4.6l4.9-8.5h5.4c1.1-0.8,2.3-1.5,3.5-2l2.7-4.6h9.8l2.7,4.6c1.2,0.5,2.4,1.2,3.5,2h5.4l4.9,8.5l-2.7,4.6
				c0.1,0.7,0.1,1.4,0.1,2c0,0.6,0,1.3-0.1,2l2.7,4.6l-4.9,8.5h-5.4c-1.1,0.8-2.3,1.5-3.5,2l-2.7,4.6H139.3z M144.3,107.6
				c-4.7,0-8.5,3.8-8.5,8.5s3.8,8.5,8.5,8.5s8.5-3.8,8.5-8.5S148.9,107.6,144.3,107.6z"/>
			<path class="st4" d="M148.8,94.8l2.6,4.5c1.3,0.6,2.6,1.3,3.7,2.2h5.2l4.5,7.9l-2.6,4.5c0.1,0.7,0.1,1.4,0.1,2.2
				c0,0.7-0.1,1.5-0.1,2.2l2.6,4.5l-4.5,7.9h-5.2c-1.2,0.9-2.4,1.6-3.7,2.2l-2.6,4.5h-9.1l-2.6-4.5c-1.3-0.6-2.6-1.3-3.7-2.2h-5.2
				l-4.5-7.9l2.6-4.5c-0.1-0.7-0.1-1.4-0.1-2.2c0-0.7,0.1-1.5,0.1-2.2l-2.6-4.5l4.5-7.9h5.2c1.2-0.9,2.4-1.6,3.7-2.2l2.6-4.5H148.8
				 M144.3,125.1c5,0,9.1-4.1,9.1-9.1c0-5-4.1-9.1-9.1-9.1c-5,0-9.1,4.1-9.1,9.1C135.2,121.1,139.2,125.1,144.3,125.1 M149.5,93.6
				h-0.7h-9.1H139l-0.4,0.6l-2.4,4.1c-1.1,0.5-2.2,1.2-3.3,1.9h-4.8h-0.7l-0.4,0.6l-4.5,7.9l-0.4,0.6l0.4,0.6l2.4,4.1
				c-0.1,0.7-0.1,1.3-0.1,1.9c0,0.6,0,1.2,0.1,1.9l-2.4,4.1l-0.4,0.6l0.4,0.6l4.5,7.9l0.4,0.6h0.7h4.8c1.1,0.8,2.2,1.4,3.3,1.9
				l2.4,4.1l0.4,0.6h0.7h9.1h0.7l0.4-0.6l2.4-4.1c1.1-0.5,2.2-1.2,3.3-1.9h4.8h0.7l0.4-0.6l4.5-7.9l0.4-0.6l-0.4-0.6l-2.4-4.1
				c0.1-0.7,0.1-1.3,0.1-1.9c0-0.6,0-1.2-0.1-1.9l2.4-4.1l0.4-0.6l-0.4-0.6l-4.5-7.9l-0.4-0.6h-0.7h-4.8c-1.1-0.8-2.2-1.4-3.3-1.9
				l-2.4-4.1L149.5,93.6L149.5,93.6z M144.3,123.9c-4.3,0-7.8-3.5-7.8-7.8s3.5-7.8,7.8-7.8s7.8,3.5,7.8,7.8S148.6,123.9,144.3,123.9
				L144.3,123.9z"/>
		</g>
		<g>
			<rect x="18" y="27" class="st5" width="18" height="18"/>
			<path class="st6" d="M26.4,33.7c-0.2,0.2-0.4,0.4-0.8,0.8c-0.2-0.2-0.4-0.4-0.8-0.8c0-1.1,0-2.7,0-4.9c0.4,0.4,0.9,0.9,1.6,1.6
				C26.4,31.2,26.4,32.3,26.4,33.7z M25.6,34.9c0.2-0.2,0.4-0.4,0.8-0.8c0.9,0,2.3,0,4,0c0.2,0.2,0.5,0.5,0.8,0.8
				c-0.2,0.2-0.4,0.5-0.8,0.8c-0.9,0-2.2,0-4,0C26.2,35.5,26,35.3,25.6,34.9z M30.5,30.5c0.4-0.4,0.9-0.9,1.6-1.6c0,1.1,0,2.7,0,4.9
				c-0.2,0.2-0.5,0.4-0.8,0.8c-0.2-0.2-0.4-0.4-0.8-0.8C30.5,33,30.5,31.9,30.5,30.5z M30.5,36.1c0.2-0.2,0.5-0.4,0.8-0.8
				c0.2,0.2,0.5,0.4,0.8,0.8c0,1.1,0,2.7,0,4.9c-0.4-0.4-0.9-0.9-1.6-1.6C30.5,38.7,30.5,37.6,30.5,36.1z"/>
		</g>
		<g>
			<polygon class="st6" points="46.8,21.7 36,28.7 39.6,28.7 36,36 46.8,29.1 43.2,29.1 46.8,21.7 			"/>
		</g>
		<g>
			<rect x="40.5" y="144" class="st5" width="99" height="54"/>
			<path class="st4" d="M71.2,150.2c0.1-0.4-0.1-0.8-0.6-1l-1-0.4c-1.2-0.5-1.8-1.3-1.7-2.2c0-0.4,0.2-0.8,0.4-1.2
				c0.3-0.3,0.6-0.6,1.1-0.8s1-0.3,1.5-0.3c0.8,0,1.4,0.2,1.8,0.7c0.5,0.4,0.7,1,0.7,1.7h-1.6c0-0.4-0.1-0.6-0.2-0.8
				c-0.2-0.2-0.4-0.3-0.8-0.3c-0.4,0-0.7,0.1-0.9,0.2s-0.4,0.4-0.5,0.7c-0.1,0.4,0.2,0.7,0.8,0.9l0.7,0.3l0.4,0.2
				c1.1,0.5,1.6,1.3,1.5,2.2c0,0.5-0.2,0.9-0.4,1.2c-0.3,0.3-0.6,0.6-1.1,0.8c-0.5,0.2-1,0.3-1.5,0.3c-0.6,0-1-0.1-1.5-0.3
				c-0.4-0.2-0.8-0.5-1-0.9c-0.2-0.4-0.3-0.8-0.3-1.3l1.6,0c-0.1,0.8,0.4,1.3,1.3,1.3c0.4,0,0.7-0.1,0.9-0.3
				C71,150.7,71.1,150.4,71.2,150.2z"/>
			<path class="st4" d="M77,151.6c-0.4,0.5-1,0.7-1.6,0.7c-0.6,0-1-0.2-1.3-0.6c-0.3-0.4-0.4-0.9-0.3-1.6l0.6-3.8h1.5l-0.6,3.8
				c0,0.1,0,0.2,0,0.3c0,0.4,0.2,0.5,0.6,0.6c0.5,0,0.9-0.2,1.2-0.5l0.7-4.1h1.5l-1,5.8h-1.4L77,151.6z"/>
			<path class="st4" d="M81.8,146.4l-0.1,0.7c0.5-0.5,1-0.8,1.7-0.8c0.4,0,0.7,0.1,0.9,0.2c0.2,0.2,0.4,0.4,0.5,0.6
				c0.5-0.6,1.1-0.9,1.8-0.9c0.5,0,0.9,0.2,1.2,0.5c0.3,0.4,0.4,0.9,0.3,1.5l0,0.1l-0.6,3.7H86l0.6-3.7c0-0.1,0-0.3,0-0.4
				c0-0.4-0.2-0.6-0.6-0.6c-0.4,0-0.8,0.2-1.1,0.7l0,0.1l-0.7,3.9h-1.5l0.6-3.7c0-0.1,0-0.3,0-0.4c0-0.4-0.2-0.6-0.6-0.6
				c-0.4,0-0.7,0.2-1,0.5l-0.7,4.1h-1.5l1-5.8L81.8,146.4z"/>
			<path class="st4" d="M91.1,146.4l-0.1,0.7c0.5-0.5,1-0.8,1.7-0.8c0.4,0,0.7,0.1,0.9,0.2c0.2,0.2,0.4,0.4,0.5,0.6
				c0.5-0.6,1.1-0.9,1.8-0.9c0.5,0,0.9,0.2,1.2,0.5c0.3,0.4,0.4,0.9,0.3,1.5l0,0.1l-0.6,3.7h-1.5l0.6-3.7c0-0.1,0-0.3,0-0.4
				c0-0.4-0.2-0.6-0.6-0.6c-0.4,0-0.8,0.2-1.1,0.7l0,0.1l-0.7,3.9H92l0.6-3.7c0-0.1,0-0.3,0-0.4c0-0.4-0.2-0.6-0.6-0.6
				c-0.4,0-0.7,0.2-1,0.5l-0.7,4.1h-1.5l1-5.8L91.1,146.4z"/>
			<path class="st4" d="M101.3,146.3c0.5,0,1,0.1,1.3,0.4c0.4,0.3,0.6,0.6,0.8,1.1c0.2,0.4,0.2,0.9,0.2,1.5c-0.1,0.9-0.4,1.7-1,2.2
				c-0.6,0.6-1.3,0.8-2.1,0.8c-0.5,0-0.9-0.1-1.3-0.4c-0.4-0.3-0.6-0.6-0.8-1c-0.2-0.4-0.2-0.9-0.2-1.5c0.1-1,0.4-1.7,1-2.3
				C99.8,146.6,100.5,146.3,101.3,146.3z M99.8,150c0,0.3,0.1,0.6,0.2,0.8c0.2,0.2,0.4,0.3,0.6,0.3c0.5,0,0.8-0.2,1.1-0.6
				s0.4-1,0.4-1.7c0-0.3-0.1-0.6-0.3-0.8c-0.2-0.2-0.4-0.3-0.7-0.3c-0.5,0-0.8,0.2-1.1,0.6C99.9,148.7,99.8,149.2,99.8,150z"/>
			<path class="st4" d="M106.5,146.4l-0.1,0.7c0.5-0.5,1-0.8,1.7-0.8c0.5,0,1,0.2,1.2,0.6c0.3,0.4,0.4,0.9,0.3,1.6l-0.6,3.7h-1.5
				l0.6-3.7c0-0.1,0-0.3,0-0.4c0-0.4-0.3-0.6-0.7-0.6c-0.4,0-0.8,0.2-1.1,0.6l-0.7,4.1h-1.5l1-5.8L106.5,146.4z"/>
			<path class="st4" d="M110.8,147.1c0-0.2,0.1-0.4,0.2-0.6c0.2-0.2,0.4-0.2,0.6-0.2c0.3,0,0.5,0.1,0.6,0.2c0.2,0.2,0.3,0.4,0.3,0.6
				c0,0.2-0.1,0.4-0.2,0.6s-0.4,0.2-0.6,0.2c-0.3,0-0.5-0.1-0.6-0.2C110.9,147.5,110.8,147.3,110.8,147.1z M110.8,151.5
				c0-0.2,0.1-0.4,0.2-0.6c0.2-0.2,0.4-0.2,0.6-0.2c0.3,0,0.5,0.1,0.6,0.2c0.2,0.2,0.3,0.4,0.3,0.6c0,0.2-0.1,0.4-0.2,0.6
				c-0.2,0.2-0.4,0.2-0.6,0.2c-0.3,0-0.5-0.1-0.6-0.2C110.9,151.9,110.8,151.7,110.8,151.5z"/>
			<path class="st4" d="M47.7,165.5v-7.8h2.4c0.7,0,1.3,0.2,1.8,0.5c0.5,0.3,1,0.8,1.3,1.3c0.3,0.6,0.5,1.2,0.5,1.9v0.4
				c0,0.7-0.1,1.4-0.4,1.9c-0.3,0.6-0.7,1-1.3,1.3s-1.2,0.5-1.8,0.5H47.7z M49.3,158.9v5.2h0.8c0.6,0,1.1-0.2,1.4-0.6
				c0.3-0.4,0.5-1,0.5-1.8v-0.4c0-0.8-0.2-1.4-0.5-1.8s-0.8-0.6-1.4-0.6H49.3z"/>
			<path class="st4" d="M57.4,165.6c-0.9,0-1.5-0.3-2.1-0.8c-0.5-0.5-0.8-1.2-0.8-2.1v-0.2c0-0.6,0.1-1.1,0.3-1.6s0.5-0.8,1-1.1
				c0.4-0.2,0.9-0.4,1.4-0.4c0.8,0,1.4,0.3,1.9,0.8c0.5,0.5,0.7,1.2,0.7,2.1v0.6h-3.7c0.1,0.4,0.2,0.7,0.5,0.9
				c0.3,0.2,0.6,0.3,1,0.3c0.6,0,1.1-0.2,1.4-0.6l0.8,0.9c-0.2,0.3-0.5,0.6-0.9,0.8C58.4,165.5,57.9,165.6,57.4,165.6z M57.3,160.8
				c-0.3,0-0.6,0.1-0.7,0.3c-0.2,0.2-0.3,0.5-0.4,0.9h2.2v-0.1c0-0.3-0.1-0.6-0.3-0.8C57.8,160.9,57.6,160.8,57.3,160.8z"/>
			<path class="st4" d="M64.1,165.5c-0.1-0.1-0.1-0.3-0.2-0.5c-0.4,0.4-0.9,0.6-1.5,0.6c-0.6,0-1-0.2-1.4-0.5
				c-0.4-0.3-0.6-0.7-0.6-1.2c0-0.6,0.2-1.1,0.7-1.4c0.5-0.3,1.1-0.5,2-0.5h0.7v-0.3c0-0.3-0.1-0.5-0.2-0.6
				c-0.1-0.2-0.4-0.2-0.7-0.2c-0.3,0-0.5,0.1-0.6,0.2c-0.1,0.1-0.2,0.3-0.2,0.5h-1.6c0-0.3,0.1-0.6,0.3-0.9c0.2-0.3,0.5-0.5,0.9-0.7
				s0.8-0.2,1.3-0.2c0.7,0,1.3,0.2,1.7,0.5c0.4,0.4,0.6,0.9,0.6,1.5v2.5c0,0.6,0.1,1,0.2,1.3v0.1H64.1z M62.8,164.4
				c0.2,0,0.4-0.1,0.6-0.2c0.2-0.1,0.3-0.2,0.4-0.4v-1h-0.6c-0.8,0-1.2,0.3-1.2,0.8l0,0.1c0,0.2,0.1,0.4,0.2,0.5
				C62.4,164.3,62.6,164.4,62.8,164.4z"/>
			<path class="st4" d="M68.3,165.5h-1.6v-8.3h1.6V165.5z"/>
			<path class="st7" d="M77.6,165.5h-5.4v-1.1l2.5-2.7c0.3-0.4,0.6-0.7,0.8-1c0.2-0.3,0.3-0.6,0.3-0.8c0-0.3-0.1-0.6-0.3-0.8
				c-0.2-0.2-0.4-0.3-0.8-0.3c-0.4,0-0.6,0.1-0.8,0.4c-0.2,0.2-0.3,0.6-0.3,1H72c0-0.5,0.1-0.9,0.3-1.3c0.2-0.4,0.5-0.7,1-0.9
				c0.4-0.2,0.9-0.3,1.4-0.3c0.8,0,1.4,0.2,1.9,0.6c0.4,0.4,0.7,0.9,0.7,1.6c0,0.4-0.1,0.8-0.3,1.2c-0.2,0.4-0.5,0.9-1,1.4l-1.8,1.9
				h3.4V165.5z"/>
			<path class="st7" d="M81.1,162.5c0-0.9,0.2-1.6,0.6-2.2c0.4-0.5,1-0.8,1.7-0.8c0.6,0,1,0.2,1.4,0.6v-3h1.6v8.3h-1.4l-0.1-0.6
				c-0.4,0.5-0.9,0.7-1.5,0.7c-0.7,0-1.2-0.3-1.6-0.8C81.3,164.2,81.1,163.5,81.1,162.5z M82.6,162.6c0,0.5,0.1,1,0.3,1.3
				c0.2,0.3,0.5,0.4,0.8,0.4c0.5,0,0.8-0.2,1-0.6v-2.3c-0.2-0.4-0.5-0.6-1-0.6C83,160.8,82.6,161.4,82.6,162.6z"/>
			<path class="st7" d="M90.9,165.5c-0.1-0.1-0.1-0.3-0.2-0.5c-0.4,0.4-0.9,0.6-1.5,0.6c-0.6,0-1-0.2-1.4-0.5
				c-0.4-0.3-0.6-0.7-0.6-1.2c0-0.6,0.2-1.1,0.7-1.4c0.5-0.3,1.1-0.5,2-0.5h0.7v-0.3c0-0.3-0.1-0.5-0.2-0.6
				c-0.1-0.2-0.4-0.2-0.7-0.2c-0.3,0-0.5,0.1-0.6,0.2c-0.1,0.1-0.2,0.3-0.2,0.5h-1.6c0-0.3,0.1-0.6,0.3-0.9c0.2-0.3,0.5-0.5,0.9-0.7
				s0.8-0.2,1.3-0.2c0.7,0,1.3,0.2,1.7,0.5c0.4,0.4,0.6,0.9,0.6,1.5v2.5c0,0.6,0.1,1,0.2,1.3v0.1H90.9z M89.6,164.4
				c0.2,0,0.4-0.1,0.6-0.2c0.2-0.1,0.3-0.2,0.4-0.4v-1h-0.6c-0.8,0-1.2,0.3-1.2,0.8l0,0.1c0,0.2,0.1,0.4,0.2,0.5
				C89.2,164.3,89.4,164.4,89.6,164.4z"/>
			<path class="st7" d="M94.9,159.6l0,0.6c0.4-0.5,1-0.8,1.7-0.8c0.7,0,1.3,0.3,1.5,0.9c0.4-0.6,1-0.9,1.7-0.9
				c0.6,0,1.1,0.2,1.4,0.6c0.3,0.4,0.5,0.9,0.5,1.7v3.7h-1.6v-3.7c0-0.3-0.1-0.6-0.2-0.7c-0.1-0.2-0.4-0.2-0.7-0.2
				c-0.5,0-0.8,0.2-1,0.7l0,4h-1.6v-3.7c0-0.3-0.1-0.6-0.2-0.7c-0.1-0.2-0.4-0.2-0.7-0.2c-0.4,0-0.8,0.2-1,0.5v4.1h-1.6v-5.8H94.9z"
				/>
			<path class="st7" d="M106.3,165.5c-0.1-0.1-0.1-0.3-0.2-0.5c-0.4,0.4-0.9,0.6-1.5,0.6c-0.6,0-1-0.2-1.4-0.5
				c-0.4-0.3-0.6-0.7-0.6-1.2c0-0.6,0.2-1.1,0.7-1.4c0.5-0.3,1.1-0.5,2-0.5h0.7v-0.3c0-0.3-0.1-0.5-0.2-0.6
				c-0.1-0.2-0.4-0.2-0.7-0.2c-0.3,0-0.5,0.1-0.6,0.2c-0.1,0.1-0.2,0.3-0.2,0.5h-1.6c0-0.3,0.1-0.6,0.3-0.9c0.2-0.3,0.5-0.5,0.9-0.7
				c0.4-0.2,0.8-0.2,1.3-0.2c0.7,0,1.3,0.2,1.7,0.5c0.4,0.4,0.6,0.9,0.6,1.5v2.5c0,0.6,0.1,1,0.2,1.3v0.1H106.3z M105,164.4
				c0.2,0,0.4-0.1,0.6-0.2c0.2-0.1,0.3-0.2,0.4-0.4v-1h-0.6c-0.8,0-1.2,0.3-1.2,0.8l0,0.1c0,0.2,0.1,0.4,0.2,0.5
				C104.6,164.3,104.8,164.4,105,164.4z"/>
			<path class="st7" d="M108.6,162.5c0-0.9,0.2-1.6,0.6-2.2c0.4-0.5,1-0.8,1.7-0.8c0.6,0,1.1,0.2,1.5,0.7l0.1-0.5h1.4v5.6
				c0,0.5-0.1,1-0.3,1.3s-0.6,0.7-1,0.9c-0.4,0.2-0.9,0.3-1.5,0.3c-0.4,0-0.8-0.1-1.2-0.3c-0.4-0.2-0.7-0.4-0.9-0.7l0.7-0.9
				c0.4,0.4,0.9,0.6,1.4,0.6c0.4,0,0.7-0.1,1-0.3c0.2-0.2,0.3-0.5,0.3-0.9V165c-0.4,0.4-0.8,0.6-1.4,0.6c-0.7,0-1.3-0.3-1.7-0.8
				S108.6,163.5,108.6,162.5L108.6,162.5z M110.2,162.6c0,0.5,0.1,0.9,0.3,1.2s0.5,0.5,0.9,0.5c0.5,0,0.8-0.2,1-0.5v-2.5
				c-0.2-0.4-0.5-0.5-1-0.5c-0.4,0-0.7,0.2-0.9,0.5S110.2,162,110.2,162.6z"/>
			<path class="st7" d="M117.8,165.6c-0.9,0-1.5-0.3-2.1-0.8c-0.5-0.5-0.8-1.2-0.8-2.1v-0.2c0-0.6,0.1-1.1,0.3-1.6
				c0.2-0.5,0.5-0.8,1-1.1c0.4-0.2,0.9-0.4,1.4-0.4c0.8,0,1.4,0.3,1.9,0.8c0.5,0.5,0.7,1.2,0.7,2.1v0.6h-3.7
				c0.1,0.4,0.2,0.7,0.5,0.9c0.3,0.2,0.6,0.3,1,0.3c0.6,0,1.1-0.2,1.4-0.6l0.8,0.9c-0.2,0.3-0.5,0.6-0.9,0.8
				C118.7,165.5,118.3,165.6,117.8,165.6z M117.6,160.8c-0.3,0-0.6,0.1-0.7,0.3c-0.2,0.2-0.3,0.5-0.4,0.9h2.2v-0.1
				c0-0.3-0.1-0.6-0.3-0.8C118.2,160.9,117.9,160.8,117.6,160.8z"/>
			<path class="st4" d="M125.7,158.2v1.4h1v1.1h-1v2.9c0,0.2,0,0.4,0.1,0.5c0.1,0.1,0.2,0.1,0.5,0.1c0.2,0,0.3,0,0.5,0v1.2
				c-0.3,0.1-0.6,0.1-0.9,0.1c-1.1,0-1.6-0.5-1.7-1.6v-3.1h-0.8v-1.1h0.8v-1.4H125.7z"/>
			<path class="st4" d="M127.1,162.5c0-0.6,0.1-1.1,0.3-1.5c0.2-0.5,0.5-0.8,1-1c0.4-0.2,0.9-0.4,1.5-0.4c0.8,0,1.4,0.2,1.9,0.7
				c0.5,0.5,0.8,1.1,0.8,2l0,0.4c0,0.9-0.2,1.6-0.7,2.1c-0.5,0.5-1.2,0.8-2,0.8s-1.5-0.3-2-0.8S127.1,163.5,127.1,162.5L127.1,162.5
				z M128.7,162.6c0,0.6,0.1,1,0.3,1.3c0.2,0.3,0.5,0.4,0.9,0.4c0.4,0,0.7-0.1,0.9-0.4c0.2-0.3,0.3-0.8,0.3-1.4c0-0.5-0.1-1-0.3-1.3
				c-0.2-0.3-0.5-0.4-0.9-0.4c-0.4,0-0.7,0.1-0.9,0.4S128.7,162,128.7,162.6z"/>
			<path class="st4" d="M53,178.6c-0.1-0.1-0.1-0.3-0.2-0.5c-0.4,0.4-0.9,0.6-1.5,0.6c-0.6,0-1-0.2-1.4-0.5
				c-0.4-0.3-0.6-0.7-0.6-1.2c0-0.6,0.2-1.1,0.7-1.4c0.5-0.3,1.1-0.5,2-0.5h0.7v-0.3c0-0.3-0.1-0.5-0.2-0.6
				c-0.1-0.2-0.4-0.2-0.7-0.2c-0.3,0-0.5,0.1-0.6,0.2c-0.1,0.1-0.2,0.3-0.2,0.5h-1.6c0-0.3,0.1-0.6,0.3-0.9c0.2-0.3,0.5-0.5,0.9-0.7
				c0.4-0.2,0.8-0.2,1.3-0.2c0.7,0,1.3,0.2,1.7,0.5c0.4,0.4,0.6,0.9,0.6,1.5v2.5c0,0.6,0.1,1,0.2,1.3v0.1H53z M51.7,177.6
				c0.2,0,0.4-0.1,0.6-0.2c0.2-0.1,0.3-0.2,0.4-0.4v-1h-0.6c-0.8,0-1.2,0.3-1.2,0.8l0,0.1c0,0.2,0.1,0.4,0.2,0.5
				C51.3,177.5,51.5,177.6,51.7,177.6z"/>
			<path class="st4" d="M57.2,178.6h-1.6v-8.3h1.6V178.6z"/>
			<path class="st4" d="M60.1,178.6h-1.6v-8.3h1.6V178.6z"/>
			<path class="st4" d="M63.9,175.7c0-0.6,0.1-1.1,0.3-1.5s0.5-0.8,1-1c0.4-0.2,0.9-0.4,1.5-0.4c0.8,0,1.4,0.2,1.9,0.7
				c0.5,0.5,0.8,1.1,0.8,2l0,0.4c0,0.9-0.2,1.6-0.7,2.1c-0.5,0.5-1.2,0.8-2,0.8s-1.5-0.3-2-0.8C64.1,177.4,63.9,176.7,63.9,175.7
				L63.9,175.7z M65.4,175.8c0,0.6,0.1,1,0.3,1.3s0.5,0.4,0.9,0.4c0.4,0,0.7-0.1,0.9-0.4c0.2-0.3,0.3-0.8,0.3-1.4
				c0-0.5-0.1-1-0.3-1.3S67,174,66.6,174c-0.4,0-0.7,0.1-0.9,0.4S65.4,175.2,65.4,175.8z"/>
			<path class="st4" d="M72.2,171.4v1.4h1v1.1h-1v2.9c0,0.2,0,0.4,0.1,0.5c0.1,0.1,0.2,0.1,0.5,0.1c0.2,0,0.3,0,0.5,0v1.2
				c-0.3,0.1-0.6,0.1-0.9,0.1c-1.1,0-1.6-0.5-1.7-1.6V174h-0.8v-1.1h0.8v-1.4H72.2z"/>
			<path class="st4" d="M75.6,173.5c0.4-0.5,0.9-0.7,1.6-0.7c1.3,0,1.9,0.7,1.9,2.2v3.7h-1.6V175c0-0.3-0.1-0.6-0.2-0.7
				c-0.1-0.2-0.4-0.2-0.7-0.2c-0.5,0-0.8,0.2-1,0.5v4.1H74v-8.3h1.6V173.5z"/>
			<path class="st4" d="M82.9,178.8c-0.9,0-1.5-0.3-2.1-0.8c-0.5-0.5-0.8-1.2-0.8-2.1v-0.2c0-0.6,0.1-1.1,0.3-1.6
				c0.2-0.5,0.5-0.8,1-1.1c0.4-0.2,0.9-0.4,1.4-0.4c0.8,0,1.4,0.3,1.9,0.8c0.5,0.5,0.7,1.2,0.7,2.1v0.6h-3.7
				c0.1,0.4,0.2,0.7,0.5,0.9c0.3,0.2,0.6,0.3,1,0.3c0.6,0,1.1-0.2,1.4-0.7l0.8,0.9c-0.2,0.3-0.5,0.6-0.9,0.8S83.4,178.8,82.9,178.8z
				 M82.7,174c-0.3,0-0.6,0.1-0.7,0.3c-0.2,0.2-0.3,0.5-0.4,0.9h2.2v-0.1c0-0.3-0.1-0.6-0.3-0.8C83.3,174.1,83,174,82.7,174z"/>
			<path class="st4" d="M89.4,174.3c-0.2,0-0.4,0-0.6,0c-0.6,0-1,0.2-1.2,0.6v3.8h-1.6v-5.8h1.5l0,0.7c0.3-0.5,0.7-0.8,1.3-0.8
				c0.2,0,0.3,0,0.5,0.1L89.4,174.3z"/>
			<path class="st4" d="M95.6,170.8l1.1,6l3.2-6h1.7l-1.4,7.8H99l0.5-2.6l0.7-3.3l-3.2,5.9h-1l-1.2-6.1l-0.5,3.6l-0.4,2.5h-1.3
				l1.4-7.8H95.6z"/>
			<path class="st4" d="M103.2,178.6h-1.3l1-5.8h1.3L103.2,178.6z M103.1,171.4c0-0.2,0.1-0.4,0.2-0.5s0.3-0.2,0.5-0.2
				c0.2,0,0.4,0.1,0.5,0.2c0.1,0.1,0.2,0.3,0.2,0.5c0,0.2-0.1,0.4-0.2,0.5c-0.1,0.1-0.3,0.2-0.5,0.2c-0.2,0-0.4-0.1-0.5-0.2
				C103.1,171.7,103.1,171.5,103.1,171.4z"/>
			<path class="st4" d="M106.8,172.8l-0.1,0.7c0.5-0.5,1.1-0.8,1.7-0.8c0.5,0,0.9,0.2,1.2,0.6c0.3,0.4,0.4,0.9,0.3,1.6l-0.6,3.8H108
				l0.6-3.8c0-0.2,0-0.3,0-0.4c0-0.4-0.3-0.6-0.8-0.7c-0.5,0-0.9,0.2-1.3,0.7l-0.7,4.1h-1.3l1-5.8L106.8,172.8z"/>
			<path class="st4" d="M111.9,178.6h-1.3l1-5.8h1.3L111.9,178.6z M111.8,171.4c0-0.2,0.1-0.4,0.2-0.5s0.3-0.2,0.5-0.2
				c0.2,0,0.4,0.1,0.5,0.2c0.1,0.1,0.2,0.3,0.2,0.5c0,0.2-0.1,0.4-0.2,0.5c-0.1,0.1-0.3,0.2-0.5,0.2c-0.2,0-0.4-0.1-0.5-0.2
				C111.9,171.7,111.8,171.5,111.8,171.4z"/>
			<path class="st4" d="M113.7,175.7c0.1-0.6,0.2-1.1,0.5-1.6c0.3-0.5,0.6-0.8,1.1-1.1c0.4-0.3,0.9-0.4,1.4-0.4
				c0.5,0,0.9,0.1,1.3,0.4c0.4,0.3,0.6,0.6,0.8,1.1c0.2,0.4,0.2,0.9,0.2,1.5c-0.1,0.6-0.2,1.2-0.5,1.6c-0.3,0.5-0.6,0.8-1.1,1.1
				c-0.4,0.3-0.9,0.4-1.4,0.4c-0.5,0-0.9-0.1-1.3-0.4c-0.4-0.3-0.6-0.6-0.8-1.1c-0.2-0.4-0.2-0.9-0.2-1.5L113.7,175.7z M114.9,176.5
				c0,0.4,0.1,0.7,0.3,0.9c0.2,0.2,0.4,0.3,0.8,0.4c0.4,0,0.8-0.2,1.1-0.5c0.3-0.3,0.5-0.8,0.6-1.4l0-0.5c0-0.5-0.1-0.8-0.3-1.1
				c-0.2-0.3-0.4-0.4-0.8-0.4c-0.5,0-1,0.3-1.3,0.8c-0.2,0.3-0.3,0.7-0.4,1.1C114.9,176,114.9,176.3,114.9,176.5z"/>
			<path class="st4" d="M121.7,172.8l-0.1,0.7c0.5-0.5,1.1-0.8,1.7-0.8c0.5,0,0.9,0.2,1.2,0.6s0.4,0.9,0.3,1.6l-0.6,3.8h-1.3
				l0.6-3.8c0-0.2,0-0.3,0-0.4c0-0.4-0.3-0.6-0.8-0.7c-0.5,0-0.9,0.2-1.3,0.7l-0.7,4.1h-1.3l1-5.8L121.7,172.8z"/>
			<path class="st4" d="M128.9,177c0.1-0.4-0.2-0.6-0.7-0.7c-0.5-0.1-0.9-0.2-1.1-0.3c-0.7-0.3-1.1-0.8-1.1-1.4c0-0.5,0.3-1,0.7-1.3
				c0.5-0.3,1-0.5,1.6-0.5c0.6,0,1.1,0.2,1.5,0.5c0.4,0.3,0.6,0.8,0.6,1.3l-1.3,0c0-0.3-0.1-0.5-0.2-0.6c-0.2-0.2-0.4-0.2-0.6-0.2
				c-0.3,0-0.5,0.1-0.7,0.2s-0.3,0.3-0.4,0.5c0,0.3,0.2,0.6,0.7,0.7c0.5,0.1,0.9,0.2,1.1,0.4c0.7,0.3,1.1,0.8,1,1.5
				c0,0.4-0.1,0.7-0.4,1c-0.2,0.3-0.5,0.5-0.9,0.6c-0.4,0.1-0.8,0.2-1.2,0.2c-0.6,0-1.2-0.2-1.6-0.6c-0.4-0.4-0.6-0.8-0.6-1.4l1.2,0
				c0,0.3,0.1,0.5,0.3,0.7c0.2,0.2,0.4,0.2,0.7,0.2c0.3,0,0.6-0.1,0.8-0.2C128.8,177.4,128.9,177.3,128.9,177z"/>
		</g>
		<g>
			<rect x="18" y="3.8" class="st5" width="144" height="12"/>
			<path class="st4" d="M45,4.2l1.9,5.9l1.9-5.9h2.7v8.5h-2.1v-2l0.2-4.1l-2.1,6.1h-1.4l-2.1-6.1l0.2,4.1v2h-2.1V4.2H45z"/>
			<path class="st4" d="M60,8.7c0,0.8-0.2,1.6-0.5,2.2s-0.7,1.1-1.3,1.5s-1.2,0.5-1.9,0.5s-1.4-0.2-1.9-0.5s-1-0.8-1.3-1.4
				s-0.5-1.3-0.5-2.1V8.3c0-0.8,0.2-1.6,0.5-2.2s0.7-1.1,1.3-1.5s1.2-0.5,2-0.5c0.7,0,1.4,0.2,1.9,0.5s1,0.8,1.3,1.5S60,7.4,60,8.3
				V8.7z M58,8.3c0-0.8-0.1-1.5-0.4-1.9s-0.7-0.7-1.2-0.7c-1,0-1.6,0.8-1.6,2.3l0,0.6c0,0.8,0.1,1.5,0.4,1.9s0.7,0.7,1.2,0.7
				c0.5,0,0.9-0.2,1.2-0.7S58,9.5,58,8.7V8.3z"/>
			<path class="st4" d="M63.2,11.2h3.6v1.6h-5.6V4.2h2.1V11.2z"/>
			<path class="st4" d="M73.1,5.8h-2.6v6.9h-2.1V5.8H66V4.2h7.1V5.8z"/>
			<path class="st4" d="M79.3,9.1H76v2h3.8v1.6H74V4.2h5.9v1.6H76v1.8h3.2V9.1z"/>
			<path class="st4" d="M87.8,12.8h-2l-3-5.3v5.3h-2.1V4.2h2.1l3,5.3V4.2h2.1V12.8z"/>
			<path class="st4" d="M94.8,4.2l1.9,5.9l1.9-5.9h2.7v8.5h-2.1v-2l0.2-4.1l-2.1,6.1H96L94,6.7l0.2,4.1v2h-2.1V4.2H94.8z"/>
			<path class="st4" d="M107.6,11.2h-2.8l-0.5,1.6h-2.2l3.1-8.5h1.9l3.2,8.5h-2.2L107.6,11.2z M105.2,9.6h1.8l-0.9-3L105.2,9.6z"/>
			<path class="st4" d="M118,12.8h-2l-3-5.3v5.3h-2.1V4.2h2.1l3,5.3V4.2h2.1V12.8z"/>
			<path class="st4" d="M121.5,12.8h-2.1V4.2h2.1V12.8z"/>
			<path class="st4" d="M127.9,11.2h-2.8l-0.5,1.6h-2.2l3.1-8.5h1.9l3.2,8.5h-2.2L127.9,11.2z M125.6,9.6h1.8l-0.9-3L125.6,9.6z"/>
			<path class="st4" d="M138,9.9c0,0.6-0.2,1.1-0.5,1.6s-0.7,0.8-1.2,1.1s-1.1,0.4-1.8,0.4c-1.1,0-2-0.4-2.6-1.1s-1-1.8-1-3.1V8.3
				c0-0.8,0.1-1.6,0.4-2.2s0.7-1.1,1.3-1.5s1.2-0.5,1.9-0.5c1,0,1.9,0.3,2.5,0.8s1,1.3,1.1,2.3H136c0-0.5-0.1-0.9-0.4-1.1
				s-0.6-0.3-1.1-0.3c-0.5,0-0.9,0.2-1.1,0.6s-0.4,1-0.4,1.8v0.6c0,0.9,0.1,1.6,0.3,2s0.6,0.6,1.2,0.6c0.5,0,0.8-0.1,1.1-0.3
				s0.4-0.6,0.4-1.1H138z"/>
		</g>
		<g>
			<rect x="133.7" y="108" class="st5" width="18.2" height="18.2"/>
			<path class="st0" d="M142.2,120.4c-0.4,0.4-0.9,0.9-1.6,1.6c0-1.1,0-2.7,0-4.9c0.2-0.2,0.4-0.4,0.8-0.8c0.2,0.2,0.4,0.4,0.8,0.8
				C142.2,117.9,142.2,118.9,142.2,120.4z M147.5,109.8c-0.4,0.4-0.9,0.9-1.6,1.6c-0.7,0-1.8,0-3.3,0c-0.4-0.4-0.9-0.9-1.6-1.6
				C142.4,109.8,144.6,109.8,147.5,109.8z M141,122c0.4-0.4,0.9-0.9,1.6-1.6c0.7,0,1.8,0,3.3,0c0.4,0.4,0.9,0.9,1.6,1.6
				C146,122,143.9,122,141,122z M141.4,115.9c0.2-0.2,0.4-0.4,0.8-0.8c0.9,0,2.3,0,4,0c0.2,0.2,0.5,0.5,0.8,0.8
				c-0.2,0.2-0.4,0.5-0.8,0.8c-0.9,0-2.2,0-4,0C142,116.5,141.8,116.3,141.4,115.9z M146.3,111.5c0.4-0.4,0.9-0.9,1.6-1.6
				c0,1.1,0,2.7,0,4.9c-0.2,0.2-0.5,0.4-0.8,0.8c-0.2-0.2-0.4-0.4-0.8-0.8C146.3,114,146.3,112.9,146.3,111.5z"/>
		</g>
		<g>
			<circle class="st4" cx="18.9" cy="138.6" r="2.5"/>
			<g>
				<path class="st3" d="M18.5,147.3c-2.3,0-4.4-0.9-6-2.5c-1.6-1.6-2.5-3.7-2.5-6s0.9-4.4,2.5-6l12.7-12.7
					c-0.1-3.4,1.2-6.7,3.6-9.1c2.3-2.3,5.4-3.6,8.7-3.6c0.2,0,0.5,0,0.7,0l1.4,0.1l-5.8,5.8l2.1,8l8,2.1l5.8-5.8l0.1,1.4
					c0.2,3.5-1.1,6.9-3.6,9.4c-2.3,2.3-5.4,3.6-8.7,3.6c0,0-0.3,0-0.4,0l-12.7,12.7C22.9,146.4,20.8,147.3,18.5,147.3z M18.5,136.5
					c-0.6,0-1.2,0.2-1.7,0.7c-0.4,0.4-0.7,1-0.7,1.7c0,0.6,0.2,1.2,0.7,1.7c0.4,0.4,1,0.7,1.7,0.7s1.2-0.2,1.7-0.7
					c0.4-0.4,0.7-1,0.7-1.7c0-0.6-0.2-1.2-0.7-1.7C19.7,136.8,19.1,136.5,18.5,136.5z"/>
				<path class="st4" d="M37.6,108.1c0.2,0,0.4,0,0.6,0l-5.1,5.1l2.3,8.7l8.7,2.3l5.1-5.1c0.2,3.2-0.9,6.5-3.4,8.9
					c-2.3,2.3-5.3,3.4-8.3,3.4c-0.2,0-0.4,0-0.7,0l0,0L24,144.4c-1.5,1.5-3.5,2.3-5.5,2.3s-4-0.8-5.5-2.3c-3-3-3-8,0-11l12.9-12.9
					l0,0c-0.2-3.2,0.9-6.5,3.4-8.9C31.6,109.2,34.6,108.1,37.6,108.1 M18.5,141.9c0.8,0,1.5-0.3,2.1-0.9c1.2-1.2,1.2-3.1,0-4.2
					c-0.6-0.6-1.4-0.9-2.1-0.9c-0.8,0-1.5,0.3-2.1,0.9c-1.2,1.2-1.2,3.1,0,4.2C17,141.6,17.7,141.9,18.5,141.9 M37.6,106.9
					c-3.5,0-6.7,1.3-9.1,3.8c-2.5,2.5-3.8,5.8-3.8,9.3l-12.6,12.6c-3.5,3.5-3.5,9.3,0,12.8c1.7,1.7,4,2.7,6.4,2.7
					c2.4,0,4.7-0.9,6.4-2.7l12.6-12.6c0,0,0.1,0,0.1,0c3.5,0,6.7-1.3,9.1-3.8c2.6-2.6,4-6.2,3.8-9.9l-0.2-2.8l-2,2l-4.6,4.6l-7.3-2
					l-2-7.3l4.6-4.6l2-2l-2.8-0.2C38.1,106.9,37.8,106.9,37.6,106.9L37.6,106.9z M18.5,140.6c-0.5,0-0.9-0.2-1.2-0.5
					c-0.3-0.3-0.5-0.8-0.5-1.2s0.2-0.9,0.5-1.2s0.8-0.5,1.2-0.5c0.5,0,0.9,0.2,1.2,0.5c0.7,0.7,0.7,1.8,0,2.5
					C19.4,140.4,19,140.6,18.5,140.6L18.5,140.6z"/>
			</g>
		</g>
		<g>
			<g>
				<path class="st0" d="M39.9,119.3c-0.4,0.4-0.9,0.9-1.6,1.6c0-1.1,0-2.7,0-4.9c0.2-0.2,0.4-0.4,0.8-0.8c0.2,0.2,0.4,0.4,0.8,0.8
					C39.9,116.7,39.9,117.8,39.9,119.3z M45.2,108.7c-0.4,0.4-0.9,0.9-1.6,1.6c-0.7,0-1.8,0-3.3,0c-0.4-0.4-0.9-0.9-1.6-1.6
					C40.1,108.7,42.3,108.7,45.2,108.7z M38.7,120.9c0.4-0.4,0.9-0.9,1.6-1.6c0.7,0,1.8,0,3.3,0c0.4,0.4,0.9,0.9,1.6,1.6
					C43.7,120.9,41.6,120.9,38.7,120.9z M39.1,114.8c0.2-0.2,0.4-0.4,0.8-0.8c0.9,0,2.3,0,4,0c0.2,0.2,0.5,0.5,0.8,0.8
					c-0.2,0.2-0.4,0.5-0.8,0.8c-0.9,0-2.2,0-4,0C39.7,115.4,39.5,115.1,39.1,114.8z M44,110.4c0.4-0.4,0.9-0.9,1.6-1.6
					c0,1.1,0,2.7,0,4.9c-0.2,0.2-0.5,0.4-0.8,0.8c-0.2-0.2-0.4-0.4-0.8-0.8C44,112.9,44,111.8,44,110.4z"/>
			</g>
		</g>
		<g>
			<defs>
				<path id="SVGID_1_" d="M171,252H9c-5,0-9-4-9-9V9c0-5,4-9,9-9h162c5,0,9,4,9,9v234C180,248,176,252,171,252z"/>
			</defs>
			<clipPath id="SVGID_2_">
				<use xlink:href="#SVGID_1_"  style="overflow:visible;"/>
			</clipPath>
			<g class="st8">
				<path class="st4" d="M0,18c9.9,0,18-8.1,18-18H0V18z"/>
				<path class="st4" d="M180,234c-9.9,0-18,8.1-18,18h18V234z"/>
				<path class="st4" d="M162,0c0,9.9,8.1,18,18,18V0L162,0z"/>
				<path class="st4" d="M18,252c0-9.9-8.1-18-18-18l0,18H18z"/>
			</g>
		</g>
	</g>
</g>
<g id="Layer_2" class="st9">
	<g class="st10">
		<g>
			<polyline class="st11" points="188,252 188,258 182,258 			"/>
			<line class="st12" x1="170.8" y1="258" x2="19.6" y2="258"/>
			<polyline class="st11" points="14,258 8,258 8,252 			"/>
			<line class="st13" x1="8" y1="240.6" x2="8" y2="17.7"/>
			<polyline class="st11" points="8,12 8,6 14,6 			"/>
			<line class="st12" x1="25.2" y1="6" x2="176.4" y2="6"/>
			<polyline class="st11" points="182,6 188,6 188,12 			"/>
			<line class="st13" x1="188" y1="23.4" x2="188" y2="246.3"/>
		</g>
	</g>
</g>
</svg>
