<?xml version="1.0" encoding="utf-8"?>
<!-- Generator: Adobe Illustrator 21.1.0, SVG Export Plug-In . SVG Version: 6.00 Build 0)  -->
<svg version="1.1" xmlns="http://www.w3.org/2000/svg" xmlns:xlink="http://www.w3.org/1999/xlink" x="0px" y="0px"
	 viewBox="0 0 180 252" style="enable-background:new 0 0 180 252;" xml:space="preserve">
<style type="text/css">
	.st0{fill:#333333;}
	.st1{fill:#CBCBCA;stroke:#982020;stroke-width:2.5;stroke-miterlimit:10;}
	.st2{fill:#333333;stroke:#982020;stroke-width:2.5;stroke-miterlimit:10;}
	.st3{fill:#676767;}
	.st4{fill:#CBCBCA;}
	.st5{fill:none;}
	.st6{fill:#CBA12C;}
	.st7{fill:#982020;}
	.st8{fill:#CB7A29;}
	.st9{fill:none;stroke:#CBCBCA;stroke-width:2.5;stroke-linecap:round;stroke-linejoin:round;stroke-miterlimit:10;}
	.st10{clip-path:url(#SVGID_2_);}
	.st11{display:none;}
	.st12{display:inline;}
	.st13{fill:none;stroke:#991F1F;stroke-width:2;stroke-miterlimit:10;}
	.st14{fill:none;stroke:#991F1F;stroke-width:2;stroke-miterlimit:10;stroke-dasharray:11.2,11.2;}
	.st15{fill:none;stroke:#991F1F;stroke-width:2;stroke-miterlimit:10;stroke-dasharray:11.4286,11.4286;}
</style>
<g id="Layer_1">
	<g>
		<g>
			<g id="XMLID_36_">
				<g>
				</g>
				<g>
				</g>
			</g>
			<g id="XMLID_35_">
				<g>
				</g>
				<g>
				</g>
			</g>
			<g id="XMLID_34_">
				<g>
				</g>
				<g>
				</g>
			</g>
		</g>
		<path class="st0" d="M162,252H18c0-9.9-8.1-18-18-18V18c9.9,0,18-8.1,18-18h144c0,9.9,8.1,18,18,18v216
			C170.1,234,162,242.1,162,252z"/>
		<path class="st1" d="M144,234H36c-9.9,0-18-8.1-18-18V36c0-9.9,8.1-18,18-18h108c9.9,0,18,8.1,18,18v180
			C162,225.9,153.9,234,144,234z"/>
		<path class="st2" d="M126,216H54c-9.9,0-18-8.1-18-18v-53.8c0-9.9,8.1-18,18-18h72c9.9,0,18,8.1,18,18V198
			C144,207.9,135.9,216,126,216z"/>
		<path class="st2" d="M126,108H54c-9.9,0-18-8.1-18-18V54c0-9.9,8.1-18,18-18h72c9.9,0,18,8.1,18,18v36C144,99.9,135.9,108,126,108
			z"/>
		<g>
			<path class="st3" d="M139.3,137.9l-2.7-4.6c-1.2-0.5-2.4-1.2-3.5-2h-5.4l-4.9-8.5l2.7-4.6c-0.1-0.7-0.1-1.4-0.1-2
				c0-0.6,0-1.3,0.1-2l-2.7-4.6l4.9-8.5h5.4c1.1-0.8,2.3-1.5,3.5-2l2.7-4.6h9.8l2.7,4.6c1.2,0.5,2.4,1.2,3.5,2h5.4l4.9,8.5l-2.7,4.6
				c0.1,0.7,0.1,1.4,0.1,2c0,0.6,0,1.3-0.1,2l2.7,4.6l-4.9,8.5h-5.4c-1.1,0.8-2.3,1.5-3.5,2l-2.7,4.6H139.3z M144.3,107.6
				c-4.7,0-8.5,3.8-8.5,8.5s3.8,8.5,8.5,8.5s8.5-3.8,8.5-8.5S148.9,107.6,144.3,107.6z"/>
			<path class="st4" d="M148.8,94.8l2.6,4.5c1.3,0.6,2.6,1.3,3.7,2.2h5.2l4.5,7.9l-2.6,4.5c0.1,0.7,0.1,1.4,0.1,2.2
				c0,0.7-0.1,1.5-0.1,2.2l2.6,4.5l-4.5,7.9h-5.2c-1.2,0.9-2.4,1.6-3.7,2.2l-2.6,4.5h-9.1l-2.6-4.5c-1.3-0.6-2.6-1.3-3.7-2.2h-5.2
				l-4.5-7.9l2.6-4.5c-0.1-0.7-0.1-1.4-0.1-2.2c0-0.7,0.1-1.5,0.1-2.2l-2.6-4.5l4.5-7.9h5.2c1.2-0.9,2.4-1.6,3.7-2.2l2.6-4.5H148.8
				 M144.3,125.1c5,0,9.1-4.1,9.1-9.1c0-5-4.1-9.1-9.1-9.1c-5,0-9.1,4.1-9.1,9.1C135.2,121.1,139.2,125.1,144.3,125.1 M149.5,93.6
				h-0.7h-9.1H139l-0.4,0.6l-2.4,4.1c-1.1,0.5-2.2,1.2-3.3,1.9h-4.8h-0.7l-0.4,0.6l-4.5,7.9l-0.4,0.6l0.4,0.6l2.4,4.1
				c-0.1,0.7-0.1,1.3-0.1,1.9c0,0.6,0,1.2,0.1,1.9l-2.4,4.1l-0.4,0.6l0.4,0.6l4.5,7.9l0.4,0.6h0.7h4.8c1.1,0.8,2.2,1.4,3.3,1.9
				l2.4,4.1l0.4,0.6h0.7h9.1h0.7l0.4-0.6l2.4-4.1c1.1-0.5,2.2-1.2,3.3-1.9h4.8h0.7l0.4-0.6l4.5-7.9l0.4-0.6l-0.4-0.6l-2.4-4.1
				c0.1-0.7,0.1-1.3,0.1-1.9c0-0.6,0-1.2-0.1-1.9l2.4-4.1l0.4-0.6l-0.4-0.6l-4.5-7.9l-0.4-0.6h-0.7h-4.8c-1.1-0.8-2.2-1.4-3.3-1.9
				l-2.4-4.1L149.5,93.6L149.5,93.6z M144.3,123.9c-4.3,0-7.8-3.5-7.8-7.8s3.5-7.8,7.8-7.8s7.8,3.5,7.8,7.8S148.6,123.9,144.3,123.9
				L144.3,123.9z"/>
		</g>
		<g>
			<rect x="18" y="27" class="st5" width="18" height="18"/>
			<path class="st6" d="M27.6,30.5c0.4-0.4,0.9-0.9,1.6-1.6c0,1.1,0,2.7,0,4.9c-0.2,0.2-0.5,0.4-0.8,0.8c-0.2-0.2-0.5-0.4-0.8-0.8
				C27.6,33,27.6,31.9,27.6,30.5z M27.6,36.1c0.2-0.2,0.4-0.4,0.8-0.8c0.2,0.2,0.4,0.4,0.8,0.8c0,1.1,0,2.7,0,4.9
				c-0.4-0.4-0.9-0.9-1.6-1.6C27.6,38.7,27.6,37.6,27.6,36.1z"/>
		</g>
		<g>
			<polygon class="st6" points="46.8,21.7 36,28.7 39.6,28.7 36,36 46.8,29.1 43.2,29.1 46.8,21.7 			"/>
		</g>
		<g>
			<rect x="72" y="112.5" class="st5" width="36" height="12"/>
			<path class="st0" d="M79.8,121.5V113h3.1c1.1,0,1.9,0.2,2.5,0.6s0.9,1,0.9,1.8c0,0.4-0.1,0.8-0.3,1.1s-0.5,0.5-0.9,0.7
				c0.4,0.1,0.8,0.3,1,0.7s0.4,0.7,0.4,1.2c0,0.8-0.3,1.5-0.8,1.9s-1.3,0.6-2.4,0.6H79.8z M81.8,116.5h1.1c0.4,0,0.8-0.1,1-0.2
				c0.2-0.2,0.3-0.4,0.3-0.7c0-0.4-0.1-0.6-0.3-0.8c-0.2-0.2-0.5-0.2-1-0.2h-1V116.5z M81.8,117.9v2h1.3c0.4,0,0.7-0.1,0.9-0.3
				s0.3-0.4,0.3-0.7c0-0.7-0.4-1.1-1.1-1.1H81.8z"/>
			<path class="st0" d="M94.7,117.4c0,0.8-0.2,1.6-0.5,2.2s-0.7,1.1-1.3,1.5s-1.2,0.5-1.9,0.5s-1.4-0.2-1.9-0.5s-1-0.8-1.3-1.4
				s-0.5-1.3-0.5-2.1v-0.5c0-0.8,0.2-1.6,0.5-2.2s0.7-1.1,1.3-1.5s1.2-0.5,2-0.5c0.7,0,1.4,0.2,1.9,0.5s1,0.8,1.3,1.5
				s0.5,1.4,0.5,2.2V117.4z M92.6,117.1c0-0.8-0.1-1.5-0.4-1.9s-0.7-0.7-1.2-0.7c-1,0-1.6,0.8-1.6,2.3l0,0.6c0,0.8,0.1,1.5,0.4,1.9
				s0.7,0.7,1.2,0.7c0.5,0,0.9-0.2,1.2-0.7s0.4-1.1,0.4-1.9V117.1z"/>
			<path class="st0" d="M102,114.6h-2.6v6.9h-2.1v-6.9h-2.5V113h7.1V114.6z"/>
		</g>
		<g>
			<g id="XMLID_33_">
				<g>
					<path class="st7" d="M48.1,198.3h-3.5c0,0-3-2-2-5c0,0-5,3-5,5h-3.5c0,0-2-5,3-7s-2-7-2-7C51.1,186.3,48.1,198.3,48.1,198.3z"
						/>
					<path class="st8" d="M44.6,198.3h-7c0-2,5-5,5-5C41.6,196.3,44.6,198.3,44.6,198.3z"/>
				</g>
				<g>
				</g>
			</g>
			<g id="XMLID_32_">
				<g>
					<path class="st7" d="M99.4,199.3h-5.3c0-3-7.5-7.5-7.5-7.5c1.5,4.5-3,7.5-3,7.5h-5.3c0,0-4.5-18,19.5-21c0,0-10.5,7.5-3,10.5
						S99.4,199.3,99.4,199.3z"/>
					<path class="st8" d="M86.7,191.8c0,0,7.5,4.5,7.5,7.5H83.7C83.7,199.3,88.2,196.3,86.7,191.8z"/>
				</g>
				<g>
				</g>
			</g>
			<g id="XMLID_31_">
				<g>
					<path class="st7" d="M151.2,200.3h-7c0,0-6-4-4-10c0,0-10,6-10,10h-7c0,0-4-10,6-14s-4-14-4-14
						C157.2,176.3,151.2,200.3,151.2,200.3z"/>
					<path class="st8" d="M140.2,190.3c-2,6,4,10,4,10h-14C130.2,196.3,140.2,190.3,140.2,190.3z"/>
				</g>
				<g>
				</g>
			</g>
		</g>
		<g>
			<rect x="18" y="3.8" class="st5" width="144" height="12"/>
			<path class="st4" d="M64.1,10.5c0-0.3-0.1-0.5-0.3-0.7s-0.6-0.3-1.1-0.5s-1-0.4-1.3-0.5c-1.1-0.5-1.7-1.3-1.7-2.2
				c0-0.5,0.1-0.9,0.4-1.3s0.7-0.6,1.2-0.8s1.1-0.3,1.7-0.3c0.6,0,1.2,0.1,1.6,0.3s0.9,0.5,1.1,0.9s0.4,0.9,0.4,1.4h-2.1
				c0-0.3-0.1-0.6-0.3-0.8s-0.5-0.3-0.9-0.3c-0.4,0-0.7,0.1-0.9,0.2s-0.3,0.4-0.3,0.6c0,0.2,0.1,0.4,0.4,0.6s0.6,0.4,1.2,0.6
				s1.1,0.4,1.5,0.6c0.9,0.5,1.4,1.3,1.4,2.2c0,0.7-0.3,1.3-0.8,1.8S64,12.9,63,12.9c-0.7,0-1.3-0.1-1.9-0.4s-1-0.6-1.3-1
				s-0.4-0.9-0.4-1.5h2.1c0,0.5,0.1,0.8,0.4,1s0.6,0.3,1.2,0.3c0.3,0,0.6-0.1,0.8-0.2S64.1,10.7,64.1,10.5z"/>
			<path class="st4" d="M74.1,9.9c0,0.6-0.2,1.1-0.5,1.6s-0.7,0.8-1.2,1.1s-1.1,0.4-1.8,0.4c-1.1,0-2-0.4-2.6-1.1s-1-1.8-1-3.1V8.3
				c0-0.8,0.1-1.6,0.4-2.2s0.7-1.1,1.3-1.5s1.2-0.5,1.9-0.5c1,0,1.9,0.3,2.5,0.8s1,1.3,1.1,2.3h-2.1c0-0.5-0.1-0.9-0.4-1.1
				S71,5.7,70.5,5.7c-0.5,0-0.9,0.2-1.1,0.6S69,7.3,69,8.1v0.6c0,0.9,0.1,1.6,0.3,2s0.6,0.6,1.2,0.6c0.5,0,0.8-0.1,1.1-0.3
				S72,10.3,72,9.9H74.1z"/>
			<path class="st4" d="M78.2,9.7h-1.1v3h-2.1V4.2h3.4c1,0,1.8,0.2,2.4,0.7c0.6,0.4,0.9,1.1,0.9,1.9c0,0.6-0.1,1.1-0.4,1.5
				S80.7,9,80.2,9.2l1.8,3.4v0.1h-2.2L78.2,9.7z M77.1,8.2h1.3c0.4,0,0.7-0.1,0.9-0.3c0.2-0.2,0.3-0.5,0.3-0.9s-0.1-0.7-0.3-0.9
				s-0.5-0.3-0.9-0.3h-1.3V8.2z"/>
			<path class="st4" d="M87.7,11.2h-2.8l-0.5,1.6h-2.2l3.1-8.5h1.9l3.2,8.5h-2.2L87.7,11.2z M85.4,9.6h1.8l-0.9-3L85.4,9.6z"/>
			<path class="st4" d="M93.1,9.9v2.9h-2.1V4.2h3.4c0.7,0,1.2,0.1,1.7,0.4s0.9,0.6,1.2,1s0.4,0.9,0.4,1.5c0,0.8-0.3,1.5-0.9,2
				s-1.4,0.7-2.5,0.7H93.1z M93.1,8.3h1.3c0.4,0,0.7-0.1,0.9-0.3s0.3-0.5,0.3-0.8c0-0.4-0.1-0.7-0.3-1s-0.5-0.4-0.9-0.4h-1.4V8.3z"
				/>
			<path class="st4" d="M98.9,12.8V4.2h3.1c1.1,0,1.9,0.2,2.5,0.6s0.9,1,0.9,1.8c0,0.4-0.1,0.8-0.3,1.1s-0.5,0.5-0.9,0.7
				c0.4,0.1,0.8,0.3,1,0.7s0.4,0.7,0.4,1.2c0,0.8-0.3,1.5-0.8,1.9s-1.3,0.6-2.4,0.6H98.9z M100.9,7.8h1.1c0.4,0,0.8-0.1,1-0.2
				c0.2-0.2,0.3-0.4,0.3-0.7c0-0.4-0.1-0.6-0.3-0.8c-0.2-0.2-0.5-0.2-1-0.2h-1V7.8z M100.9,9.1v2h1.3c0.4,0,0.7-0.1,0.9-0.3
				s0.3-0.4,0.3-0.7c0-0.7-0.4-1.1-1.1-1.1H100.9z"/>
			<path class="st4" d="M113.8,8.7c0,0.8-0.2,1.6-0.5,2.2s-0.7,1.1-1.3,1.5s-1.2,0.5-1.9,0.5s-1.4-0.2-1.9-0.5s-1-0.8-1.3-1.4
				s-0.5-1.3-0.5-2.1V8.3c0-0.8,0.2-1.6,0.5-2.2s0.7-1.1,1.3-1.5s1.2-0.5,2-0.5c0.7,0,1.4,0.2,1.9,0.5s1,0.8,1.3,1.5
				s0.5,1.4,0.5,2.2V8.7z M111.7,8.3c0-0.8-0.1-1.5-0.4-1.9s-0.7-0.7-1.2-0.7c-1,0-1.6,0.8-1.6,2.3l0,0.6c0,0.8,0.1,1.5,0.4,1.9
				s0.7,0.7,1.2,0.7c0.5,0,0.9-0.2,1.2-0.7s0.4-1.1,0.4-1.9V8.3z"/>
			<path class="st4" d="M121.1,5.8h-2.6v6.9h-2.1V5.8H114V4.2h7.1V5.8z"/>
		</g>
		<g>
			<path class="st9" d="M34.1,198.3c0,0-2-5,3-7s-2-7-2-7c16,2,13,14,13,14"/>
			<path class="st9" d="M78.4,199.3c0,0-4.5-18,19.5-21c0,0-10.5,7.5-3,10.5s4.5,10.5,4.5,10.5"/>
			<path class="st9" d="M123.2,200.3c0,0-4-10,6-14s-4-14-4-14c32,4,26,28,26,28"/>
		</g>
		<ellipse class="st2" cx="138" cy="216" rx="24" ry="18"/>
		<g>
			<rect x="40.5" y="130.5" class="st5" width="99" height="45.4"/>
			<path class="st4" d="M58.8,135.5c0.1-0.3-0.1-0.6-0.5-0.8l-0.8-0.3c-1-0.4-1.5-1-1.4-1.8c0-0.4,0.1-0.7,0.4-0.9s0.5-0.5,0.9-0.6
				s0.8-0.2,1.3-0.2c0.6,0,1.1,0.2,1.5,0.6c0.4,0.4,0.6,0.8,0.6,1.4h-1.3c0-0.3,0-0.5-0.2-0.7s-0.4-0.2-0.7-0.3
				c-0.3,0-0.5,0.1-0.8,0.2s-0.3,0.3-0.4,0.6c-0.1,0.3,0.2,0.6,0.6,0.8l0.6,0.2l0.3,0.2c0.9,0.4,1.3,1,1.2,1.8c0,0.4-0.1,0.7-0.4,1
				c-0.2,0.3-0.5,0.5-0.9,0.6c-0.4,0.1-0.8,0.2-1.2,0.2c-0.5,0-0.9-0.1-1.2-0.3s-0.6-0.4-0.8-0.8c-0.2-0.3-0.3-0.7-0.2-1.1l1.3,0
				c0,0.7,0.3,1,1,1.1c0.3,0,0.6-0.1,0.8-0.2S58.8,135.8,58.8,135.5z"/>
			<path class="st4" d="M63.6,136.8c-0.4,0.4-0.8,0.6-1.3,0.6c-0.5,0-0.8-0.2-1-0.5s-0.3-0.7-0.3-1.3l0.5-3.1h1.2l-0.5,3.1
				c0,0.1,0,0.2,0,0.3c0,0.3,0.2,0.4,0.5,0.5c0.4,0,0.7-0.1,1-0.4l0.6-3.4h1.2l-0.8,4.8h-1.2L63.6,136.8z"/>
			<path class="st4" d="M67.5,132.5l-0.1,0.5c0.4-0.4,0.8-0.6,1.4-0.6c0.3,0,0.5,0.1,0.7,0.2s0.3,0.3,0.4,0.5
				c0.4-0.5,0.9-0.7,1.5-0.7c0.4,0,0.8,0.2,1,0.4s0.3,0.7,0.3,1.3l0,0.1l-0.5,3h-1.2l0.5-3c0-0.1,0-0.2,0-0.3c0-0.3-0.2-0.5-0.5-0.5
				c-0.3,0-0.6,0.2-0.9,0.5l0,0.1l-0.6,3.2h-1.2l0.5-3c0-0.1,0-0.2,0-0.3c0-0.3-0.2-0.5-0.5-0.5c-0.3,0-0.6,0.1-0.8,0.4l-0.6,3.4
				h-1.2l0.8-4.8L67.5,132.5z"/>
			<path class="st4" d="M75.1,132.5L75,133c0.4-0.4,0.8-0.6,1.4-0.6c0.3,0,0.5,0.1,0.7,0.2s0.3,0.3,0.4,0.5c0.4-0.5,0.9-0.7,1.5-0.7
				c0.4,0,0.8,0.2,1,0.4s0.3,0.7,0.3,1.3l0,0.1l-0.5,3h-1.2l0.5-3c0-0.1,0-0.2,0-0.3c0-0.3-0.2-0.5-0.5-0.5c-0.3,0-0.6,0.2-0.9,0.5
				l0,0.1l-0.6,3.2h-1.2l0.5-3c0-0.1,0-0.2,0-0.3c0-0.3-0.2-0.5-0.5-0.5c-0.3,0-0.6,0.1-0.8,0.4l-0.6,3.4h-1.2l0.8-4.8L75.1,132.5z"
				/>
			<path class="st4" d="M83.5,132.4c0.4,0,0.8,0.1,1.1,0.3c0.3,0.2,0.5,0.5,0.7,0.9c0.1,0.4,0.2,0.8,0.2,1.2
				c-0.1,0.8-0.3,1.4-0.8,1.8c-0.5,0.5-1,0.7-1.7,0.7c-0.4,0-0.8-0.1-1.1-0.3c-0.3-0.2-0.5-0.5-0.7-0.9s-0.2-0.8-0.2-1.2
				c0.1-0.8,0.3-1.4,0.8-1.9S82.8,132.4,83.5,132.4z M82.2,135.4c0,0.3,0.1,0.5,0.2,0.7s0.3,0.2,0.5,0.3c0.4,0,0.7-0.2,0.9-0.5
				s0.3-0.8,0.3-1.4c0-0.3-0.1-0.5-0.2-0.7c-0.1-0.2-0.3-0.3-0.5-0.3c-0.4,0-0.7,0.2-0.9,0.5S82.2,134.8,82.2,135.4z"/>
			<path class="st4" d="M87.7,132.5l-0.1,0.6c0.4-0.4,0.8-0.7,1.4-0.6c0.4,0,0.8,0.2,1,0.5s0.3,0.8,0.2,1.3l-0.5,3h-1.2l0.5-3
				c0-0.1,0-0.2,0-0.3c0-0.3-0.2-0.5-0.6-0.5c-0.3,0-0.6,0.1-0.9,0.5l-0.6,3.4h-1.2l0.8-4.8L87.7,132.5z"/>
			<path class="st4" d="M91.2,133c0-0.2,0.1-0.4,0.2-0.5c0.1-0.1,0.3-0.2,0.5-0.2c0.2,0,0.4,0.1,0.5,0.2c0.1,0.1,0.2,0.3,0.2,0.5
				c0,0.2-0.1,0.4-0.2,0.5s-0.3,0.2-0.5,0.2c-0.2,0-0.4-0.1-0.5-0.2S91.2,133.2,91.2,133z M91.2,136.6c0-0.2,0.1-0.4,0.2-0.5
				c0.1-0.1,0.3-0.2,0.5-0.2c0.2,0,0.4,0.1,0.5,0.2c0.1,0.1,0.2,0.3,0.2,0.5c0,0.2-0.1,0.4-0.2,0.5c-0.1,0.1-0.3,0.2-0.5,0.2
				c-0.2,0-0.4-0.1-0.5-0.2C91.3,137,91.2,136.8,91.2,136.6z"/>
			<path class="st4" d="M97.8,130.9l1.6,4.6l1.6-4.6h1.7v6.4h-1.3v-1.7l0.1-3l-1.7,4.8h-0.9l-1.7-4.8l0.1,3v1.7H96v-6.4H97.8z"/>
			<path class="st4" d="M103.6,134.8c0-0.5,0.1-0.9,0.3-1.3s0.4-0.7,0.8-0.9s0.7-0.3,1.2-0.3c0.6,0,1.2,0.2,1.6,0.6s0.6,0.9,0.7,1.6
				l0,0.3c0,0.7-0.2,1.3-0.6,1.8c-0.4,0.4-1,0.7-1.6,0.7s-1.2-0.2-1.6-0.7C103.8,136.2,103.6,135.6,103.6,134.8L103.6,134.8z
				 M104.9,134.9c0,0.5,0.1,0.8,0.3,1s0.4,0.4,0.7,0.4c0.3,0,0.5-0.1,0.7-0.4c0.2-0.2,0.3-0.6,0.3-1.1c0-0.4-0.1-0.8-0.3-1
				c-0.2-0.2-0.4-0.4-0.7-0.4c-0.3,0-0.6,0.1-0.7,0.4C105,134,104.9,134.4,104.9,134.9z"/>
			<path class="st4" d="M110.6,135.7l0.9-3.2h1.3l-1.6,4.8H110l-1.6-4.8h1.3L110.6,135.7z"/>
			<path class="st4" d="M115.5,137.3c-0.7,0-1.3-0.2-1.7-0.6c-0.4-0.4-0.7-1-0.7-1.7v-0.1c0-0.5,0.1-0.9,0.3-1.3s0.4-0.7,0.8-0.9
				c0.3-0.2,0.7-0.3,1.2-0.3c0.7,0,1.2,0.2,1.5,0.6s0.6,1,0.6,1.7v0.5h-3c0,0.3,0.2,0.6,0.4,0.7c0.2,0.2,0.5,0.3,0.8,0.3
				c0.5,0,0.9-0.2,1.1-0.5l0.6,0.7c-0.2,0.3-0.4,0.5-0.8,0.6S115.9,137.3,115.5,137.3z M115.4,133.4c-0.3,0-0.5,0.1-0.6,0.3
				c-0.2,0.2-0.3,0.4-0.3,0.7h1.8v-0.1c0-0.3-0.1-0.5-0.2-0.7C115.9,133.5,115.7,133.4,115.4,133.4z"/>
			<path class="st4" d="M123.2,137.3c-0.1-0.1-0.1-0.3-0.1-0.4c-0.3,0.3-0.7,0.5-1.2,0.5c-0.5,0-0.9-0.1-1.2-0.4s-0.5-0.6-0.5-1
				c0-0.5,0.2-0.9,0.6-1.2c0.4-0.3,0.9-0.4,1.6-0.4h0.6v-0.3c0-0.2-0.1-0.4-0.2-0.5s-0.3-0.2-0.5-0.2c-0.2,0-0.4,0.1-0.5,0.2
				s-0.2,0.2-0.2,0.4h-1.3c0-0.3,0.1-0.5,0.3-0.8s0.4-0.4,0.7-0.6s0.7-0.2,1-0.2c0.6,0,1.1,0.1,1.4,0.4c0.3,0.3,0.5,0.7,0.5,1.2v2.1
				c0,0.5,0.1,0.8,0.2,1v0.1H123.2z M122.2,136.4c0.2,0,0.4,0,0.5-0.1c0.2-0.1,0.3-0.2,0.4-0.3v-0.8h-0.5c-0.6,0-1,0.2-1,0.7l0,0.1
				c0,0.2,0.1,0.3,0.2,0.4S122,136.4,122.2,136.4z"/>
			<path class="st4" d="M58.4,141.7l0.8,4.6l2.4-4.6h1.7l-1.1,6.4h-1.3l0.3-1.8l0.6-2.8l-2.5,4.7h-0.9l-0.9-4.8l-0.4,3.2L57,148
				h-1.3l1.1-6.4H58.4z"/>
			<path class="st4" d="M64.6,148h-1.2l0.8-4.8h1.2L64.6,148z M64.3,142.1c0-0.2,0.1-0.4,0.2-0.5s0.3-0.2,0.5-0.2
				c0.2,0,0.4,0.1,0.5,0.2s0.2,0.3,0.2,0.5c0,0.2-0.1,0.3-0.2,0.5c-0.1,0.1-0.3,0.2-0.5,0.2c-0.2,0-0.3,0-0.5-0.2
				C64.4,142.4,64.3,142.3,64.3,142.1z"/>
			<path class="st4" d="M67.6,143.3l-0.1,0.6c0.4-0.4,0.8-0.7,1.4-0.6c0.4,0,0.8,0.2,1,0.5s0.3,0.8,0.2,1.3l-0.5,3h-1.2l0.5-3
				c0-0.1,0-0.2,0-0.3c0-0.3-0.2-0.5-0.6-0.5c-0.3,0-0.6,0.1-0.9,0.5l-0.6,3.4h-1.2l0.8-4.8L67.6,143.3z"/>
			<path class="st4" d="M71.9,148h-1.2l0.8-4.8h1.2L71.9,148z M71.6,142.1c0-0.2,0.1-0.4,0.2-0.5s0.3-0.2,0.5-0.2
				c0.2,0,0.4,0.1,0.5,0.2s0.2,0.3,0.2,0.5c0,0.2-0.1,0.3-0.2,0.5c-0.1,0.1-0.3,0.2-0.5,0.2c-0.2,0-0.3,0-0.5-0.2
				C71.7,142.4,71.6,142.3,71.6,142.1z"/>
			<path class="st4" d="M75.7,143.2c0.4,0,0.8,0.1,1.1,0.3c0.3,0.2,0.5,0.5,0.7,0.9c0.1,0.4,0.2,0.8,0.2,1.2
				c-0.1,0.8-0.3,1.4-0.8,1.8c-0.5,0.5-1,0.7-1.7,0.7c-0.4,0-0.8-0.1-1.1-0.3c-0.3-0.2-0.5-0.5-0.7-0.9s-0.2-0.8-0.2-1.2
				c0.1-0.8,0.3-1.4,0.8-1.9S75,143.2,75.7,143.2z M74.4,146.2c0,0.3,0.1,0.5,0.2,0.7s0.3,0.2,0.5,0.3c0.4,0,0.7-0.2,0.9-0.5
				s0.3-0.8,0.3-1.4c0-0.3-0.1-0.5-0.2-0.7c-0.1-0.2-0.3-0.3-0.5-0.3c-0.4,0-0.7,0.2-0.9,0.5S74.4,145.6,74.4,146.2z"/>
			<path class="st4" d="M79.9,143.3l-0.1,0.6c0.4-0.4,0.8-0.7,1.4-0.6c0.4,0,0.8,0.2,1,0.5s0.3,0.8,0.2,1.3l-0.5,3h-1.2l0.5-3
				c0-0.1,0-0.2,0-0.3c0-0.3-0.2-0.5-0.6-0.5c-0.3,0-0.6,0.1-0.9,0.5l-0.6,3.4h-1.2l0.8-4.8L79.9,143.3z"/>
			<path class="st4" d="M85.9,148v-3.8h-0.7v-0.9h0.7v-0.4c0-0.5,0.2-0.9,0.5-1.2c0.3-0.3,0.7-0.4,1.3-0.4c0.2,0,0.4,0,0.6,0.1l0,1
				c-0.1,0-0.2,0-0.4,0c-0.5,0-0.7,0.2-0.7,0.7v0.4h0.9v0.9h-0.9v3.8H85.9z"/>
			<path class="st4" d="M91.5,144.5c-0.2,0-0.3,0-0.5,0c-0.5,0-0.8,0.2-0.9,0.5v3.1h-1.3v-4.8H90l0,0.6c0.3-0.4,0.6-0.7,1.1-0.7
				c0.1,0,0.3,0,0.4,0.1L91.5,144.5z"/>
			<path class="st4" d="M91.7,145.6c0-0.5,0.1-0.9,0.3-1.3s0.4-0.7,0.8-0.9s0.7-0.3,1.2-0.3c0.6,0,1.2,0.2,1.6,0.6s0.6,0.9,0.7,1.6
				l0,0.3c0,0.7-0.2,1.3-0.6,1.8c-0.4,0.4-1,0.7-1.6,0.7s-1.2-0.2-1.6-0.7C91.9,147,91.7,146.4,91.7,145.6L91.7,145.6z M93,145.7
				c0,0.5,0.1,0.8,0.3,1s0.4,0.4,0.7,0.4c0.3,0,0.5-0.1,0.7-0.4c0.2-0.2,0.3-0.6,0.3-1.1c0-0.4-0.1-0.8-0.3-1
				c-0.2-0.2-0.4-0.4-0.7-0.4c-0.3,0-0.6,0.1-0.7,0.4S93,145.2,93,145.7z"/>
			<path class="st4" d="M98.2,143.3l0,0.5c0.3-0.4,0.8-0.6,1.4-0.6c0.6,0,1,0.2,1.3,0.7c0.3-0.5,0.8-0.7,1.4-0.7
				c0.5,0,0.9,0.2,1.2,0.5c0.3,0.3,0.4,0.8,0.4,1.4v3h-1.3v-3c0-0.3-0.1-0.5-0.2-0.6s-0.3-0.2-0.6-0.2c-0.4,0-0.6,0.2-0.8,0.5l0,3.3
				h-1.3v-3c0-0.3-0.1-0.5-0.2-0.6c-0.1-0.1-0.3-0.2-0.6-0.2c-0.4,0-0.6,0.2-0.8,0.4v3.4H97v-4.8H98.2z"/>
			<path class="st4" d="M108.8,146.3l0.9-3h1.4l-1.9,5.5L109,149c-0.3,0.6-0.8,0.9-1.4,0.9c-0.2,0-0.4,0-0.6-0.1v-1l0.2,0
				c0.2,0,0.4,0,0.5-0.1c0.1-0.1,0.2-0.2,0.3-0.4l0.1-0.4l-1.7-4.8h1.4L108.8,146.3z"/>
			<path class="st4" d="M111.3,145.6c0-0.5,0.1-0.9,0.3-1.3s0.4-0.7,0.8-0.9c0.3-0.2,0.7-0.3,1.2-0.3c0.6,0,1.2,0.2,1.6,0.6
				c0.4,0.4,0.6,0.9,0.7,1.6l0,0.3c0,0.7-0.2,1.3-0.6,1.8c-0.4,0.4-1,0.7-1.6,0.7s-1.2-0.2-1.6-0.7
				C111.5,147,111.3,146.4,111.3,145.6L111.3,145.6z M112.6,145.7c0,0.5,0.1,0.8,0.3,1s0.4,0.4,0.7,0.4c0.3,0,0.5-0.1,0.7-0.4
				c0.2-0.2,0.3-0.6,0.3-1.1c0-0.4-0.1-0.8-0.3-1c-0.2-0.2-0.4-0.4-0.7-0.4c-0.3,0-0.6,0.1-0.7,0.4S112.6,145.2,112.6,145.7z"/>
			<path class="st4" d="M119.4,147.6c-0.3,0.4-0.7,0.6-1.3,0.6c-0.5,0-0.9-0.1-1.2-0.4s-0.4-0.7-0.4-1.3v-3.1h1.3v3.1
				c0,0.5,0.2,0.7,0.7,0.7c0.4,0,0.7-0.1,0.9-0.4v-3.4h1.3v4.8h-1.2L119.4,147.6z"/>
			<path class="st4" d="M124.3,144.5c-0.2,0-0.3,0-0.5,0c-0.5,0-0.8,0.2-0.9,0.5v3.1h-1.3v-4.8h1.2l0,0.6c0.3-0.4,0.6-0.7,1.1-0.7
				c0.1,0,0.3,0,0.4,0.1L124.3,144.5z"/>
			<path class="st4" d="M53.4,157.1c0.1-0.3-0.1-0.6-0.5-0.8l-0.8-0.3c-1-0.4-1.5-1-1.4-1.8c0-0.4,0.1-0.7,0.4-0.9s0.5-0.5,0.9-0.6
				c0.4-0.2,0.8-0.2,1.3-0.2c0.6,0,1.1,0.2,1.5,0.6c0.4,0.4,0.6,0.8,0.6,1.4h-1.3c0-0.3,0-0.5-0.2-0.7s-0.4-0.2-0.7-0.3
				c-0.3,0-0.5,0.1-0.8,0.2c-0.2,0.1-0.3,0.3-0.4,0.6c-0.1,0.3,0.2,0.6,0.6,0.8l0.6,0.2l0.3,0.2c0.9,0.4,1.3,1,1.2,1.8
				c0,0.4-0.1,0.7-0.4,1c-0.2,0.3-0.5,0.5-0.9,0.6c-0.4,0.1-0.8,0.2-1.2,0.2c-0.5,0-0.9-0.1-1.2-0.3s-0.6-0.4-0.8-0.8
				c-0.2-0.3-0.3-0.7-0.2-1.1l1.3,0c0,0.7,0.3,1,1,1.1c0.3,0,0.6-0.1,0.8-0.2S53.4,157.4,53.4,157.1z"/>
			<path class="st4" d="M57.3,157.9c0.2,0,0.4-0.1,0.6-0.2c0.2-0.1,0.3-0.3,0.3-0.5l1.2,0c0,0.3-0.1,0.6-0.3,0.9
				c-0.2,0.3-0.4,0.5-0.8,0.6s-0.6,0.2-1,0.2c-0.6,0-1-0.2-1.4-0.6s-0.5-0.9-0.5-1.6l0-0.2l0,0c0.1-0.8,0.3-1.4,0.8-1.8
				c0.4-0.5,1-0.7,1.6-0.7c0.5,0,1,0.2,1.3,0.5c0.3,0.3,0.5,0.8,0.5,1.3h-1.2c0-0.3-0.1-0.5-0.2-0.6S58,155,57.8,155
				c-0.6,0-1,0.4-1.1,1.3c0,0.3-0.1,0.6,0,0.8C56.7,157.6,56.9,157.9,57.3,157.9z"/>
			<path class="st4" d="M63.1,155.3c-0.2,0-0.3,0-0.4,0c-0.4,0-0.8,0.2-1.1,0.5l-0.5,3.1h-1.2l0.8-4.8l1.2,0l-0.1,0.6
				c0.3-0.4,0.7-0.7,1.1-0.7c0.1,0,0.3,0,0.4,0.1L63.1,155.3z"/>
			<path class="st4" d="M65.7,158.8c0-0.1-0.1-0.3,0-0.4c-0.4,0.4-0.8,0.5-1.2,0.5c-0.4,0-0.8-0.1-1-0.4c-0.3-0.3-0.4-0.6-0.4-1
				c0-0.5,0.2-0.9,0.7-1.2c0.4-0.3,1-0.4,1.7-0.4l0.6,0l0.1-0.3c0-0.1,0-0.2,0-0.3c0-0.1-0.1-0.2-0.2-0.3c-0.1-0.1-0.2-0.1-0.4-0.1
				c-0.2,0-0.4,0-0.5,0.1c-0.1,0.1-0.2,0.2-0.3,0.4l-1.2,0c0-0.5,0.2-0.8,0.6-1.1c0.4-0.3,0.9-0.4,1.5-0.4c0.5,0,1,0.2,1.3,0.5
				c0.3,0.3,0.4,0.7,0.4,1.2l-0.4,2.3l0,0.3c0,0.2,0,0.4,0.1,0.5l0,0.1H65.7z M64.7,158c0.4,0,0.7-0.1,0.9-0.5l0.2-0.8l-0.4,0
				c-0.5,0-0.8,0.2-1,0.4c-0.1,0.1-0.1,0.2-0.1,0.4c0,0.2,0,0.3,0.1,0.4C64.4,157.9,64.6,158,64.7,158z"/>
			<path class="st4" d="M72.2,156.5c-0.1,0.5-0.2,0.9-0.4,1.3s-0.4,0.7-0.7,0.9s-0.6,0.3-1,0.3c-0.5,0-0.8-0.2-1.1-0.5l-0.4,2.3
				h-1.2l1.1-6.6l1.1,0l-0.1,0.5c0.3-0.4,0.7-0.6,1.2-0.6s0.8,0.2,1.1,0.5c0.3,0.3,0.4,0.8,0.4,1.3C72.2,156,72.2,156.2,72.2,156.5z
				 M71,156.4l0-0.4c0-0.3,0-0.5-0.2-0.7c-0.1-0.2-0.3-0.3-0.5-0.3c-0.4,0-0.7,0.1-0.9,0.5l-0.4,2c0.1,0.3,0.3,0.5,0.7,0.5
				c0.3,0,0.5-0.1,0.7-0.3C70.8,157.3,70.9,156.9,71,156.4z"/>
			<path class="st4" d="M74.5,154.6c0.4-0.4,0.8-0.6,1.3-0.6c0.5,0,0.8,0.2,1,0.5c0.2,0.3,0.3,0.8,0.2,1.3l-0.5,3h-1.2l0.5-3
				c0-0.1,0-0.2,0-0.3c0-0.3-0.2-0.5-0.6-0.5c-0.3,0-0.6,0.1-0.9,0.4l-0.6,3.4h-1.2l1.2-6.8H75L74.5,154.6z"/>
			<path class="st4" d="M79.8,158.9c-0.4,0-0.8-0.1-1.1-0.3c-0.3-0.2-0.6-0.5-0.7-0.8c-0.2-0.3-0.2-0.7-0.2-1.2l0-0.2
				c0-0.5,0.2-0.9,0.4-1.3s0.5-0.7,0.9-0.9c0.4-0.2,0.7-0.3,1.2-0.3c0.6,0,1.1,0.2,1.4,0.7c0.3,0.4,0.4,1,0.4,1.7l-0.1,0.5H79
				c0,0.3,0.1,0.6,0.2,0.7s0.4,0.3,0.7,0.3c0.5,0,0.8-0.2,1.2-0.5l0.6,0.7c-0.2,0.3-0.4,0.5-0.8,0.6
				C80.5,158.9,80.2,158.9,79.8,158.9z M80.2,155c-0.2,0-0.4,0.1-0.6,0.2s-0.3,0.4-0.5,0.8h1.7l0-0.1c0-0.1,0-0.2,0-0.3
				c0-0.2-0.1-0.3-0.2-0.4C80.5,155.1,80.4,155,80.2,155z"/>
			<path class="st4" d="M85,158.8c0-0.1-0.1-0.3,0-0.4c-0.4,0.4-0.8,0.5-1.2,0.5c-0.4,0-0.8-0.1-1-0.4c-0.3-0.3-0.4-0.6-0.4-1
				c0-0.5,0.2-0.9,0.7-1.2c0.4-0.3,1-0.4,1.7-0.4l0.6,0l0.1-0.3c0-0.1,0-0.2,0-0.3c0-0.1-0.1-0.2-0.2-0.3c-0.1-0.1-0.2-0.1-0.4-0.1
				c-0.2,0-0.4,0-0.5,0.1c-0.1,0.1-0.2,0.2-0.3,0.4l-1.2,0c0-0.5,0.2-0.8,0.6-1.1c0.4-0.3,0.9-0.4,1.5-0.4c0.5,0,1,0.2,1.3,0.5
				c0.3,0.3,0.4,0.7,0.4,1.2l-0.4,2.3l0,0.3c0,0.2,0,0.4,0.1,0.5l0,0.1H85z M84.1,158c0.4,0,0.7-0.1,0.9-0.5l0.2-0.8l-0.4,0
				c-0.5,0-0.8,0.2-1,0.4c-0.1,0.1-0.1,0.2-0.1,0.4c0,0.2,0,0.3,0.1,0.4C83.8,157.9,83.9,158,84.1,158z"/>
			<path class="st4" d="M91.6,156.5c-0.1,0.5-0.2,0.9-0.4,1.3s-0.4,0.7-0.7,0.9s-0.6,0.3-1,0.3c-0.5,0-0.8-0.2-1.1-0.5l-0.4,2.3
				h-1.2l1.1-6.6l1.1,0l-0.1,0.5c0.3-0.4,0.7-0.6,1.2-0.6s0.8,0.2,1.1,0.5c0.3,0.3,0.4,0.8,0.4,1.3C91.6,156,91.6,156.2,91.6,156.5z
				 M90.4,156.4l0-0.4c0-0.3,0-0.5-0.2-0.7c-0.1-0.2-0.3-0.3-0.5-0.3c-0.4,0-0.7,0.1-0.9,0.5l-0.4,2c0.1,0.3,0.3,0.5,0.7,0.5
				c0.3,0,0.5-0.1,0.7-0.3C90.1,157.3,90.3,156.9,90.4,156.4z"/>
			<path class="st4" d="M94.5,156.4c0-0.5,0.1-0.9,0.3-1.3s0.4-0.7,0.8-0.9s0.7-0.3,1.2-0.3c0.6,0,1.2,0.2,1.6,0.6s0.6,0.9,0.7,1.6
				l0,0.3c0,0.7-0.2,1.3-0.6,1.8c-0.4,0.4-1,0.7-1.6,0.7s-1.2-0.2-1.6-0.7C94.7,157.8,94.5,157.2,94.5,156.4L94.5,156.4z
				 M95.8,156.5c0,0.5,0.1,0.8,0.3,1c0.2,0.2,0.4,0.4,0.7,0.4c0.3,0,0.5-0.1,0.7-0.4s0.3-0.6,0.3-1.1c0-0.4-0.1-0.8-0.3-1
				c-0.2-0.2-0.4-0.4-0.7-0.4c-0.3,0-0.6,0.1-0.7,0.4C95.9,155.6,95.8,156,95.8,156.5z"/>
			<path class="st4" d="M101,154.1l0,0.5c0.3-0.4,0.8-0.6,1.4-0.6c0.5,0,0.9,0.1,1.1,0.4s0.4,0.7,0.4,1.3v3.1h-1.3v-3
				c0-0.3-0.1-0.5-0.2-0.6s-0.3-0.2-0.6-0.2c-0.4,0-0.6,0.2-0.8,0.5v3.4h-1.3v-4.8H101z"/>
			<path class="st4" d="M108.6,152.9v1.2h0.8v0.9h-0.8v2.4c0,0.2,0,0.3,0.1,0.4s0.2,0.1,0.4,0.1c0.1,0,0.3,0,0.4,0v1
				c-0.2,0.1-0.5,0.1-0.8,0.1c-0.9,0-1.3-0.4-1.4-1.3V155h-0.7v-0.9h0.7v-1.2H108.6z"/>
			<path class="st4" d="M109.8,156.4c0-0.5,0.1-0.9,0.3-1.3s0.4-0.7,0.8-0.9s0.7-0.3,1.2-0.3c0.6,0,1.2,0.2,1.6,0.6s0.6,0.9,0.7,1.6
				l0,0.3c0,0.7-0.2,1.3-0.6,1.8c-0.4,0.4-1,0.7-1.6,0.7s-1.2-0.2-1.6-0.7C110,157.8,109.8,157.2,109.8,156.4L109.8,156.4z
				 M111,156.5c0,0.5,0.1,0.8,0.3,1c0.2,0.2,0.4,0.4,0.7,0.4c0.3,0,0.5-0.1,0.7-0.4c0.2-0.2,0.3-0.6,0.3-1.1c0-0.4-0.1-0.8-0.3-1
				c-0.2-0.2-0.4-0.4-0.7-0.4c-0.3,0-0.6,0.1-0.7,0.4C111.1,155.6,111,156,111,156.5z"/>
			<path class="st4" d="M119.3,156.5c0,0.7-0.2,1.3-0.5,1.8c-0.3,0.4-0.8,0.7-1.3,0.7c-0.5,0-0.9-0.2-1.2-0.5v2.2h-1.3v-6.6h1.2
				l0,0.5c0.3-0.4,0.7-0.6,1.2-0.6c0.6,0,1,0.2,1.4,0.7S119.3,155.7,119.3,156.5L119.3,156.5z M118.1,156.4c0-0.4-0.1-0.8-0.2-1
				s-0.4-0.4-0.7-0.4c-0.4,0-0.7,0.2-0.8,0.5v2c0.2,0.3,0.4,0.5,0.8,0.5C117.8,157.9,118.1,157.4,118.1,156.4z"/>
			<path class="st4" d="M122.2,156.4c0-0.5,0.1-0.9,0.3-1.3s0.4-0.7,0.8-0.9c0.3-0.2,0.7-0.3,1.2-0.3c0.6,0,1.2,0.2,1.6,0.6
				c0.4,0.4,0.6,0.9,0.7,1.6l0,0.3c0,0.7-0.2,1.3-0.6,1.8c-0.4,0.4-1,0.7-1.6,0.7s-1.2-0.2-1.6-0.7S122.2,157.2,122.2,156.4
				L122.2,156.4z M123.4,156.5c0,0.5,0.1,0.8,0.3,1c0.2,0.2,0.4,0.4,0.7,0.4c0.3,0,0.5-0.1,0.7-0.4s0.3-0.6,0.3-1.1
				c0-0.4-0.1-0.8-0.3-1c-0.2-0.2-0.4-0.4-0.7-0.4c-0.3,0-0.6,0.1-0.7,0.4C123.5,155.6,123.4,156,123.4,156.5z"/>
			<path class="st4" d="M127.8,158.8V155h-0.7v-0.9h0.7v-0.4c0-0.5,0.2-0.9,0.5-1.2c0.3-0.3,0.7-0.4,1.3-0.4c0.2,0,0.4,0,0.6,0.1
				l0,1c-0.1,0-0.2,0-0.4,0c-0.5,0-0.7,0.2-0.7,0.7v0.4h0.9v0.9h-0.9v3.8H127.8z"/>
			<path class="st4" d="M44.3,167.9l0.9-3h1.4l-1.9,5.5l-0.1,0.3c-0.3,0.6-0.8,0.9-1.4,0.9c-0.2,0-0.4,0-0.6-0.1v-1l0.2,0
				c0.2,0,0.4,0,0.5-0.1c0.1-0.1,0.2-0.2,0.3-0.4l0.1-0.4l-1.7-4.8h1.4L44.3,167.9z"/>
			<path class="st4" d="M46.8,167.2c0-0.5,0.1-0.9,0.3-1.3s0.4-0.7,0.8-0.9s0.7-0.3,1.2-0.3c0.6,0,1.2,0.2,1.6,0.6s0.6,0.9,0.7,1.6
				l0,0.3c0,0.7-0.2,1.3-0.6,1.8c-0.4,0.4-1,0.7-1.6,0.7s-1.2-0.2-1.6-0.7C47,168.6,46.8,168,46.8,167.2L46.8,167.2z M48.1,167.3
				c0,0.5,0.1,0.8,0.3,1c0.2,0.2,0.4,0.4,0.7,0.4c0.3,0,0.5-0.1,0.7-0.4s0.3-0.6,0.3-1.1c0-0.4-0.1-0.8-0.3-1
				c-0.2-0.2-0.4-0.4-0.7-0.4c-0.3,0-0.6,0.1-0.7,0.4C48.2,166.4,48.1,166.8,48.1,167.3z"/>
			<path class="st4" d="M54.9,169.2c-0.3,0.4-0.7,0.6-1.3,0.6c-0.5,0-0.9-0.1-1.2-0.4c-0.3-0.3-0.4-0.7-0.4-1.3v-3.1h1.3v3.1
				c0,0.5,0.2,0.7,0.7,0.7c0.4,0,0.7-0.1,0.9-0.4v-3.4h1.3v4.8H55L54.9,169.2z"/>
			<path class="st4" d="M59.8,166.1c-0.2,0-0.3,0-0.5,0c-0.5,0-0.8,0.2-0.9,0.5v3.1h-1.3v-4.8h1.2l0,0.6c0.3-0.4,0.6-0.7,1.1-0.7
				c0.1,0,0.3,0,0.4,0.1L59.8,166.1z"/>
			<path class="st4" d="M66.4,167H64l-0.5,2.6h-1.3l1.1-6.4h4.1l-0.2,1.1h-2.8l-0.3,1.7h2.5L66.4,167z"/>
			<path class="st4" d="M69.6,164.8c0.4,0,0.8,0.1,1.1,0.3c0.3,0.2,0.5,0.5,0.7,0.9c0.1,0.4,0.2,0.8,0.2,1.2
				c-0.1,0.8-0.3,1.4-0.8,1.8c-0.5,0.5-1,0.7-1.7,0.7c-0.4,0-0.8-0.1-1.1-0.3c-0.3-0.2-0.5-0.5-0.7-0.9s-0.2-0.8-0.2-1.2
				c0.1-0.8,0.3-1.4,0.8-1.9S69,164.8,69.6,164.8z M68.4,167.8c0,0.3,0.1,0.5,0.2,0.7c0.1,0.2,0.3,0.2,0.5,0.3
				c0.4,0,0.7-0.2,0.9-0.5s0.3-0.8,0.3-1.4c0-0.3-0.1-0.5-0.2-0.7c-0.1-0.2-0.3-0.3-0.5-0.3c-0.4,0-0.7,0.2-0.9,0.5
				S68.4,167.2,68.4,167.8z"/>
			<path class="st4" d="M75.1,166.1c-0.2,0-0.3,0-0.4,0c-0.4,0-0.8,0.2-1.1,0.5l-0.5,3.1h-1.2l0.8-4.8l1.2,0l-0.1,0.6
				c0.3-0.4,0.7-0.7,1.1-0.7c0.1,0,0.3,0,0.4,0.1L75.1,166.1z"/>
			<path class="st4" d="M75.3,167.3c0.1-0.7,0.3-1.3,0.7-1.8c0.4-0.5,0.9-0.7,1.5-0.7c0.5,0,0.9,0.2,1.1,0.5l0.2-0.5l1.1,0l-0.8,4.6
				c-0.1,0.6-0.4,1.1-0.8,1.5s-1,0.5-1.7,0.5c-0.3,0-0.6-0.1-0.9-0.2c-0.3-0.1-0.5-0.3-0.7-0.6l0.6-0.8c0.3,0.3,0.6,0.5,1,0.5
				c0.3,0,0.6-0.1,0.8-0.3c0.2-0.2,0.4-0.4,0.5-0.8l0.1-0.3c-0.3,0.3-0.7,0.5-1.2,0.5c-0.5,0-0.8-0.2-1.1-0.5
				c-0.3-0.3-0.4-0.8-0.4-1.3C75.2,167.7,75.2,167.5,75.3,167.3z M76.5,167.8c0,0.3,0.1,0.5,0.2,0.7c0.1,0.2,0.3,0.3,0.5,0.3
				c0.3,0,0.6-0.1,0.9-0.4l0.4-2c-0.1-0.3-0.4-0.4-0.7-0.4c-0.3,0-0.6,0.1-0.8,0.4c-0.2,0.3-0.4,0.6-0.4,1.1
				C76.5,167.5,76.5,167.7,76.5,167.8z"/>
			<path class="st4" d="M82.3,169.7c-0.4,0-0.8-0.1-1.1-0.3c-0.3-0.2-0.6-0.5-0.7-0.8c-0.2-0.3-0.2-0.7-0.2-1.2l0-0.2
				c0-0.5,0.2-0.9,0.4-1.3s0.5-0.7,0.9-0.9c0.4-0.2,0.7-0.3,1.2-0.3c0.6,0,1.1,0.2,1.4,0.7c0.3,0.4,0.4,1,0.4,1.7l-0.1,0.5h-2.9
				c0,0.3,0.1,0.6,0.2,0.7s0.4,0.3,0.7,0.3c0.5,0,0.8-0.2,1.2-0.5l0.6,0.7c-0.2,0.3-0.4,0.5-0.8,0.6
				C83.1,169.7,82.7,169.7,82.3,169.7z M82.7,165.8c-0.2,0-0.4,0.1-0.6,0.2s-0.3,0.4-0.5,0.8h1.7l0-0.1c0-0.1,0-0.2,0-0.3
				c0-0.2-0.1-0.3-0.2-0.4C83,165.9,82.9,165.8,82.7,165.8z"/>
			<path class="st4" d="M85.6,171.3l-0.7-0.3l0.2-0.3c0.2-0.4,0.3-0.7,0.3-1.1v-1h1.1l0,0.9c0,0.3-0.1,0.7-0.2,1
				S85.9,171,85.6,171.3z"/>
			<path class="st4" d="M91.3,163.7v1.2h0.8v0.9h-0.8v2.4c0,0.2,0,0.3,0.1,0.4s0.2,0.1,0.4,0.1c0.1,0,0.3,0,0.4,0v1
				c-0.2,0.1-0.5,0.1-0.8,0.1c-0.9,0-1.3-0.4-1.4-1.3v-2.6h-0.7v-0.9H90v-1.2H91.3z"/>
			<path class="st4" d="M94,165.4c0.3-0.4,0.8-0.6,1.3-0.6c1,0,1.6,0.6,1.6,1.8v3h-1.3v-3c0-0.3-0.1-0.5-0.2-0.6
				c-0.1-0.1-0.3-0.2-0.6-0.2c-0.4,0-0.6,0.1-0.8,0.4v3.4h-1.3v-6.8H94V165.4z"/>
			<path class="st4" d="M100,169.7c-0.7,0-1.3-0.2-1.7-0.6c-0.4-0.4-0.7-1-0.7-1.7v-0.1c0-0.5,0.1-0.9,0.3-1.3
				c0.2-0.4,0.4-0.7,0.8-0.9c0.3-0.2,0.7-0.3,1.2-0.3c0.7,0,1.2,0.2,1.5,0.6c0.4,0.4,0.6,1,0.6,1.7v0.5h-3c0,0.3,0.2,0.6,0.4,0.7
				c0.2,0.2,0.5,0.3,0.8,0.3c0.5,0,0.9-0.2,1.1-0.5l0.6,0.7c-0.2,0.3-0.4,0.5-0.8,0.6C100.8,169.7,100.4,169.7,100,169.7z
				 M99.9,165.8c-0.3,0-0.5,0.1-0.6,0.3s-0.3,0.4-0.3,0.7h1.8v-0.1c0-0.3-0.1-0.5-0.2-0.7S100.1,165.8,99.9,165.8z"/>
			<path class="st4" d="M103.8,164.9l0,0.5c0.3-0.4,0.8-0.6,1.4-0.6c0.5,0,0.9,0.1,1.1,0.4s0.4,0.7,0.4,1.3v3.1h-1.3v-3
				c0-0.3-0.1-0.5-0.2-0.6s-0.3-0.2-0.6-0.2c-0.4,0-0.6,0.2-0.8,0.5v3.4h-1.3v-4.8H103.8z"/>
			<path class="st8" d="M111.6,169.6h-1.5v-6.4h1.5V169.6z"/>
			<path class="st8" d="M117.9,168.9c-0.2,0.3-0.6,0.5-1,0.6s-1,0.2-1.5,0.2c-0.8,0-1.5-0.3-2-0.8c-0.5-0.5-0.8-1.2-0.8-2.1l0-0.6
				c0-0.6,0.1-1.2,0.3-1.7c0.2-0.5,0.5-0.8,1-1.1c0.4-0.3,0.9-0.4,1.4-0.4c0.8,0,1.4,0.2,1.9,0.5c0.4,0.4,0.7,0.9,0.8,1.6h-1.5
				c-0.1-0.4-0.2-0.6-0.3-0.8s-0.4-0.2-0.7-0.2c-0.4,0-0.7,0.2-0.9,0.5s-0.3,0.8-0.3,1.4v0.4c0,0.6,0.1,1.1,0.3,1.4
				c0.2,0.3,0.6,0.5,1,0.5c0.4,0,0.7-0.1,0.9-0.3v-1h-1.1v-1.1h2.6V168.9z"/>
			<path class="st8" d="M124.2,169.6h-1.5l-2.3-4v4h-1.5v-6.4h1.5l2.3,4v-4h1.5V169.6z"/>
			<path class="st8" d="M126.8,169.6h-1.5v-6.4h1.5V169.6z"/>
			<path class="st8" d="M132.7,164.4h-1.9v5.2h-1.5v-5.2h-1.9v-1.2h5.3V164.4z"/>
			<path class="st8" d="M137.4,166.9h-2.4v1.5h2.9v1.2h-4.4v-6.4h4.4v1.2h-2.9v1.3h2.4V166.9z"/>
		</g>
		<ellipse class="st2" cx="42" cy="216" rx="24" ry="18"/>
		<ellipse class="st2" cx="90" cy="216" rx="24" ry="18"/>
		<g>
			<g>
				<rect x="27" y="200.3" class="st5" width="24" height="36"/>
				<path class="st8" d="M40.3,207.2c0.7-0.7,1.8-1.8,3.2-3.3c0,2.2,0,5.4,0,9.7c-0.4,0.4-0.9,0.9-1.6,1.6c-0.4-0.4-0.9-0.9-1.6-1.6
					C40.3,212.2,40.3,210.1,40.3,207.2z M40.3,218.5c0.4-0.4,0.9-0.9,1.6-1.6c0.4,0.4,0.9,0.9,1.6,1.6c0,2.2,0,5.4,0,9.7
					c-0.7-0.7-1.8-1.8-3.2-3.3C40.3,223.6,40.3,221.4,40.3,218.5z"/>
			</g>
			<g>
				<rect x="75" y="200.3" class="st5" width="24" height="36"/>
				<path class="st8" d="M96.4,203.9c-0.7,0.7-1.8,1.8-3.2,3.3c-1.5,0-3.6,0-6.5,0c-0.7-0.7-1.8-1.8-3.2-3.3
					C86.3,203.9,90.6,203.9,96.4,203.9z M83.4,228.3c0.7-0.7,1.8-1.8,3.2-3.3c1.5,0,3.6,0,6.5,0c0.7,0.7,1.8,1.8,3.2,3.3
					C93.5,228.3,89.1,228.3,83.4,228.3z M84.2,216.1c0.4-0.4,0.9-0.9,1.6-1.6c1.8,0,4.5,0,8.1,0c0.4,0.4,0.9,0.9,1.6,1.6
					c-0.4,0.4-0.9,0.9-1.6,1.7c-1.8,0-4.5,0-8.1,0C85.5,217.3,84.9,216.8,84.2,216.1z M93.9,207.2c0.7-0.7,1.8-1.8,3.3-3.3
					c0,2.2,0,5.4,0,9.7c-0.4,0.4-0.9,0.9-1.7,1.6c-0.4-0.4-0.9-0.9-1.6-1.6C93.9,212.2,93.9,210.1,93.9,207.2z M93.9,218.5
					c0.4-0.4,0.9-0.9,1.6-1.6c0.4,0.4,0.9,0.9,1.7,1.6c0,2.2,0,5.4,0,9.7c-0.7-0.7-1.8-1.8-3.3-3.3
					C93.9,223.6,93.9,221.4,93.9,218.5z"/>
			</g>
			<g>
				<rect x="123" y="200.3" class="st5" width="24" height="36"/>
				<path class="st8" d="M133.8,213.7c-0.4,0.4-0.9,0.9-1.6,1.6c-0.4-0.4-0.9-0.9-1.6-1.6c0-2.2,0-5.4,0-9.7
					c0.7,0.7,1.8,1.8,3.2,3.3C133.8,208.6,133.8,210.8,133.8,213.7z M144.4,203.9c-0.7,0.7-1.8,1.8-3.2,3.3c-1.5,0-3.6,0-6.5,0
					c-0.7-0.7-1.8-1.8-3.2-3.3C134.3,203.9,138.6,203.9,144.4,203.9z M131.4,228.3c0.7-0.7,1.8-1.8,3.2-3.3c1.5,0,3.6,0,6.5,0
					c0.7,0.7,1.8,1.8,3.2,3.3C141.5,228.3,137.1,228.3,131.4,228.3z M132.2,216.1c0.4-0.4,0.9-0.9,1.6-1.6c1.8,0,4.5,0,8.1,0
					c0.4,0.4,0.9,0.9,1.6,1.6c-0.4,0.4-0.9,0.9-1.6,1.7c-1.8,0-4.5,0-8.1,0C133.5,217.3,132.9,216.8,132.2,216.1z M141.9,218.5
					c0.4-0.4,0.9-0.9,1.6-1.6c0.4,0.4,0.9,0.9,1.7,1.6c0,2.2,0,5.4,0,9.7c-0.7-0.7-1.8-1.8-3.3-3.3
					C141.9,223.6,141.9,221.4,141.9,218.5z"/>
			</g>
		</g>
		<g>
			<rect x="133.7" y="108" class="st5" width="18.2" height="18.2"/>
			<path class="st0" d="M143.4,111.5c0.4-0.4,0.9-0.9,1.6-1.6c0,1.1,0,2.7,0,4.9c-0.2,0.2-0.5,0.4-0.8,0.8c-0.2-0.2-0.5-0.4-0.8-0.8
				C143.4,114,143.4,112.9,143.4,111.5z M143.4,117.1c0.2-0.2,0.4-0.4,0.8-0.8c0.2,0.2,0.4,0.4,0.8,0.8c0,1.1,0,2.7,0,4.9
				c-0.4-0.4-0.9-0.9-1.6-1.6C143.4,119.7,143.4,118.6,143.4,117.1z"/>
		</g>
		<g>
			<circle class="st4" cx="18.9" cy="138.6" r="2.5"/>
			<g>
				<path class="st3" d="M18.5,147.3c-2.3,0-4.4-0.9-6-2.5c-1.6-1.6-2.5-3.7-2.5-6s0.9-4.4,2.5-6l12.7-12.7
					c-0.1-3.4,1.2-6.7,3.6-9.1c2.3-2.3,5.4-3.6,8.7-3.6c0.2,0,0.5,0,0.7,0l1.4,0.1l-5.8,5.8l2.1,8l8,2.1l5.8-5.8l0.1,1.4
					c0.2,3.5-1.1,6.9-3.6,9.4c-2.3,2.3-5.4,3.6-8.7,3.6c0,0-0.3,0-0.4,0l-12.7,12.7C22.9,146.4,20.8,147.3,18.5,147.3z M18.5,136.5
					c-0.6,0-1.2,0.2-1.7,0.7c-0.4,0.4-0.7,1-0.7,1.7c0,0.6,0.2,1.2,0.7,1.7c0.4,0.4,1,0.7,1.7,0.7s1.2-0.2,1.7-0.7
					c0.4-0.4,0.7-1,0.7-1.7c0-0.6-0.2-1.2-0.7-1.7C19.7,136.8,19.1,136.5,18.5,136.5z"/>
				<path class="st4" d="M37.6,108.1c0.2,0,0.4,0,0.6,0l-5.1,5.1l2.3,8.7l8.7,2.3l5.1-5.1c0.2,3.2-0.9,6.5-3.4,8.9
					c-2.3,2.3-5.3,3.4-8.3,3.4c-0.2,0-0.4,0-0.7,0l0,0L24,144.4c-1.5,1.5-3.5,2.3-5.5,2.3s-4-0.8-5.5-2.3c-3-3-3-8,0-11l12.9-12.9
					l0,0c-0.2-3.2,0.9-6.5,3.4-8.9C31.6,109.2,34.6,108.1,37.6,108.1 M18.5,141.9c0.8,0,1.5-0.3,2.1-0.9c1.2-1.2,1.2-3.1,0-4.2
					c-0.6-0.6-1.4-0.9-2.1-0.9c-0.8,0-1.5,0.3-2.1,0.9c-1.2,1.2-1.2,3.1,0,4.2C17,141.6,17.7,141.9,18.5,141.9 M37.6,106.9
					c-3.5,0-6.7,1.3-9.1,3.8c-2.5,2.5-3.8,5.8-3.8,9.3l-12.6,12.6c-3.5,3.5-3.5,9.3,0,12.8c1.7,1.7,4,2.7,6.4,2.7
					c2.4,0,4.7-0.9,6.4-2.7l12.6-12.6c0,0,0.1,0,0.1,0c3.5,0,6.7-1.3,9.1-3.8c2.6-2.6,4-6.2,3.8-9.9l-0.2-2.8l-2,2l-4.6,4.6l-7.3-2
					l-2-7.3l4.6-4.6l2-2l-2.8-0.2C38.1,106.9,37.8,106.9,37.6,106.9L37.6,106.9z M18.5,140.6c-0.5,0-0.9-0.2-1.2-0.5
					c-0.3-0.3-0.5-0.8-0.5-1.2s0.2-0.9,0.5-1.2s0.8-0.5,1.2-0.5c0.5,0,0.9,0.2,1.2,0.5c0.7,0.7,0.7,1.8,0,2.5
					C19.4,140.4,19,140.6,18.5,140.6L18.5,140.6z"/>
			</g>
		</g>
		<g>
			<g>
				<path class="st0" d="M41.1,110.4c0.4-0.4,0.9-0.9,1.6-1.6c0,1.1,0,2.7,0,4.9c-0.2,0.2-0.5,0.4-0.8,0.8c-0.2-0.2-0.5-0.4-0.8-0.8
					C41.1,112.9,41.1,111.8,41.1,110.4z M41.1,116c0.2-0.2,0.4-0.4,0.8-0.8c0.2,0.2,0.4,0.4,0.8,0.8c0,1.1,0,2.7,0,4.9
					c-0.4-0.4-0.9-0.9-1.6-1.6C41.1,118.5,41.1,117.5,41.1,116z"/>
			</g>
		</g>
		<g>
			<defs>
				<path id="SVGID_1_" d="M171,252H9c-5,0-9-4-9-9V9c0-5,4-9,9-9h162c5,0,9,4,9,9v234C180,248,176,252,171,252z"/>
			</defs>
			<clipPath id="SVGID_2_">
				<use xlink:href="#SVGID_1_"  style="overflow:visible;"/>
			</clipPath>
			<g class="st10">
				<path class="st4" d="M0,18c9.9,0,18-8.1,18-18H0V18z"/>
				<path class="st4" d="M180,234c-9.9,0-18,8.1-18,18h18V234z"/>
				<path class="st4" d="M162,0c0,9.9,8.1,18,18,18V0L162,0z"/>
				<path class="st4" d="M18,252c0-9.9-8.1-18-18-18l0,18H18z"/>
			</g>
		</g>
	</g>
</g>
<g id="Layer_2" class="st11">
	<g class="st12">
		<g>
			<polyline class="st13" points="188,252 188,258 182,258 			"/>
			<line class="st14" x1="170.8" y1="258" x2="19.6" y2="258"/>
			<polyline class="st13" points="14,258 8,258 8,252 			"/>
			<line class="st15" x1="8" y1="240.6" x2="8" y2="17.7"/>
			<polyline class="st13" points="8,12 8,6 14,6 			"/>
			<line class="st14" x1="25.2" y1="6" x2="176.4" y2="6"/>
			<polyline class="st13" points="182,6 188,6 188,12 			"/>
			<line class="st15" x1="188" y1="23.4" x2="188" y2="246.3"/>
		</g>
	</g>
</g>
</svg>
