<?xml version="1.0" encoding="utf-8"?>
<!-- Generator: Adobe Illustrator 21.1.0, SVG Export Plug-In . SVG Version: 6.00 Build 0)  -->
<svg version="1.1" xmlns="http://www.w3.org/2000/svg" xmlns:xlink="http://www.w3.org/1999/xlink" x="0px" y="0px"
	 viewBox="0 0 180 252" style="enable-background:new 0 0 180 252;" xml:space="preserve">
<style type="text/css">
	.st0{fill:#333333;}
	.st1{fill:#CBCBCA;stroke:#982020;stroke-width:2.5;stroke-miterlimit:10;}
	.st2{fill:#333333;stroke:#982020;stroke-width:2.5;stroke-miterlimit:10;}
	.st3{fill:#676767;}
	.st4{fill:#CBCBCA;}
	.st5{fill:none;}
	.st6{fill:#CBA12C;}
	.st7{fill:#982020;}
	.st8{fill:#CB7A29;}
	.st9{fill:none;stroke:#CBCBCA;stroke-width:2.5;stroke-linecap:round;stroke-linejoin:round;stroke-miterlimit:10;}
	.st10{clip-path:url(#SVGID_2_);}
	.st11{display:none;}
	.st12{display:inline;}
	.st13{fill:none;stroke:#991F1F;stroke-width:2;stroke-miterlimit:10;}
	.st14{fill:none;stroke:#991F1F;stroke-width:2;stroke-miterlimit:10;stroke-dasharray:11.2,11.2;}
	.st15{fill:none;stroke:#991F1F;stroke-width:2;stroke-miterlimit:10;stroke-dasharray:11.4286,11.4286;}
</style>
<g id="Layer_1">
	<g>
		<g>
			<g id="XMLID_42_">
				<g>
				</g>
				<g>
				</g>
			</g>
			<g id="XMLID_41_">
				<g>
				</g>
				<g>
				</g>
			</g>
			<g id="XMLID_40_">
				<g>
				</g>
				<g>
				</g>
			</g>
		</g>
		<path class="st0" d="M162,252H18c0-9.9-8.1-18-18-18V18c9.9,0,18-8.1,18-18h144c0,9.9,8.1,18,18,18v216
			C170.1,234,162,242.1,162,252z"/>
		<path class="st1" d="M144,234H36c-9.9,0-18-8.1-18-18V36c0-9.9,8.1-18,18-18h108c9.9,0,18,8.1,18,18v180
			C162,225.9,153.9,234,144,234z"/>
		<path class="st2" d="M126,216H54c-9.9,0-18-8.1-18-18v-53.8c0-9.9,8.1-18,18-18h72c9.9,0,18,8.1,18,18V198
			C144,207.9,135.9,216,126,216z"/>
		<path class="st2" d="M126,108H54c-9.9,0-18-8.1-18-18V54c0-9.9,8.1-18,18-18h72c9.9,0,18,8.1,18,18v36C144,99.9,135.9,108,126,108
			z"/>
		<g>
			<path class="st3" d="M139.3,137.9l-2.7-4.6c-1.2-0.5-2.4-1.2-3.5-2h-5.4l-4.9-8.5l2.7-4.6c-0.1-0.7-0.1-1.4-0.1-2
				c0-0.6,0-1.3,0.1-2l-2.7-4.6l4.9-8.5h5.4c1.1-0.8,2.3-1.5,3.5-2l2.7-4.6h9.8l2.7,4.6c1.2,0.5,2.4,1.2,3.5,2h5.4l4.9,8.5l-2.7,4.6
				c0.1,0.7,0.1,1.4,0.1,2c0,0.6,0,1.3-0.1,2l2.7,4.6l-4.9,8.5h-5.4c-1.1,0.8-2.3,1.5-3.5,2l-2.7,4.6H139.3z M144.3,107.6
				c-4.7,0-8.5,3.8-8.5,8.5s3.8,8.5,8.5,8.5s8.5-3.8,8.5-8.5S148.9,107.6,144.3,107.6z"/>
			<path class="st4" d="M148.8,94.8l2.6,4.5c1.3,0.6,2.6,1.3,3.7,2.2h5.2l4.5,7.9l-2.6,4.5c0.1,0.7,0.1,1.4,0.1,2.2
				c0,0.7-0.1,1.5-0.1,2.2l2.6,4.5l-4.5,7.9h-5.2c-1.2,0.9-2.4,1.6-3.7,2.2l-2.6,4.5h-9.1l-2.6-4.5c-1.3-0.6-2.6-1.3-3.7-2.2h-5.2
				l-4.5-7.9l2.6-4.5c-0.1-0.7-0.1-1.4-0.1-2.2c0-0.7,0.1-1.5,0.1-2.2l-2.6-4.5l4.5-7.9h5.2c1.2-0.9,2.4-1.6,3.7-2.2l2.6-4.5H148.8
				 M144.3,125.1c5,0,9.1-4.1,9.1-9.1c0-5-4.1-9.1-9.1-9.1c-5,0-9.1,4.1-9.1,9.1C135.2,121.1,139.2,125.1,144.3,125.1 M149.5,93.6
				h-0.7h-9.1H139l-0.4,0.6l-2.4,4.1c-1.1,0.5-2.2,1.2-3.3,1.9h-4.8h-0.7l-0.4,0.6l-4.5,7.9l-0.4,0.6l0.4,0.6l2.4,4.1
				c-0.1,0.7-0.1,1.3-0.1,1.9c0,0.6,0,1.2,0.1,1.9l-2.4,4.1l-0.4,0.6l0.4,0.6l4.5,7.9l0.4,0.6h0.7h4.8c1.1,0.8,2.2,1.4,3.3,1.9
				l2.4,4.1l0.4,0.6h0.7h9.1h0.7l0.4-0.6l2.4-4.1c1.1-0.5,2.2-1.2,3.3-1.9h4.8h0.7l0.4-0.6l4.5-7.9l0.4-0.6l-0.4-0.6l-2.4-4.1
				c0.1-0.7,0.1-1.3,0.1-1.9c0-0.6,0-1.2-0.1-1.9l2.4-4.1l0.4-0.6l-0.4-0.6l-4.5-7.9l-0.4-0.6h-0.7h-4.8c-1.1-0.8-2.2-1.4-3.3-1.9
				l-2.4-4.1L149.5,93.6L149.5,93.6z M144.3,123.9c-4.3,0-7.8-3.5-7.8-7.8s3.5-7.8,7.8-7.8s7.8,3.5,7.8,7.8S148.6,123.9,144.3,123.9
				L144.3,123.9z"/>
		</g>
		<g>
			<rect x="18" y="27" class="st5" width="18" height="18"/>
			<path class="st6" d="M26.4,39.4c-0.4,0.4-0.9,0.9-1.6,1.6c0-1.1,0-2.7,0-4.9c0.2-0.2,0.4-0.4,0.8-0.8c0.2,0.2,0.4,0.4,0.8,0.8
				C26.4,36.9,26.4,37.9,26.4,39.4z M31.7,28.8c-0.4,0.4-0.9,0.9-1.6,1.6c-0.7,0-1.8,0-3.3,0c-0.4-0.4-0.9-0.9-1.6-1.6
				C26.6,28.8,28.8,28.8,31.7,28.8z M25.2,41c0.4-0.4,0.9-0.9,1.6-1.6c0.7,0,1.8,0,3.3,0c0.4,0.4,0.9,0.9,1.6,1.6
				C30.2,41,28.1,41,25.2,41z M25.6,34.9c0.2-0.2,0.4-0.4,0.8-0.8c0.9,0,2.3,0,4,0c0.2,0.2,0.5,0.5,0.8,0.8
				c-0.2,0.2-0.4,0.5-0.8,0.8c-0.9,0-2.2,0-4,0C26.2,35.5,26,35.3,25.6,34.9z M30.5,30.5c0.4-0.4,0.9-0.9,1.6-1.6c0,1.1,0,2.7,0,4.9
				c-0.2,0.2-0.5,0.4-0.8,0.8c-0.2-0.2-0.4-0.4-0.8-0.8C30.5,33,30.5,31.9,30.5,30.5z"/>
		</g>
		<g>
			<polygon class="st6" points="46.8,21.7 36,28.7 39.6,28.7 36,36 46.8,29.1 43.2,29.1 46.8,21.7 			"/>
		</g>
		<g>
			<rect x="72" y="112.5" class="st5" width="36" height="12"/>
			<path class="st0" d="M79.8,121.5V113h3.1c1.1,0,1.9,0.2,2.5,0.6s0.9,1,0.9,1.8c0,0.4-0.1,0.8-0.3,1.1s-0.5,0.5-0.9,0.7
				c0.4,0.1,0.8,0.3,1,0.7s0.4,0.7,0.4,1.2c0,0.8-0.3,1.5-0.8,1.9s-1.3,0.6-2.4,0.6H79.8z M81.8,116.5h1.1c0.4,0,0.8-0.1,1-0.2
				c0.2-0.2,0.3-0.4,0.3-0.7c0-0.4-0.1-0.6-0.3-0.8c-0.2-0.2-0.5-0.2-1-0.2h-1V116.5z M81.8,117.9v2h1.3c0.4,0,0.7-0.1,0.9-0.3
				s0.3-0.4,0.3-0.7c0-0.7-0.4-1.1-1.1-1.1H81.8z"/>
			<path class="st0" d="M94.7,117.4c0,0.8-0.2,1.6-0.5,2.2s-0.7,1.1-1.3,1.5s-1.2,0.5-1.9,0.5s-1.4-0.2-1.9-0.5s-1-0.8-1.3-1.4
				s-0.5-1.3-0.5-2.1v-0.5c0-0.8,0.2-1.6,0.5-2.2s0.7-1.1,1.3-1.5s1.2-0.5,2-0.5c0.7,0,1.4,0.2,1.9,0.5s1,0.8,1.3,1.5
				s0.5,1.4,0.5,2.2V117.4z M92.6,117.1c0-0.8-0.1-1.5-0.4-1.9s-0.7-0.7-1.2-0.7c-1,0-1.6,0.8-1.6,2.3l0,0.6c0,0.8,0.1,1.5,0.4,1.9
				s0.7,0.7,1.2,0.7c0.5,0,0.9-0.2,1.2-0.7s0.4-1.1,0.4-1.9V117.1z"/>
			<path class="st0" d="M102,114.6h-2.6v6.9h-2.1v-6.9h-2.5V113h7.1V114.6z"/>
		</g>
		<g>
			<g id="XMLID_39_">
				<g>
					<path class="st7" d="M48.1,198.3h-3.5c0,0-3-2-2-5c0,0-5,3-5,5h-3.5c0,0-2-5,3-7s-2-7-2-7C51.1,186.3,48.1,198.3,48.1,198.3z"
						/>
					<path class="st8" d="M44.6,198.3h-7c0-2,5-5,5-5C41.6,196.3,44.6,198.3,44.6,198.3z"/>
				</g>
				<g>
				</g>
			</g>
			<g id="XMLID_38_">
				<g>
					<path class="st7" d="M94.2,199.3c0-3-7.5-7.5-7.5-7.5c1.5,4.5-3,7.5-3,7.5h-5.3c0,0-4.5-18,19.5-21c0,0-10.5,7.5-3,10.5
						s4.5,10.5,4.5,10.5H94.2z"/>
					<path class="st8" d="M86.7,191.8c0,0,7.5,4.5,7.5,7.5H83.7C83.7,199.3,88.2,196.3,86.7,191.8z"/>
				</g>
				<g>
				</g>
			</g>
			<g id="XMLID_37_">
				<g>
					<path class="st7" d="M151.2,200.3h-7c0,0-6-4-4-10c0,0-10,6-10,10h-7c0,0-4-10,6-14s-4-14-4-14
						C157.2,176.3,151.2,200.3,151.2,200.3z"/>
					<path class="st8" d="M140.2,190.3c-2,6,4,10,4,10h-14C130.2,196.3,140.2,190.3,140.2,190.3z"/>
				</g>
				<g>
				</g>
			</g>
		</g>
		<g>
			<rect x="18" y="3.8" class="st5" width="144" height="12"/>
			<path class="st4" d="M62,9.7h-1.1v3h-2.1V4.2h3.4c1,0,1.8,0.2,2.4,0.7c0.6,0.4,0.9,1.1,0.9,1.9c0,0.6-0.1,1.1-0.4,1.5
				S64.4,9,63.9,9.2l1.8,3.4v0.1h-2.2L62,9.7z M60.9,8.2h1.3c0.4,0,0.7-0.1,0.9-0.3c0.2-0.2,0.3-0.5,0.3-0.9S63.2,6.3,63,6.1
				s-0.5-0.3-0.9-0.3h-1.3V8.2z"/>
			<path class="st4" d="M71.9,9.1h-3.2v2h3.8v1.6h-5.9V4.2h5.9v1.6h-3.8v1.8h3.2V9.1z"/>
			<path class="st4" d="M75.4,9.9v2.9h-2.1V4.2h3.4c0.7,0,1.2,0.1,1.7,0.4s0.9,0.6,1.2,1s0.4,0.9,0.4,1.5c0,0.8-0.3,1.5-0.9,2
				s-1.4,0.7-2.5,0.7H75.4z M75.4,8.3h1.3c0.4,0,0.7-0.1,0.9-0.3S78,7.5,78,7.1c0-0.4-0.1-0.7-0.3-1s-0.5-0.4-0.9-0.4h-1.4V8.3z"/>
			<path class="st4" d="M85,11.2h-2.8l-0.5,1.6h-2.2l3.1-8.5h1.9l3.2,8.5h-2.2L85,11.2z M82.6,9.6h1.8l-0.9-3L82.6,9.6z"/>
			<path class="st4" d="M90.5,12.8h-2.1V4.2h2.1V12.8z"/>
			<path class="st4" d="M95.1,9.7H94v3h-2.1V4.2h3.4c1,0,1.8,0.2,2.4,0.7c0.6,0.4,0.9,1.1,0.9,1.9c0,0.6-0.1,1.1-0.4,1.5
				S97.5,9,97,9.2l1.8,3.4v0.1h-2.2L95.1,9.7z M94,8.2h1.3c0.4,0,0.7-0.1,0.9-0.3c0.2-0.2,0.3-0.5,0.3-0.9s-0.1-0.7-0.3-0.9
				s-0.5-0.3-0.9-0.3H94V8.2z"/>
			<path class="st4" d="M99.7,12.8V4.2h3.1c1.1,0,1.9,0.2,2.5,0.6s0.9,1,0.9,1.8c0,0.4-0.1,0.8-0.3,1.1s-0.5,0.5-0.9,0.7
				c0.4,0.1,0.8,0.3,1,0.7s0.4,0.7,0.4,1.2c0,0.8-0.3,1.5-0.8,1.9s-1.3,0.6-2.4,0.6H99.7z M101.8,7.8h1.1c0.4,0,0.8-0.1,1-0.2
				c0.2-0.2,0.3-0.4,0.3-0.7c0-0.4-0.1-0.6-0.3-0.8c-0.2-0.2-0.5-0.2-1-0.2h-1V7.8z M101.8,9.1v2h1.3c0.4,0,0.7-0.1,0.9-0.3
				s0.3-0.4,0.3-0.7c0-0.7-0.4-1.1-1.1-1.1H101.8z"/>
			<path class="st4" d="M114.7,8.7c0,0.8-0.2,1.6-0.5,2.2s-0.7,1.1-1.3,1.5s-1.2,0.5-1.9,0.5s-1.4-0.2-1.9-0.5s-1-0.8-1.3-1.4
				s-0.5-1.3-0.5-2.1V8.3c0-0.8,0.2-1.6,0.5-2.2s0.7-1.1,1.3-1.5s1.2-0.5,2-0.5c0.7,0,1.4,0.2,1.9,0.5s1,0.8,1.3,1.5
				s0.5,1.4,0.5,2.2V8.7z M112.6,8.3c0-0.8-0.1-1.5-0.4-1.9s-0.7-0.7-1.2-0.7c-1,0-1.6,0.8-1.6,2.3l0,0.6c0,0.8,0.1,1.5,0.4,1.9
				s0.7,0.7,1.2,0.7c0.5,0,0.9-0.2,1.2-0.7s0.4-1.1,0.4-1.9V8.3z"/>
			<path class="st4" d="M122,5.8h-2.6v6.9h-2.1V5.8h-2.5V4.2h7.1V5.8z"/>
		</g>
		<g>
			<path class="st9" d="M34.1,198.3c0,0-2-5,3-7s-2-7-2-7c16,2,13,14,13,14"/>
			<path class="st9" d="M78.4,199.3c0,0-4.5-18,19.5-21c0,0-10.5,7.5-3,10.5s4.5,10.5,4.5,10.5"/>
			<path class="st9" d="M123.2,200.3c0,0-4-10,6-14s-4-14-4-14c32,4,26,28,26,28"/>
		</g>
		<ellipse class="st2" cx="138" cy="216" rx="24" ry="18"/>
		<g>
			<rect x="40.5" y="134.6" class="st5" width="99" height="45.4"/>
			<path class="st4" d="M49.8,140.7c0.1-0.4-0.1-0.8-0.6-1l-1-0.4c-1.2-0.5-1.8-1.3-1.7-2.2c0-0.4,0.2-0.8,0.4-1.2
				c0.3-0.3,0.6-0.6,1.1-0.8c0.5-0.2,1-0.3,1.5-0.3c0.8,0,1.4,0.2,1.8,0.7c0.5,0.4,0.7,1,0.7,1.7h-1.6c0-0.4-0.1-0.6-0.2-0.8
				c-0.2-0.2-0.4-0.3-0.8-0.3c-0.4,0-0.7,0.1-0.9,0.2c-0.3,0.2-0.4,0.4-0.5,0.7c-0.1,0.4,0.2,0.7,0.8,0.9l0.7,0.3l0.4,0.2
				c1.1,0.5,1.6,1.3,1.5,2.2c0,0.5-0.2,0.9-0.4,1.2c-0.3,0.3-0.6,0.6-1.1,0.8c-0.5,0.2-1,0.3-1.5,0.3c-0.6,0-1-0.1-1.5-0.3
				c-0.4-0.2-0.8-0.5-1-0.9c-0.2-0.4-0.3-0.8-0.3-1.3l1.6,0c-0.1,0.8,0.4,1.3,1.3,1.3c0.4,0,0.7-0.1,0.9-0.3
				C49.6,141.2,49.7,141,49.8,140.7z"/>
			<path class="st4" d="M55.6,142.2c-0.4,0.5-1,0.7-1.6,0.7c-0.6,0-1-0.2-1.3-0.6c-0.3-0.4-0.4-0.9-0.3-1.6L53,137h1.5l-0.6,3.8
				c0,0.1,0,0.2,0,0.3c0,0.4,0.2,0.5,0.6,0.6c0.5,0,0.9-0.2,1.2-0.5l0.7-4.1h1.5l-1,5.8h-1.4L55.6,142.2z"/>
			<path class="st4" d="M60.4,137l-0.1,0.7c0.5-0.5,1-0.8,1.7-0.8c0.4,0,0.7,0.1,0.9,0.2c0.2,0.2,0.4,0.4,0.5,0.6
				c0.5-0.6,1.1-0.9,1.8-0.9c0.5,0,0.9,0.2,1.2,0.5c0.3,0.4,0.4,0.9,0.3,1.5l0,0.1l-0.6,3.7h-1.5l0.6-3.7c0-0.1,0-0.3,0-0.4
				c0-0.4-0.2-0.6-0.6-0.6c-0.4,0-0.8,0.2-1.1,0.7l0,0.1l-0.7,3.9h-1.5l0.6-3.7c0-0.1,0-0.3,0-0.4c0-0.4-0.2-0.6-0.6-0.6
				c-0.4,0-0.7,0.2-1,0.5l-0.7,4.1H58l1-5.8L60.4,137z"/>
			<path class="st4" d="M69.7,137l-0.1,0.7c0.5-0.5,1-0.8,1.7-0.8c0.4,0,0.7,0.1,0.9,0.2c0.2,0.2,0.4,0.4,0.5,0.6
				c0.5-0.6,1.1-0.9,1.8-0.9c0.5,0,0.9,0.2,1.2,0.5c0.3,0.4,0.4,0.9,0.3,1.5l0,0.1l-0.6,3.7h-1.5l0.6-3.7c0-0.1,0-0.3,0-0.4
				c0-0.4-0.2-0.6-0.6-0.6c-0.4,0-0.8,0.2-1.1,0.7l0,0.1l-0.7,3.9h-1.5l0.6-3.7c0-0.1,0-0.3,0-0.4c0-0.4-0.2-0.6-0.6-0.6
				c-0.4,0-0.7,0.2-1,0.5l-0.7,4.1h-1.5l1-5.8L69.7,137z"/>
			<path class="st4" d="M79.9,136.9c0.5,0,1,0.1,1.3,0.4c0.4,0.3,0.6,0.6,0.8,1.1c0.2,0.4,0.2,0.9,0.2,1.5c-0.1,0.9-0.4,1.7-1,2.2
				c-0.6,0.6-1.3,0.8-2.1,0.8c-0.5,0-0.9-0.1-1.3-0.4c-0.4-0.3-0.6-0.6-0.8-1c-0.2-0.4-0.2-0.9-0.2-1.5c0.1-1,0.4-1.7,1-2.3
				C78.4,137.2,79.1,136.9,79.9,136.9z M78.4,140.6c0,0.3,0.1,0.6,0.2,0.8s0.4,0.3,0.6,0.3c0.5,0,0.8-0.2,1.1-0.6
				c0.3-0.4,0.4-1,0.4-1.7c0-0.3-0.1-0.6-0.3-0.8c-0.2-0.2-0.4-0.3-0.7-0.3c-0.5,0-0.8,0.2-1.1,0.6
				C78.5,139.2,78.4,139.8,78.4,140.6z"/>
			<path class="st4" d="M85.1,137l-0.1,0.7c0.5-0.5,1-0.8,1.7-0.8c0.5,0,1,0.2,1.2,0.6c0.3,0.4,0.4,0.9,0.3,1.6l-0.6,3.7H86l0.6-3.7
				c0-0.1,0-0.3,0-0.4c0-0.4-0.3-0.6-0.7-0.6c-0.4,0-0.8,0.2-1.1,0.6l-0.7,4.1h-1.5l1-5.8L85.1,137z"/>
			<path class="st4" d="M89.4,137.7c0-0.2,0.1-0.4,0.2-0.6c0.2-0.2,0.4-0.2,0.6-0.2c0.3,0,0.5,0.1,0.6,0.2c0.2,0.2,0.3,0.4,0.3,0.6
				c0,0.2-0.1,0.4-0.2,0.6c-0.2,0.2-0.4,0.2-0.6,0.2c-0.3,0-0.5-0.1-0.6-0.2C89.5,138.1,89.4,137.9,89.4,137.7z M89.4,142.1
				c0-0.2,0.1-0.4,0.2-0.6c0.2-0.2,0.4-0.2,0.6-0.2c0.3,0,0.5,0.1,0.6,0.2c0.2,0.2,0.3,0.4,0.3,0.6c0,0.2-0.1,0.4-0.2,0.6
				s-0.4,0.2-0.6,0.2c-0.3,0-0.5-0.1-0.6-0.2S89.4,142.3,89.4,142.1z"/>
			<path class="st4" d="M98.2,140h-1.3v2.9h-1.6V135h2.9c0.9,0,1.6,0.2,2.1,0.6c0.5,0.4,0.8,1,0.8,1.7c0,0.5-0.1,1-0.3,1.3
				s-0.6,0.6-1,0.9l1.7,3.2v0.1h-1.7L98.2,140z M96.9,138.7h1.3c0.4,0,0.7-0.1,0.9-0.3s0.3-0.5,0.3-0.9c0-0.4-0.1-0.7-0.3-0.9
				c-0.2-0.2-0.5-0.3-1-0.3h-1.3V138.7z"/>
			<path class="st4" d="M104.9,142.9c-0.9,0-1.5-0.3-2.1-0.8c-0.5-0.5-0.8-1.2-0.8-2.1v-0.2c0-0.6,0.1-1.1,0.3-1.6
				c0.2-0.5,0.5-0.8,1-1.1c0.4-0.2,0.9-0.4,1.4-0.4c0.8,0,1.4,0.3,1.9,0.8c0.5,0.5,0.7,1.2,0.7,2.1v0.6h-3.7c0,0.4,0.2,0.7,0.5,0.9
				c0.3,0.2,0.6,0.3,1,0.3c0.6,0,1.1-0.2,1.4-0.7l0.8,0.9c-0.2,0.3-0.5,0.6-0.9,0.8C105.8,142.8,105.3,142.9,104.9,142.9z
				 M104.7,138.2c-0.3,0-0.6,0.1-0.7,0.3c-0.2,0.2-0.3,0.5-0.4,0.9h2.2v-0.1c0-0.3-0.1-0.6-0.3-0.8
				C105.3,138.2,105,138.2,104.7,138.2z"/>
			<path class="st4" d="M109.6,137l0,0.7c0.4-0.5,1-0.8,1.7-0.8c0.7,0,1.3,0.3,1.5,0.9c0.4-0.6,1-0.9,1.7-0.9c0.6,0,1.1,0.2,1.4,0.6
				c0.3,0.4,0.5,0.9,0.5,1.7v3.7h-1.6v-3.7c0-0.3-0.1-0.6-0.2-0.7s-0.4-0.2-0.7-0.2c-0.5,0-0.8,0.2-1,0.7l0,4h-1.6v-3.7
				c0-0.3-0.1-0.6-0.2-0.7c-0.1-0.2-0.4-0.2-0.7-0.2c-0.4,0-0.8,0.2-1,0.5v4.1h-1.6V137H109.6z"/>
			<path class="st4" d="M117.4,139.9c0-0.6,0.1-1.1,0.3-1.5s0.5-0.8,1-1c0.4-0.2,0.9-0.4,1.5-0.4c0.8,0,1.4,0.2,1.9,0.7
				c0.5,0.5,0.8,1.1,0.8,2l0,0.4c0,0.9-0.2,1.6-0.7,2.1c-0.5,0.5-1.2,0.8-2,0.8s-1.5-0.3-2-0.8C117.7,141.6,117.4,140.9,117.4,139.9
				L117.4,139.9z M119,140c0,0.6,0.1,1,0.3,1.3c0.2,0.3,0.5,0.4,0.9,0.4c0.4,0,0.7-0.1,0.9-0.4c0.2-0.3,0.3-0.8,0.3-1.4
				c0-0.5-0.1-1-0.3-1.3c-0.2-0.3-0.5-0.4-0.9-0.4c-0.4,0-0.7,0.1-0.9,0.4C119.1,138.9,119,139.4,119,140z"/>
			<path class="st4" d="M126,140.9l1.1-3.9h1.6l-2,5.8h-1.5l-2-5.8h1.6L126,140.9z"/>
			<path class="st4" d="M131.9,142.9c-0.9,0-1.5-0.3-2.1-0.8c-0.5-0.5-0.8-1.2-0.8-2.1v-0.2c0-0.6,0.1-1.1,0.3-1.6
				c0.2-0.5,0.5-0.8,1-1.1c0.4-0.2,0.9-0.4,1.4-0.4c0.8,0,1.4,0.3,1.9,0.8c0.5,0.5,0.7,1.2,0.7,2.1v0.6h-3.7c0,0.4,0.2,0.7,0.5,0.9
				c0.3,0.2,0.6,0.3,1,0.3c0.6,0,1.1-0.2,1.4-0.7l0.8,0.9c-0.2,0.3-0.5,0.6-0.9,0.8S132.4,142.9,131.9,142.9z M131.8,138.2
				c-0.3,0-0.6,0.1-0.8,0.3c-0.2,0.2-0.3,0.5-0.4,0.9h2.2v-0.1c0-0.3-0.1-0.6-0.3-0.8C132.4,138.2,132.1,138.2,131.8,138.2z"/>
			<path class="st4" d="M46.5,156c-0.1-0.1-0.1-0.3-0.2-0.5c-0.4,0.4-0.9,0.6-1.5,0.6c-0.6,0-1-0.2-1.4-0.5
				c-0.4-0.3-0.6-0.7-0.6-1.2c0-0.6,0.2-1.1,0.7-1.4c0.5-0.3,1.1-0.5,2-0.5h0.7v-0.3c0-0.3-0.1-0.5-0.2-0.6
				c-0.1-0.2-0.4-0.2-0.7-0.2c-0.3,0-0.5,0.1-0.6,0.2c-0.1,0.1-0.2,0.3-0.2,0.5H43c0-0.3,0.1-0.6,0.3-0.9c0.2-0.3,0.5-0.5,0.9-0.7
				c0.4-0.2,0.8-0.2,1.3-0.2c0.7,0,1.3,0.2,1.7,0.5c0.4,0.4,0.6,0.9,0.6,1.5v2.5c0,0.6,0.1,1,0.2,1.3v0.1H46.5z M45.2,154.9
				c0.2,0,0.4-0.1,0.6-0.2c0.2-0.1,0.3-0.2,0.4-0.4v-1h-0.6c-0.8,0-1.2,0.3-1.2,0.8l0,0.1c0,0.2,0.1,0.4,0.2,0.5
				C44.8,154.9,45,154.9,45.2,154.9z"/>
			<path class="st4" d="M50.7,156h-1.6v-8.3h1.6V156z"/>
			<path class="st4" d="M53.6,156H52v-8.3h1.6V156z"/>
			<path class="st4" d="M57.4,153.1c0-0.9,0.2-1.6,0.6-2.2c0.4-0.5,1-0.8,1.7-0.8c0.6,0,1,0.2,1.4,0.6v-3h1.6v8.3h-1.4l-0.1-0.6
				c-0.4,0.5-0.9,0.7-1.5,0.7c-0.7,0-1.2-0.3-1.6-0.8C57.6,154.8,57.4,154,57.4,153.1z M58.9,153.2c0,0.5,0.1,1,0.3,1.3
				c0.2,0.3,0.5,0.4,0.8,0.4c0.5,0,0.8-0.2,1-0.6V152c-0.2-0.4-0.5-0.6-1-0.6C59.3,151.4,58.9,152,58.9,153.2z"/>
			<path class="st4" d="M67.2,156c-0.1-0.1-0.1-0.3-0.2-0.5c-0.4,0.4-0.9,0.6-1.5,0.6c-0.6,0-1-0.2-1.4-0.5
				c-0.4-0.3-0.6-0.7-0.6-1.2c0-0.6,0.2-1.1,0.7-1.4c0.5-0.3,1.1-0.5,2-0.5h0.7v-0.3c0-0.3-0.1-0.5-0.2-0.6
				c-0.1-0.2-0.4-0.2-0.7-0.2c-0.3,0-0.5,0.1-0.6,0.2c-0.1,0.1-0.2,0.3-0.2,0.5h-1.6c0-0.3,0.1-0.6,0.3-0.9c0.2-0.3,0.5-0.5,0.9-0.7
				c0.4-0.2,0.8-0.2,1.3-0.2c0.7,0,1.3,0.2,1.7,0.5c0.4,0.4,0.6,0.9,0.6,1.5v2.5c0,0.6,0.1,1,0.2,1.3v0.1H67.2z M65.9,154.9
				c0.2,0,0.4-0.1,0.6-0.2c0.2-0.1,0.3-0.2,0.4-0.4v-1h-0.6c-0.8,0-1.2,0.3-1.2,0.8l0,0.1c0,0.2,0.1,0.4,0.2,0.5
				C65.5,154.9,65.6,154.9,65.9,154.9z"/>
			<path class="st4" d="M71.2,150.2l0,0.7c0.4-0.5,1-0.8,1.7-0.8c0.7,0,1.3,0.3,1.5,0.9c0.4-0.6,1-0.9,1.7-0.9
				c0.6,0,1.1,0.2,1.4,0.6s0.5,0.9,0.5,1.7v3.7h-1.6v-3.7c0-0.3-0.1-0.6-0.2-0.7s-0.4-0.2-0.7-0.2c-0.5,0-0.8,0.2-1,0.7l0,4h-1.6
				v-3.7c0-0.3-0.1-0.6-0.2-0.7c-0.1-0.2-0.4-0.2-0.7-0.2c-0.4,0-0.8,0.2-1,0.5v4.1h-1.6v-5.8H71.2z"/>
			<path class="st4" d="M82.6,156c-0.1-0.1-0.1-0.3-0.2-0.5c-0.4,0.4-0.9,0.6-1.5,0.6c-0.6,0-1-0.2-1.4-0.5
				c-0.4-0.3-0.6-0.7-0.6-1.2c0-0.6,0.2-1.1,0.7-1.4c0.5-0.3,1.1-0.5,2-0.5h0.7v-0.3c0-0.3-0.1-0.5-0.2-0.6
				c-0.1-0.2-0.4-0.2-0.7-0.2c-0.3,0-0.5,0.1-0.6,0.2c-0.1,0.1-0.2,0.3-0.2,0.5h-1.6c0-0.3,0.1-0.6,0.3-0.9c0.2-0.3,0.5-0.5,0.9-0.7
				c0.4-0.2,0.8-0.2,1.3-0.2c0.7,0,1.3,0.2,1.7,0.5c0.4,0.4,0.6,0.9,0.6,1.5v2.5c0,0.6,0.1,1,0.2,1.3v0.1H82.6z M81.3,154.9
				c0.2,0,0.4-0.1,0.6-0.2c0.2-0.1,0.3-0.2,0.4-0.4v-1h-0.6c-0.8,0-1.2,0.3-1.2,0.8l0,0.1c0,0.2,0.1,0.4,0.2,0.5
				C80.9,154.9,81.1,154.9,81.3,154.9z"/>
			<path class="st4" d="M84.9,153.1c0-0.9,0.2-1.6,0.6-2.2c0.4-0.5,1-0.8,1.7-0.8c0.6,0,1.1,0.2,1.5,0.7l0.1-0.5h1.4v5.6
				c0,0.5-0.1,1-0.3,1.3c-0.2,0.4-0.6,0.7-1,0.9c-0.4,0.2-0.9,0.3-1.5,0.3c-0.4,0-0.8-0.1-1.2-0.3s-0.7-0.4-0.9-0.7l0.7-0.9
				c0.4,0.4,0.9,0.7,1.4,0.7c0.4,0,0.7-0.1,1-0.3c0.2-0.2,0.3-0.5,0.3-0.9v-0.3c-0.4,0.4-0.8,0.6-1.4,0.6c-0.7,0-1.3-0.3-1.7-0.8
				C85.1,154.8,84.9,154,84.9,153.1L84.9,153.1z M86.4,153.2c0,0.5,0.1,0.9,0.3,1.2c0.2,0.3,0.5,0.5,0.9,0.5c0.5,0,0.8-0.2,1-0.5
				v-2.5c-0.2-0.4-0.5-0.5-1-0.5c-0.4,0-0.7,0.2-0.9,0.5C86.6,152.1,86.4,152.6,86.4,153.2z"/>
			<path class="st4" d="M94.1,156.1c-0.9,0-1.5-0.3-2.1-0.8c-0.5-0.5-0.8-1.2-0.8-2.1v-0.2c0-0.6,0.1-1.1,0.3-1.6
				c0.2-0.5,0.5-0.8,1-1.1c0.4-0.2,0.9-0.4,1.4-0.4c0.8,0,1.4,0.3,1.9,0.8c0.5,0.5,0.7,1.2,0.7,2.1v0.6h-3.7
				c0.1,0.4,0.2,0.7,0.5,0.9c0.3,0.2,0.6,0.3,1,0.3c0.6,0,1.1-0.2,1.4-0.7l0.8,0.9c-0.2,0.3-0.5,0.6-0.9,0.8S94.6,156.1,94.1,156.1z
				 M93.9,151.4c-0.3,0-0.6,0.1-0.7,0.3c-0.2,0.2-0.3,0.5-0.4,0.9h2.2v-0.1c0-0.3-0.1-0.6-0.3-0.8C94.5,151.4,94.2,151.4,93.9,151.4
				z"/>
			<path class="st4" d="M100.5,156v-4.7h-0.9v-1.1h0.9v-0.5c0-0.7,0.2-1.2,0.6-1.5c0.4-0.4,0.9-0.5,1.6-0.5c0.2,0,0.5,0,0.8,0.1
				l0,1.2c-0.1,0-0.3,0-0.5,0c-0.6,0-0.9,0.3-0.9,0.8v0.5h1.2v1.1h-1.2v4.7H100.5z"/>
			<path class="st4" d="M107.3,151.7c-0.2,0-0.4,0-0.6,0c-0.6,0-1,0.2-1.2,0.6v3.8H104v-5.8h1.5l0,0.7c0.3-0.5,0.7-0.8,1.3-0.8
				c0.2,0,0.3,0,0.5,0.1L107.3,151.7z"/>
			<path class="st4" d="M107.6,153.1c0-0.6,0.1-1.1,0.3-1.5s0.5-0.8,1-1s0.9-0.4,1.5-0.4c0.8,0,1.4,0.2,1.9,0.7
				c0.5,0.5,0.8,1.1,0.8,2l0,0.4c0,0.9-0.3,1.6-0.7,2.1c-0.5,0.5-1.2,0.8-2,0.8s-1.5-0.3-2-0.8C107.9,154.8,107.6,154.1,107.6,153.1
				L107.6,153.1z M109.2,153.2c0,0.6,0.1,1,0.3,1.3c0.2,0.3,0.5,0.4,0.9,0.4c0.4,0,0.7-0.1,0.9-0.4c0.2-0.3,0.3-0.8,0.3-1.4
				c0-0.5-0.1-1-0.3-1.3c-0.2-0.3-0.5-0.4-0.9-0.4c-0.4,0-0.7,0.1-0.9,0.4C109.3,152.1,109.2,152.6,109.2,153.2z"/>
			<path class="st4" d="M115.5,150.2l0,0.7c0.4-0.5,1-0.8,1.7-0.8c0.7,0,1.3,0.3,1.5,0.9c0.4-0.6,1-0.9,1.7-0.9
				c0.6,0,1.1,0.2,1.4,0.6s0.5,0.9,0.5,1.7v3.7h-1.6v-3.7c0-0.3-0.1-0.6-0.2-0.7s-0.4-0.2-0.7-0.2c-0.5,0-0.8,0.2-1,0.7l0,4h-1.6
				v-3.7c0-0.3-0.1-0.6-0.2-0.7c-0.1-0.2-0.4-0.2-0.7-0.2c-0.4,0-0.8,0.2-1,0.5v4.1h-1.6v-5.8H115.5z"/>
			<path class="st4" d="M129.7,156c-0.1-0.1-0.1-0.3-0.2-0.5c-0.4,0.4-0.9,0.6-1.5,0.6c-0.6,0-1-0.2-1.4-0.5
				c-0.4-0.3-0.6-0.7-0.6-1.2c0-0.6,0.2-1.1,0.7-1.4c0.5-0.3,1.1-0.5,2-0.5h0.7v-0.3c0-0.3-0.1-0.5-0.2-0.6
				c-0.1-0.2-0.4-0.2-0.7-0.2c-0.3,0-0.5,0.1-0.6,0.2c-0.1,0.1-0.2,0.3-0.2,0.5h-1.6c0-0.3,0.1-0.6,0.3-0.9c0.2-0.3,0.5-0.5,0.9-0.7
				c0.4-0.2,0.8-0.2,1.3-0.2c0.7,0,1.3,0.2,1.7,0.5c0.4,0.4,0.6,0.9,0.6,1.5v2.5c0,0.6,0.1,1,0.2,1.3v0.1H129.7z M128.4,154.9
				c0.2,0,0.4-0.1,0.6-0.2c0.2-0.1,0.3-0.2,0.4-0.4v-1h-0.6c-0.8,0-1.2,0.3-1.2,0.8l0,0.1c0,0.2,0.1,0.4,0.2,0.5
				C128,154.9,128.2,154.9,128.4,154.9z"/>
			<path class="st4" d="M133.9,156h-1.6v-8.3h1.6V156z"/>
			<path class="st4" d="M136.8,156h-1.6v-8.3h1.6V156z"/>
			<path class="st4" d="M46.6,169.2l1.4-7.8l2.4,0c0.9,0,1.6,0.2,2,0.6s0.7,0.9,0.6,1.5c-0.1,0.8-0.5,1.4-1.4,1.7
				c0.3,0.1,0.6,0.3,0.7,0.6c0.2,0.3,0.2,0.6,0.2,1c-0.1,0.7-0.3,1.3-0.9,1.7c-0.5,0.4-1.2,0.6-2.2,0.6H46.6z M48.7,165.8l-0.4,2.1
				l1.2,0c0.4,0,0.7-0.1,1-0.3c0.3-0.2,0.4-0.5,0.5-0.8c0.1-0.3,0-0.6-0.1-0.8c-0.1-0.2-0.4-0.3-0.7-0.3L48.7,165.8z M48.9,164.7
				l1.1,0c0.4,0,0.7-0.1,1-0.3c0.3-0.2,0.4-0.4,0.5-0.7c0.1-0.6-0.2-0.9-1-1l-1.2,0L48.9,164.7z"/>
			<path class="st4" d="M56.7,163.3c0.5,0,1,0.1,1.3,0.4c0.4,0.3,0.6,0.6,0.8,1.1c0.2,0.4,0.2,0.9,0.2,1.5c-0.1,0.9-0.4,1.7-1,2.2
				c-0.6,0.6-1.3,0.8-2.1,0.8c-0.5,0-0.9-0.1-1.3-0.4c-0.4-0.3-0.6-0.6-0.8-1c-0.2-0.4-0.2-0.9-0.2-1.5c0.1-1,0.4-1.7,1-2.3
				C55.2,163.6,55.9,163.3,56.7,163.3z M55.1,167c0,0.3,0.1,0.6,0.2,0.8c0.2,0.2,0.4,0.3,0.6,0.3c0.5,0,0.8-0.2,1.1-0.6
				s0.4-1,0.4-1.7c0-0.3-0.1-0.6-0.3-0.8c-0.2-0.2-0.4-0.3-0.7-0.3c-0.5,0-0.8,0.2-1.1,0.6C55.2,165.6,55.1,166.2,55.1,167z"/>
			<path class="st4" d="M62.5,162l-0.3,1.4h1l-0.2,1.1h-1l-0.5,2.9c0,0.2,0,0.3,0,0.4s0.2,0.1,0.4,0.2c0.1,0,0.2,0,0.5,0l-0.1,1.2
				c-0.3,0.1-0.6,0.1-0.9,0.1c-0.5,0-0.9-0.2-1.1-0.5c-0.2-0.3-0.3-0.7-0.3-1.2l0.5-3.1h-0.8l0.2-1.1h0.8L61,162H62.5z"/>
			<path class="st4" d="M66.5,167.6c0.1-0.3-0.1-0.5-0.6-0.6l-0.5-0.1c-1.2-0.3-1.7-0.9-1.7-1.7c0-0.5,0.3-1,0.7-1.3
				c0.5-0.3,1-0.5,1.7-0.5c0.7,0,1.2,0.2,1.6,0.5c0.4,0.3,0.6,0.8,0.6,1.4l-1.5,0c0-0.5-0.2-0.8-0.7-0.8c-0.2,0-0.4,0.1-0.6,0.2
				c-0.2,0.1-0.3,0.3-0.3,0.5c-0.1,0.3,0.2,0.5,0.6,0.6l0.2,0c0.5,0.1,0.9,0.3,1.1,0.4s0.5,0.3,0.6,0.6c0.1,0.2,0.2,0.5,0.2,0.8
				c0,0.4-0.1,0.7-0.4,1c-0.2,0.3-0.5,0.5-0.9,0.6c-0.4,0.2-0.8,0.2-1.2,0.2c-0.6,0-1.2-0.2-1.6-0.6c-0.4-0.4-0.6-0.8-0.7-1.4l1.4,0
				c0,0.6,0.3,0.8,0.9,0.8c0.3,0,0.5-0.1,0.7-0.2C66.3,167.9,66.4,167.8,66.5,167.6z"/>
			<path class="st4" d="M69.6,171.2l-0.8-0.4l0.2-0.3c0.2-0.4,0.4-0.9,0.4-1.3v-1.2h1.3l0,1.1c0,0.4-0.1,0.8-0.3,1.2
				C70.2,170.6,69.9,170.9,69.6,171.2z"/>
			<path class="st4" d="M76.5,162v1.4h1v1.1h-1v2.9c0,0.2,0,0.4,0.1,0.5c0.1,0.1,0.2,0.1,0.5,0.1c0.2,0,0.3,0,0.5,0v1.2
				c-0.3,0.1-0.6,0.1-0.9,0.1c-1.1,0-1.6-0.5-1.7-1.6v-3.1h-0.8v-1.1h0.8V162H76.5z"/>
			<path class="st4" d="M79.9,164c0.4-0.5,0.9-0.7,1.6-0.7c1.3,0,1.9,0.7,1.9,2.2v3.7h-1.6v-3.7c0-0.3-0.1-0.6-0.2-0.7
				c-0.1-0.2-0.4-0.2-0.7-0.2c-0.5,0-0.8,0.2-1,0.5v4.1h-1.6V161h1.6V164z"/>
			<path class="st4" d="M87.2,169.3c-0.9,0-1.5-0.3-2.1-0.8c-0.5-0.5-0.8-1.2-0.8-2.1v-0.2c0-0.6,0.1-1.1,0.3-1.6s0.5-0.8,1-1.1
				c0.4-0.2,0.9-0.4,1.4-0.4c0.8,0,1.4,0.3,1.9,0.8c0.5,0.5,0.7,1.2,0.7,2.1v0.6h-3.7c0.1,0.4,0.2,0.7,0.5,0.9
				c0.3,0.2,0.6,0.3,1,0.3c0.6,0,1.1-0.2,1.4-0.6l0.8,0.9c-0.2,0.3-0.5,0.6-0.9,0.8C88.1,169.2,87.7,169.3,87.2,169.3z M87,164.6
				c-0.3,0-0.6,0.1-0.7,0.3c-0.2,0.2-0.3,0.5-0.4,0.9H88v-0.1c0-0.3-0.1-0.6-0.3-0.8C87.6,164.6,87.3,164.6,87,164.6z"/>
			<path class="st4" d="M91.9,163.4l0,0.7c0.4-0.5,1-0.8,1.7-0.8c0.6,0,1.1,0.2,1.4,0.5c0.3,0.4,0.5,0.9,0.5,1.6v3.8h-1.6v-3.7
				c0-0.3-0.1-0.6-0.2-0.7c-0.1-0.1-0.4-0.2-0.7-0.2c-0.4,0-0.8,0.2-1,0.6v4.1h-1.6v-5.8H91.9z"/>
			<path class="st8" d="M101.3,169.2h-1.9v-7.8h1.9V169.2z"/>
			<path class="st8" d="M109.1,168.3c-0.3,0.3-0.7,0.6-1.3,0.8c-0.6,0.2-1.2,0.3-1.8,0.3c-1,0-1.8-0.3-2.5-0.9
				c-0.6-0.6-0.9-1.5-1-2.6l0-0.7c0-0.8,0.1-1.4,0.4-2c0.3-0.6,0.7-1,1.2-1.3s1.1-0.5,1.8-0.5c1,0,1.7,0.2,2.3,0.7
				c0.5,0.4,0.9,1.1,0.9,2h-1.8c-0.1-0.4-0.2-0.7-0.4-0.9c-0.2-0.2-0.5-0.3-0.9-0.3c-0.5,0-0.8,0.2-1.1,0.6c-0.3,0.4-0.4,1-0.4,1.7
				v0.5c0,0.8,0.1,1.4,0.4,1.8c0.3,0.4,0.7,0.6,1.3,0.6c0.5,0,0.9-0.1,1.1-0.3v-1.2h-1.3V165h3.2V168.3z"/>
			<path class="st8" d="M116.7,169.2h-1.9l-2.8-4.9v4.9h-1.9v-7.8h1.9l2.8,4.9v-4.9h1.9V169.2z"/>
			<path class="st8" d="M119.9,169.2H118v-7.8h1.9V169.2z"/>
			<path class="st8" d="M127.2,162.9h-2.3v6.4h-1.9v-6.4h-2.3v-1.5h6.5V162.9z"/>
			<path class="st8" d="M132.8,165.9h-3v1.9h3.5v1.5H128v-7.8h5.4v1.5h-3.5v1.6h3V165.9z"/>
		</g>
		<ellipse class="st2" cx="42" cy="216" rx="24" ry="18"/>
		<ellipse class="st2" cx="90" cy="216" rx="24" ry="18"/>
		<g>
			<g>
				<rect x="27" y="200.3" class="st5" width="24" height="36"/>
				<path class="st8" d="M37.8,213.7c-0.4,0.4-0.9,0.9-1.6,1.6c-0.4-0.4-0.9-0.9-1.6-1.6c0-2.2,0-5.4,0-9.7c0.7,0.7,1.8,1.8,3.2,3.3
					C37.8,208.6,37.8,210.8,37.8,213.7z M37.8,225c-0.7,0.7-1.8,1.8-3.2,3.3c0-2.2,0-5.4,0-9.7c0.4-0.4,0.9-0.9,1.6-1.6
					c0.4,0.4,0.9,0.9,1.6,1.6C37.8,220,37.8,222.1,37.8,225z M48.4,203.9c-0.7,0.7-1.8,1.8-3.2,3.3c-1.5,0-3.6,0-6.5,0
					c-0.7-0.7-1.8-1.8-3.2-3.3C38.3,203.9,42.6,203.9,48.4,203.9z M35.4,228.3c0.7-0.7,1.8-1.8,3.2-3.3c1.5,0,3.6,0,6.5,0
					c0.7,0.7,1.8,1.8,3.2,3.3C45.5,228.3,41.1,228.3,35.4,228.3z M45.9,207.2c0.7-0.7,1.8-1.8,3.3-3.3c0,2.2,0,5.4,0,9.7
					c-0.4,0.4-0.9,0.9-1.7,1.6c-0.4-0.4-0.9-0.9-1.6-1.6C45.9,212.2,45.9,210.1,45.9,207.2z M45.9,218.5c0.4-0.4,0.9-0.9,1.6-1.6
					c0.4,0.4,0.9,0.9,1.7,1.6c0,2.2,0,5.4,0,9.7c-0.7-0.7-1.8-1.8-3.3-3.3C45.9,223.6,45.9,221.4,45.9,218.5z"/>
			</g>
			<g>
				<rect x="75" y="200.3" class="st5" width="24" height="36"/>
				<path class="st8" d="M85.8,225c-0.7,0.7-1.8,1.8-3.2,3.3c0-2.2,0-5.4,0-9.7c0.4-0.4,0.9-0.9,1.6-1.6c0.4,0.4,0.9,0.9,1.6,1.6
					C85.8,220,85.8,222.1,85.8,225z M96.4,203.9c-0.7,0.7-1.8,1.8-3.2,3.3c-1.5,0-3.6,0-6.5,0c-0.7-0.7-1.8-1.8-3.2-3.3
					C86.3,203.9,90.6,203.9,96.4,203.9z M83.4,228.3c0.7-0.7,1.8-1.8,3.2-3.3c1.5,0,3.6,0,6.5,0c0.7,0.7,1.8,1.8,3.2,3.3
					C93.5,228.3,89.1,228.3,83.4,228.3z M84.2,216.1c0.4-0.4,0.9-0.9,1.6-1.6c1.8,0,4.5,0,8.1,0c0.4,0.4,0.9,0.9,1.6,1.6
					c-0.4,0.4-0.9,0.9-1.6,1.7c-1.8,0-4.5,0-8.1,0C85.5,217.3,84.9,216.8,84.2,216.1z M93.9,207.2c0.7-0.7,1.8-1.8,3.3-3.3
					c0,2.2,0,5.4,0,9.7c-0.4,0.4-0.9,0.9-1.7,1.6c-0.4-0.4-0.9-0.9-1.6-1.6C93.9,212.2,93.9,210.1,93.9,207.2z"/>
			</g>
			<g>
				<rect x="123" y="200.3" class="st5" width="24" height="36"/>
				<path class="st8" d="M133.8,213.7c-0.4,0.4-0.9,0.9-1.6,1.6c-0.4-0.4-0.9-0.9-1.6-1.6c0-2.2,0-5.4,0-9.7
					c0.7,0.7,1.8,1.8,3.2,3.3C133.8,208.6,133.8,210.8,133.8,213.7z M132.2,216.1c0.4-0.4,0.9-0.9,1.6-1.6c1.8,0,4.5,0,8.1,0
					c0.4,0.4,0.9,0.9,1.6,1.6c-0.4,0.4-0.9,0.9-1.6,1.7c-1.8,0-4.5,0-8.1,0C133.5,217.3,132.9,216.8,132.2,216.1z M141.9,207.2
					c0.7-0.7,1.8-1.8,3.3-3.3c0,2.2,0,5.4,0,9.7c-0.4,0.4-0.9,0.9-1.7,1.6c-0.4-0.4-0.9-0.9-1.6-1.6
					C141.9,212.2,141.9,210.1,141.9,207.2z M141.9,218.5c0.4-0.4,0.9-0.9,1.6-1.6c0.4,0.4,0.9,0.9,1.7,1.6c0,2.2,0,5.4,0,9.7
					c-0.7-0.7-1.8-1.8-3.3-3.3C141.9,223.6,141.9,221.4,141.9,218.5z"/>
			</g>
		</g>
		<g>
			<rect x="133.7" y="108" class="st5" width="18.2" height="18.2"/>
			<path class="st0" d="M142.2,120.4c-0.4,0.4-0.9,0.9-1.6,1.6c0-1.1,0-2.7,0-4.9c0.2-0.2,0.4-0.4,0.8-0.8c0.2,0.2,0.4,0.4,0.8,0.8
				C142.2,117.9,142.2,118.9,142.2,120.4z M147.5,109.8c-0.4,0.4-0.9,0.9-1.6,1.6c-0.7,0-1.8,0-3.3,0c-0.4-0.4-0.9-0.9-1.6-1.6
				C142.4,109.8,144.6,109.8,147.5,109.8z M141,122c0.4-0.4,0.9-0.9,1.6-1.6c0.7,0,1.8,0,3.3,0c0.4,0.4,0.9,0.9,1.6,1.6
				C146,122,143.9,122,141,122z M141.4,115.9c0.2-0.2,0.4-0.4,0.8-0.8c0.9,0,2.3,0,4,0c0.2,0.2,0.5,0.5,0.8,0.8
				c-0.2,0.2-0.4,0.5-0.8,0.8c-0.9,0-2.2,0-4,0C142,116.5,141.8,116.3,141.4,115.9z M146.3,111.5c0.4-0.4,0.9-0.9,1.6-1.6
				c0,1.1,0,2.7,0,4.9c-0.2,0.2-0.5,0.4-0.8,0.8c-0.2-0.2-0.4-0.4-0.8-0.8C146.3,114,146.3,112.9,146.3,111.5z"/>
		</g>
		<g>
			<circle class="st4" cx="18.9" cy="138.6" r="2.5"/>
			<g>
				<path class="st3" d="M18.5,147.3c-2.3,0-4.4-0.9-6-2.5c-1.6-1.6-2.5-3.7-2.5-6s0.9-4.4,2.5-6l12.7-12.7
					c-0.1-3.4,1.2-6.7,3.6-9.1c2.3-2.3,5.4-3.6,8.7-3.6c0.2,0,0.5,0,0.7,0l1.4,0.1l-5.8,5.8l2.1,8l8,2.1l5.8-5.8l0.1,1.4
					c0.2,3.5-1.1,6.9-3.6,9.4c-2.3,2.3-5.4,3.6-8.7,3.6c0,0-0.3,0-0.4,0l-12.7,12.7C22.9,146.4,20.8,147.3,18.5,147.3z M18.5,136.5
					c-0.6,0-1.2,0.2-1.7,0.7c-0.4,0.4-0.7,1-0.7,1.7c0,0.6,0.2,1.2,0.7,1.7c0.4,0.4,1,0.7,1.7,0.7s1.2-0.2,1.7-0.7
					c0.4-0.4,0.7-1,0.7-1.7c0-0.6-0.2-1.2-0.7-1.7C19.7,136.8,19.1,136.5,18.5,136.5z"/>
				<path class="st4" d="M37.6,108.1c0.2,0,0.4,0,0.6,0l-5.1,5.1l2.3,8.7l8.7,2.3l5.1-5.1c0.2,3.2-0.9,6.5-3.4,8.9
					c-2.3,2.3-5.3,3.4-8.3,3.4c-0.2,0-0.4,0-0.7,0l0,0L24,144.4c-1.5,1.5-3.5,2.3-5.5,2.3s-4-0.8-5.5-2.3c-3-3-3-8,0-11l12.9-12.9
					l0,0c-0.2-3.2,0.9-6.5,3.4-8.9C31.6,109.2,34.6,108.1,37.6,108.1 M18.5,141.9c0.8,0,1.5-0.3,2.1-0.9c1.2-1.2,1.2-3.1,0-4.2
					c-0.6-0.6-1.4-0.9-2.1-0.9c-0.8,0-1.5,0.3-2.1,0.9c-1.2,1.2-1.2,3.1,0,4.2C17,141.6,17.7,141.9,18.5,141.9 M37.6,106.9
					c-3.5,0-6.7,1.3-9.1,3.8c-2.5,2.5-3.8,5.8-3.8,9.3l-12.6,12.6c-3.5,3.5-3.5,9.3,0,12.8c1.7,1.7,4,2.7,6.4,2.7
					c2.4,0,4.7-0.9,6.4-2.7l12.6-12.6c0,0,0.1,0,0.1,0c3.5,0,6.7-1.3,9.1-3.8c2.6-2.6,4-6.2,3.8-9.9l-0.2-2.8l-2,2l-4.6,4.6l-7.3-2
					l-2-7.3l4.6-4.6l2-2l-2.8-0.2C38.1,106.9,37.8,106.9,37.6,106.9L37.6,106.9z M18.5,140.6c-0.5,0-0.9-0.2-1.2-0.5
					c-0.3-0.3-0.5-0.8-0.5-1.2s0.2-0.9,0.5-1.2s0.8-0.5,1.2-0.5c0.5,0,0.9,0.2,1.2,0.5c0.7,0.7,0.7,1.8,0,2.5
					C19.4,140.4,19,140.6,18.5,140.6L18.5,140.6z"/>
			</g>
		</g>
		<g>
			<g>
				<path class="st0" d="M39.9,119.3c-0.4,0.4-0.9,0.9-1.6,1.6c0-1.1,0-2.7,0-4.9c0.2-0.2,0.4-0.4,0.8-0.8c0.2,0.2,0.4,0.4,0.8,0.8
					C39.9,116.7,39.9,117.8,39.9,119.3z M45.2,108.7c-0.4,0.4-0.9,0.9-1.6,1.6c-0.7,0-1.8,0-3.3,0c-0.4-0.4-0.9-0.9-1.6-1.6
					C40.1,108.7,42.3,108.7,45.2,108.7z M38.7,120.9c0.4-0.4,0.9-0.9,1.6-1.6c0.7,0,1.8,0,3.3,0c0.4,0.4,0.9,0.9,1.6,1.6
					C43.7,120.9,41.6,120.9,38.7,120.9z M39.1,114.8c0.2-0.2,0.4-0.4,0.8-0.8c0.9,0,2.3,0,4,0c0.2,0.2,0.5,0.5,0.8,0.8
					c-0.2,0.2-0.4,0.5-0.8,0.8c-0.9,0-2.2,0-4,0C39.7,115.4,39.5,115.1,39.1,114.8z M44,110.4c0.4-0.4,0.9-0.9,1.6-1.6
					c0,1.1,0,2.7,0,4.9c-0.2,0.2-0.5,0.4-0.8,0.8c-0.2-0.2-0.4-0.4-0.8-0.8C44,112.9,44,111.8,44,110.4z"/>
			</g>
		</g>
		<g>
			<defs>
				<path id="SVGID_1_" d="M171,252H9c-5,0-9-4-9-9V9c0-5,4-9,9-9h162c5,0,9,4,9,9v234C180,248,176,252,171,252z"/>
			</defs>
			<clipPath id="SVGID_2_">
				<use xlink:href="#SVGID_1_"  style="overflow:visible;"/>
			</clipPath>
			<g class="st10">
				<path class="st4" d="M0,18c9.9,0,18-8.1,18-18H0V18z"/>
				<path class="st4" d="M180,234c-9.9,0-18,8.1-18,18h18V234z"/>
				<path class="st4" d="M162,0c0,9.9,8.1,18,18,18V0L162,0z"/>
				<path class="st4" d="M18,252c0-9.9-8.1-18-18-18l0,18H18z"/>
			</g>
		</g>
	</g>
</g>
<g id="Layer_2" class="st11">
	<g class="st12">
		<g>
			<polyline class="st13" points="188,252 188,258 182,258 			"/>
			<line class="st14" x1="170.8" y1="258" x2="19.6" y2="258"/>
			<polyline class="st13" points="14,258 8,258 8,252 			"/>
			<line class="st15" x1="8" y1="240.6" x2="8" y2="17.7"/>
			<polyline class="st13" points="8,12 8,6 14,6 			"/>
			<line class="st14" x1="25.2" y1="6" x2="176.4" y2="6"/>
			<polyline class="st13" points="182,6 188,6 188,12 			"/>
			<line class="st15" x1="188" y1="23.4" x2="188" y2="246.3"/>
		</g>
	</g>
</g>
</svg>
