<svg xmlns="http://www.w3.org/2000/svg" viewBox="0 0 61.3 63">
<path fill="#666" d="M57.7,31.5c0-1.1-0.1-2.2-0.2-3.2l3.9-6.7L54.6,9.9h-7.7c-1.7-1.3-3.6-2.4-5.6-3.2L37.4,0H23.9l-3.8,6.7c-2,0.9-3.8,2-5.6,3.2H6.8L0,21.6l3.9,6.7c-0.1,1.1-0.2,2.1-0.2,3.2c0,1.1,0.1,2.2,0.2,3.2L0,41.4l6.8,11.7h7.7c1.7,1.3,3.6,2.4,5.6,3.2l3.8,6.7h13.5l3.8-6.7c2-0.9,3.8-2,5.6-3.2h7.7l6.8-11.7l-3.9-6.7C57.6,33.7,57.7,32.6,57.7,31.5zM44.2,31.5c0,7.5-6,13.5-13.5,13.5s-13.5-6-13.5-13.5c0-7.5,6-13.5,13.5-13.5S44.2,24,44.2,31.5z"/>
</svg>